<?xml version="1.0" encoding="UTF-8"?>
<svg width="1178px" height="403px" viewBox="0 0 1178 403" version="1.1" xmlns="http://www.w3.org/2000/svg" xmlns:xlink="http://www.w3.org/1999/xlink">
    <title>吸管备份</title>
    <defs>
        <rect id="path-1" x="0" y="0" width="1178" height="403" rx="16"></rect>
        <filter x="-12.1%" y="-42.1%" width="124.1%" height="184.2%" filterUnits="objectBoundingBox" id="filter-3">
            <feGaussianBlur stdDeviation="40" in="SourceGraphic"></feGaussianBlur>
        </filter>
        <linearGradient x1="15.836133%" y1="45.9692283%" x2="97.1736012%" y2="52.8191828%" id="linearGradient-4">
            <stop stop-color="#5E85FF" stop-opacity="0.200721154" offset="0%"></stop>
            <stop stop-color="#49FFF3" stop-opacity="0.202961101" offset="100%"></stop>
        </linearGradient>
        <linearGradient x1="11.317145%" y1="4.73373782%" x2="97.1736012%" y2="81.6599101%" id="linearGradient-5">
            <stop stop-color="#5E85FF" offset="0%"></stop>
            <stop stop-color="#EBC8FE" offset="39.100743%"></stop>
            <stop stop-color="#5274FF" offset="75.8142788%"></stop>
            <stop stop-color="#49FFF3" offset="100%"></stop>
        </linearGradient>
        <filter x="-0.3%" y="-0.3%" width="100.6%" height="100.6%" filterUnits="objectBoundingBox" id="filter-6">
            <feGaussianBlur stdDeviation="0" in="SourceGraphic"></feGaussianBlur>
        </filter>
        <polygon id="path-7" points="0 0 167.38119 0 167.38119 161.46768 0 161.46768"></polygon>
        <linearGradient x1="15.836133%" y1="48.5410519%" x2="97.1736012%" y2="51.0204104%" id="linearGradient-9">
            <stop stop-color="#5E85FF" stop-opacity="0.200721154" offset="0%"></stop>
            <stop stop-color="#49FFF3" stop-opacity="0.202961101" offset="100%"></stop>
        </linearGradient>
        <linearGradient x1="15.836133%" y1="36.5845453%" x2="97.1736012%" y2="59.3829724%" id="linearGradient-10">
            <stop stop-color="#5E85FF" stop-opacity="0.200721154" offset="0%"></stop>
            <stop stop-color="#49FFF3" stop-opacity="0.202961101" offset="100%"></stop>
        </linearGradient>
        <linearGradient x1="15.836133%" y1="49.1829801%" x2="97.1736012%" y2="50.5714361%" id="linearGradient-11">
            <stop stop-color="#5E85FF" stop-opacity="0.200721154" offset="0%"></stop>
            <stop stop-color="#49FFF3" stop-opacity="0.202961101" offset="100%"></stop>
        </linearGradient>
        <linearGradient x1="15.836133%" y1="49.4664904%" x2="97.1736012%" y2="50.3731447%" id="linearGradient-12">
            <stop stop-color="#5E85FF" stop-opacity="0.200721154" offset="0%"></stop>
            <stop stop-color="#49FFF3" stop-opacity="0.202961101" offset="100%"></stop>
        </linearGradient>
        <linearGradient x1="15.836133%" y1="49.5302057%" x2="97.1736012%" y2="50.3285812%" id="linearGradient-13">
            <stop stop-color="#5E85FF" stop-opacity="0.200721154" offset="0%"></stop>
            <stop stop-color="#49FFF3" stop-opacity="0.202961101" offset="100%"></stop>
        </linearGradient>
        <linearGradient x1="15.836133%" y1="49.1894687%" x2="97.1736012%" y2="50.5668979%" id="linearGradient-14">
            <stop stop-color="#5E85FF" stop-opacity="0.200721154" offset="0%"></stop>
            <stop stop-color="#49FFF3" stop-opacity="0.202961101" offset="100%"></stop>
        </linearGradient>
        <linearGradient x1="15.836133%" y1="3.83720833e-13%" x2="97.1736012%" y2="84.9707581%" id="linearGradient-15">
            <stop stop-color="#5E85FF" stop-opacity="0.200721154" offset="0%"></stop>
            <stop stop-color="#49FFF3" stop-opacity="0.202961101" offset="100%"></stop>
        </linearGradient>
        <linearGradient x1="76.6528037%" y1="89.199%" x2="25.620666%" y2="12.194%" id="linearGradient-16">
            <stop stop-color="#0867DF" offset="0.06%"></stop>
            <stop stop-color="#0668E1" offset="45.39%"></stop>
            <stop stop-color="#0064E0" offset="85.91%"></stop>
        </linearGradient>
        <linearGradient x1="21.67%" y1="75.1402812%" x2="97.068%" y2="24.7227172%" id="linearGradient-17">
            <stop stop-color="#0064DF" offset="13.23%"></stop>
            <stop stop-color="#0064E0" offset="99.88%"></stop>
        </linearGradient>
        <linearGradient x1="37.9204558%" y1="89.127%" x2="61.2129705%" y2="16.131%" id="linearGradient-18">
            <stop stop-color="#0072EC" offset="1.47%"></stop>
            <stop stop-color="#0064DF" offset="68.81%"></stop>
        </linearGradient>
        <linearGradient x1="46.945379%" y1="90.19%" x2="52.2127477%" y2="15.745%" id="linearGradient-19">
            <stop stop-color="#007CF6" offset="7.31%"></stop>
            <stop stop-color="#0072EC" offset="99.43%"></stop>
        </linearGradient>
        <linearGradient x1="52.155%" y1="66.539083%" x2="47.591%" y2="24.1065026%" id="linearGradient-20">
            <stop stop-color="#007FF9" offset="7.31%"></stop>
            <stop stop-color="#007CF6" offset="100%"></stop>
        </linearGradient>
        <linearGradient x1="37.689%" y1="13.565345%" x2="61.961%" y2="63.2376591%" id="linearGradient-21">
            <stop stop-color="#007FF9" offset="7.31%"></stop>
            <stop stop-color="#0082FB" offset="100%"></stop>
        </linearGradient>
        <linearGradient x1="34.3646216%" y1="68.859%" x2="62.6723548%" y2="23.174%" id="linearGradient-22">
            <stop stop-color="#007FF8" offset="27.99%"></stop>
            <stop stop-color="#0082FB" offset="91.41%"></stop>
        </linearGradient>
        <linearGradient x1="43.579944%" y1="6.235%" x2="57.8238643%" y2="98.514%" id="linearGradient-23">
            <stop stop-color="#0082FB" offset="0%"></stop>
            <stop stop-color="#0081FA" offset="99.95%"></stop>
        </linearGradient>
        <linearGradient x1="60.3484551%" y1="4.661%" x2="39.5846479%" y2="69.077%" id="linearGradient-24">
            <stop stop-color="#0081FA" offset="6.19%"></stop>
            <stop stop-color="#0080F9" offset="100%"></stop>
        </linearGradient>
        <linearGradient x1="29.7065304%" y1="59.32%" x2="61.4043989%" y2="33.244%" id="linearGradient-25">
            <stop stop-color="#027AF3" offset="0%"></stop>
            <stop stop-color="#0080F9" offset="100%"></stop>
        </linearGradient>
        <linearGradient x1="20.433%" y1="50.001%" x2="82.112%" y2="50.001%" id="linearGradient-26">
            <stop stop-color="#0377EF" offset="0%"></stop>
            <stop stop-color="#0279F1" offset="99.94%"></stop>
        </linearGradient>
        <linearGradient x1="40.0199932%" y1="35.298%" x2="73.0475686%" y2="57.811%" id="linearGradient-27">
            <stop stop-color="#0471E9" offset="0.19%"></stop>
            <stop stop-color="#0377EF" offset="100%"></stop>
        </linearGradient>
        <linearGradient x1="31.7360832%" y1="19.719%" x2="68.5284174%" y2="84.908%" id="linearGradient-28">
            <stop stop-color="#0867DF" offset="27.65%"></stop>
            <stop stop-color="#0471E9" offset="100%"></stop>
        </linearGradient>
        <radialGradient cx="67.9819475%" cy="18.9909041%" fx="67.9819475%" fy="18.9909041%" r="194.703262%" gradientTransform="translate(0.6798, 0.1899), scale(0.3617, 1), rotate(160.1307), translate(-0.6798, -0.1899)" id="radialGradient-29">
            <stop stop-color="#1C69FF" offset="0%"></stop>
            <stop stop-color="#94BCFE" offset="100%"></stop>
        </radialGradient>
    </defs>
    <g id="官网3" stroke="none" stroke-width="1" fill="none" fill-rule="evenodd">
        <g id="coco-AI-eng-light" transform="translate(-372, -9578)">
            <g id="吸管备份" transform="translate(372, 9578)">
                <mask id="mask-2" fill="white">
                    <use xlink:href="#path-1"></use>
                </mask>
                <g id="矩形备份-45"></g>
                <g id="编组-22" mask="url(#mask-2)">
                    <g transform="translate(8, 0)">
                        <rect id="search背景框-dark备份" stroke="none" fill="#2FC6C7" opacity="0.556896391" filter="url(#filter-3)" x="83.7728614" y="241" width="994.454277" height="285" rx="12"></rect>
                        <rect id="search背景框-dark备份" stroke="url(#linearGradient-4)" stroke-width="2" fill="#EBF6FF" x="22" y="209" width="1118" height="316" rx="12"></rect>
                        <g id="coco" opacity="0.299804688" stroke="none" stroke-width="1" fill="none" transform="translate(376.7721, 270.6251)">
                            <path d="M71.78459,19.6216169 C56.8997097,31.9481623 46.5395011,41.1078453 40.7039642,47.1006659 C29.399416,58.7099026 20.2361881,70.4740058 15.6410075,80.4149762 C8.75944887,95.3021758 3.93096315,112.150199 1.15555037,130.959044 C-10.4062977,209.313161 66.2067842,319.690939 167.615469,313.375752 C269.024154,307.060565 326.856308,217.388295 329.381394,159.909472 C331.906479,102.430649 314.514204,60.5193738 296.60205,64.5447664 C278.689896,68.5701589 253.974497,82.2359187 259.497778,89.083732 C265.021059,95.9315453 312.777634,159.913053 282.812185,221.520143 C252.846735,283.127233 224.418468,303.612599 179.302505,308.494175 C206.64963,272.160555 207.956936,233.717448 183.224422,193.164853 C146.125652,132.335961 216.098213,300.348812 171.858786,300.348812 C127.61936,300.348812 78.3884426,251.343888 66.3058072,152.550865 C58.2507168,86.6888502 54.9169437,86.6888502 56.3044877,152.550865 C62.972034,235.340542 100.075694,287.321645 167.615469,308.494175 C144.928045,311.04775 126.661727,308.332628 112.816515,300.348812 C42.3275827,259.701493 -2.69440979,174.757469 15.9783021,89.450431 C17.6729475,82.8236871 20.1589129,80.0361111 23.4361984,81.0877028 C31.1526546,83.2547114 186.182952,162.934938 301.728082,61.3609764 C287.154,49.8857178 277.021173,41.837267 271.329601,37.2156241 C257.121865,25.6787266 247.548603,16.937369 236.992059,18.6758661 C211.64218,22.8505931 184.647579,42.9925766 155.943436,47.1006659 C127.239292,51.2087552 98.0279973,50.655897 73.987422,23.7060099 C82.0425123,32.2274334 87.9826677,35.4627154 91.8078881,33.4118559 C97.5457188,30.3355666 160.953513,12.0463094 189.919819,23.7060099 C209.23069,31.4791437 224.921437,33.2187937 236.992059,28.9249601 C231.929322,14.8721875 217.011611,5.68045197 192.238925,1.34975346 C167.466238,-2.98094506 127.314793,3.10967608 71.78459,19.6216169 Z" id="路径-9" stroke="url(#linearGradient-5)" stroke-width="2" filter="url(#filter-6)"></path>
                        </g>
                        <g id="hand" stroke="none" stroke-width="1" fill="none" transform="translate(719.6651, 150.2941) rotate(6) translate(-719.6651, -150.2941)translate(594.8067, 13.3529)">
                            <g id="编组" transform="translate(82.3356, -0)">
                                <mask id="mask-8" fill="white">
                                    <use xlink:href="#path-7"></use>
                                </mask>
                                <g id="Clip-2"></g>
                                <path d="M167.381568,98.1884797 L119.77865,42.9441494 C119.77865,42.9441494 109.147675,-0.90033818 96.7469682,0.0141078315 C82.423076,1.07029925 94.8501971,44.5046032 94.8501971,44.5046032 C94.8501971,44.5046032 65.5496114,-2.55988835 36.149659,27.7196895 L37.2691062,28.3205395 C26.4922262,26.7651032 15.302786,29.0217402 5.85414892,39.1772339 C0.508474338,44.9223131 -4.77808337,56.9882338 12.8362288,59.0993623 C-0.326708702,67.8010248 -3.62215985,83.8621589 4.13850183,88.3553627 C18.4850346,96.6631486 28.9851973,73.8973315 44.9681354,90.2871142 C57.3223038,102.956394 43.2386524,115.655778 34.8075802,114.142991 C21.2308246,111.706977 15.399637,81.9241354 3.68443394,97.5249105 C-10.8331604,116.857478 25.0067576,165.254126 77.0396672,161.231316" id="Fill-1" fill="#59DCF9" mask="url(#mask-8)"></path>
                            </g>
                            <path d="M146.218552,63.7259109 C146.660747,63.7259109 147.087867,63.4955094 147.317759,63.0857683 C147.65443,62.4842335 147.437101,61.7257766 146.830339,61.3920058 C136.64854,55.780172 110.91453,44.4083002 91.8523941,59.9647617 C91.3172372,60.4031473 91.2406068,61.1865125 91.6802896,61.7183041 C92.122485,62.2488503 92.9114017,62.326066 93.449071,61.8889258 C111.314014,47.3063777 135.877211,58.2062377 145.606764,63.5689888 C145.802737,63.6760943 146.012529,63.7259109 146.218552,63.7259109" id="Fill-3" fill="#000000"></path>
                            <path d="M162.182438,52.1002379 C162.497536,52.1002379 162.813889,51.9815764 163.05743,51.742991 C163.554556,51.2557214 163.565855,50.4566497 163.082538,49.9580188 C150.800005,37.267548 135.586185,29.4472489 117.861626,26.7117222 C117.17745,26.6018972 116.535956,27.079068 116.430505,27.7683147 C116.325054,28.4575614 116.795817,29.1013632 117.481249,29.2074012 C134.653445,31.85835 149.390225,39.4324896 161.282338,51.7190063 C161.529646,51.9727399 161.856042,52.1002379 162.182438,52.1002379" id="Fill-5" fill="#000000"></path>
                            <polyline id="路径-2" fill="#FFFFFF" points="-1.80724726e-14 267.864489 109.023201 39.9343828 199.178609 26.729158 200.686634 39.9343828 120.22184 50.1573615 14.4953138 273.882353"></polyline>
                            <path d="M86.0199847,97.5249105 C97.5237283,82.2057294 103.353952,110.646603 116.41544,113.98478 L116.415742,136.063431 L95.8015969,136.06386 C83.6011849,122.487155 79.1156475,106.719173 86.0199847,97.5249105 Z" id="形状结合" fill="#59DCF9"></path>
                            <path d="M14.1717074,272.511027 C12.05125,274.617982 7.32734755,273.069136 2.56776574e-12,267.864489 L23.8937283,217.910901" id="路径" stroke="#DBA8FE" stroke-width="2.58836892" stroke-linecap="round" stroke-linejoin="round"></path>
                            <polyline id="路径" stroke="#DBA8FE" stroke-width="2.58836892" stroke-linecap="round" stroke-linejoin="round" points="39.8551518 184.541041 109.023201 39.9343828 172.878134 30.5474244"></polyline>
                            <path d="M119.790445,49.2962005 C118.655852,45.6903521 116.336963,43.6153347 112.833777,43.0711484" id="路径-6" stroke="#DBA8FE" stroke-width="2.58836892" stroke-linecap="round" stroke-linejoin="round"></path>
                            <path d="M117.633471,54.8937467 C116.498878,51.2878983 114.179989,49.2128809 110.676802,48.6686947" id="路径-6备份" stroke="#DBA8FE" stroke-width="2.58836892" stroke-linecap="round" stroke-linejoin="round"></path>
                            <path d="M103.278365,86.2870994 L114.613707,60.0607125 C113.427087,56.6160686 111.105378,54.5712885 107.648581,53.926372" id="路径-6备份-2" stroke="#DBA8FE" stroke-width="2.58836892" stroke-linecap="round" stroke-linejoin="round"></path>
                            <line x1="65.3419531" y1="163.925649" x2="30.665479" y2="237.157873" id="路径-3" stroke="#DBA8FE" stroke-width="2.58836892" stroke-linecap="round" stroke-linejoin="round"></line>
                            <path d="M191.440614,41.1131292 L200.686634,39.9343828 C199.367545,36.7313136 199.037773,34.3660533 199.697317,32.8386017" id="路径-4" stroke="#DBA8FE" stroke-width="2.58836892" stroke-linecap="round" stroke-linejoin="round"></path>
                        </g>
                        <rect id="矩形备份-41" stroke="url(#linearGradient-9)" stroke-width="2" fill="#EBF6FF" x="794.818463" y="225" width="279" height="46" rx="8"></rect>
                        <path d="M1066.87826,284.6 C1068.81126,284.6 1070.56126,285.383502 1071.82801,286.650253 C1073.09476,287.917003 1073.87826,289.667003 1073.87826,291.6 L1073.87826,419.6 C1073.87826,421.532997 1073.09476,423.282997 1071.82801,424.549747 C1070.56126,425.816498 1068.81126,426.6 1066.87826,426.6 L804.878261,426.6 C802.945264,426.6 801.195264,425.816498 799.928513,424.549747 C798.661763,423.282997 797.878261,421.532997 797.878261,419.6 L797.878261,291.6 C797.878261,289.667003 798.661763,287.917003 799.928513,286.650253 C801.195264,285.383502 802.945264,284.6 804.878261,284.6 Z" id="矩形备份-42" stroke="url(#linearGradient-10)" stroke-width="2" fill="#EBF6FF"></path>
                        <rect id="矩形备份-24" stroke="url(#linearGradient-11)" stroke-width="2" fill="#EBF6FF" x="38" y="328.240506" width="166.341232" height="19.5189873" rx="5"></rect>
                        <rect id="矩形备份-28" stroke="url(#linearGradient-12)" stroke-width="2" fill="#EBF6FF" x="38" y="289" width="206.322275" height="19.5189873" rx="5"></rect>
                        <rect id="矩形备份-25" stroke="url(#linearGradient-13)" stroke-width="2" fill="#EBF6FF" x="38" y="367.481013" width="220" height="19.5189873" rx="5"></rect>
                        <rect id="输入框备份-3" stroke="url(#linearGradient-14)" stroke-width="2" fill="#EBF6FF" x="38" y="225" width="375" height="46" rx="4"></rect>
                        <g id="搜索" stroke="none" stroke-width="1" fill="none" transform="translate(48, 236)">
                            <rect id="矩形" fill="#A6BAF2" fill-rule="nonzero" opacity="0" x="0" y="0" width="24" height="24"></rect>
                            <path d="M10.9999922,2.50000781 C15.6945,2.50000781 19.5000078,6.30550781 19.5000078,10.9999922 C19.5000078,13.0174922 18.7969922,14.871 17.6230078,16.3285078 C17.7199002,16.3471365 17.8089329,16.3945237 17.8785,16.4644922 L21.0604922,19.6465078 C21.2556823,19.8417551 21.2556823,20.1582528 21.0604922,20.3535 L20.3535,21.0604922 C20.1582528,21.2556823 19.8417551,21.2556823 19.6465078,21.0604922 L16.4644922,17.8785 C16.3944776,17.8088237 16.3467885,17.7198829 16.3275,17.6230078 C14.8191437,18.8405388 12.9384221,19.5031563 10.9999922,19.5000078 C6.30550781,19.5000078 2.50000781,15.6945 2.50000781,10.9999922 C2.50000781,6.30548438 6.30550781,2.50000781 10.9999922,2.50000781 L10.9999922,2.50000781 Z M11,4.5 C7.41,4.5 4.5,7.41 4.5,11 C4.5,14.5899844 7.41,17.5 11,17.5 C14.5899844,17.5 17.5,14.5900078 17.5,11 C17.5,7.40997656 14.5900078,4.5 11,4.5 Z" id="形状" fill="#A6BAF2" fill-rule="nonzero"></path>
                        </g>
                        <g id="编组-21" stroke="none" stroke-width="1" fill="none">
                            <circle id="椭圆形备份" stroke="url(#linearGradient-15)" stroke-width="2" fill="#EBF6FF" cx="234" cy="121" r="19"></circle>
                            <circle id="椭圆形备份-14" stroke="url(#linearGradient-15)" stroke-width="2" fill="#EBF6FF" cx="298" cy="46" r="11"></circle>
                            <g id="编组-8" transform="translate(128, 0)">
                                <circle id="椭圆形" stroke="url(#linearGradient-15)" stroke-width="2" fill="#EBF6FF" cx="43" cy="43" r="42"></circle>
                                <g id="编组备份-13" transform="translate(15, 19)" fill-rule="nonzero">
                                    <polygon id="路径" fill="#FFC107" points="19 1.85986079e-15 37.9983297 1.85986079e-15 56.9983297 32.6666667 38 32.6666667"></polygon>
                                    <polygon id="路径" fill="#1976D2" points="9.32879121 49 18.9164835 32.6666667 57 32.6666667 47.4991648 49"></polygon>
                                    <polygon id="路径" fill="#4CAF50" points="0 32.8375385 9.32879121 49 28.4991648 16.3333333 18.9983297 0"></polygon>
                                </g>
                            </g>
                            <g id="编组-5" transform="translate(914, 184)">
                                <circle id="椭圆形备份-7" stroke="url(#linearGradient-15)" stroke-width="2" fill="#EBF6FF" cx="27.5" cy="27.5" r="26.5"></circle>
                                <g id="meta-color" transform="translate(10, 16)" fill-rule="nonzero">
                                    <path d="M10.0582529,0 L10.0232531,0 L9.97804501,3.7590625 L10.0101282,3.7590625 C12.511157,3.7590625 14.4521887,5.70975 18.6725837,12.7376875 L18.9277908,13.164625 L18.9452907,13.193375 L21.3077786,9.68875 L21.2902787,9.6614375 C20.7740163,8.8282858 20.2401526,8.00585637 19.6890369,7.1946875 C19.1464439,6.39418291 18.5748989,5.61311837 17.975504,4.853 C15.1857266,1.33975 12.8509469,0 10.0567946,0 L10.0582529,0 Z" id="路径" fill="url(#linearGradient-16)"></path>
                                    <path d="M10.0232531,0 C7.2188925,0.014375 4.73536357,1.808375 2.94599775,4.556875 C2.94111795,4.56500997 2.93625685,4.57315582 2.93141449,4.5813125 L6.21848096,6.350875 L6.23452255,6.3264375 C7.28160051,4.769625 8.58242717,3.7763125 9.97950334,3.7605 L10.0101282,3.7605 L10.0567946,0 L10.0232531,0 Z" id="路径" fill="url(#linearGradient-17)"></path>
                                    <path d="M2.94453942,4.556875 L2.92849784,4.5813125 C1.75017055,6.3925625 0.872258388,8.6178125 0.399760811,11.017 L0.392469182,11.048625 L4.08786689,11.911125 L4.0937002,11.8795 C4.48744818,9.7706875 5.23994432,7.81425 6.21702264,6.3523125 L6.23306422,6.327875 L2.94599775,4.556875 L2.94453942,4.556875 Z" id="路径" fill="url(#linearGradient-18)"></path>
                                    <path d="M4.0937002,11.8795 L0.399760811,11.017 L0.392469182,11.048625 C0.134345506,12.36825 0.00309617934,13.7094375 0.000179527635,15.0535 L0.000179527635,15.0865625 L3.78891009,15.4215 L3.78891009,15.3884375 C3.77512428,14.2122392 3.87769214,13.0375172 4.09515852,11.8809375 L4.0937002,11.8795 Z" id="路径" fill="url(#linearGradient-19)"></path>
                                    <path d="M3.90411784,17.2482572 C3.83617658,16.6952519 3.79766634,16.135842 3.78891009,15.574719 L3.78891009,15.5294326 L0.000179527637,15.04775 L0.000179527637,15.0971533 C-0.00407234911,16.2375739 0.0672095986,17.3760588 0.213095102,18.49775 L3.90995114,17.2935436 C3.90797759,17.2784556 3.90603315,17.2633601 3.90411784,17.2482572 L3.90411784,17.2482572 Z" id="路径" fill="url(#linearGradient-20)"></path>
                                    <path d="M4.76890507,18.529375 C4.35474052,18.08375 4.06307535,17.442625 3.90995114,16.620375 L3.90411784,16.5901875 L0.207261799,17.431125 L0.213095102,17.4613125 C0.493093666,18.9131875 1.04142419,20.1206875 1.8260035,21.036375 L1.84642006,21.0608125 L4.78932163,18.552375 C4.78198955,18.5447458 4.77469782,18.537079 4.76744674,18.529375 L4.76890507,18.529375 Z" id="路径" fill="url(#linearGradient-21)"></path>
                                    <path d="M15.7209322,8.127625 C13.4926103,11.50575 12.1422006,13.6260625 12.1422006,13.6260625 C9.17450747,18.2260625 8.14784607,19.25675 6.4970212,19.25675 C5.84004287,19.2736267 5.20833555,19.0069112 4.76744674,18.5265 L1.8260035,21.0335 L1.84642006,21.0579375 C2.93141449,22.307125 4.45973999,23 6.35264694,23 C9.21534059,23 11.2730384,21.666 14.9334363,15.338125 L17.5088397,10.83875 C16.9374836,9.91918465 16.3408068,9.01514064 15.7194739,8.127625 L15.7209322,8.127625 Z" id="路径" fill="#0082FB"></path>
                                    <path d="M19.6904952,2.797375 L19.667162,2.820375 C19.0838316,3.4385 18.5209179,4.125625 17.975504,4.855875 C18.5267512,5.5501875 19.0954982,6.327875 19.6890369,7.199 C20.3890333,6.1309375 21.0423633,5.2655625 21.6825683,4.6014375 L21.7059015,4.5784375 L19.6904952,2.7959375 L19.6904952,2.797375 Z" id="路径" fill="url(#linearGradient-22)"></path>
                                    <path d="M30.5054397,2.4624375 C28.9523227,0.9099375 27.1002489,0 25.1198423,0 C23.0315197,0 21.2742371,1.1313125 19.6904952,2.7945 L19.667162,2.8175 L21.6825683,4.6 L21.7059015,4.5755625 C22.7486045,3.50175 23.7592243,2.9655625 24.8792186,2.9655625 C26.0837957,2.9655625 27.2125399,3.5261875 28.1896183,4.510875 L28.2114932,4.533875 L30.5287729,2.4854375 L30.5054397,2.4624375 L30.5054397,2.4624375 Z" id="路径" fill="#0082FB"></path>
                                    <path d="M34.9970833,14.5546875 C34.9095838,9.570875 33.1450095,5.1160625 30.5287729,2.4854375 L30.5054397,2.4624375 L28.1896183,4.5094375 L28.2114932,4.5324375 C30.1802331,6.5334375 31.5321011,10.2536875 31.6546005,14.55325 L31.6546005,14.5863125 L34.9970833,14.5863125 L34.9970833,14.5546875 L34.9970833,14.5546875 Z" id="路径" fill="url(#linearGradient-23)"></path>
                                    <path d="M34.9970833,14.590625 L34.9970833,14.5575625 L31.6546005,14.5575625 L31.6546005,14.5891875 C31.6604338,14.7904375 31.6633504,14.9945625 31.6633504,15.1986875 C31.6633504,16.37025 31.486893,17.3175625 31.1266865,18.0018125 L31.110645,18.0334375 L33.6014655,20.5950625 L33.6204237,20.5663125 C34.5245858,19.1863125 35,17.270125 35,14.9456875 C35,14.826375 35,14.7085 34.9970833,14.590625 L34.9970833,14.590625 Z" id="路径" fill="url(#linearGradient-24)"></path>
                                    <path d="M31.1266865,17.9975 L31.110645,18.02625 C30.7985632,18.604125 30.3537738,18.989375 29.7733601,19.1575625 L30.9079377,22.6966875 C31.1266209,22.6238456 31.3400284,22.5364358 31.5466844,22.4350625 C32.3542308,22.0326426 33.0409744,21.4290492 33.5387575,20.6841875 L33.6029238,20.59075 L33.6204237,20.562 L31.1266865,17.9975 L31.1266865,17.9975 Z" id="路径" fill="url(#linearGradient-25)"></path>
                                    <path d="M29.0500305,19.2524375 C28.6679491,19.2524375 28.3325342,19.196375 28.0029526,19.0511875 L26.8392085,22.6765625 C27.4939968,22.8965 28.1910766,22.9956875 28.9683643,22.9956875 C29.6858606,22.9956875 30.3435656,22.89075 30.9400208,22.686625 L29.8025267,19.1475 C29.5589862,19.219375 29.3052375,19.2553125 29.0485722,19.2524375 L29.0500305,19.2524375 Z" id="路径" fill="url(#linearGradient-26)"></path>
                                    <path d="M26.7210841,18.017625 L26.7006676,17.9931875 L24.0231813,20.7445625 L24.0465145,20.769 C24.9754681,21.749375 25.8635885,22.3574375 26.8712917,22.6909375 L28.0335774,19.0684375 C27.6092046,18.88875 27.1979567,18.561 26.7210841,18.017625 L26.7210841,18.017625 Z" id="路径" fill="url(#linearGradient-27)"></path>
                                    <path d="M26.7006676,17.9903125 C25.8985884,17.0674375 24.9040101,15.5293125 23.3421431,13.0453125 L21.3063202,9.6873125 L21.2902787,9.6585625 L18.9277908,13.1631875 L18.9452907,13.1919375 L20.387575,15.5896875 C21.7861094,17.9040625 22.9250619,19.5773125 24.0231813,20.743125 L24.0465145,20.766125 L26.7210841,18.01475 C26.71424,18.0066356 26.7074344,17.9984897 26.7006676,17.9903125 L26.7006676,17.9903125 Z" id="路径" fill="url(#linearGradient-28)"></path>
                                </g>
                            </g>
                            <g id="编组-17" transform="translate(925, 85)">
                                <circle id="椭圆形备份-15" stroke="url(#linearGradient-15)" stroke-width="2" fill="#EBF6FF" cx="30" cy="30" r="29"></circle>
                                <g id="gemini-brand-color" transform="translate(6, 19)" fill="url(#radialGradient-29)" fill-rule="nonzero">
                                    <path d="M11.5612167,11.4551611 C11.5612167,13.029135 11.0873,14.2832144 10.1394667,15.2166265 C9.07491667,16.3285305 7.6751,16.8840962 5.9408,16.8840962 C4.28013333,16.8840962 2.87405,16.3177128 1.72411667,15.1841734 C0.574966667,14.0529521 0,12.6566974 0,11.0000455 C0,9.34262079 0.574966667,7.94791146 1.72411667,6.81437207 C2.87483333,5.68083269 4.27935,5.11522204 5.94001667,5.11522204 C6.78131667,5.11522204 7.57405,5.26203354 8.319,5.55565656 C9.06473333,5.84927958 9.67651667,6.26421526 10.1559167,6.79891823 L9.10155,7.83741648 C8.75061667,7.41784464 8.29471667,7.09022317 7.7362,6.85377937 C7.1682788,6.61598105 6.55696993,6.49553792 5.94001667,6.49988637 C4.69451667,6.49988637 3.64093333,6.92486705 2.77848333,7.77482842 C1.927,8.63483478 1.50165,9.70964956 1.50165,11.0000455 C1.50165,12.2904413 1.927,13.3652561 2.77848333,14.2260352 C3.64015,15.0759965 4.69451667,15.5009772 5.94001667,15.5009772 C7.07898333,15.5009772 8.02681667,15.1857188 8.78273333,14.5559747 C9.53786667,13.9270033 9.97496667,13.0615881 10.0916833,11.9597291 L5.94001667,11.9597291 L5.94001667,10.6067451 L11.4813167,10.6067451 C11.5345833,10.9003682 11.5612167,11.1839462 11.5612167,11.4567065 M16.1719167,8.70360438 C17.3437833,8.70360438 18.2767333,9.07681469 18.9699833,9.824008 C19.6640167,10.5712013 20.0110333,11.6166538 20.0110333,12.9626835 L19.9945833,13.1218581 L13.7843167,13.1218581 C13.80625,13.8845052 14.0639667,14.4995682 14.5590333,14.9655016 C15.0319387,15.4231292 15.6708906,15.6749598 16.3332833,15.664788 C17.27955,15.664788 18.0213667,15.1988546 18.5587333,14.2662152 L19.8817833,14.9021408 C19.5441894,15.5409668 19.0332421,16.0746678 18.4059833,16.4436617 C17.7769667,16.8145539 17.0641333,17 16.2682667,17 C15.1073667,17 14.1501333,16.6082451 13.39735,15.8239625 C12.64535,15.03968 12.2685667,14.0490887 12.2685667,12.8514158 C12.2685667,11.6645607 12.6343833,10.6770601 13.3652333,9.88736876 C14.0968667,9.09767738 15.0321667,8.70360438 16.1719167,8.70360438 M16.1398,10.0380437 C15.5805,10.0380437 15.0995333,10.208036 14.6961167,10.5472479 C14.2927,10.885687 14.0263667,11.3415754 13.8971167,11.9141403 L18.4302667,11.9141403 C18.3983329,11.3960873 18.1570682,10.9123191 17.7605167,10.5712013 C17.3571,10.2157629 16.8173833,10.0380437 16.1390167,10.0380437 M22.4440667,16.7218308 L20.9635667,16.7218308 L20.9635667,8.95550202 L22.37905,8.95550202 L22.37905,10.0334076 L22.4440667,10.0334076 C22.6688833,9.65324303 23.0143333,9.33643925 23.4812,9.08299623 C23.9472833,8.8295532 24.4110167,8.70283169 24.8716167,8.70283169 C25.4512833,8.70283169 25.96045,8.83418936 26.3991167,9.09845007 C26.83935,9.36271079 27.1605167,9.72742148 27.3641833,10.1918095 C28.0182667,9.19890005 28.9238,8.70283169 30.08235,8.70283169 C30.9933667,8.70283169 31.6960167,8.9771374 32.1887333,9.52652152 C32.6822333,10.0751329 32.9282,10.8578701 32.9282,11.8716422 L32.9282,16.7202854 L31.4484833,16.7202854 L31.4484833,12.0934048 C31.4484833,11.3647561 31.3153167,10.8393255 31.0466333,10.5171129 C30.7787333,10.1949002 30.3283167,10.0334076 29.6961667,10.0334076 C29.1274667,10.0334076 28.6512,10.2713968 28.2650167,10.7466024 C27.8788333,11.2218081 27.68535,11.7820099 27.68535,12.4264352 L27.68535,16.7202854 L26.2064167,16.7202854 L26.2064167,12.0934048 C26.2064167,11.3647561 26.07325,10.8393255 25.8045667,10.5171129 C25.5366667,10.1949002 25.08625,10.0334076 24.4541,10.0334076 C23.8854,10.0334076 23.40835,10.2713968 23.02295,10.7466024 C22.6367667,11.2218081 22.4432833,11.7820099 22.4432833,12.4264352 L22.4432833,16.7202854 L22.4440667,16.7218308 Z M35.0533833,5.22880778 C35.3432167,5.22880778 35.5899667,5.32925776 35.7944167,5.53015772 C35.9980833,5.73105768 36.0999167,5.97445571 36.0999167,6.2603518 C36.0999167,6.5462479 35.9980833,6.78964593 35.7944167,6.99054588 C35.59075,7.19144584 35.3432167,7.29189582 35.0533833,7.29189582 C34.76355,7.29189582 34.5168,7.19144584 34.31235,6.99054588 C34.1086833,6.78964593 34.00685,6.5462479 34.00685,6.2603518 C34.00685,5.97445571 34.1086833,5.73105768 34.31235,5.53015772 C34.5160167,5.32925776 34.76355,5.22880778 35.0533833,5.22880778 Z M31.9795833,0 C32.2417473,1.70007336 33.5952019,3.03388933 35.3189333,3.29089587 C33.5952019,3.54790241 32.2417473,4.88171837 31.9795833,6.58179174 C31.7177325,4.88141801 30.3642078,3.54721983 28.6402333,3.29012318 C30.3637217,3.03320681 31.7171064,1.699773 31.9795833,0 Z M36.0341167,8.94313895 L36.0341167,16.7210581 L34.31235,16.7210581 L34.31235,8.94313895 L36.0341167,8.94313895 Z M47,6.26112449 C47,6.54702059 46.8981667,6.79041862 46.6945,6.99131858 C46.49005,7.19221854 46.2433,7.29266852 45.9534667,7.29266852 C45.6636333,7.29266852 45.4161,7.19221854 45.2124333,6.99131858 C45.0087667,6.79041862 44.90615,6.54702059 44.90615,6.26112449 C44.90615,5.9752284 45.0079833,5.73183037 45.21165,5.53093041 C45.4161,5.33003045 45.66285,5.22958047 45.9526833,5.22958047 C46.2425167,5.22958047 46.49005,5.33003045 46.6937167,5.53093041 C46.8973833,5.73183037 47,5.9752284 47,6.26112449 M46.9334167,8.94313895 L46.9334167,16.7210581 L45.2124333,16.7210581 L45.2124333,8.94313895 L46.9334167,8.94313895 Z M37.0869167,8.95627471 L38.5016167,8.95627471 L38.5016167,10.0334076 L38.56585,10.0334076 C38.7906667,9.65324303 39.1369,9.33643925 39.6029833,9.08299623 C40.047046,8.83524562 40.5482481,8.7043298 41.0584167,8.70283169 C42.0227,8.70283169 42.7653,8.97481933 43.2854333,9.5187946 C43.8055667,10.0627699 44.06485,10.8362347 44.06485,11.8399618 L44.06485,16.7202854 L42.5859167,16.7202854 L42.5859167,11.935003 C42.5538,10.6677878 41.9044167,10.0341803 40.6401167,10.0341803 C40.0502667,10.0341803 39.55755,10.268306 39.1604,10.7388755 C38.7640333,11.2086723 38.5650667,11.7711922 38.5650667,12.4264352 L38.5650667,16.7202854 L37.0861333,16.7202854 L37.0861333,8.95627471 L37.0869167,8.95627471 Z" id="形状"></path>
                                </g>
                            </g>
                            <g id="编组-16" transform="translate(794, 104)">
                                <circle id="椭圆形备份-16" stroke="url(#linearGradient-15)" stroke-width="2" fill="#EBF6FF" cx="36.5" cy="36.5" r="35.5"></circle>
                                <g id="deepseek" transform="translate(12, 19)" fill="#276CFF" fill-rule="nonzero">
                                    <path d="M49.4744642,3.18917952 C48.9450036,2.92124891 48.7163315,3.43197247 48.4070586,3.69131949 C48.3016109,3.77511167 48.2117177,3.88383714 48.1216226,3.98438775 C47.3479353,4.83825051 46.4441555,5.39904501 45.2618079,5.33201127 C43.5346471,5.23166502 42.0597932,5.79245952 40.7566453,7.15704585 C40.4794916,5.47445798 39.5589452,4.46997366 38.1574198,3.82538698 C37.423124,3.49042263 36.6825659,3.15566264 36.1684578,2.42748815 C35.8107032,1.90838537 35.7135378,1.33083244 35.5335495,0.761454348 C35.4196175,0.418315148 35.3058875,0.0665923587 34.923286,0.00814220306 C34.5065453,-0.0588915418 34.3441316,0.301210466 34.1807079,0.602453575 C33.5290329,1.83297241 33.275716,3.18917952 33.3015729,4.56194069 C33.3573269,7.65101097 34.6212854,10.1120486 37.1304157,11.8616703 C37.4158517,12.0625671 37.4893823,12.263464 37.3992872,12.5565322 C37.2285911,13.1590185 37.0239579,13.7449506 36.8449796,14.3478456 C36.7312496,14.7328809 36.5605536,14.8164687 36.1601755,14.6490887 C34.7836991,14.0547773 33.5942812,13.1757769 32.5424302,12.1128424 C30.7583034,10.3297039 29.1446706,8.36242703 27.1330838,6.8220815 C26.6673161,6.46685566 26.1888446,6.12900803 25.6986313,5.80921796 C23.645431,3.74997402 25.9675028,2.05900693 26.5052457,1.85811006 C27.0668255,1.64883398 26.7007886,0.92903871 24.8835326,0.937417928 C23.0662766,0.945592775 21.4041621,1.57362539 19.2861176,2.41072972 C18.9758347,2.53621362 18.6497952,2.62818065 18.3168875,2.70359361 C16.3931737,2.32693754 14.3969395,2.24314536 12.3108121,2.48593831 C8.38379382,2.93800734 5.24662339,4.85500895 2.94030821,8.12801329 C0.17058872,12.0625671 -0.482096254,16.5325734 0.31744789,21.1953017 C1.15517138,26.1089979 3.5847109,30.1774148 7.31638825,33.3584521 C11.1866425,36.6565941 15.6433234,38.2721483 20.7278423,37.9625259 C23.816127,37.7783875 27.254086,37.3514561 31.1326226,33.9611427 C32.111145,34.4632827 33.1381492,34.6643839 34.8404631,34.8150055 C36.1531053,34.9404894 37.4158517,34.7479717 38.3931621,34.5386957 C39.9249821,34.2039357 39.8185243,32.7390031 39.2652268,32.4710725 C34.7754168,30.3112779 35.7610095,31.1902784 34.86531,30.4788623 C37.1469803,27.6912395 40.5849393,24.7948912 41.9294986,15.4109844 C42.0359564,14.6658471 41.9460632,14.1970197 41.9294986,13.5943291 C41.9212163,13.2260522 42.0018172,13.0838099 42.4104775,13.0419138 C43.5346471,12.9078463 44.6268996,12.5898448 45.6290568,12.020671 C48.5373532,10.3797749 49.7114185,7.68432348 49.9885723,4.45321522 C50.0299837,3.9592501 49.98029,3.44852654 49.4744642,3.18917952 Z M24.1253999,32.2699713 C19.7751768,28.7374155 17.6642025,27.5737261 16.7925418,27.6240014 C15.9774431,27.6742767 16.1243023,28.6368649 16.3032806,29.2646932 C16.4903392,29.8841422 16.7355758,30.3110736 17.0777758,30.855314 C17.3137202,31.2152116 17.4771439,31.7508685 16.8410235,32.1528666 C15.4394982,33.0484211 13.0038984,31.8514191 12.8899664,31.7927646 C10.0539886,30.0682806 7.68242513,27.7913814 6.01223034,24.6773778 C4.39859754,21.6806833 3.4626986,18.4661291 3.30735513,15.0339196 C3.26614568,14.2051945 3.50289802,13.9123306 4.30042209,13.7615047 C5.35051825,13.5532718 6.42773325,13.5250159 7.48708426,13.6779169 C11.9282106,14.3476412 15.7095817,16.3985059 18.8784672,19.6463726 C20.6874409,21.4963405 22.0558371,23.7064104 23.4666547,25.8662049 C24.9653455,28.1598626 26.5787763,30.3445904 28.6317745,32.1361081 C29.3567781,32.7639364 29.9349224,33.2409387 30.4892299,33.5926615 C28.8190351,33.7851791 26.031539,33.8270752 24.1253999,32.2699713 L24.1253999,32.2699713 Z M26.2115274,18.4158538 C26.2115274,18.0475769 26.4969634,17.7545087 26.85593,17.7545087 C26.9373389,17.7559393 27.0102635,17.7698365 27.0751077,17.7964048 C27.2624249,17.8687942 27.40588,18.0251039 27.4633654,18.2194531 C27.4825561,18.2834213 27.4916464,18.34882 27.4910404,18.4158538 C27.4922805,18.5457699 27.4555995,18.6731676 27.3855927,18.7820869 C27.3149836,18.8905947 27.2141829,18.9755072 27.0959145,19.0261061 C27.0173002,19.0595378 26.9329243,19.0769022 26.8476477,19.0771989 C26.7627026,19.0768537 26.6786664,19.0594886 26.600391,19.0261061 C26.4827599,18.9752181 26.3827627,18.8900582 26.3131369,18.7814738 C26.2439019,18.6726171 26.2085089,18.5452632 26.2115274,18.4158538 L26.2115274,18.4158538 Z M32.6892894,21.8480633 C32.2745688,22.0238225 31.8586361,22.174444 31.45846,22.1912025 C30.8399143,22.2247193 30.1635945,21.965168 29.7973556,21.6471664 C29.2264835,21.1532013 28.8190351,20.8768915 28.6483391,20.0148539 C28.5748085,19.6463726 28.61521,19.0771989 28.6804583,18.7508181 C28.8273174,18.0475769 28.6638937,17.5955079 28.1839248,17.185335 C27.793041,16.850575 27.2954975,16.7584036 26.7494723,16.7584036 C26.5456471,16.7584036 26.3583865,16.6664365 26.2198096,16.5910236 C26.1522243,16.5585136 26.0921429,16.5120027 26.0434574,16.4545036 C25.9942306,16.3974526 25.9574709,16.3305247 25.9355856,16.2581029 C25.9132099,16.1858101 25.9061208,16.1095627 25.9147789,16.0343165 C25.9227551,15.9590501 25.9463673,15.8863395 25.9840673,15.820953 C26.0408313,15.7036439 26.3179851,15.4189549 26.3832334,15.368884 C27.1248015,14.9335734 27.9800996,15.0758157 28.7703514,15.4024008 C29.5036372,15.7120232 30.0569347,16.2811969 30.8564789,17.0849887 C31.6715775,18.0559562 31.8184367,18.3238868 32.281639,19.0520613 C32.6488879,19.621235 32.9830077,20.2073715 33.2104677,20.8768915 C33.3500546,21.2954436 33.1700663,21.6387872 32.6892894,21.8480633 L32.6892894,21.8480633 Z" id="形状"></path>
                                </g>
                            </g>
                            <g id="编组-4" transform="translate(1034, 115)">
                                <circle id="椭圆形备份-17" stroke="url(#linearGradient-15)" stroke-width="2" fill="#EBF6FF" cx="36" cy="36" r="35"></circle>
                                <g id="ollama" transform="translate(21, 16)" fill="#000000" fill-rule="nonzero">
                                    <path d="M5.54414154,0.318345225 C3.84372032,1.39400211 2.78496749,5.27645118 3.16996852,8.95721458 L3.3143439,10.4194357 L2.51225842,11.2597926 C-0.0864985346,13.9489348 -0.744208629,18.1171052 0.892045752,21.478533 L1.32517191,22.3693114 L0.924129171,23.411354 C-0.118581954,26.1509176 -0.0383734057,29.461924 1.10058798,31.8485377 L1.56579756,32.8065446 L1.27704678,33.4284087 C0.619336688,34.8402084 0.298502496,37.9495291 0.683503527,39.3613287 L0.843920623,40 L3.26621877,40 L3.1378851,39.4453644 C3.05767655,39.1596431 2.99350971,38.1512147 2.99350971,37.2268221 C2.99350971,35.6301439 3.02559313,35.4788797 3.60309468,34.2183442 C3.92392887,33.4956373 4.19663793,32.7729303 4.19663793,32.6216661 C4.19663793,32.4704018 3.972054,31.9661876 3.68330322,31.4955878 C2.25559107,29.1593955 2.22350765,26.3021819 3.57101126,23.4953897 C4.16455451,22.2516614 4.1485128,21.8650972 3.49080271,21.0247403 C2.59246697,19.9154691 2.15934081,18.1171052 2.43204987,16.638077 C2.8170509,14.5203775 4.05226254,12.7388208 5.72060034,11.915271 C6.52268582,11.5118997 6.89164515,11.427864 7.91831456,11.427864 L9.16956791,11.427864 L9.4904021,10.7555784 C10.2283207,9.2261288 11.5116575,8.16727906 13.2441622,7.64625775 C15.4739598,6.95716506 18.2331338,8.26812189 19.4523038,10.6043142 L19.8373048,11.3438283 L21.2008501,11.427864 C23.526898,11.5959354 24.9385685,12.5707494 25.9491962,14.7052561 C26.9758656,16.8901841 26.8475319,19.2095693 25.6123203,20.9070903 C24.9225267,21.8482901 24.9225267,22.2516614 25.51607,23.4953897 C26.8635736,26.3021819 26.8314902,29.1593955 25.403778,31.4955878 C25.1150273,31.9661876 24.8904433,32.4704018 24.8904433,32.6216661 C24.8904433,32.7729303 25.1631524,33.4956373 25.4839866,34.2183442 C26.0614881,35.4788797 26.0935715,35.6301439 26.0935715,37.2268221 C26.0935715,38.1512147 26.0294047,39.1596431 25.9491962,39.4453644 L25.8208625,40 L28.2431606,40 L28.4035777,39.3781359 C28.7885788,37.9495291 28.4677446,34.8402084 27.8100345,33.4284087 L27.5212837,32.8065446 L27.9864933,31.8485377 C29.1254547,29.461924 29.2056632,26.1509176 28.1469104,23.3777397 L27.7458676,22.31889 L28.1789938,21.3944973 C29.1414964,19.3104121 29.2698301,16.8229556 28.499828,14.4699561 C28.0667018,13.125385 27.4892003,12.1673781 26.4625309,11.1421426 L25.7727374,10.4194357 L25.9171127,8.95721458 C26.2058635,6.18403668 25.5641951,2.72176608 24.4894006,1.24273786 C23.63919,0.0662381429 22.5002286,-0.286711773 21.3131421,0.234309531 C20.2223058,0.704909418 19.275845,2.40243044 18.8266771,4.70500846 C18.6181349,5.79747248 18.5058429,6.03277243 18.3133424,5.94873673 C16.9497971,5.29325832 15.8910442,5.04115124 14.5114572,5.04115124 C13.0997868,5.04115124 12.3779098,5.22602976 10.7737389,5.94873673 C10.5812384,6.03277243 10.4689464,5.79747248 10.2604042,4.70500846 C9.8112363,2.40243044 8.86477543,0.704909418 7.77393917,0.234309531 C7.03602053,-0.101833245 6.12164308,-0.0514118289 5.54414154,0.318345225 Z M7.37289643,3.41085877 C8.01456482,4.78904415 8.46373269,8.06643623 8.07873166,8.67149322 C8.01456482,8.77233606 7.53331353,8.90679317 7.00393711,8.97402172 C6.4745607,9.04125028 5.91310086,9.12528597 5.76872547,9.17570739 C5.51205812,9.25974308 5.4799747,9.10847883 5.4799747,7.61264348 C5.4799747,6.70505798 5.59226667,5.49494398 5.72060034,4.90669413 C6.00935112,3.64615871 6.55476924,2.469659 6.8114366,2.57050183 C6.90768686,2.60411611 7.16435421,2.9906803 7.37289643,3.41085877 Z M22.8050211,3.19236597 C23.3183558,4.23440857 23.6071066,5.83108676 23.6071066,7.62945062 C23.6071066,8.92360031 23.5589814,9.25974308 23.3985643,9.19251453 C23.2702307,9.14209311 22.6927291,9.05805742 22.1152276,8.99082886 C20.8318908,8.83956461 20.7837657,8.75552892 20.9281411,6.72186512 C21.0725164,4.90669413 21.8585602,2.52008041 22.3398115,2.52008041 C22.42002,2.52008041 22.6285623,2.82260891 22.8050211,3.19236597 Z M12.1854093,17.1254841 C10.3887378,17.8818053 9.16956791,19.1255336 8.75248346,20.6381761 C8.12685679,22.9071398 9.08935936,24.8903822 11.3351987,25.9996534 C12.2495762,26.436639 12.426035,26.4702532 14.5435406,26.4702532 C16.6610463,26.4702532 16.8375051,26.436639 17.7518826,25.9996534 C19.4041786,25.1929107 20.3185561,23.9827967 20.5110566,22.3693114 C20.7195988,20.4196833 19.548554,18.4868623 17.5433403,17.4448197 C16.564796,16.9237984 16.3402121,16.8901841 14.7039577,16.8565698 C13.2922873,16.8229556 12.7949943,16.873377 12.1854093,17.1254841 L12.1854093,17.1254841 Z M16.2760453,18.7557765 C16.677088,18.8902336 17.3347981,19.3104121 17.7358408,19.6801692 C19.1475113,20.991126 19.2598033,22.5541899 18.0085499,23.7474968 C17.1422976,24.5710466 16.4043789,24.7895394 14.5435406,24.7895394 C12.6827023,24.7895394 11.9447837,24.5710466 11.0785314,23.7474968 C9.827278,22.5541899 9.93956997,20.991126 11.3512404,19.6801692 C11.7522832,19.3104121 12.3779098,18.9070408 12.7468692,18.7557765 C13.6452049,18.4364409 15.3616678,18.4196337 16.2760453,18.7557765 Z M13.2762456,20.4532975 C13.0516616,20.6885975 13.196037,21.5121473 13.4847878,21.713833 C13.6772883,21.8650972 13.8216637,22.1844328 13.8537471,22.6046113 C13.9018722,23.2600897 13.917914,23.2768969 14.5435406,23.2768969 C15.1691673,23.2768969 15.185209,23.2600897 15.2012507,22.6382256 C15.2012507,22.2180471 15.3295844,21.8987115 15.5541683,21.6802187 C15.9391694,21.2936545 16.0193779,20.8062475 15.7145854,20.5541404 C15.4900015,20.3692618 13.4366627,20.3020333 13.2762456,20.4532975 L13.2762456,20.4532975 Z M6.50664412,17.1590983 C5.76872547,17.5456625 5.38372444,19.0414979 5.84893402,19.6801692 C6.13768479,20.0667333 6.68310292,20.3356476 7.21247934,20.3356476 C7.90227285,20.3356476 8.68831662,19.3608335 8.68831662,18.5204766 C8.68831662,18.1843338 8.59206636,17.7809625 8.4797744,17.6296982 C8.03060653,17.0246412 7.19643763,16.8229556 6.50664412,17.1590983 L6.50664412,17.1590983 Z M21.1206416,17.1759055 C20.6073069,17.478434 20.4148063,17.848191 20.3987646,18.5204766 C20.3987646,19.3608335 21.1848084,20.3356476 21.8746019,20.3356476 C22.8050211,20.3356476 23.4306478,19.7473977 23.4466895,18.8566194 C23.4466895,17.478434 22.1633527,16.5540413 21.1206416,17.1759055 Z" id="形状"></path>
                                </g>
                            </g>
                            <g id="编组-18" transform="translate(978, 2)">
                                <g id="椭圆形备份-19" fill="#EBF6FF" stroke="url(#linearGradient-15)" stroke-width="2">
                                    <circle id="椭圆形备份-18" cx="42" cy="42" r="41"></circle>
                                </g>
                                <g id="ChatGPT" transform="translate(14, 14)" fill="#030303" fill-rule="nonzero">
                                    <path d="M25.347846,0.000138030317 C28.9401455,0.0522144107 32.3073852,1.43719733 35.0686949,4.19850703 C35.4755337,4.60534577 35.8304355,4.70056334 36.3757726,4.62265806 C44.2961437,3.50601557 51.2470267,8.50926638 52.7012588,16.3777006 C53.0821291,18.4465189 52.9609431,20.506681 52.3723253,22.5235623 C52.2251709,23.0169625 52.3203885,23.3285837 52.6406658,23.7181101 C59.1933662,31.7596672 55.2721333,43.9215485 45.2569756,46.5703283 C44.6856701,46.7174828 44.434642,46.9771671 44.2355507,47.4965357 C40.513409,57.1741038 28.0139382,59.779603 20.7254655,52.3959128 C20.3619075,52.0323547 20.0502864,51.9544494 19.5568862,52.0236986 C11.5239852,53.1576534 4.56444606,48.1457464 3.12752628,40.1907507 C2.75531212,38.1479009 2.89381041,36.1137073 3.48242815,34.1227943 C3.62958259,33.6293941 3.53436501,33.317773 3.22274385,32.9282465 C-3.35592503,24.8780333 0.634557017,12.6295906 10.6843393,10.0500599 C11.1863957,9.92021774 11.4201115,9.70381415 11.6018905,9.23638242 C13.7659264,3.57526472 19.0202053,-0.0256908781 25.347846,0.000138030317 L25.347846,0.000138030317 Z M34.0559262,34.8585665 C29.511451,37.4813779 25.1141302,40.0003156 20.751434,42.562534 C19.7646336,43.1424956 18.9249877,43.1251833 17.9381874,42.5452217 C14.5190108,40.5196842 11.0738658,38.5547397 7.62872078,36.581139 C7.37769262,36.4426407 7.16994518,36.156988 6.77176259,36.278174 C6.30433086,40.4850596 7.62006463,43.9907976 11.0738658,46.4751108 C14.5536354,48.9767362 18.3796507,49.2883573 22.1710415,47.2801321 C26.0489937,45.2286261 29.7971037,42.926092 33.5971506,40.7274316 C33.8135542,40.6062456 34.0559262,40.511028 34.0559262,40.1907507 L34.0559262,34.8585665 L34.0559262,34.8585665 Z M31.6322061,6.21538842 C31.5456446,5.9124234 31.3205849,5.82586197 31.147462,5.70467596 C27.6850047,3.35886114 23.9974877,2.98664698 20.2580338,4.83040549 C16.4839553,6.70013244 14.4757301,9.89424931 14.3632002,14.1097911 C14.2506704,18.394582 14.345888,22.6793729 14.3199195,26.9641638 C14.3199195,27.4229394 14.4757301,27.6653114 14.8652565,27.8730589 C16.1377096,28.5742065 17.3928504,29.3186348 18.6479912,30.0370947 C18.8038017,30.1236561 18.9423,30.3140913 19.2019843,30.1496246 C19.2019843,25.0771246 19.2192966,19.9786562 19.1933282,14.8801878 C19.184672,13.8327945 19.5828546,13.1576153 20.4917497,12.6469029 C23.1232172,11.1667024 25.7287163,9.64322115 28.3428716,8.12839608 C29.4422018,7.49649762 30.541532,6.84728688 31.6322061,6.21538842 Z M36.644113,26.2889847 L36.644113,27.396971 C36.644113,32.2097867 36.6354569,37.0312585 36.6527692,41.8440741 C36.6614253,42.8222183 36.2978673,43.4887413 35.4409091,43.9561731 C34.2377052,44.61404 33.0604697,45.3151876 31.8745781,45.9990229 C29.3210158,47.4792234 26.7587974,48.9594239 23.9628631,50.5781227 C24.2052351,50.6646841 24.3264211,50.6819964 24.4129826,50.7512455 C27.6244117,53.0970604 31.1301497,53.6337412 34.8090106,52.1621969 C38.4878715,50.6906525 40.8596548,47.8947182 41.3097742,43.9561731 C41.8551113,39.1433574 41.4223041,34.2786049 41.5088655,29.4398208 C41.5175217,29.1801365 41.3963357,29.0329821 41.1885882,28.9117961 C39.7170439,28.063494 38.2541557,27.215192 36.644113,26.2889847 L36.644113,26.2889847 Z M30.5242197,19.7449403 C30.8791216,19.9613439 31.1214936,20.0998422 31.3552095,20.2383405 C35.5447828,22.6620606 39.7257,25.0944369 43.9325856,27.4921886 C44.8414807,28.0115572 45.2310071,28.6953925 45.222351,29.7341297 C45.1963826,33.741924 45.2136948,37.7497183 45.2136948,41.7575127 C45.2136948,42.0518215 45.2396633,42.3374743 45.2569756,42.6923761 C45.4733791,42.6144709 45.6032213,42.5711901 45.7330634,42.5192533 C49.4984858,40.7707123 51.7317707,37.8362798 52.0866726,33.7159556 C52.4588868,29.4484769 50.7536265,26.0206442 47.0920779,23.7613908 C43.4045609,21.4848251 39.5958579,19.4073508 35.8477478,17.2260027 C35.5188144,17.0355675 35.2764424,17.0095991 34.9301966,17.2086904 C33.5105891,18.0396801 32.0736694,18.8447014 30.5242197,19.7449403 L30.5242197,19.7449403 Z M10.6324025,14.0578542 C10.242876,14.0059174 10.0091602,14.1876964 9.76678816,14.3088824 C6.18314485,16.1093602 4.08835818,19.0178243 3.75942474,22.9996502 C3.42183515,27.1286306 5.02322165,30.5218387 8.52895968,32.7378114 C12.2857259,35.1095946 16.2069588,37.2303497 20.0502864,39.4636347 C20.2753461,39.5934769 20.4830935,39.7060067 20.7427778,39.5501961 C22.2316345,38.6845818 23.7204911,37.8189675 25.2959092,36.9100724 C24.9669757,36.7109811 24.741916,36.5638267 24.5082001,36.4253284 C20.3186268,34.0016083 16.1377096,31.569232 11.930824,29.1801365 C10.9873044,28.6434556 10.6064341,27.942308 10.6150902,26.8689463 C10.6497148,22.6187799 10.6324025,18.3599574 10.6324025,14.0578542 L10.6324025,14.0578542 Z M21.8074834,21.7445094 C22.1710415,21.5540743 22.4134135,21.4328883 22.6471293,21.29439 C26.793422,18.9052944 30.9483707,16.5335112 35.0686949,14.1011349 C36.0554953,13.5211733 36.8951412,13.503861 37.8819415,14.0838226 C41.3530549,16.1353286 44.8501368,18.1262416 48.3385626,20.1344668 C48.54631,20.2556528 48.7194329,20.4807125 49.0743347,20.3768388 C49.5331103,16.2565146 48.2866257,12.776745 44.919386,10.2837758 C41.4223041,7.68693277 37.5530081,7.3320309 33.6923682,9.36622457 C29.814416,11.4177305 26.0663059,13.7202646 22.2576029,15.9102689 C22.0411993,16.0314549 21.8074834,16.1353286 21.8074834,16.4556059 L21.8074834,21.7445094 Z M34.0559262,28.5568942 C34.0559262,27.3710026 34.0299577,26.3842022 34.0645823,25.406058 C34.0818946,24.9559386 33.9347402,24.6962543 33.5365576,24.4798507 C31.8053289,23.5103627 30.0827564,22.5149062 28.3774962,21.5021374 C28.0485627,21.3030461 27.8061907,21.3030461 27.4686011,21.4934813 C25.7633409,22.50625 24.0407684,23.5017065 22.3095398,24.4711946 C21.9113572,24.6962543 21.7901712,24.9559386 21.7901712,25.406058 C21.8161396,27.336378 21.8247957,29.2753541 21.7901712,31.205674 C21.781515,31.7336988 21.9719502,32.0106954 22.4220696,32.2444112 C23.2444032,32.6685622 24.0234561,33.1619624 24.8284774,33.620738 C25.8499024,34.2006996 26.8713273,35.2480929 27.884096,35.2394901 C28.9401455,35.2307807 29.9875388,34.2093557 31.026276,33.620738 C32.0217325,33.0494325 33.3288101,32.6685622 33.8914595,31.8116041 C34.471421,30.902709 33.9953332,29.5177261 34.0559262,28.5568942 L34.0559262,28.5568942 Z" id="形状"></path>
                                </g>
                            </g>
                            <circle id="椭圆形备份" stroke="url(#linearGradient-15)" stroke-width="2" fill="#EBF6FF" cx="895.5" cy="58.5" r="17.5"></circle>
                            <circle id="椭圆形备份-20" stroke="url(#linearGradient-15)" stroke-width="2" fill="#EBF6FF" cx="1098" cy="69" r="11"></circle>
                            <circle id="椭圆形备份-23" stroke="url(#linearGradient-15)" stroke-width="2" fill="#EBF6FF" cx="1136.5" cy="130.5" r="5.5"></circle>
                            <rect id="矩形" stroke="url(#linearGradient-15)" stroke-width="2" fill="#EBF6FF" x="750" y="284" width="37" height="37" rx="12"></rect>
                            <rect id="矩形" stroke="url(#linearGradient-15)" stroke-width="2" fill="#EBF6FF" x="1087" y="223" width="37" height="37" rx="12"></rect>
                            <g id="编组-6" transform="translate(139, 134)">
                                <circle id="椭圆形备份" stroke="url(#linearGradient-15)" stroke-width="2" fill="#EBF6FF" cx="32" cy="32" r="31"></circle>
                                <g id="notion" transform="translate(13, 13)" fill="#000000" fill-rule="nonzero">
                                    <rect id="矩形" opacity="0" x="0" y="0" width="38" height="38"></rect>
                                    <path d="M7.06421484,6.66039062 C8.24496094,7.61951953 8.68812109,7.54671094 10.9072246,7.39793945 L31.8237383,6.14278906 C32.2668984,6.14278906 31.8981055,5.69962891 31.7509297,5.62682031 L28.2751172,3.11492383 C27.6103398,2.59891797 26.7224238,2.00698633 25.0224805,2.15416211 L4.77078125,3.63248828 C4.0331582,3.70529687 3.88438672,4.07568555 4.17877539,4.37007422 L7.06421484,6.66039062 Z M8.31936523,11.5353379 L8.31936523,33.5424219 C8.31936523,34.7247637 8.90973828,35.1679609 10.2408887,35.0935937 L33.2276602,33.7640391 C34.5587734,33.6912305 34.707582,32.8776816 34.707582,31.9169199 L34.707582,10.0570117 C34.707582,9.0978457 34.3387891,8.58028125 33.5236445,8.65308984 L9.50170703,10.0570117 C8.61534961,10.131416 8.31936523,10.5745762 8.31936523,11.5337793 L8.31936523,11.5353379 Z M31.011748,12.7145254 C31.1589609,13.3793027 31.011748,14.044043 30.3470078,14.120043 L29.2390332,14.341623 L29.2390332,30.5873652 C28.2767129,31.1048926 27.3903555,31.400877 26.6511738,31.400877 C25.4672734,31.400877 25.171252,31.0305254 24.2849316,29.9241465 L17.0405137,18.5502344 L17.0405137,29.5537949 L19.3323887,30.0729551 C19.3323887,30.0729551 19.3323887,31.4024727 17.4836738,31.4024727 L12.3839551,31.6968613 C12.2367422,31.4024727 12.3839551,30.6633281 12.9015195,30.5161152 L14.2310742,30.1473223 L14.2310742,15.5967734 L12.3871094,15.4479648 C12.2383379,14.7832246 12.6087266,13.8240586 13.6422598,13.7496543 L19.1123672,13.3808613 L26.6527695,24.9019863 L26.6527695,14.7088203 L24.7296875,14.4888359 C24.5824746,13.6752871 25.1728477,13.084877 25.9119922,13.0120684 L31.011748,12.7145254 Z M3.07083789,1.63819336 L24.1377188,0.0870214844 C26.7239824,-0.134521484 27.3903555,0.0126542969 29.0158574,1.19499609 L35.7411523,5.92120898 C36.849127,6.73316211 37.2194785,6.9547793 37.2194785,7.84113672 L37.2194785,33.7639648 C37.2194785,35.3878711 36.6291055,36.3502285 34.5604063,36.4958457 L10.0937129,37.9741719 C8.54254102,38.0485391 7.80183789,37.826959 6.98828906,36.7918301 L2.03570898,30.365748 C1.14935156,29.1834062 0.780558594,28.2986445 0.780558594,27.2634785 L0.780558594,4.22130273 C0.780558594,2.89334375 1.37252734,1.78381055 3.07083789,1.63819336 Z" id="形状"></path>
                                </g>
                            </g>
                            <g id="编组-13" transform="translate(370, 130)">
                                <circle id="椭圆形备份-3" stroke="url(#linearGradient-15)" stroke-width="2" fill="#EBF6FF" cx="32" cy="32" r="31"></circle>
                                <g id="hugo-logo-wide" transform="translate(16, 14)">
                                    <path d="M18.8393313,0.710277615 L30.7266459,7.54945676 C32.1342287,8.35924303 33,9.84853467 33,11.4593211 L33,25.4820024 C33,27.2634241 32.0287843,28.9063764 30.4596203,29.7803864 L18.6616605,36.3523298 C17.0960274,37.2242465 15.1817393,37.2152624 13.6245395,36.3286897 L2.75961084,30.1421824 C1.05242978,29.1700873 0,27.3699627 0,25.4213604 L0,12.1140487 C0,10.1539936 1.02601883,8.33372531 2.71181638,7.30380545 L13.3928403,0.781197868 C15.0561639,-0.234343656 17.1495628,-0.261602378 18.8393313,0.710277615 Z" id="路径" stroke="#C9177E" stroke-width="1.84933856" fill="#FF4088"></path>
                                    <polygon id="形状" fill="#FFFFFF" points="8.03846154 29.0113636 8.03846154 7.56818182 12.5441308 7.56818182 12.5441308 15.3788727 20.0192804 15.3788727 20.0192804 7.56818182 24.5384615 7.56818182 24.5384615 29.0113636 20.0192804 29.0113636 20.0192804 19.6350163 12.5441308 19.6350163 12.5441308 29.0113636"></polygon>
                                </g>
                            </g>
                            <g id="编组-14" transform="translate(261, 186)">
                                <circle id="椭圆形备份-5" stroke="url(#linearGradient-15)" stroke-width="2" fill="#EBF6FF" cx="25.5" cy="25.5" r="24.5"></circle>
                                <g id="icon_应用管理" transform="translate(10, 10)" fill="#3854FF" fill-rule="nonzero">
                                    <rect id="矩形" opacity="0" x="0" y="0" width="31" height="31"></rect>
                                    <path d="M5.59159602,5.08691198 C5.05846748,5.08691198 4.62628141,5.52002865 4.62628141,6.05430514 L4.62628141,11.8586641 C4.62628141,12.3929406 5.05846748,12.8260573 5.59159602,12.8260573 L11.3834837,12.8260573 C11.9166123,12.8260573 12.3487983,12.3929406 12.3487983,11.8586641 L12.3487983,6.05430514 C12.3487983,5.52002865 11.9166123,5.08691198 11.3834837,5.08691198 L5.59159602,5.08691198 Z M5.59159602,3.15212566 L11.3834837,3.15212566 C12.9828693,3.15212566 14.2794276,4.45147567 14.2794276,6.05430514 L14.2794276,11.8586641 C14.2794276,13.4614936 12.9828693,14.7608436 11.3834837,14.7608436 L5.59159602,14.7608436 C3.9922104,14.7608436 2.69565217,13.4614936 2.69565217,11.8586641 L2.69565217,6.05430514 C2.69565217,4.45147567 3.9922104,3.15212566 5.59159602,3.15212566 Z M5.59159602,18.6304162 C5.05846748,18.6304162 4.62628141,19.0635329 4.62628141,19.5978094 L4.62628141,25.4021683 C4.62628141,25.9364448 5.05846748,26.3695615 5.59159602,26.3695615 L11.3834837,26.3695615 C11.9166123,26.3695615 12.3487983,25.9364448 12.3487983,25.4021683 L12.3487983,19.5978094 C12.3487983,19.0635329 11.9166123,18.6304162 11.3834837,18.6304162 L5.59159602,18.6304162 Z M5.59159602,16.6956299 L11.3834837,16.6956299 C12.9828693,16.6956299 14.2794276,17.9949799 14.2794276,19.5978094 L14.2794276,25.4021683 C14.2794276,27.0049978 12.9828693,28.3043478 11.3834837,28.3043478 L5.59159602,28.3043478 C3.9922104,28.3043478 2.69565217,27.0049978 2.69565217,25.4021683 L2.69565217,19.5978094 C2.69565217,17.9949799 3.9922104,16.6956299 5.59159602,16.6956299 Z M19.1060006,18.6304162 C18.5728721,18.6304162 18.140686,19.0635329 18.140686,19.5978094 L18.140686,25.4021683 C18.140686,25.9364448 18.5728721,26.3695615 19.1060006,26.3695615 L24.8978883,26.3695615 C25.4310169,26.3695615 25.863203,25.9364448 25.863203,25.4021683 L25.863203,19.5978094 C25.863203,19.0635329 25.4310169,18.6304162 24.8978883,18.6304162 L19.1060006,18.6304162 Z M19.1060006,16.6956299 L24.8978883,16.6956299 C26.497274,16.6956299 27.7938322,17.9949799 27.7938322,19.5978094 L27.7938322,25.4021683 C27.7938322,27.0049978 26.497274,28.3043478 24.8978883,28.3043478 L19.1060006,28.3043478 C17.506615,28.3043478 16.2100568,27.0049978 16.2100568,25.4021683 L16.2100568,19.5978094 C16.2100568,17.9949799 17.506615,16.6956299 19.1060006,16.6956299 Z M17.9678947,8.29962467 C17.7866308,8.48107692 17.6847808,8.72730024 17.6847808,8.98405533 C17.6847808,9.24081042 17.7866308,9.48703374 17.9678947,9.66848599 L21.3464959,13.054362 C21.5275582,13.2360163 21.7732525,13.3380856 22.029456,13.3380856 C22.2856594,13.3380856 22.5313537,13.2360163 22.712416,13.054362 L26.0910172,9.66848599 C26.2722811,9.48703374 26.3741311,9.24081042 26.3741311,8.98405533 C26.3741311,8.72730024 26.2722811,8.48107692 26.0910172,8.29962467 L22.712416,4.91374861 C22.5313537,4.73209438 22.2856594,4.6300251 22.029456,4.6300251 C21.7732525,4.6300251 21.5275582,4.73209438 21.3464959,4.91374861 L17.9678947,8.29962467 L17.9678947,8.29962467 Z M16.6029398,6.93173074 L19.981541,3.54585468 C20.5246499,3.00148412 21.2613189,2.69565217 22.029456,2.69565217 C22.797593,2.69565217 23.534262,3.00148412 24.0773709,3.54585468 L27.4559721,6.93173074 C27.999173,7.47600909 28.3043478,8.2142643 28.3043478,8.98405533 C28.3043478,9.75384636 27.999173,10.4921016 27.4559721,11.0363799 L24.0773709,14.422256 C23.534262,14.9666265 22.797593,15.2724585 22.029456,15.2724585 C21.2613189,15.2724585 20.5246499,14.9666265 19.981541,14.422256 L16.6029398,11.0363799 C16.0597389,10.4921016 15.7545641,9.75384636 15.7545641,8.98405533 C15.7545641,8.2142643 16.0597389,7.47600909 16.6029398,6.93173074 L16.6029398,6.93173074 Z" id="形状"></path>
                                </g>
                            </g>
                            <g id="编组-15" transform="translate(0, 94)">
                                <circle id="椭圆形备份-6" stroke="url(#linearGradient-15)" stroke-width="2" fill="#EBF6FF" cx="36" cy="36" r="35"></circle>
                                <g id="编组备份-10" transform="translate(12, 14)" fill="#19CD3D" fill-rule="nonzero">
                                    <path d="M42.8536058,12.9996653 C42.294351,10.7784101 43.4128606,7.2379324 47,5.98636225 L43.1643029,5.78340493 C43.1643029,5.78340493 41.7125,0.709471868 35.0522837,0.258455596 C28.3920673,-0.19819838 24.0366587,0.0893244939 24.0366587,0.0893244939 C24.0366587,0.0893244939 28.9739183,3.22388758 26.9967548,8.81085165 C25.550601,11.7706459 23.2796875,14.2004961 20.850601,16.9686085 C20.7771635,17.0418986 20.709375,17.1151888 20.6528846,17.1772035 C12.6199519,26.214442 0,40.5905857 0,40.5905857 C13.8909856,44.2212667 23.200601,40.2354104 28.7084135,35.4546379 C29.8664663,35.4433625 30.7364183,35.4377248 31.3239183,35.4377248 C38.9953125,35.4377248 45.4804087,28.8077856 45.2149038,21.4336696 C45.0341346,16.3653742 43.4128606,15.2209204 42.8536058,12.9996653 Z" id="路径"></path>
                                </g>
                            </g>
                            <g id="编组-19" transform="translate(293, 86)">
                                <circle id="椭圆形" stroke="url(#linearGradient-15)" stroke-width="2" fill="#EBF6FF" cx="24" cy="24" r="23"></circle>
                                <g id="github" transform="translate(6, 6)" fill="#000000" fill-rule="nonzero">
                                    <rect id="矩形" opacity="0" x="0" y="0" width="36" height="36"></rect>
                                    <path d="M33.6,17.775676 C33.6,21.1257693 32.608076,24.1388422 30.6242279,26.8148948 C28.6403799,29.4909473 26.0776153,31.3428309 22.935934,32.3705457 C22.5703225,32.4373005 22.3028795,32.3905862 22.1336053,32.2304028 C21.964331,32.0702194 21.8796938,31.8700253 21.8796938,31.6298203 L21.8796938,27.4054921 C21.8796938,26.1108517 21.5276138,25.1632169 20.8234537,24.5625877 C21.5953187,24.4825194 22.2893243,24.3624169 22.9054703,24.2022803 C23.5216164,24.0421436 24.1580715,23.7818748 24.8148358,23.4214739 C25.4716001,23.0610731 26.0200412,22.6172871 26.460159,22.0901161 C26.9002769,21.5629452 27.2591345,20.8622305 27.536732,19.9879723 C27.8143295,19.113714 27.9531282,18.1093563 27.9531282,16.9748993 C27.9531282,15.3599156 27.4182305,13.9851836 26.3484351,12.8507032 C26.8494804,11.6361312 26.7953187,10.2747361 26.1859503,8.76651795 C25.8067835,8.64639211 25.2583425,8.71980364 24.5406271,8.98675256 C23.8229118,9.25370148 23.2,9.54733594 22.6718918,9.86765596 L21.9,10.3481009 C20.6406123,10.0010837 19.3406153,9.82757508 18,9.82757508 C16.6593847,9.82757508 15.3593877,10.0010837 14.1000089,10.3481009 C13.8833388,10.2012779 13.5955749,10.0210891 13.2367172,9.80753464 C12.8778595,9.59398018 12.3124981,9.33705148 11.5406331,9.03674855 C10.768768,8.73644562 10.1864744,8.64635707 9.79375241,8.76648292 C9.19791549,10.2747011 9.15051965,11.6360962 9.65156486,12.8506682 C8.58176946,13.9851486 8.04687176,15.3598806 8.04687176,16.9748643 C8.04687176,18.1093447 8.1856705,19.1103622 8.46326799,19.977917 C8.74086548,20.8454718 9.09633434,21.5461864 9.52967459,22.0800609 C9.96301483,22.6139354 10.5080671,23.0610614 11.1648314,23.4214389 C11.8215956,23.7818164 12.4580626,24.0420852 13.0742324,24.2022452 C13.6904021,24.3624052 14.3844077,24.4825194 15.1562491,24.5625877 C14.6145856,25.0430911 14.2828147,25.7304571 14.1609363,26.6246858 C13.8765612,26.7581719 13.5718769,26.8582807 13.2468836,26.9250121 C12.9218903,26.9917435 12.5359459,27.0251091 12.0890504,27.0251091 C11.642155,27.0251091 11.198672,26.8816261 10.7586015,26.5946601 C10.3185311,26.3076942 9.94272941,25.8906054 9.63119649,25.343394 C9.37390813,24.9162851 9.04552599,24.5692679 8.64605008,24.3023423 C8.24657417,24.0354167 7.91141442,23.8752451 7.64057085,23.8218272 L7.23434103,23.761776 C6.94996593,23.761776 6.75360493,23.7918133 6.64525802,23.8518879 C6.53691111,23.9119625 6.50307048,23.9887024 6.54373611,24.0821077 C6.58440175,24.175513 6.64534097,24.2689416 6.72655375,24.3623936 C6.80776654,24.4558455 6.89579248,24.5359255 6.99063157,24.6026336 L7.13281912,24.7027306 C7.43072573,24.8362168 7.72525538,25.0898171 8.01640808,25.4635316 C8.30756078,25.837246 8.5208421,26.1775831 8.65625204,26.4845428 L8.85936695,26.9450175 C9.03541883,27.4522181 9.33333728,27.8626383 9.75312232,28.1762782 C10.1729073,28.489918 10.6265567,28.6901239 11.1140704,28.7768957 C11.6015841,28.8636676 12.0721538,28.9103819 12.5257795,28.9170386 C12.9794051,28.9236954 13.3551831,28.9003383 13.6531134,28.8469672 L14.1203062,28.7668755 C14.1203062,29.2740761 14.123695,29.8680135 14.1304726,30.5486877 C14.1372502,31.2293619 14.140639,31.5897394 14.140639,31.6298203 C14.140639,31.8700486 14.052613,32.0702428 13.8765612,32.2304028 C13.7005093,32.3905628 13.4296775,32.4372771 13.064066,32.3705457 C9.92236104,31.3428309 7.35959641,29.4909473 5.37577206,26.8148948 C3.39194772,24.1388422 2.4,21.1257693 2.4,17.775676 C2.4,14.9861544 3.09739437,12.4135274 4.4921831,10.0577949 C5.88697184,7.70206236 7.77941699,5.83683008 10.1695185,4.46209805 C12.5596201,3.08736602 15.1697806,2.4 18,2.4 C20.8302194,2.4 23.4403799,3.08736602 25.8304815,4.46209805 C28.220583,5.83683008 30.1130282,7.70206236 31.5078169,10.0577949 C32.9026056,12.4135274 33.6,14.9861544 33.6,17.775676 Z" id="路径"></path>
                                </g>
                            </g>
                        </g>
                    </g>
                </g>
            </g>
        </g>
    </g>
</svg>