<?xml version="1.0" encoding="UTF-8"?>
<svg width="41px" height="41px" viewBox="0 0 41 41" version="1.1" xmlns="http://www.w3.org/2000/svg" xmlns:xlink="http://www.w3.org/1999/xlink">
    <title>编组</title>
    <g id="官网3" stroke="none" stroke-width="1" fill="none" fill-rule="evenodd" stroke-linecap="round" stroke-linejoin="round">
        <g id="coco-AI-zh" transform="translate(-1002, -5189)" stroke="#4AF4F9" stroke-width="2">
            <g id="编组" transform="translate(1003, 5190)">
                <path d="M4,29.0004974 C1,31.5204974 0,39.0004974 0,39.0004974 C0,39.0004974 7.48,38.0004974 10,35.0004974 C11.42,33.3204974 11.4,30.7404974 9.82,29.1804974 C8.21021519,27.6440264 5.70165676,27.5664421 4,29.0004974 Z" id="路径"></path>
                <path d="M19,26.0004974 L13,20.0004974 C14.0642895,17.2393567 15.4044074,14.5926239 17,12.1004974 C21.7383038,4.52440763 30.0643642,-0.0549255835 39,0.000497417108 C39,5.44049742 37.44,15.0004974 27,22.0004974 C24.4737725,23.5979425 21.7936926,24.9379825 19,26.0004974 Z" id="路径"></path>
                <path d="M13,20.0004974 L3,20.0004974 C3,20.0004974 4.1,13.9404974 7,12.0004974 C10.24,9.84049742 17,12.0004974 17,12.0004974" id="路径"></path>
                <path d="M19,26.0004974 L19,36.0004974 C19,36.0004974 25.06,34.9004974 27,32.0004974 C29.16,28.7604974 27,22.0004974 27,22.0004974" id="路径"></path>
            </g>
        </g>
    </g>
</svg>