<?xml version="1.0" encoding="UTF-8"?>
<svg width="720px" height="500px" viewBox="0 0 720 500" version="1.1" xmlns="http://www.w3.org/2000/svg" xmlns:xlink="http://www.w3.org/1999/xlink">
    <title>编组 8</title>
    <defs>
        <linearGradient x1="50%" y1="0%" x2="50%" y2="100%" id="linearGradient-1">
            <stop stop-color="#C9E7FF" offset="0%"></stop>
            <stop stop-color="#7DC5FF" offset="100%"></stop>
        </linearGradient>
        <rect id="path-2" x="0" y="0" width="720" height="500" rx="16"></rect>
        <filter x="-43.8%" y="-40.6%" width="187.5%" height="187.5%" filterUnits="objectBoundingBox" id="filter-4">
            <feOffset dx="0" dy="2" in="SourceAlpha" result="shadowOffsetOuter1"></feOffset>
            <feGaussianBlur stdDeviation="9" in="shadowOffsetOuter1" result="shadowBlurOuter1"></feGaussianBlur>
            <feColorMatrix values="0 0 0 0 0.505882353   0 0 0 0 0.780392157   0 0 0 0 1  0 0 0 1 0" type="matrix" in="shadowBlurOuter1" result="shadowMatrixOuter1"></feColorMatrix>
            <feMerge>
                <feMergeNode in="shadowMatrixOuter1"></feMergeNode>
                <feMergeNode in="SourceGraphic"></feMergeNode>
            </feMerge>
        </filter>
        <filter x="-44.6%" y="-41.1%" width="189.3%" height="189.3%" filterUnits="objectBoundingBox" id="filter-5">
            <feOffset dx="0" dy="2" in="SourceAlpha" result="shadowOffsetOuter1"></feOffset>
            <feGaussianBlur stdDeviation="8" in="shadowOffsetOuter1" result="shadowBlurOuter1"></feGaussianBlur>
            <feColorMatrix values="0 0 0 0 0.505882353   0 0 0 0 0.780392157   0 0 0 0 1  0 0 0 1 0" type="matrix" in="shadowBlurOuter1" result="shadowMatrixOuter1"></feColorMatrix>
            <feMerge>
                <feMergeNode in="shadowMatrixOuter1"></feMergeNode>
                <feMergeNode in="SourceGraphic"></feMergeNode>
            </feMerge>
        </filter>
        <filter x="-45.8%" y="-41.7%" width="191.7%" height="191.7%" filterUnits="objectBoundingBox" id="filter-6">
            <feOffset dx="0" dy="2" in="SourceAlpha" result="shadowOffsetOuter1"></feOffset>
            <feGaussianBlur stdDeviation="7" in="shadowOffsetOuter1" result="shadowBlurOuter1"></feGaussianBlur>
            <feColorMatrix values="0 0 0 0 0.505882353   0 0 0 0 0.780392157   0 0 0 0 1  0 0 0 1 0" type="matrix" in="shadowBlurOuter1" result="shadowMatrixOuter1"></feColorMatrix>
            <feMerge>
                <feMergeNode in="shadowMatrixOuter1"></feMergeNode>
                <feMergeNode in="SourceGraphic"></feMergeNode>
            </feMerge>
        </filter>
        <filter x="-45.8%" y="-41.7%" width="191.7%" height="191.7%" filterUnits="objectBoundingBox" id="filter-7">
            <feOffset dx="0" dy="2" in="SourceAlpha" result="shadowOffsetOuter1"></feOffset>
            <feGaussianBlur stdDeviation="7" in="shadowOffsetOuter1" result="shadowBlurOuter1"></feGaussianBlur>
            <feColorMatrix values="0 0 0 0 0.505882353   0 0 0 0 0.780392157   0 0 0 0 1  0 0 0 1 0" type="matrix" in="shadowBlurOuter1" result="shadowMatrixOuter1"></feColorMatrix>
            <feMerge>
                <feMergeNode in="shadowMatrixOuter1"></feMergeNode>
                <feMergeNode in="SourceGraphic"></feMergeNode>
            </feMerge>
        </filter>
        <rect id="path-8" x="601" y="245" width="42" height="42" rx="13.9999995"></rect>
        <filter x="-66.7%" y="-61.9%" width="233.3%" height="233.3%" filterUnits="objectBoundingBox" id="filter-9">
            <feOffset dx="0" dy="2" in="SourceAlpha" result="shadowOffsetOuter1"></feOffset>
            <feGaussianBlur stdDeviation="9" in="shadowOffsetOuter1" result="shadowBlurOuter1"></feGaussianBlur>
            <feColorMatrix values="0 0 0 0 0.505882353   0 0 0 0 0.780392157   0 0 0 0 1  0 0 0 0.5 0" type="matrix" in="shadowBlurOuter1"></feColorMatrix>
        </filter>
        <rect id="path-10" x="58" y="376" width="32" height="32" rx="10.6666667"></rect>
        <filter x="-68.8%" y="-62.5%" width="237.5%" height="237.5%" filterUnits="objectBoundingBox" id="filter-11">
            <feOffset dx="0" dy="2" in="SourceAlpha" result="shadowOffsetOuter1"></feOffset>
            <feGaussianBlur stdDeviation="7" in="shadowOffsetOuter1" result="shadowBlurOuter1"></feGaussianBlur>
            <feColorMatrix values="0 0 0 0 0.505882353   0 0 0 0 0.780392157   0 0 0 0 1  0 0 0 0.5 0" type="matrix" in="shadowBlurOuter1"></feColorMatrix>
        </filter>
        <rect id="path-12" x="69" y="198" width="23" height="23" rx="7.66666651"></rect>
        <filter x="-67.4%" y="-63.0%" width="234.8%" height="234.8%" filterUnits="objectBoundingBox" id="filter-13">
            <feOffset dx="0" dy="1" in="SourceAlpha" result="shadowOffsetOuter1"></feOffset>
            <feGaussianBlur stdDeviation="5" in="shadowOffsetOuter1" result="shadowBlurOuter1"></feGaussianBlur>
            <feComposite in="shadowBlurOuter1" in2="SourceAlpha" operator="out" result="shadowBlurOuter1"></feComposite>
            <feColorMatrix values="0 0 0 0 0.505882353   0 0 0 0 0.780392157   0 0 0 0 1  0 0 0 0.5 0" type="matrix" in="shadowBlurOuter1"></feColorMatrix>
        </filter>
        <rect id="path-14" x="615" y="103" width="28" height="28" rx="9.33333333"></rect>
        <filter x="-66.1%" y="-62.5%" width="232.1%" height="232.1%" filterUnits="objectBoundingBox" id="filter-15">
            <feOffset dx="0" dy="1" in="SourceAlpha" result="shadowOffsetOuter1"></feOffset>
            <feGaussianBlur stdDeviation="6" in="shadowOffsetOuter1" result="shadowBlurOuter1"></feGaussianBlur>
            <feComposite in="shadowBlurOuter1" in2="SourceAlpha" operator="out" result="shadowBlurOuter1"></feComposite>
            <feColorMatrix values="0 0 0 0 0.505882353   0 0 0 0 0.780392157   0 0 0 0 1  0 0 0 0.5 0" type="matrix" in="shadowBlurOuter1"></feColorMatrix>
        </filter>
    </defs>
    <g id="官网3" stroke="none" stroke-width="1" fill="none" fill-rule="evenodd">
        <g id="coco-AI-zh" transform="translate(-880, -1702)">
            <g id="编组-8" transform="translate(880, 1702)">
                <mask id="mask-3" fill="white">
                    <use xlink:href="#path-2"></use>
                </mask>
                <use id="蒙版" fill="url(#linearGradient-1)" xlink:href="#path-2"></use>
                <g id="编组-6" mask="url(#mask-3)">
                    <g transform="translate(110, 138)">
                        <rect id="search背景框-light" stroke="#E6E6E6" stroke-width="0.700684538" fill="#FFFFFF" fill-rule="evenodd" x="0.350342269" y="0.350342269" width="499.299315" height="437.299315" rx="8.40821446"></rect>
                        <g id="编组" stroke="none" stroke-width="1" fill="none" fill-rule="evenodd" transform="translate(14, 47)" stroke-linecap="round" stroke-linejoin="round">
                            <path d="M4.76116039,8.09994765 C4.65206978,7.67707655 4.32185354,7.34685988 3.89898298,7.23776914 L0.218079451,6.28859281 C0.0890426148,6.25196756 0,6.1341341 0,6 C0,5.8658659 0.0890426148,5.74803244 0.218079451,5.71140719 L3.89898298,4.76163087 C4.32169833,4.65264459 4.65188,4.32269227 4.76116039,3.90005235 L5.71033551,0.219144119 C5.74659534,0.0895779621 5.86468381,0 5.99922794,0 C6.13377206,0 6.25186054,0.0895779621 6.28812037,0.219144119 L7.23669551,3.90005235 C7.34578611,4.32292345 7.67600236,4.65314012 8.09887291,4.76223086 L11.7797764,5.71080721 C11.9098779,5.74669344 12,5.86503977 12,6 C12,6.13496023 11.9098779,6.25330656 11.7797764,6.28919279 L8.09887291,7.23776914 C7.67600236,7.34685988 7.34578611,7.67707655 7.23669551,8.09994765 L6.28752038,11.7808559 C6.25126055,11.910422 6.13317208,12 5.99862795,12 C5.86408383,12 5.74599535,11.910422 5.70973553,11.7808559 L4.76116039,8.09994765 Z" id="路径" stroke="#333333" stroke-width="1.19996855"></path>
                            <line x1="10.7988022" y1="0.600134621" x2="10.7988022" y2="3.00007479" id="路径" stroke="#333333" stroke-width="1.19996855"></line>
                            <line x1="11.9987707" y1="1.80010471" x2="9.5988336" y2="1.80010471" id="路径" stroke="#333333" stroke-width="1.19996855"></line>
                            <line x1="1.19905374" y1="8.99992521" x2="1.19905374" y2="10.1998953" id="路径" stroke="#333333" stroke-width="1.19996855"></line>
                            <line x1="1.79903802" y1="9.59991025" x2="0.599069466" y2="9.59991025" id="路径" stroke="#333333" stroke-width="1.19996855"></line>
                        </g>
                        <g id="file_type_hugo" stroke="none" stroke-width="1" fill="none" fill-rule="evenodd" transform="translate(13.9706, 248.8389)">
                            <path d="M6.71831991,0.192492539 L10.9491284,2.65224658 C11.4520346,2.9417277 11.7626566,3.4759504 11.7647059,4.05491625 L11.7647059,9.09131348 C11.7647059,9.73166267 11.4180854,10.3211905 10.8573759,10.636283 L6.65205424,12.9943943 C6.09134468,13.3094867 5.41339586,13.3044046 4.85778367,12.9893121 L0.983790397,10.7633364 C0.376276382,10.4148466 0.00128951243,9.76978075 0,9.07098493 L0,4.29377666 C0.000778961732,3.58941074 0.367214568,2.93564217 0.968498318,2.56585026 L4.77622591,0.217903222 C5.46946682,-0.0362036011 6.18819452,-0.0971892386 6.71322255,0.192492539 L6.71831991,0.192492539 Z" id="路径" fill="#FF4088" fill-rule="nonzero"></path>
                            <polygon id="路径" fill="#FFFFFF" fill-rule="nonzero" points="2.95646855 10.3567655 2.95646855 2.73356077 4.55194209 2.73356077 4.55194209 5.51348941 7.20256907 5.51348941 7.20256907 2.7386429 8.80823733 2.7386429 8.80823733 10.3618476 7.20766643 10.3618476 7.20766643 7.02796607 4.55703945 7.02796607 4.55703945 10.3567655"></polygon>
                        </g>
                        <rect id="输入框" stroke="none" fill="#EDEDED" fill-rule="evenodd" x="6" y="6" width="488.235294" height="29.3959732" rx="2.80273815"></rect>
                        <line x1="0.735294118" y1="67.9781879" x2="499.264706" y2="67.9781879" id="分割线-上" stroke="#E6E6E6" stroke-width="0.700684538" fill="none"></line>
                        <g id="切换按钮备份-2" stroke="none" stroke-width="1" fill="none" fill-rule="evenodd" transform="translate(458.8235, 44.8289)">
                            <rect id="矩形备份-4" fill="#6000FF" x="0" y="0" width="29.4117647" height="13.2281879" rx="6.28761331"></rect>
                            <g id="编组-2备份" transform="translate(13.9706, 0.7349)">
                                <g id="编组" transform="translate(1.4706, 1.4698)" stroke="#FFFFFF" stroke-linecap="round" stroke-linejoin="round" stroke-width="0.931498269">
                                    <ellipse id="椭圆形" cx="3.92156863" cy="3.91946309" rx="3.92156863" ry="3.91946309"></ellipse>
                                    <line x1="8.82352941" y1="8.81879195" x2="6.71568627" y2="6.71208054" id="路径"></line>
                                </g>
                                <rect id="矩形" x="0" y="0" width="11.7647059" height="11.7583893"></rect>
                            </g>
                            <rect id="矩形备份-5" fill="#FFFFFF" x="0.735294118" y="0.734899329" width="11.7647059" height="11.7583893" rx="5.87919463"></rect>
                        </g>
                        <g id="mic备份" stroke="none" stroke-width="1" fill="none" fill-rule="evenodd" transform="translate(476.4706, 14.698)">
                            <rect id="矩形" x="0" y="0" width="11.7647059" height="11.7583893"></rect>
                            <path d="M5.6372549,0.734899329 C4.82507145,0.734899329 4.16666667,1.3929506 4.16666667,2.20469799 L4.16666667,5.63422819 C4.16666667,6.44597557 4.82507145,7.10402685 5.6372549,7.10402685 C6.44943836,7.10402685 7.10784314,6.44597557 7.10784314,5.63422819 L7.10784314,2.20469799 C7.10784314,1.3929506 6.44943836,0.734899329 5.6372549,0.734899329 Z" id="路径" stroke="#999999" stroke-width="0.934246051" stroke-linecap="round" stroke-linejoin="round"></path>
                            <path d="M9.06862745,4.65436242 L9.06862745,5.63422819 C9.06862745,7.5283054 7.53234961,9.06375834 5.6372549,9.06375834 C3.74216019,9.06375834 2.20588235,7.5283054 2.20588235,5.63422819 L2.20588235,4.65436242" id="路径" stroke="#999999" stroke-width="0.934246051" stroke-linecap="round" stroke-linejoin="round"></path>
                            <line x1="5.6372549" y1="9.06375839" x2="5.6372549" y2="10.533557" id="路径" stroke="#999999" stroke-width="0.934246051" stroke-linecap="round" stroke-linejoin="round"></line>
                        </g>
                        <text id="Local-file" stroke="none" fill="none" font-family="PingFangSC-Regular, PingFang SC" font-size="8.38348442" font-weight="normal" line-spacing="11.1779792">
                            <tspan x="33.2351983" y="91.2899667" fill="#666666">Local file</tspan>
                        </text>
                        <text id="2025-Marketing-Plan" stroke="none" fill="none" font-family="Poppins-Regular, Poppins" font-size="11.2109526" font-weight="normal" line-spacing="11.2109526">
                            <tspan x="30" y="26" fill="#333333">2025 Marketing Plan</tspan>
                        </text>
                        <rect id="矩形备份-27" stroke="none" fill="#EBEBEB" fill-rule="evenodd" x="12.5" y="190.04698" width="14.7058824" height="14.6979866" rx="4.20410723"></rect>
                        <rect id="矩形备份-35" stroke="none" fill="#EBEBEB" fill-rule="evenodd" x="12.5" y="105.533557" width="14.7058824" height="14.6979866" rx="4.20410723"></rect>
                        <rect id="矩形备份-36" stroke="none" fill="#EBEBEB" fill-rule="evenodd" x="12.5" y="134.92953" width="14.7058824" height="14.6979866" rx="4.20410723"></rect>
                        <rect id="矩形备份-28" stroke="none" fill="#EBEBEB" fill-rule="evenodd" x="12.5" y="219.442953" width="14.7058824" height="14.6979866" rx="4.20410723"></rect>
                        <rect id="矩形备份-37" stroke="none" fill="#EBEBEB" fill-rule="evenodd" x="12.5" y="276.030201" width="14.7058824" height="14.6979866" rx="4.20410723"></rect>
                        <rect id="矩形备份-39" stroke="none" fill="#EBEBEB" fill-rule="evenodd" x="12.5" y="331.88255" width="14.7058824" height="14.6979866" rx="4.20410723"></rect>
                        <g id="编组备份-10" stroke="none" stroke-width="1" fill="none" fill-rule="evenodd" transform="translate(13.9706, 165.0604)">
                            <polygon id="路径" fill="#FFC107" fill-rule="nonzero" points="3.92156863 3.90517271e-16 7.8427925 3.90517271e-16 11.7643611 6.8590604 7.84313725 6.8590604"></polygon>
                            <polygon id="路径" fill="#1976D2" fill-rule="nonzero" points="1.9254471 10.2885906 3.90433096 6.8590604 11.7647059 6.8590604 9.80374919 10.2885906"></polygon>
                            <polygon id="路径" fill="#4CAF50" fill-rule="nonzero" points="0 6.89493856 1.9254471 10.2885906 5.88218056 3.4295302 3.92122387 0"></polygon>
                        </g>
                        <text id="Google-Drive" stroke="none" fill="none" font-family="PingFangSC-Regular, PingFang SC" font-size="8.40821446" font-weight="normal" line-spacing="11.2109526">
                            <tspan x="32.863448" y="173.598692" fill="#666666">Google Drive</tspan>
                        </text>
                        <text id="Notion" stroke="none" fill="none" font-family="PingFangSC-Regular, PingFang SC" font-size="8.40821446" font-weight="normal" line-spacing="11.2109526">
                            <tspan x="32.9931777" y="314.699363" fill="#666666">Notion</tspan>
                        </text>
                        <text id="Coco-AI-Website" stroke="none" fill="none" font-family="PingFangSC-Regular, PingFang SC" font-size="8.40821446" font-weight="normal" line-spacing="11.2109526">
                            <tspan x="33.962286" y="258.847014" fill="#666666">Coco AI Website</tspan>
                        </text>
                        <rect id="矩形" stroke="none" fill="#EBEBEB" fill-rule="evenodd" x="33.8235294" y="192.251678" width="313.970588" height="10.2885906" rx="4.5544495"></rect>
                        <rect id="矩形备份-21" stroke="none" fill="#EBEBEB" fill-rule="evenodd" x="439.705882" y="107.738255" width="48.5294118" height="10.2885906" rx="4.5544495"></rect>
                        <rect id="矩形备份-22" stroke="none" fill="#EBEBEB" fill-rule="evenodd" x="422.058824" y="137.134228" width="66.1764706" height="10.2885906" rx="4.5544495"></rect>
                        <rect id="矩形备份-23" stroke="none" fill="#EBEBEB" fill-rule="evenodd" x="433.088235" y="192.251678" width="55.1470588" height="10.2885906" rx="4.5544495"></rect>
                        <rect id="矩形备份-25" stroke="none" fill="#EBEBEB" fill-rule="evenodd" x="444.117647" y="278.234899" width="44.1176471" height="10.2885906" rx="4.5544495"></rect>
                        <rect id="矩形备份-24" stroke="none" fill="#EBEBEB" fill-rule="evenodd" x="454.411765" y="221.647651" width="33.8235294" height="10.2885906" rx="4.5544495"></rect>
                        <rect id="矩形备份-26" stroke="none" fill="#EBEBEB" fill-rule="evenodd" x="429.411765" y="334.087248" width="58.8235294" height="10.2885906" rx="4.5544495"></rect>
                        <rect id="矩形备份-16" stroke="none" fill="#EBEBEB" fill-rule="evenodd" x="33.8235294" y="107.738255" width="181.617647" height="10.2885906" rx="4.5544495"></rect>
                        <rect id="矩形备份-6" stroke="none" fill="#EBEBEB" fill-rule="evenodd" x="33.8235294" y="221.647651" width="119.117647" height="10.2885906" rx="4.5544495"></rect>
                        <rect id="矩形备份-17" stroke="none" fill="#EBEBEB" fill-rule="evenodd" x="33.8235294" y="137.134228" width="216.176471" height="10.2885906" rx="4.5544495"></rect>
                        <rect id="矩形备份-19" stroke="none" fill="#EBEBEB" fill-rule="evenodd" x="33.8235294" y="334.087248" width="119.117647" height="10.2885906" rx="4.5544495"></rect>
                        <rect id="矩形备份-20" stroke="none" fill="#EBEBEB" fill-rule="evenodd" x="33.8235294" y="278.234899" width="157.352941" height="10.2885906" rx="4.5544495"></rect>
                        <g id="pcm" stroke="none" stroke-width="1" fill="none" fill-rule="evenodd" transform="translate(13.9706, 80.547)">
                            <rect id="矩形" fill="#000000" fill-rule="nonzero" opacity="0" x="0" y="0" width="11.7647059" height="11.7583893"></rect>
                            <path d="M9.80251762,4.7846447 C10.0740208,4.7846447 10.2941176,5.01567592 10.2941176,5.30065286 L10.2941176,9.77259421 C10.2941176,10.0575711 10.0740208,10.2885906 9.80251762,10.2885906 L6.68908062,10.2885906 C6.41757742,10.2885906 6.19748059,10.0575711 6.19748059,9.77259421 L6.19748059,5.3006411 C6.19748059,5.01566416 6.41757742,4.7846447 6.68908062,4.7846447 L9.80251762,4.7846447 L9.80251762,4.7846447 Z M5.65126082,9.23652749 L5.65126082,9.77259421 C5.65126082,9.91764838 5.67830185,10.0563887 5.72745513,10.1825248 L3.13865213,10.1825248 L3.13865213,9.23651574 L5.65126082,9.23651574 L5.65126082,9.23652749 Z M9.474788,5.64464654 L7.01681024,5.64464654 L7.01681024,9.42860053 L9.474788,9.42860053 L9.474788,5.64464654 L9.474788,5.64464654 Z M8.18571293,2.20469799 C8.58391242,2.20469799 8.90672481,2.54351865 8.90672481,2.96147938 L8.90672481,4.21105932 L8.00546556,4.21105932 L8.00546556,3.1506953 L1.63655337,3.1506953 L1.63655337,7.56528281 L5.65126082,7.56528281 L5.65126082,8.51128013 L1.456306,8.51128013 C1.05810213,8.51128013 0.735294118,8.17245229 0.735294118,7.75448698 L0.735294118,2.96147938 C0.735294118,2.54351865 1.05810651,2.20469799 1.456306,2.20469799 L8.18571293,2.20469799 L8.18571293,2.20469799 Z M5.72963947,4.88470234 C5.67773372,5.01660173 5.65110013,5.15794452 5.65126082,5.30065286 L5.65126082,5.83098184 L3.13865213,5.83098184 L3.13865213,4.88499628 L5.72963947,4.88470234 L5.72963947,4.88470234 Z" id="形状" fill="#000000" fill-rule="nonzero"></path>
                        </g>
                        <ellipse id="椭圆形备份-5" stroke="none" fill="#EBEBEB" fill-rule="evenodd" cx="430.882353" cy="112.88255" rx="5.88235294" ry="5.87919463"></ellipse>
                        <ellipse id="椭圆形备份-6" stroke="none" fill="#EBEBEB" fill-rule="evenodd" cx="413.235294" cy="142.278523" rx="5.88235294" ry="5.87919463"></ellipse>
                        <ellipse id="椭圆形备份-7" stroke="none" fill="#EBEBEB" fill-rule="evenodd" cx="424.264706" cy="197.395973" rx="5.88235294" ry="5.87919463"></ellipse>
                        <ellipse id="椭圆形备份-9" stroke="none" fill="#EBEBEB" fill-rule="evenodd" cx="435.294118" cy="283.379195" rx="5.88235294" ry="5.87919463"></ellipse>
                        <ellipse id="椭圆形备份-8" stroke="none" fill="#EBEBEB" fill-rule="evenodd" cx="445.588235" cy="226.791946" rx="5.88235294" ry="5.87919463"></ellipse>
                        <ellipse id="椭圆形备份-10" stroke="none" fill="#EBEBEB" fill-rule="evenodd" cx="420.588235" cy="339.231544" rx="5.88235294" ry="5.87919463"></ellipse>
                        <g id="编组备份-2" stroke="none" stroke-width="1" fill="none" fill-rule="evenodd" transform="translate(479.4118, 165.7953)" stroke-linecap="round" stroke-linejoin="round">
                            <rect id="矩形" stroke="#999999" stroke-width="0.934246051" x="0" y="0" width="8.82352941" height="8.81879195" rx="0.934246051"></rect>
                            <line x1="2.45098039" y1="4.40939597" x2="6.37254902" y2="4.40939597" id="路径" stroke="#999999" stroke-width="0.934246051"></line>
                            <polyline id="路径" stroke="#999999" stroke-width="0.934246051" points="4.41176471 6.36912752 6.37254902 4.40939597 4.41176471 2.44966443"></polyline>
                        </g>
                        <g id="编组备份-4" stroke="none" stroke-width="1" fill="none" fill-rule="evenodd" transform="translate(479.4118, 250.3087)" stroke-linecap="round" stroke-linejoin="round">
                            <rect id="矩形" stroke="#999999" stroke-width="0.934246051" x="0" y="0" width="8.82352941" height="8.81879195" rx="0.934246051"></rect>
                            <line x1="2.45098039" y1="4.40939597" x2="6.37254902" y2="4.40939597" id="路径" stroke="#999999" stroke-width="0.934246051"></line>
                            <polyline id="路径" stroke="#999999" stroke-width="0.934246051" points="4.41176471 6.36912752 6.37254902 4.40939597 4.41176471 2.44966443"></polyline>
                        </g>
                        <g id="编组备份-5" stroke="none" stroke-width="1" fill="none" fill-rule="evenodd" transform="translate(479.4118, 307.6309)" stroke-linecap="round" stroke-linejoin="round">
                            <rect id="矩形" stroke="#999999" stroke-width="0.934246051" x="0" y="0" width="8.82352941" height="8.81879195" rx="0.934246051"></rect>
                            <line x1="2.45098039" y1="4.40939597" x2="6.37254902" y2="4.40939597" id="路径" stroke="#999999" stroke-width="0.934246051"></line>
                            <polyline id="路径" stroke="#999999" stroke-width="0.934246051" points="4.41176471 6.36912752 6.37254902 4.40939597 4.41176471 2.44966443"></polyline>
                        </g>
                        <g id="编组备份-3" stroke="none" stroke-width="1" fill="none" fill-rule="evenodd" transform="translate(479.4118, 82.0168)" stroke-linecap="round" stroke-linejoin="round">
                            <rect id="矩形" stroke="#999999" stroke-width="0.934246051" x="0" y="0" width="8.82352941" height="8.81879195" rx="0.934246051"></rect>
                            <line x1="2.45098039" y1="4.40939597" x2="6.37254902" y2="4.40939597" id="路径" stroke="#999999" stroke-width="0.934246051"></line>
                            <polyline id="路径" stroke="#999999" stroke-width="0.934246051" points="4.41176471 6.36912752 6.37254902 4.40939597 4.41176471 2.44966443"></polyline>
                        </g>
                        <line x1="93.3823529" y1="170.204771" x2="468.543432" y2="170.204771" id="路径-4" stroke="#EBEBEB" stroke-width="0.700684538" fill="none"></line>
                        <line x1="79.0441176" y1="87.5285235" x2="468.543432" y2="87.1611473" id="路径-4备份-2" stroke="#EBEBEB" stroke-width="0.700684538" fill="none"></line>
                        <line x1="108.455882" y1="255.08557" x2="468.543432" y2="254.718194" id="路径-4备份-3" stroke="#EBEBEB" stroke-width="0.700684538" fill="none"></line>
                        <line x1="70.9558824" y1="311.672819" x2="468.543432" y2="311.305443" id="路径-4备份-4" stroke="#EBEBEB" stroke-width="0.700684538" fill="none"></line>
                        <g id="编组" stroke="none" stroke-width="1" fill="none" fill-rule="evenodd" transform="translate(14.7059, 305.4262)">
                            <path d="M7.06954657,0.0267308917 L0.693167894,0.507251498 C0.179227948,0.55271674 0,0.895665789 0,1.30681271 L0,8.439369 C0,8.75958542 0.111825982,9.03355271 0.38028493,9.39962633 L1.87921262,11.3883389 C2.12545956,11.7085553 2.34911152,11.7771451 2.81939339,11.7544125 L10.2240349,11.2970164 C10.8501838,11.2515512 11.0294118,10.9540674 11.0294118,10.4512061 L11.0294118,2.42698228 C11.0294118,2.16712489 10.9286918,2.09226401 10.6322764,1.87042497 C10.6154045,1.85791296 10.598554,1.84537081 10.5817249,1.83279855 L8.54626226,0.36967993 C8.05376838,0.00439020944 7.8527114,-0.0418589205 7.06954657,0.0267308917 Z M2.98713236,2.29568179 C2.38242954,2.33722761 2.24532782,2.34663421 1.90180761,2.06169255 L1.02864584,1.35306184 C0.939797796,1.26134746 0.98460478,1.14690047 1.20787378,1.12416784 L7.33800552,0.667163737 C7.85232843,0.621306552 8.12078738,0.804343362 8.32222733,0.964255601 L9.3738511,1.74186807 C9.41865809,1.7646007 9.5301011,1.90138837 9.39606312,1.90138837 L3.06525735,2.2901946 L2.98713236,2.29568179 L2.98713236,2.29568179 Z M2.28209252,10.3826163 L2.28209252,3.57066836 C2.28209252,3.27318456 2.37132352,3.13600494 2.63978248,3.11288037 L9.91038603,2.67860889 C10.1570159,2.65587627 10.2688419,2.81578852 10.2688419,3.11288037 L10.2688419,9.87936306 C10.2688419,10.1768469 10.2240349,10.4284735 9.82077206,10.4512061 L2.86343444,10.862745 C2.4609375,10.8854776 2.28209252,10.7486899 2.28209252,10.3826163 L2.28209252,10.3826163 Z M9.15058211,3.93595808 C9.19500613,4.14172751 9.15058211,4.34749694 8.94875919,4.37101345 L8.61328126,4.43881937 L8.61328126,9.46821614 C8.32222734,9.62812838 8.05415136,9.71945082 7.83049939,9.71945081 C7.47242648,9.71945081 7.38242954,9.60500381 7.11435355,9.26244671 L4.92149204,5.74202575 L4.92149204,9.14799972 L5.61542586,9.30830391 C5.61542586,9.30830391 5.61542586,9.71984277 5.05553002,9.71984276 L3.51217831,9.81116519 C3.4677543,9.71945082 3.51217831,9.49094877 3.66919425,9.44548352 L4.07130821,9.33142846 L4.07130821,4.82801755 L3.51217831,4.78176842 C3.4677543,4.57599899 3.57919731,4.27890713 3.8928462,4.2561745 L5.54840687,4.14172752 L7.83049939,7.7083976 L7.83049939,4.55326637 L7.24839155,4.4850685 C7.20396753,4.23304994 7.38242954,4.05040508 7.60646446,4.02767246 L9.15058211,3.93595808 Z" id="形状" fill="#000000" fill-rule="nonzero"></path>
                        </g>
                        <g id="过滤" stroke="none" stroke-width="1" fill="none" fill-rule="evenodd" transform="translate(37, 45)">
                            <rect id="矩形" fill="#333333" fill-rule="nonzero" opacity="0" x="0" y="0" width="16" height="16"></rect>
                            <path d="M3,4.66668573 C3,4.29850008 3.30770356,4.00002422 3.68728097,4.00000774 L13.3093756,4.00000774 C13.555713,3.9988588 13.7838501,4.12567032 13.9073643,4.33241158 C14.0308786,4.53915284 14.0308786,4.79420299 13.9073643,5.00094425 C13.7838501,5.20768551 13.555713,5.33449703 13.3093756,5.33334809 L3.68728097,5.33334809 C3.30770985,5.33333161 3,5.03486527 3,4.66668573 L3,4.66668573 Z M4.37457804,8.00000517 C4.37457804,7.82319326 4.44698949,7.6536231 4.57588269,7.5285982 C4.7047759,7.40357329 4.8795926,7.33333503 5.06187512,7.33333503 L11.9347814,7.33333503 C12.180329,7.33333503 12.4072244,7.46040163 12.5299982,7.66667009 C12.652772,7.87293856 12.652772,8.12707179 12.5299982,8.33333503 C12.4072244,8.53960871 12.180329,8.66667531 11.9347814,8.66667531 L5.06187512,8.66667531 C4.68229142,8.66667531 4.37457804,8.36819692 4.37457804,8.00000517 Z M5.74915608,11.3333246 C5.74915608,10.965139 6.05687576,10.6666623 6.43645316,10.6666623 L10.5602034,10.6666623 C10.8065408,10.6655133 11.0346779,10.7923248 11.1581921,10.9990661 C11.2817064,11.2058074 11.2817064,11.4608575 11.1581921,11.6675988 C11.0346779,11.87434 10.8065408,12.0011515 10.5602034,12.0000026 L6.43645316,12.0000026 C6.05686947,12.0000026 5.74915608,11.7015164 5.74915608,11.3333246 Z" id="形状" fill="#333333" fill-rule="nonzero"></path>
                        </g>
                        <g id="搜索" stroke="none" stroke-width="1" fill="none" fill-rule="evenodd" transform="translate(12, 15)">
                            <rect id="矩形" fill="#B9B9B9" fill-rule="nonzero" opacity="0" x="0" y="0" width="12" height="12"></rect>
                            <path d="M8.64726562,8.71992187 C9.72421875,7.696875 10.1695312,6.17460937 9.81445312,4.73203125 C9.459375,3.28945312 8.35664062,2.14804687 6.928125,1.74257812 C5.49960937,1.33710937 3.96210937,1.7296875 2.9015625,2.7703125 C1.29375,4.3640625 1.265625,6.95273437 2.83828125,8.58046875 C4.40976562,10.209375 6.9984375,10.2714844 8.64726562,8.71992187 Z M9.23789062,9.33632813 C7.25625,11.25 4.096875,11.1949219 2.18320312,9.21328125 C0.26953125,7.23046875 0.324609375,4.07226563 2.30742187,2.15742188 C4.2890625,0.24375 7.44726562,0.298828125 9.36210937,2.28164063 C11.2757812,4.26328125 11.2207031,7.42148438 9.23789062,9.33632813 Z" id="形状" fill="#B9B9B9" fill-rule="nonzero"></path>
                            <path d="M10.528125,11.1164062 L8.99765625,9.53203125 C8.8359375,9.36445312 8.840625,9.09726562 9.00820312,8.93554687 C9.17578125,8.77382812 9.44296875,8.77851562 9.6046875,8.94609375 L11.1351562,10.5304687 C11.296875,10.6980469 11.2921875,10.9652344 11.1246094,11.1269531 C10.9570312,11.2886719 10.6898437,11.2839844 10.528125,11.1164062 L10.528125,11.1164062 Z" id="路径" fill="#B9B9B9" fill-rule="nonzero"></path>
                        </g>
                    </g>
                </g>
                <g id="编组-9" filter="url(#filter-4)" mask="url(#mask-3)">
                    <g transform="translate(137, 51)">
                        <rect id="矩形" fill="#FFFFFF" x="0" y="0" width="64" height="64" rx="21.3333333"></rect>
                        <g id="编组备份-10" stroke-width="1" fill="none" transform="translate(10.6667, 13.3333)">
                            <polygon id="路径" fill="#FFC107" fill-rule="nonzero" points="14.2222222 1.41703679e-15 28.4431941 1.41703679e-15 42.6654164 24.8888889 28.4444444 24.8888889"></polygon>
                            <polygon id="路径" fill="#1976D2" fill-rule="nonzero" points="6.98295482 37.3333333 14.159707 24.8888889 42.6666667 24.8888889 35.5549304 37.3333333"></polygon>
                            <polygon id="路径" fill="#4CAF50" fill-rule="nonzero" points="0 25.0190769 6.98295482 37.3333333 21.3327082 12.4444444 14.2209719 0"></polygon>
                        </g>
                    </g>
                </g>
                <g id="编组-9备份" filter="url(#filter-5)" mask="url(#mask-3)">
                    <g transform="translate(376, 115)">
                        <rect id="矩形" fill="#FFFFFF" x="0" y="0" width="56" height="56" rx="18.6666667"></rect>
                        <g id="file_type_hugo" stroke-width="1" fill="none" transform="translate(11, 9)">
                            <path d="M19.4159445,0.552964362 L31.6429809,7.61898537 C33.09638,8.45056431 33.9940775,9.98520101 34,11.6483692 L34,26.1161932 C34,27.9556946 32.9982669,29.6492038 31.3778163,30.5543552 L19.2244367,37.3283919 C17.6039861,38.2335433 15.644714,38.2189441 14.0389948,37.3137927 L2.84315425,30.9193356 C1.08743874,29.9182452 0.00372669093,28.0651946 0,26.0577964 L0,12.3345324 C0.00225119941,10.3111332 1.0612501,8.43308268 2.79896014,7.37079868 L13.8032929,0.625960447 C15.8067591,-0.104000401 17.8838821,-0.279191004 19.4012132,0.552964362 L19.4159445,0.552964362 Z" id="路径" fill="#FF4088" fill-rule="nonzero"></path>
                            <polygon id="路径" fill="#FFFFFF" fill-rule="nonzero" points="8 29.9853431 8 8 12.6350174 8 12.6350174 16.0173218 20.3353659 16.0173218 20.3353659 8.0146569 25 8.0146569 25 30 20.3501742 30 20.3501742 20.3850766 12.6498258 20.3850766 12.6498258 29.9853431"></polygon>
                        </g>
                    </g>
                </g>
                <g id="编组-9备份-2" filter="url(#filter-6)" mask="url(#mask-3)">
                    <g transform="translate(286, 24)">
                        <rect id="矩形" fill="#FFFFFF" x="0" y="0" width="48" height="48" rx="16"></rect>
                        <g id="编组" stroke-width="1" fill="none" transform="translate(10, 9)">
                            <path d="M17.9472222,0.0682003915 L1.75972223,1.29418619 C0.455000017,1.41018483 0,2.2851747 0,3.33416256 L0,21.5319517 C0,22.3489423 0.283888893,23.0479341 0.965416675,23.9819233 L4.77069445,29.0558646 C5.39583333,29.8728551 5.96361112,30.0478531 7.15750001,29.9898538 L25.9554167,28.8228673 C27.545,28.7068686 28,27.9478774 28,26.6648923 L28,6.19212945 C28,5.52913713 27.7443056,5.33813935 26.9918056,4.7721459 C26.9489735,4.74022314 26.9061956,4.70822346 26.8634722,4.676147 L21.6961111,0.943190231 C20.4458333,0.0112010481 19.9354167,-0.106797588 17.9472222,0.0682003915 Z M7.58333335,5.85713332 C6.04819446,5.96313208 5.7001389,5.98713181 4.82805557,5.26014024 L2.6113889,3.45216119 C2.38583334,3.21816391 2.49958333,2.92616729 3.06638889,2.86816795 L18.62875,1.70218145 C19.9344444,1.58518281 20.6159722,2.05217741 21.1273611,2.46017268 L23.7970833,4.4441497 C23.9108333,4.50214904 24.19375,4.85114498 23.8534722,4.85114498 L7.78166667,5.84313349 L7.58333335,5.85713332 L7.58333335,5.85713332 Z M5.79347222,26.4898943 L5.79347222,9.11009565 C5.79347222,8.35110445 6.01999999,8.00110849 6.7015278,7.94210916 L25.1591667,6.834122 C25.7852778,6.77612266 26.0691667,7.18411796 26.0691667,7.94210916 L26.0691667,25.2059092 C26.0691667,25.9649004 25.9554167,26.606893 24.9316667,26.6648923 L7.26930555,27.7148801 C6.24750001,27.7728795 5.79347222,27.4238835 5.79347222,26.4898943 L5.79347222,26.4898943 Z M23.2302778,10.0420848 C23.3430555,10.5670787 23.2302778,11.0920727 22.7179167,11.152072 L21.86625,11.32507 L21.86625,24.1569213 C21.1273611,24.5649166 20.4468056,24.7979139 19.8790278,24.7979139 C18.97,24.7979139 18.7415278,24.5059173 18.0609722,23.6319274 L12.4940278,14.6500315 L12.4940278,23.3399308 L14.2556944,23.7489261 C14.2556944,23.7489261 14.2556944,24.7989139 12.8343056,24.7989139 L8.91625001,25.0319112 C8.80347224,24.7979139 8.91625001,24.2149207 9.31486113,24.098922 L10.3356944,23.8079254 L10.3356944,12.3180585 L8.91625001,12.2000598 C8.80347224,11.6750659 9.08638891,10.9170747 9.88263889,10.8590754 L14.0855556,10.5670788 L19.8790278,19.6669733 L19.8790278,11.6170666 L18.40125,11.4430686 C18.2884722,10.8000761 18.7415278,10.3340814 19.3102778,10.2760821 L23.2302778,10.0420848 Z" id="形状" fill="#000000" fill-rule="nonzero"></path>
                        </g>
                    </g>
                </g>
                <g id="编组-9备份-3" filter="url(#filter-7)" mask="url(#mask-3)">
                    <g transform="translate(517, 72)">
                        <rect id="矩形" fill="#FFFFFF" x="0" y="0" width="48" height="48" rx="16"></rect>
                        <g id="编组" stroke-width="1" fill="none" transform="translate(5, 7)">
                            <path d="M35,4.55715053 L32.1561686,4.4017831 C32.1561686,4.4017831 31.0805875,0.542435671 26.1442498,0.196161906 C21.2079121,-0.149979757 17.9780051,0.0673496409 17.9780051,0.0673496721 C17.9780051,0.0673497033 21.6397264,2.45136733 20.1722698,6.7054748 C19.0819257,8.99991841 17.3569097,10.8746322 15.517745,13.0291659 L3.35616438,27.2238806 C14.6771836,27.0541127 21.3515866,26.9691626 23.3795053,26.9691626 C29.066509,26.9691626 33.8727487,21.9252708 33.6760861,16.313284 C33.5408476,12.4563146 32.3401774,11.5848832 31.9274758,9.89565903 C31.514906,8.20643486 32.3408364,5.51260719 35,4.55715053 L35,4.55715053 Z" id="路径" fill="#31CC79" fill-rule="nonzero"></path>
                            <path d="M15.3134832,13.0273636 C9.35856209,19.933559 0,30.9216834 0,30.9216834 C16.8362341,35.4594602 24.5933233,24.4462543 25.8080428,20.6335874 C27.4365476,15.5217209 25.1355428,13.0273635 23.8332664,12.2138708 C19.4177109,9.45569228 16.1415812,12.0669643 15.3134832,13.0273636 Z" id="路径" fill="#93E65C" fill-rule="nonzero"></path>
                            <path d="M15.8890793,12.7659299 C17.0189696,11.6824678 20.1595214,9.67839284 24.277909,12.2119258 C25.5979341,13.0240605 27.9306796,15.5144397 26.2797828,20.6183249 C25.800851,22.0986165 24.3189185,24.6661974 21.6825965,26.9851494 C18.9553347,27.003625 12.8465241,27.0832021 3.35616438,27.2238806 L15.0999136,13.6695189 C15.3562227,13.3725895 15.6102682,13.0812029 15.8605857,12.7933794 L15.8890793,12.7659299 Z" id="路径" fill="#60DB69" fill-rule="nonzero" opacity="0.86"></path>
                        </g>
                    </g>
                </g>
                <g id="矩形" mask="url(#mask-3)">
                    <use fill="black" fill-opacity="1" filter="url(#filter-9)" xlink:href="#path-8"></use>
                    <use fill="#70A3FF" fill-rule="evenodd" xlink:href="#path-8"></use>
                </g>
                <g id="矩形备份-33" mask="url(#mask-3)">
                    <use fill="black" fill-opacity="1" filter="url(#filter-11)" xlink:href="#path-10"></use>
                    <use fill="#FFDA70" fill-rule="evenodd" xlink:href="#path-10"></use>
                </g>
                <g id="矩形备份-7" mask="url(#mask-3)">
                    <use fill="black" fill-opacity="1" filter="url(#filter-13)" xlink:href="#path-12"></use>
                    <use fill-opacity="0.4" fill="#FFFFFF" fill-rule="evenodd" xlink:href="#path-12"></use>
                </g>
                <g id="矩形备份-12" mask="url(#mask-3)">
                    <use fill="black" fill-opacity="1" filter="url(#filter-15)" xlink:href="#path-14"></use>
                    <use fill-opacity="0.5" fill="#FFFFFF" fill-rule="evenodd" xlink:href="#path-14"></use>
                </g>
                <g id="编组" mask="url(#mask-3)">
                    <g transform="translate(418, 36)">
                        <rect id="矩形备份-12" fill="#00A1E0" fill-rule="evenodd" x="0" y="0" width="27" height="27" rx="7.71428571"></rect>
                        <path d="M13.5,5.01428571 C18.1865306,5.01428571 21.9857143,8.81346941 21.9857143,13.5 C21.9857143,18.1865306 18.1865306,21.9857143 13.5,21.9857143 C8.81346941,21.9857143 5.01428571,18.1865306 5.01428571,13.5 C5.01428571,8.81346941 8.81346941,5.01428571 13.5,5.01428571 Z M13.5,6.55714286 C9.66556588,6.55714286 6.55714286,9.66556588 6.55714286,13.5 C6.55714286,17.3344341 9.66556588,20.4428571 13.5,20.4428571 C17.3344341,20.4428571 20.4428571,17.3344341 20.4428571,13.5 C20.4428571,9.66556588 17.3344341,6.55714286 13.5,6.55714286 Z" id="椭圆形" fill="#FFFFFF" fill-rule="nonzero"></path>
                        <path d="M13.5160293,5.01444739 L13.5318214,5.01573214 L13.5536106,5.01614592 L13.5694286,5.01814286 L13.5855932,5.01900713 L13.6065536,5.02248214 L13.6228695,5.02409159 L13.6378929,5.02778571 L13.654624,5.02983631 L13.6706786,5.03405357 L13.6912904,5.03827324 L13.705875,5.04273214 L13.7226648,5.04694606 L13.7444464,5.05478571 L13.758416,5.05867973 L13.7704821,5.06394643 L13.7892583,5.07034753 L13.8080893,5.079375 L13.8237895,5.08529991 L13.8346071,5.09142857 L13.8539476,5.10005187 L13.874625,5.11216071 L13.8869538,5.11812264 L13.8987321,5.12614286 L13.9162757,5.13607023 L13.9310357,5.146875 L13.9474518,5.15713675 L13.9638214,5.1705 L13.9757854,5.17841376 L13.9874464,5.18882143 L14.0048264,5.20233112 L14.0187857,5.21630357 L14.0320197,5.2270936 L14.0448214,5.24089286 L14.0586207,5.25369458 C18.4103552,9.82301582 18.4561629,16.9758931 14.1960439,21.599605 L14.0586207,21.7463054 C13.7546094,22.0655172 13.2453906,22.0655172 12.9413793,21.7463054 C8.54334975,17.1283744 8.54334975,9.87162562 12.9413793,5.25369458 L12.9546964,5.24089286 L12.9679803,5.2270936 L12.9807321,5.21630357 L12.9951736,5.20233112 L13.0120714,5.18882143 L13.0242146,5.17841376 L13.0356964,5.1705 L13.0525482,5.15713675 L13.0684821,5.146875 L13.0837243,5.13607023 L13.1007857,5.12614286 L13.1130462,5.11812264 L13.1248929,5.11216071 L13.1460524,5.10005187 L13.1649107,5.09142857 L13.1762105,5.08529991 L13.1914286,5.079375 L13.2107417,5.07034753 L13.2290357,5.06394643 L13.241584,5.05867973 L13.2550714,5.05478571 L13.2773352,5.04694606 L13.2936429,5.04273214 L13.3087096,5.03827324 L13.3288393,5.03405357 L13.345376,5.02983631 L13.361625,5.02778571 L13.3771305,5.02409159 L13.3929643,5.02248214 L13.4144068,5.01900713 L13.4300893,5.01814286 L13.4463894,5.01614592 L13.4676964,5.01573214 L13.4839707,5.01444739 L13.4995179,5.01525 L13.5160293,5.01444739 Z M13.5,6.95394643 L13.4361387,7.03309533 C10.4355728,10.8132305 10.4355728,16.1867695 13.4361387,19.9669047 L13.5,20.0455714 L13.5638613,19.9669047 C16.5644272,16.1867695 16.5644272,10.8132305 13.5638613,7.03309533 L13.5,6.95394643 Z" id="路径" fill="#FFFFFF" fill-rule="nonzero"></path>
                        <path d="M21.2142857,12.7285714 C21.6403339,12.7285714 21.9857143,13.0739518 21.9857143,13.5 C21.9857143,13.9260482 21.6403339,14.2714286 21.2142857,14.2714286 L5.78571429,14.2714286 C5.35966605,14.2714286 5.01428571,13.9260482 5.01428571,13.5 C5.01428571,13.0739518 5.35966605,12.7285714 5.78571429,12.7285714 L21.2142857,12.7285714 Z" id="路径" fill="#FFFFFF" fill-rule="nonzero"></path>
                    </g>
                </g>
            </g>
        </g>
    </g>
</svg>