<?xml version="1.0" encoding="UTF-8"?>
<svg width="720px" height="500px" viewBox="0 0 720 500" version="1.1" xmlns="http://www.w3.org/2000/svg" xmlns:xlink="http://www.w3.org/1999/xlink">
    <title>market</title>
    <defs>
        <linearGradient x1="50%" y1="0%" x2="50%" y2="100%" id="linearGradient-1">
            <stop stop-color="#C9E7FF" offset="0%"></stop>
            <stop stop-color="#7DC5FF" offset="100%"></stop>
        </linearGradient>
        <rect id="path-2" x="0" y="0" width="720" height="500" rx="16"></rect>
        <rect id="path-4" x="601" y="245" width="42" height="42" rx="13.9999995"></rect>
        <filter x="-66.7%" y="-61.9%" width="233.3%" height="233.3%" filterUnits="objectBoundingBox" id="filter-5">
            <feOffset dx="0" dy="2" in="SourceAlpha" result="shadowOffsetOuter1"></feOffset>
            <feGaussianBlur stdDeviation="9" in="shadowOffsetOuter1" result="shadowBlurOuter1"></feGaussianBlur>
            <feColorMatrix values="0 0 0 0 0.505882353   0 0 0 0 0.780392157   0 0 0 0 1  0 0 0 0.5 0" type="matrix" in="shadowBlurOuter1"></feColorMatrix>
        </filter>
        <rect id="path-6" x="58" y="376" width="32" height="32" rx="10.6666667"></rect>
        <filter x="-68.8%" y="-62.5%" width="237.5%" height="237.5%" filterUnits="objectBoundingBox" id="filter-7">
            <feOffset dx="0" dy="2" in="SourceAlpha" result="shadowOffsetOuter1"></feOffset>
            <feGaussianBlur stdDeviation="7" in="shadowOffsetOuter1" result="shadowBlurOuter1"></feGaussianBlur>
            <feColorMatrix values="0 0 0 0 0.505882353   0 0 0 0 0.780392157   0 0 0 0 1  0 0 0 0.5 0" type="matrix" in="shadowBlurOuter1"></feColorMatrix>
        </filter>
        <rect id="path-8" x="69" y="198" width="23" height="23" rx="7.66666651"></rect>
        <filter x="-67.4%" y="-63.0%" width="234.8%" height="234.8%" filterUnits="objectBoundingBox" id="filter-9">
            <feOffset dx="0" dy="1" in="SourceAlpha" result="shadowOffsetOuter1"></feOffset>
            <feGaussianBlur stdDeviation="5" in="shadowOffsetOuter1" result="shadowBlurOuter1"></feGaussianBlur>
            <feComposite in="shadowBlurOuter1" in2="SourceAlpha" operator="out" result="shadowBlurOuter1"></feComposite>
            <feColorMatrix values="0 0 0 0 0.505882353   0 0 0 0 0.780392157   0 0 0 0 1  0 0 0 0.5 0" type="matrix" in="shadowBlurOuter1"></feColorMatrix>
        </filter>
        <rect id="path-10" x="615" y="103" width="28" height="28" rx="9.33333333"></rect>
        <filter x="-66.1%" y="-62.5%" width="232.1%" height="232.1%" filterUnits="objectBoundingBox" id="filter-11">
            <feOffset dx="0" dy="1" in="SourceAlpha" result="shadowOffsetOuter1"></feOffset>
            <feGaussianBlur stdDeviation="6" in="shadowOffsetOuter1" result="shadowBlurOuter1"></feGaussianBlur>
            <feComposite in="shadowBlurOuter1" in2="SourceAlpha" operator="out" result="shadowBlurOuter1"></feComposite>
            <feColorMatrix values="0 0 0 0 0.505882353   0 0 0 0 0.780392157   0 0 0 0 1  0 0 0 0.5 0" type="matrix" in="shadowBlurOuter1"></feColorMatrix>
        </filter>
    </defs>
    <g id="官网3" stroke="none" stroke-width="1" fill="none" fill-rule="evenodd">
        <g id="coco-AI-zh" transform="translate(-880, -1702)">
            <g id="market" transform="translate(880, 1702)">
                <mask id="mask-3" fill="white">
                    <use xlink:href="#path-2"></use>
                </mask>
                <use id="蒙版" fill="url(#linearGradient-1)" xlink:href="#path-2"></use>
                <g id="编组-6" mask="url(#mask-3)">
                    <g transform="translate(110, 138)">
                        <rect id="search背景框-light" stroke="#E6E6E6" stroke-width="0.700684538" fill="#FFFFFF" fill-rule="evenodd" x="0.350342269" y="0.350342269" width="499.299315" height="437.299315" rx="8.40821446"></rect>
                        <g id="编组" stroke="none" stroke-width="1" fill="none" fill-rule="evenodd" transform="translate(14, 47)" stroke-linecap="round" stroke-linejoin="round">
                            <path d="M4.76116039,8.09994765 C4.65206978,7.67707655 4.32185354,7.34685988 3.89898298,7.23776914 L0.218079451,6.28859281 C0.0890426148,6.25196756 0,6.1341341 0,6 C0,5.8658659 0.0890426148,5.74803244 0.218079451,5.71140719 L3.89898298,4.76163087 C4.32169833,4.65264459 4.65188,4.32269227 4.76116039,3.90005235 L5.71033551,0.219144119 C5.74659534,0.0895779621 5.86468381,0 5.99922794,0 C6.13377206,0 6.25186054,0.0895779621 6.28812037,0.219144119 L7.23669551,3.90005235 C7.34578611,4.32292345 7.67600236,4.65314012 8.09887291,4.76223086 L11.7797764,5.71080721 C11.9098779,5.74669344 12,5.86503977 12,6 C12,6.13496023 11.9098779,6.25330656 11.7797764,6.28919279 L8.09887291,7.23776914 C7.67600236,7.34685988 7.34578611,7.67707655 7.23669551,8.09994765 L6.28752038,11.7808559 C6.25126055,11.910422 6.13317208,12 5.99862795,12 C5.86408383,12 5.74599535,11.910422 5.70973553,11.7808559 L4.76116039,8.09994765 Z" id="路径" stroke="#333333" stroke-width="1.19996855"></path>
                            <line x1="10.7988022" y1="0.600134621" x2="10.7988022" y2="3.00007479" id="路径" stroke="#333333" stroke-width="1.19996855"></line>
                            <line x1="11.9987707" y1="1.80010471" x2="9.5988336" y2="1.80010471" id="路径" stroke="#333333" stroke-width="1.19996855"></line>
                            <line x1="1.19905374" y1="8.99992521" x2="1.19905374" y2="10.1998953" id="路径" stroke="#333333" stroke-width="1.19996855"></line>
                            <line x1="1.79903802" y1="9.59991025" x2="0.599069466" y2="9.59991025" id="路径" stroke="#333333" stroke-width="1.19996855"></line>
                        </g>
                        <g id="file_type_hugo" stroke="none" stroke-width="1" fill="none" fill-rule="evenodd" transform="translate(13.9706, 248.8389)">
                            <path d="M6.71831991,0.192492539 L10.9491284,2.65224658 C11.4520346,2.9417277 11.7626566,3.4759504 11.7647059,4.05491625 L11.7647059,9.09131348 C11.7647059,9.73166267 11.4180854,10.3211905 10.8573759,10.636283 L6.65205424,12.9943943 C6.09134468,13.3094867 5.41339586,13.3044046 4.85778367,12.9893121 L0.983790397,10.7633364 C0.376276382,10.4148466 0.00128951243,9.76978075 0,9.07098493 L0,4.29377666 C0.000778961732,3.58941074 0.367214568,2.93564217 0.968498318,2.56585026 L4.77622591,0.217903222 C5.46946682,-0.0362036011 6.18819452,-0.0971892386 6.71322255,0.192492539 L6.71831991,0.192492539 Z" id="路径" fill="#FF4088" fill-rule="nonzero"></path>
                            <polygon id="路径" fill="#FFFFFF" fill-rule="nonzero" points="2.95646855 10.3567655 2.95646855 2.73356077 4.55194209 2.73356077 4.55194209 5.51348941 7.20256907 5.51348941 7.20256907 2.7386429 8.80823733 2.7386429 8.80823733 10.3618476 7.20766643 10.3618476 7.20766643 7.02796607 4.55703945 7.02796607 4.55703945 10.3567655"></polygon>
                        </g>
                        <rect id="输入框" stroke="none" fill="#EDEDED" fill-rule="evenodd" x="6" y="6" width="488.235294" height="29.3959732" rx="2.80273815"></rect>
                        <line x1="0.735294118" y1="67.9781879" x2="499.264706" y2="67.9781879" id="分割线-上" stroke="#E6E6E6" stroke-width="0.700684538" fill="none"></line>
                        <g id="切换按钮备份-2" stroke="none" stroke-width="1" fill="none" fill-rule="evenodd" transform="translate(458.8235, 44.8289)">
                            <rect id="矩形备份-4" fill="#6000FF" x="0" y="0" width="29.4117647" height="13.2281879" rx="6.28761331"></rect>
                            <g id="编组-2备份" transform="translate(13.9706, 0.7349)">
                                <g id="编组" transform="translate(1.4706, 1.4698)" stroke="#FFFFFF" stroke-linecap="round" stroke-linejoin="round" stroke-width="0.931498269">
                                    <ellipse id="椭圆形" cx="3.92156863" cy="3.91946309" rx="3.92156863" ry="3.91946309"></ellipse>
                                    <line x1="8.82352941" y1="8.81879195" x2="6.71568627" y2="6.71208054" id="路径"></line>
                                </g>
                                <rect id="矩形" x="0" y="0" width="11.7647059" height="11.7583893"></rect>
                            </g>
                            <rect id="矩形备份-5" fill="#FFFFFF" x="0.735294118" y="0.734899329" width="11.7647059" height="11.7583893" rx="5.87919463"></rect>
                        </g>
                        <g id="mic备份" stroke="none" stroke-width="1" fill="none" fill-rule="evenodd" transform="translate(476.4706, 14.698)">
                            <rect id="矩形" x="0" y="0" width="11.7647059" height="11.7583893"></rect>
                            <path d="M5.6372549,0.734899329 C4.82507145,0.734899329 4.16666667,1.3929506 4.16666667,2.20469799 L4.16666667,5.63422819 C4.16666667,6.44597557 4.82507145,7.10402685 5.6372549,7.10402685 C6.44943836,7.10402685 7.10784314,6.44597557 7.10784314,5.63422819 L7.10784314,2.20469799 C7.10784314,1.3929506 6.44943836,0.734899329 5.6372549,0.734899329 Z" id="路径" stroke="#999999" stroke-width="0.934246051" stroke-linecap="round" stroke-linejoin="round"></path>
                            <path d="M9.06862745,4.65436242 L9.06862745,5.63422819 C9.06862745,7.5283054 7.53234961,9.06375834 5.6372549,9.06375834 C3.74216019,9.06375834 2.20588235,7.5283054 2.20588235,5.63422819 L2.20588235,4.65436242" id="路径" stroke="#999999" stroke-width="0.934246051" stroke-linecap="round" stroke-linejoin="round"></path>
                            <line x1="5.6372549" y1="9.06375839" x2="5.6372549" y2="10.533557" id="路径" stroke="#999999" stroke-width="0.934246051" stroke-linecap="round" stroke-linejoin="round"></line>
                        </g>
                        <g id="Local-file" stroke="none" stroke-width="1" fill="none" fill-rule="evenodd" transform="translate(33.8807, 84.063)">
                            <polygon id="路径" fill="#666666" fill-rule="nonzero" points="0 0.561693456 0 6.40498209 2.80846728 6.40498209 2.80846728 5.78460425 0.762897082 5.78460425 0.762897082 0.561693456"></polygon>
                            <path d="M7.98107717,4.09952388 C7.98107717,2.64918108 6.96667555,1.73538127 5.65885198,1.73538127 C4.3594119,1.73538127 3.3366268,2.64918108 3.3366268,4.09952388 C3.3366268,5.55825017 4.32587796,6.48043345 5.62531804,6.48043345 C6.93314161,6.48043345 7.98107717,5.55825017 7.98107717,4.09952388 Z M4.11629085,4.09952388 C4.11629085,2.94260303 4.84565399,2.39767654 5.6504685,2.39767654 C6.43851603,2.39767654 7.20141311,2.94260303 7.20141311,4.09952388 C7.20141311,5.26482821 6.42174906,5.8097547 5.62531804,5.8097547 C4.82888702,5.8097547 4.11629085,5.26482821 4.11629085,4.09952388 Z" id="形状" fill="#666666" fill-rule="nonzero"></path>
                            <path d="M8.70205682,4.09952388 C8.70205682,5.55825017 9.6326236,6.48043345 10.9404472,6.48043345 C12.080601,6.48043345 12.8267312,5.84328864 13.0614687,4.92948884 L12.2398872,4.92948884 C12.0722176,5.50794926 11.6195094,5.83490515 10.9404472,5.83490515 C10.1020987,5.83490515 9.48172088,5.23967776 9.48172088,4.09952388 C9.48172088,2.97613697 10.1020987,2.38090957 10.9404472,2.38090957 C11.6195094,2.38090957 12.080601,2.73301592 12.2398872,3.28632589 L13.0614687,3.28632589 C12.8267312,2.32222518 12.080601,1.73538127 10.9404472,1.73538127 C9.6326236,1.73538127 8.70205682,2.65756456 8.70205682,4.09952388 Z" id="路径" fill="#666666" fill-rule="nonzero"></path>
                            <path d="M13.7908319,4.0911404 C13.7908319,5.51633275 14.7381656,6.48043345 15.9621543,6.48043345 C16.8088863,6.48043345 17.4041136,6.04449226 17.6807686,5.54986668 L17.6807686,6.40498209 L18.4520492,6.40498209 L18.4520492,1.81083263 L17.6807686,1.81083263 L17.6807686,2.64918108 C17.4124971,2.17132246 16.8256532,1.73538127 15.9705378,1.73538127 C14.7381656,1.73538127 13.7908319,2.65756456 13.7908319,4.0911404 Z M17.6807686,4.09952388 C17.6807686,5.18099337 16.959789,5.8097547 16.1214405,5.8097547 C15.2830921,5.8097547 14.5704959,5.17260989 14.5704959,4.0911404 C14.5704959,3.00967091 15.2830921,2.39767654 16.1214405,2.39767654 C16.959789,2.39767654 17.6807686,3.03482136 17.6807686,4.09952388 Z" id="形状" fill="#666666" fill-rule="nonzero"></path>
                            <polygon id="路径" fill="#666666" fill-rule="nonzero" points="19.7431058 6.40498209 20.5060029 6.40498209 20.5060029 0.201203626 19.7431058 0.201203626"></polygon>
                            <path d="M24.1863525,6.40498209 L24.9492496,6.40498209 L24.9492496,2.43959397 L25.9133503,2.43959397 L25.9133503,1.81083263 L24.9492496,1.81083263 L24.9492496,1.48387674 C24.9492496,0.888649348 25.1756037,0.637144816 25.8630494,0.637144816 L25.8630494,0 C24.6893616,0 24.1863525,0.461091643 24.1863525,1.48387674 L24.1863525,1.81083263 L23.5911251,1.81083263 L23.5911251,2.43959397 L24.1863525,2.43959397 L24.1863525,6.40498209 Z" id="路径" fill="#666666" fill-rule="nonzero"></path>
                            <path d="M26.8019997,6.40498209 L27.5648968,6.40498209 L27.5648968,1.81083263 L26.8019997,1.81083263 L26.8019997,6.40498209 Z M27.1960234,1.06470252 C27.4726784,1.06470252 27.6990325,0.838348442 27.6990325,0.544926487 C27.6990325,0.251504533 27.4726784,0.0251504533 27.1960234,0.0251504533 C26.9026015,0.0251504533 26.6762474,0.251504533 26.6762474,0.544926487 C26.6762474,0.838348442 26.9026015,1.06470252 27.1960234,1.06470252 Z" id="形状" fill="#666666" fill-rule="nonzero"></path>
                            <polygon id="路径" fill="#666666" fill-rule="nonzero" points="28.8643368 6.40498209 29.6272339 6.40498209 29.6272339 0.201203626 28.8643368 0.201203626"></polygon>
                            <path d="M32.8800259,2.38090957 C33.6680734,2.38090957 34.3387522,2.87553516 34.3303687,3.77256799 L31.4296831,3.77256799 C31.5135179,2.87553516 32.1338958,2.38090957 32.8800259,2.38090957 Z M35.0261979,4.98817323 L34.2046164,4.98817323 C34.0369467,5.48279881 33.6010055,5.83490515 32.9135598,5.83490515 C32.1338958,5.83490515 31.479984,5.3235126 31.4212996,4.39294583 L35.0932658,4.39294583 C35.1100327,4.23365963 35.1184162,4.09952388 35.1184162,3.93185419 C35.1184162,2.67433153 34.2465338,1.73538127 32.9135598,1.73538127 C31.5722023,1.73538127 30.6416355,2.64918108 30.6416355,4.09952388 C30.6416355,5.55825017 31.6057363,6.48043345 32.9135598,6.48043345 C34.0537137,6.48043345 34.7914603,5.82652167 35.0261979,4.98817323 Z" id="形状" fill="#666666" fill-rule="nonzero"></path>
                        </g>
                        <g id="2025-Marketing-Plan" stroke="none" stroke-width="1" fill="none" fill-rule="evenodd" transform="translate(30.5718, 15.6794)">
                            <path d="M0,8.44184732 L5.39246821,8.44184732 L5.39246821,7.58981492 L1.53590051,7.58981492 C2.9821134,6.41266489 5.1570382,4.69738914 5.1570382,2.67941767 C5.1570382,1.17715002 4.17047437,0.280273815 2.64578482,0.280273815 C1.18836098,0.280273815 0.100898574,1.17715002 0.0336328578,2.90363673 L1.02019669,2.90363673 C1.0650405,1.88344004 1.60316622,1.15472812 2.65699577,1.15472812 C3.75566913,1.15472812 4.14805247,1.82738528 4.14805247,2.72426148 C4.14805247,4.38348247 2.130081,5.99785965 0,7.7131354 L0,8.44184732 Z" id="路径" fill="#333333" fill-rule="nonzero"></path>
                            <path d="M6.56961823,4.39469342 C6.56961823,6.74899347 7.15258777,8.53153494 9.39477829,8.53153494 C11.6257579,8.53153494 12.2087274,6.74899347 12.2087274,4.39469342 C12.2087274,2.07402623 11.6257579,0.302695721 9.39477829,0.302695721 C7.15258777,0.302695721 6.56961823,2.07402623 6.56961823,4.39469342 Z M11.1997417,4.39469342 C11.1997417,6.14360203 10.9867336,7.60102587 9.39477829,7.60102587 C7.79161207,7.60102587 7.57860397,6.14360203 7.57860397,4.39469342 C7.57860397,2.71305053 7.79161207,1.23320479 9.39477829,1.23320479 C10.9867336,1.23320479 11.1997417,2.71305053 11.1997417,4.39469342 Z" id="形状" fill="#333333" fill-rule="nonzero"></path>
                            <path d="M13.486776,8.44184732 L18.8792442,8.44184732 L18.8792442,7.58981492 L15.0226765,7.58981492 C16.4688894,6.41266489 18.6438142,4.69738914 18.6438142,2.67941767 C18.6438142,1.17715002 17.6572504,0.280273815 16.1325608,0.280273815 C14.675137,0.280273815 13.5876746,1.17715002 13.5204089,2.90363673 L14.5069727,2.90363673 C14.5518165,1.88344004 15.0899422,1.15472812 16.1437718,1.15472812 C17.2424451,1.15472812 17.6348285,1.82738528 17.6348285,2.72426148 C17.6348285,4.38348247 15.616857,5.99785965 13.486776,7.7131354 L13.486776,8.44184732 Z" id="路径" fill="#333333" fill-rule="nonzero"></path>
                            <path d="M20.347879,0.414805247 L20.347879,4.98887391 L21.3120209,4.98887391 C21.5810838,4.34984961 22.1752643,3.92383341 22.9936638,3.92383341 C24.1708138,3.92383341 24.7649943,4.59649057 24.7649943,5.75121869 C24.7649943,6.861103 24.2156576,7.69071349 22.9824529,7.69071349 C22.0295219,7.69071349 21.3680757,7.18622062 21.1774895,6.33418823 L20.1797147,6.33418823 C20.3815119,7.64586968 21.3568647,8.55395684 22.9712419,8.55395684 C24.8658929,8.55395684 25.7403472,7.29833015 25.7403472,5.72879679 C25.7403472,4.47317009 25.1125339,3.04937911 23.1394062,3.04937911 C22.3434286,3.04937911 21.6259276,3.40812959 21.289599,3.86777865 L21.289599,1.31168146 L25.2246434,1.31168146 L25.2246434,0.414805247 L20.347879,0.414805247 Z" id="路径" fill="#333333" fill-rule="nonzero"></path>
                            <polygon id="路径" fill="#333333" fill-rule="nonzero" points="30.2583611 8.53153494 31.2785578 8.53153494 31.2785578 2.73547244 33.8682878 8.53153494 34.5857888 8.53153494 37.1643079 2.74668339 37.1643079 8.53153494 38.1845046 8.53153494 38.1845046 0.77355573 37.0970422 0.77355573 34.2270383 7.18622062 31.3570345 0.77355573 30.2583611 0.77355573"></polygon>
                            <path d="M39.5298189,5.43731202 C39.5298189,7.34317396 40.7966566,8.63243351 42.4334556,8.63243351 C43.5657619,8.63243351 44.3617395,8.04946398 44.7317009,7.38801777 L44.7317009,8.53153494 L45.7631086,8.53153494 L45.7631086,2.38793291 L44.7317009,2.38793291 L44.7317009,3.50902817 C44.3729504,2.87000387 43.5881838,2.28703433 42.4446666,2.28703433 C40.7966566,2.28703433 39.5298189,3.52023912 39.5298189,5.43731202 Z M44.7317009,5.44852297 C44.7317009,6.89473586 43.767559,7.7355573 42.6464637,7.7355573 C41.5253685,7.7355573 40.5724375,6.8835249 40.5724375,5.43731202 C40.5724375,3.99109913 41.5253685,3.17269959 42.6464637,3.17269959 C43.767559,3.17269959 44.7317009,4.02473199 44.7317009,5.44852297 Z" id="形状" fill="#333333" fill-rule="nonzero"></path>
                            <path d="M48.509792,5.19067106 C48.509792,3.76688008 49.2497148,3.32965293 50.2250677,3.32965293 L50.4941306,3.32965293 L50.4941306,2.27582338 C49.5187777,2.27582338 48.8573315,2.70183958 48.509792,3.38570769 L48.509792,2.38793291 L47.4895953,2.38793291 L47.4895953,8.53153494 L48.509792,8.53153494 L48.509792,5.19067106 Z" id="路径" fill="#333333" fill-rule="nonzero"></path>
                            <polygon id="路径" fill="#333333" fill-rule="nonzero" points="51.6712806 8.53153494 52.6914773 8.53153494 52.6914773 5.81848441 55.1018321 8.53153494 56.4919902 8.53153494 53.5883535 5.44852297 56.4807793 2.38793291 55.0569883 2.38793291 52.6914773 5.11219439 52.6914773 0.235430005 51.6712806 0.235430005"></polygon>
                            <path d="M60.0570731,3.15027768 C61.1109027,3.15027768 62.0077789,3.81172389 61.9965679,5.01129582 L58.1175783,5.01129582 C58.2296879,3.81172389 59.0592984,3.15027768 60.0570731,3.15027768 Z M62.927077,6.63688395 L61.8284037,6.63688395 C61.6041846,7.29833015 61.0212151,7.76919016 60.101917,7.76919016 C59.0592984,7.76919016 58.1848441,7.08532205 58.1063674,5.84090631 L63.0167646,5.84090631 C63.0391865,5.62789821 63.0503975,5.44852297 63.0503975,5.22430392 C63.0503975,3.54266103 61.8844584,2.28703433 60.101917,2.28703433 C58.3081645,2.28703433 57.0637488,3.50902817 57.0637488,5.44852297 C57.0637488,7.39922872 58.3530083,8.63243351 60.101917,8.63243351 C61.6266065,8.63243351 62.6131703,7.75797921 62.927077,6.63688395 Z" id="形状" fill="#333333" fill-rule="nonzero"></path>
                            <path d="M64.6199309,6.84989205 C64.6199309,8.08309683 65.2365333,8.53153494 66.3239957,8.53153494 L67.2432938,8.53153494 L67.2432938,7.66829159 L66.4921599,7.66829159 C65.8643466,7.66829159 65.6401275,7.45528349 65.6401275,6.84989205 L65.6401275,3.22875435 L67.2432938,3.22875435 L67.2432938,2.38793291 L65.6401275,2.38793291 L65.6401275,0.840821446 L64.6199309,0.840821446 L64.6199309,2.38793291 L63.8239532,2.38793291 L63.8239532,3.22875435 L64.6199309,3.22875435 L64.6199309,6.84989205 Z" id="路径" fill="#333333" fill-rule="nonzero"></path>
                            <path d="M68.4764986,8.53153494 L69.4966952,8.53153494 L69.4966952,2.38793291 L68.4764986,2.38793291 L68.4764986,8.53153494 Z M69.0034133,1.39015812 C69.3733748,1.39015812 69.6760705,1.0874624 69.6760705,0.695079062 C69.6760705,0.302695721 69.3733748,0 69.0034133,0 C68.61103,0 68.3083343,0.302695721 68.3083343,0.695079062 C68.3083343,1.0874624 68.61103,1.39015812 69.0034133,1.39015812 Z" id="形状" fill="#333333" fill-rule="nonzero"></path>
                            <path d="M75.7299849,8.53153494 L76.7389706,8.53153494 L76.7389706,4.91039724 C76.7389706,3.15027768 75.6515082,2.27582338 74.2277172,2.27582338 C73.3981068,2.27582338 72.6581839,2.62336291 72.2545896,3.26238721 L72.2545896,2.38793291 L71.2343929,2.38793291 L71.2343929,8.53153494 L72.2545896,8.53153494 L72.2545896,5.1346163 C72.2545896,3.81172389 72.9720906,3.16148864 74.0147091,3.16148864 C75.0461168,3.16148864 75.7299849,3.80051294 75.7299849,5.05613963 L75.7299849,8.53153494 Z" id="路径" fill="#333333" fill-rule="nonzero"></path>
                            <path d="M78.0282302,5.43731202 C78.0282302,7.34317396 79.2950678,8.63243351 80.9430779,8.63243351 C82.0641731,8.63243351 82.8601508,8.03825302 83.2301122,7.37680682 L83.2301122,8.66606637 C83.2301122,9.97774783 82.4117127,10.6728269 81.3242503,10.6728269 C80.3152645,10.6728269 79.5865526,10.168334 79.3623335,9.42841115 L78.3533478,9.42841115 C78.555145,10.7400926 79.7098731,11.5584921 81.3242503,11.5584921 C83.1292136,11.5584921 84.2615198,10.3589202 84.2615198,8.66606637 L84.2615198,2.38793291 L83.2301122,2.38793291 L83.2301122,3.50902817 C82.8713617,2.84758196 82.0641731,2.28703433 80.9430779,2.28703433 C79.2950678,2.28703433 78.0282302,3.52023912 78.0282302,5.43731202 Z M83.2301122,5.44852297 C83.2301122,6.89473586 82.2659703,7.7355573 81.144875,7.7355573 C80.0237798,7.7355573 79.0708488,6.8835249 79.0708488,5.43731202 C79.0708488,3.99109913 80.0237798,3.17269959 81.144875,3.17269959 C82.2659703,3.17269959 83.2301122,4.02473199 83.2301122,5.44852297 Z" id="形状" fill="#333333" fill-rule="nonzero"></path>
                            <path d="M90.0015276,4.42832628 L90.0015276,1.55832241 L91.5037952,1.55832241 C92.6697343,1.55832241 93.1630162,2.09644814 93.1630162,3.0045353 C93.1630162,3.8789896 92.6697343,4.42832628 91.5037952,4.42832628 L90.0015276,4.42832628 Z M94.2056348,3.0045353 C94.2056348,1.7264867 93.3423915,0.717500967 91.5037952,0.717500967 L88.9813309,0.717500967 L88.9813309,8.53153494 L90.0015276,8.53153494 L90.0015276,5.26914773 L91.5037952,5.26914773 C93.44329,5.26914773 94.2056348,4.19289628 94.2056348,3.0045353 Z" id="形状" fill="#333333" fill-rule="nonzero"></path>
                            <polygon id="路径" fill="#333333" fill-rule="nonzero" points="95.4724725 8.53153494 96.4926691 8.53153494 96.4926691 0.235430005 95.4724725 0.235430005"></polygon>
                            <path d="M97.8491944,5.43731202 C97.8491944,7.34317396 99.116032,8.63243351 100.752831,8.63243351 C101.885137,8.63243351 102.681115,8.04946398 103.051076,7.38801777 L103.051076,8.53153494 L104.082484,8.53153494 L104.082484,2.38793291 L103.051076,2.38793291 L103.051076,3.50902817 C102.692326,2.87000387 101.907559,2.28703433 100.764042,2.28703433 C99.116032,2.28703433 97.8491944,3.52023912 97.8491944,5.43731202 Z M103.051076,5.44852297 C103.051076,6.89473586 102.086934,7.7355573 100.965839,7.7355573 C99.844744,7.7355573 98.891813,6.8835249 98.891813,5.43731202 C98.891813,3.99109913 99.844744,3.17269959 100.965839,3.17269959 C102.086934,3.17269959 103.051076,4.02473199 103.051076,5.44852297 Z" id="形状" fill="#333333" fill-rule="nonzero"></path>
                            <path d="M110.304563,8.53153494 L111.313548,8.53153494 L111.313548,4.91039724 C111.313548,3.15027768 110.226086,2.27582338 108.802295,2.27582338 C107.972685,2.27582338 107.232762,2.62336291 106.829167,3.26238721 L106.829167,2.38793291 L105.808971,2.38793291 L105.808971,8.53153494 L106.829167,8.53153494 L106.829167,5.1346163 C106.829167,3.81172389 107.546668,3.16148864 108.589287,3.16148864 C109.620695,3.16148864 110.304563,3.80051294 110.304563,5.05613963 L110.304563,8.53153494 Z" id="路径" fill="#333333" fill-rule="nonzero"></path>
                        </g>
                        <rect id="矩形备份-27" stroke="none" fill="#EBEBEB" fill-rule="evenodd" x="12.5" y="190.04698" width="14.7058824" height="14.6979866" rx="4.20410723"></rect>
                        <rect id="矩形备份-35" stroke="none" fill="#EBEBEB" fill-rule="evenodd" x="12.5" y="105.533557" width="14.7058824" height="14.6979866" rx="4.20410723"></rect>
                        <rect id="矩形备份-36" stroke="none" fill="#EBEBEB" fill-rule="evenodd" x="12.5" y="134.92953" width="14.7058824" height="14.6979866" rx="4.20410723"></rect>
                        <rect id="矩形备份-28" stroke="none" fill="#EBEBEB" fill-rule="evenodd" x="12.5" y="219.442953" width="14.7058824" height="14.6979866" rx="4.20410723"></rect>
                        <rect id="矩形备份-37" stroke="none" fill="#EBEBEB" fill-rule="evenodd" x="12.5" y="276.030201" width="14.7058824" height="14.6979866" rx="4.20410723"></rect>
                        <rect id="矩形备份-39" stroke="none" fill="#EBEBEB" fill-rule="evenodd" x="12.5" y="331.88255" width="14.7058824" height="14.6979866" rx="4.20410723"></rect>
                        <g id="编组备份-10" stroke="none" stroke-width="1" fill="none" fill-rule="evenodd" transform="translate(13.9706, 165.0604)">
                            <polygon id="路径" fill="#FFC107" fill-rule="nonzero" points="3.92156863 3.90517271e-16 7.8427925 3.90517271e-16 11.7643611 6.8590604 7.84313725 6.8590604"></polygon>
                            <polygon id="路径" fill="#1976D2" fill-rule="nonzero" points="1.9254471 10.2885906 3.90433096 6.8590604 11.7647059 6.8590604 9.80374919 10.2885906"></polygon>
                            <polygon id="路径" fill="#4CAF50" fill-rule="nonzero" points="0 6.89493856 1.9254471 10.2885906 5.88218056 3.4295302 3.92122387 0"></polygon>
                        </g>
                        <g id="Google-Drive" stroke="none" stroke-width="1" fill="none" fill-rule="evenodd" transform="translate(33.225, 166.411)">
                            <path d="M2.94287506,0.47086001 C1.29486503,0.47086001 0,1.70686754 0,3.46418436 C0,5.22150118 1.29486503,6.44910049 2.94287506,6.44910049 C4.53202759,6.44910049 5.68395297,5.28035868 5.81848441,3.82573758 L5.81848441,3.23716257 L2.66540398,3.23716257 L2.66540398,3.85937044 L5.0028876,3.85937044 C4.8851726,5.01970403 4.09480044,5.7596269 2.94287506,5.7596269 C1.70686754,5.7596269 0.781963945,4.86835617 0.781963945,3.46418436 C0.781963945,2.05160433 1.70686754,1.1603336 2.94287506,1.1603336 C3.76688008,1.1603336 4.40590438,1.55551968 4.72541653,2.23658505 L5.6419119,2.23658505 C5.20468475,1.10988431 4.17888259,0.47086001 2.94287506,0.47086001 Z" id="路径" fill="#666666" fill-rule="nonzero"></path>
                            <path d="M11.1997417,4.08639223 C11.1997417,2.63177113 10.1823477,1.71527575 8.87066625,1.71527575 C7.56739301,1.71527575 6.54159085,2.63177113 6.54159085,4.08639223 C6.54159085,5.54942154 7.53376016,6.47432513 8.8370334,6.47432513 C10.1487149,6.47432513 11.1997417,5.54942154 11.1997417,4.08639223 Z M7.32355479,4.08639223 C7.32355479,2.92605863 8.05506945,2.37952469 8.86225804,2.37952469 C9.6526302,2.37952469 10.4177777,2.92605863 10.4177777,4.08639223 C10.4177777,5.25513404 9.63581377,5.80166798 8.8370334,5.80166798 C8.03825302,5.80166798 7.32355479,5.25513404 7.32355479,4.08639223 Z" id="形状" fill="#666666" fill-rule="nonzero"></path>
                            <path d="M16.5809989,4.08639223 C16.5809989,2.63177113 15.563605,1.71527575 14.2519235,1.71527575 C12.9486503,1.71527575 11.9228481,2.63177113 11.9228481,4.08639223 C11.9228481,5.54942154 12.9150174,6.47432513 14.2182907,6.47432513 C15.5299721,6.47432513 16.5809989,5.54942154 16.5809989,4.08639223 Z M12.704812,4.08639223 C12.704812,2.92605863 13.4363267,2.37952469 14.2435153,2.37952469 C15.0338875,2.37952469 15.799035,2.92605863 15.799035,4.08639223 C15.799035,5.25513404 15.017071,5.80166798 14.2182907,5.80166798 C13.4195103,5.80166798 12.704812,5.25513404 12.704812,4.08639223 Z" id="形状" fill="#666666" fill-rule="nonzero"></path>
                            <path d="M17.3041054,4.07798401 C17.3041054,5.50738047 18.2542336,6.47432513 19.4902411,6.47432513 C20.3310626,6.47432513 20.9280458,6.02868977 21.2055169,5.53260511 L21.2055169,6.49954978 C21.2055169,7.48331087 20.5917172,8.00462017 19.7761204,8.00462017 C19.0193811,8.00462017 18.4728472,7.62625051 18.3046829,7.07130836 L17.5479436,7.07130836 C17.6992914,8.05506945 18.5653375,8.66886911 19.7761204,8.66886911 C21.1298429,8.66886911 21.9790726,7.76919016 21.9790726,6.49954978 L21.9790726,1.79094968 L21.2055169,1.79094968 L21.2055169,2.63177113 C20.936454,2.13568647 20.3310626,1.71527575 19.4902411,1.71527575 C18.2542336,1.71527575 17.3041054,2.64017934 17.3041054,4.07798401 Z M21.2055169,4.08639223 C21.2055169,5.17105189 20.4824104,5.80166798 19.641589,5.80166798 C18.8007675,5.80166798 18.0860693,5.16264368 18.0860693,4.07798401 C18.0860693,2.99332435 18.8007675,2.37952469 19.641589,2.37952469 C20.4824104,2.37952469 21.2055169,3.01854899 21.2055169,4.08639223 Z" id="形状" fill="#666666" fill-rule="nonzero"></path>
                            <polygon id="路径" fill="#666666" fill-rule="nonzero" points="23.2739376 6.3986512 24.0390851 6.3986512 24.0390851 0.176572504 23.2739376 0.176572504"></polygon>
                            <path d="M27.3014724,2.36270826 C28.0918445,2.36270826 28.7645017,2.85879292 28.7560935,3.75847186 L25.8468512,3.75847186 C25.9309334,2.85879292 26.5531413,2.36270826 27.3014724,2.36270826 Z M29.4539753,4.97766296 L28.6299702,4.97766296 C28.4618059,5.47374761 28.0245788,5.82689262 27.3351052,5.82689262 C26.5531413,5.82689262 25.8973005,5.31399154 25.838443,4.38067973 L29.521241,4.38067973 C29.5380574,4.22092366 29.5464656,4.08639223 29.5464656,3.91822794 C29.5464656,2.65699577 28.6720113,1.71527575 27.3351052,1.71527575 C25.9897909,1.71527575 25.0564791,2.63177113 25.0564791,4.08639223 C25.0564791,5.54942154 26.0234238,6.47432513 27.3351052,6.47432513 C28.4786224,6.47432513 29.2185452,5.81848441 29.4539753,4.97766296 Z" id="形状" fill="#666666" fill-rule="nonzero"></path>
                            <path d="M34.6250271,0.538125725 L32.8004446,0.538125725 L32.8004446,6.3986512 L34.6250271,6.3986512 C36.5505083,6.3986512 37.7360665,5.29717511 37.7360665,3.48100079 C37.7360665,1.66482646 36.5505083,0.538125725 34.6250271,0.538125725 Z M33.5655921,5.76803512 L33.5655921,1.1603336 L34.6250271,1.1603336 C36.1553222,1.1603336 36.9541026,2.05160433 36.9541026,3.48100079 C36.9541026,4.91039724 36.1553222,5.76803512 34.6250271,5.76803512 L33.5655921,5.76803512 Z" id="形状" fill="#666666" fill-rule="nonzero"></path>
                            <path d="M39.5101997,3.89300329 C39.5101997,2.82516006 40.0651419,2.49723969 40.7966566,2.49723969 L40.9984537,2.49723969 L40.9984537,1.70686754 C40.266939,1.70686754 39.7708544,2.02637968 39.5101997,2.53928077 L39.5101997,1.79094968 L38.7450522,1.79094968 L38.7450522,6.3986512 L39.5101997,6.3986512 L39.5101997,3.89300329 Z" id="路径" fill="#666666" fill-rule="nonzero"></path>
                            <path d="M41.8813162,6.3986512 L42.6464637,6.3986512 L42.6464637,1.79094968 L41.8813162,1.79094968 L41.8813162,6.3986512 Z M42.2765023,1.04261859 C42.5539734,1.04261859 42.7809952,0.815596803 42.7809952,0.521309296 C42.7809952,0.22702179 42.5539734,0 42.2765023,0 C41.9822148,0 41.755193,0.22702179 41.755193,0.521309296 C41.755193,0.815596803 41.9822148,1.04261859 42.2765023,1.04261859 Z" id="形状" fill="#666666" fill-rule="nonzero"></path>
                            <polygon id="路径" fill="#666666" fill-rule="nonzero" points="43.403203 1.79094968 45.2109691 6.3986512 46.1022399 6.3986512 47.910006 1.79094968 47.0944092 1.79094968 45.6650127 5.69236119 44.2272081 1.79094968"></polygon>
                            <path d="M50.6258593,2.36270826 C51.4162314,2.36270826 52.0888886,2.85879292 52.0804804,3.75847186 L49.1712382,3.75847186 C49.2553203,2.85879292 49.8775282,2.36270826 50.6258593,2.36270826 Z M52.7783622,4.97766296 L51.9543571,4.97766296 C51.7861929,5.47374761 51.3489657,5.82689262 50.6594921,5.82689262 C49.8775282,5.82689262 49.2216874,5.31399154 49.1628299,4.38067973 L52.8456279,4.38067973 C52.8624443,4.22092366 52.8708525,4.08639223 52.8708525,3.91822794 C52.8708525,2.65699577 51.9963982,1.71527575 50.6594921,1.71527575 C49.3141778,1.71527575 48.380866,2.63177113 48.380866,4.08639223 C48.380866,5.54942154 49.3478107,6.47432513 50.6594921,6.47432513 C51.8030093,6.47432513 52.5429322,5.81848441 52.7783622,4.97766296 Z" id="形状" fill="#666666" fill-rule="nonzero"></path>
                        </g>
                        <g id="Notion" stroke="none" stroke-width="1" fill="none" fill-rule="evenodd" transform="translate(33.6406, 307.5117)">
                            <polygon id="路径" fill="#666666" fill-rule="nonzero" points="3.84255401 0.529717511 3.84255401 5.18786832 0.765147516 0.529717511 0 0.529717511 0 6.3986512 0.765147516 6.3986512 0.765147516 1.73209218 3.84255401 6.3986512 4.60770152 6.3986512 4.60770152 0.529717511"></polygon>
                            <path d="M10.2832463,4.08639223 C10.2832463,2.63177113 9.26585233,1.71527575 7.95417088,1.71527575 C6.65089764,1.71527575 5.62509547,2.63177113 5.62509547,4.08639223 C5.62509547,5.54942154 6.61726478,6.47432513 7.92053802,6.47432513 C9.23221948,6.47432513 10.2832463,5.54942154 10.2832463,4.08639223 Z M6.40705942,4.08639223 C6.40705942,2.92605863 7.13857408,2.37952469 7.94576266,2.37952469 C8.73613482,2.37952469 9.50128234,2.92605863 9.50128234,4.08639223 C9.50128234,5.25513404 8.71931839,5.80166798 7.92053802,5.80166798 C7.12175765,5.80166798 6.40705942,5.25513404 6.40705942,4.08639223 Z" id="形状" fill="#666666" fill-rule="nonzero"></path>
                            <path d="M11.4603963,5.13741903 C11.4603963,6.06232263 11.9228481,6.3986512 12.7384449,6.3986512 L13.4279185,6.3986512 L13.4279185,5.75121869 L12.8645681,5.75121869 C12.3937081,5.75121869 12.2255438,5.59146262 12.2255438,5.13741903 L12.2255438,2.42156576 L13.4279185,2.42156576 L13.4279185,1.79094968 L12.2255438,1.79094968 L12.2255438,0.630616084 L11.4603963,0.630616084 L11.4603963,1.79094968 L10.8634131,1.79094968 L10.8634131,2.42156576 L11.4603963,2.42156576 L11.4603963,5.13741903 Z" id="路径" fill="#666666" fill-rule="nonzero"></path>
                            <path d="M14.3528221,6.3986512 L15.1179696,6.3986512 L15.1179696,1.79094968 L14.3528221,1.79094968 L14.3528221,6.3986512 Z M14.7480082,1.04261859 C15.0254792,1.04261859 15.252501,0.815596803 15.252501,0.521309296 C15.252501,0.22702179 15.0254792,-4.54747351e-13 14.7480082,-4.54747351e-13 C14.4537207,-4.54747351e-13 14.2266989,0.22702179 14.2266989,0.521309296 C14.2266989,0.815596803 14.4537207,1.04261859 14.7480082,1.04261859 Z" id="形状" fill="#666666" fill-rule="nonzero"></path>
                            <path d="M20.7935144,4.08639223 C20.7935144,2.63177113 19.7761204,1.71527575 18.464439,1.71527575 C17.1611657,1.71527575 16.1353635,2.63177113 16.1353635,4.08639223 C16.1353635,5.54942154 17.1275329,6.47432513 18.4308061,6.47432513 C19.7424876,6.47432513 20.7935144,5.54942154 20.7935144,4.08639223 Z M16.9173275,4.08639223 C16.9173275,2.92605863 17.6488422,2.37952469 18.4560307,2.37952469 C19.2464029,2.37952469 20.0115504,2.92605863 20.0115504,4.08639223 C20.0115504,5.25513404 19.2295865,5.80166798 18.4308061,5.80166798 C17.6320257,5.80166798 16.9173275,5.25513404 16.9173275,4.08639223 Z" id="形状" fill="#666666" fill-rule="nonzero"></path>
                            <path d="M25.1741941,6.3986512 L25.9309334,6.3986512 L25.9309334,3.68279793 C25.9309334,2.36270826 25.1153366,1.70686754 24.0474934,1.70686754 C23.4252855,1.70686754 22.8703433,1.96752218 22.5676476,2.44679041 L22.5676476,1.79094968 L21.8025001,1.79094968 L21.8025001,6.3986512 L22.5676476,6.3986512 L22.5676476,3.85096222 C22.5676476,2.85879292 23.1057733,2.37111648 23.8877373,2.37111648 C24.661293,2.37111648 25.1741941,2.8503847 25.1741941,3.79210472 L25.1741941,6.3986512 Z" id="路径" fill="#666666" fill-rule="nonzero"></path>
                        </g>
                        <g id="Coco-AI-Website" stroke="none" stroke-width="1" fill="none" fill-rule="evenodd" transform="translate(34.3238, 251.6593)">
                            <path d="M0,3.46418436 C0,5.22150118 1.28645681,6.44910049 2.92605863,6.44910049 C4.19569902,6.44910049 5.20468475,5.81848441 5.6419119,4.69178367 L4.72541653,4.69178367 C4.40590438,5.38966547 3.78369651,5.78485155 2.92605863,5.78485155 C1.69845932,5.78485155 0.781963945,4.89358082 0.781963945,3.46418436 C0.781963945,2.02637968 1.69845932,1.13510895 2.92605863,1.13510895 C3.78369651,1.13510895 4.40590438,1.53029503 4.72541653,2.23658505 L5.6419119,2.23658505 C5.20468475,1.10147609 4.19569902,0.462451795 2.92605863,0.462451795 C1.28645681,0.462451795 0,1.70686754 0,3.46418436 Z" id="路径" fill="#666666" fill-rule="nonzero"></path>
                            <path d="M11.1492924,4.08639223 C11.1492924,2.63177113 10.1318984,1.71527575 8.82021697,1.71527575 C7.51694373,1.71527575 6.49114156,2.63177113 6.49114156,4.08639223 C6.49114156,5.54942154 7.48331087,6.47432513 8.78658411,6.47432513 C10.0982656,6.47432513 11.1492924,5.54942154 11.1492924,4.08639223 Z M7.27310551,4.08639223 C7.27310551,2.92605863 8.00462017,2.37952469 8.81180875,2.37952469 C9.60218091,2.37952469 10.3673284,2.92605863 10.3673284,4.08639223 C10.3673284,5.25513404 9.58536448,5.80166798 8.78658411,5.80166798 C7.98780374,5.80166798 7.27310551,5.25513404 7.27310551,4.08639223 Z" id="形状" fill="#666666" fill-rule="nonzero"></path>
                            <path d="M11.8723988,4.08639223 C11.8723988,5.54942154 12.8057106,6.47432513 14.1173921,6.47432513 C15.2609092,6.47432513 16.0092403,5.83530083 16.2446703,4.91880546 L15.4206653,4.91880546 C15.252501,5.49897226 14.7984574,5.82689262 14.1173921,5.82689262 C13.2765706,5.82689262 12.6543628,5.22990939 12.6543628,4.08639223 C12.6543628,2.95969149 13.2765706,2.36270826 14.1173921,2.36270826 C14.7984574,2.36270826 15.2609092,2.71585327 15.4206653,3.27079542 L16.2446703,3.27079542 C16.0092403,2.30385076 15.2609092,1.71527575 14.1173921,1.71527575 C12.8057106,1.71527575 11.8723988,2.64017934 11.8723988,4.08639223 Z" id="路径" fill="#666666" fill-rule="nonzero"></path>
                            <path d="M21.6343358,4.08639223 C21.6343358,2.63177113 20.6169419,1.71527575 19.3052604,1.71527575 C18.0019872,1.71527575 16.976185,2.63177113 16.976185,4.08639223 C16.976185,5.54942154 17.9683543,6.47432513 19.2716275,6.47432513 C20.583309,6.47432513 21.6343358,5.54942154 21.6343358,4.08639223 Z M17.7581489,4.08639223 C17.7581489,2.92605863 18.4896636,2.37952469 19.2968522,2.37952469 C20.0872243,2.37952469 20.8523719,2.92605863 20.8523719,4.08639223 C20.8523719,5.25513404 20.0704079,5.80166798 19.2716275,5.80166798 C18.4728472,5.80166798 17.7581489,5.25513404 17.7581489,4.08639223 Z" id="形状" fill="#666666" fill-rule="nonzero"></path>
                            <path d="M28.8233592,6.3986512 L29.6305478,6.3986512 L27.5200859,0.571758583 L26.6372234,0.571758583 L24.5183534,6.3986512 L25.325542,6.3986512 L25.796402,5.09537796 L28.3524992,5.09537796 L28.8233592,6.3986512 Z M28.1338856,4.47317009 L26.0150155,4.47317009 L27.0744506,1.5134786 L28.1338856,4.47317009 Z" id="形状" fill="#666666" fill-rule="nonzero"></path>
                            <polygon id="路径" fill="#666666" fill-rule="nonzero" points="30.5554513 6.3986512 31.3205989 6.3986512 31.3205989 0.538125725 30.5554513 0.538125725"></polygon>
                            <polygon id="路径" fill="#666666" fill-rule="nonzero" points="36.0544236 6.40705942 36.9036533 6.3986512 38.3162333 1.68164289 39.678364 6.3986512 40.5360019 6.3986512 42.2344612 0.538125725 41.4104562 0.538125725 40.1239994 5.49056404 38.7786851 0.538125725 37.9210472 0.538125725 36.5084672 5.50738047 35.2304186 0.538125725 34.4148218 0.538125725"></polygon>
                            <path d="M45.0343966,2.36270826 C45.8247688,2.36270826 46.497426,2.85879292 46.4890177,3.75847186 L43.5797755,3.75847186 C43.6638577,2.85879292 44.2860656,2.36270826 45.0343966,2.36270826 Z M47.1868995,4.97766296 L46.3628945,4.97766296 C46.1947302,5.47374761 45.7575031,5.82689262 45.0680295,5.82689262 C44.2860656,5.82689262 43.6302248,5.31399154 43.5713673,4.38067973 L47.2541653,4.38067973 C47.2709817,4.22092366 47.2793899,4.08639223 47.2793899,3.91822794 C47.2793899,2.65699577 46.4049356,1.71527575 45.0680295,1.71527575 C43.7227152,1.71527575 42.7894034,2.63177113 42.7894034,4.08639223 C42.7894034,5.54942154 43.756348,6.47432513 45.0680295,6.47432513 C46.2115467,6.47432513 46.9514695,5.81848441 47.1868995,4.97766296 Z" id="形状" fill="#666666" fill-rule="nonzero"></path>
                            <path d="M49.0535232,2.64858755 L49.0535232,0.176572504 L48.2883756,0.176572504 L48.2883756,6.3986512 L49.0535232,6.3986512 L49.0535232,5.54942154 C49.3394024,6.05391441 49.9363857,6.47432513 50.7772071,6.47432513 C52.0132146,6.47432513 52.9633429,5.50738047 52.9633429,4.07798401 C52.9633429,2.64017934 52.0216229,1.71527575 50.7772071,1.71527575 C49.9616103,1.71527575 49.3478107,2.13568647 49.0535232,2.64858755 Z M52.1813789,4.07798401 C52.1813789,5.16264368 51.4666807,5.80166798 50.617451,5.80166798 C49.7850378,5.80166798 49.0535232,5.17105189 49.0535232,4.08639223 C49.0535232,3.01854899 49.7850378,2.37952469 50.617451,2.37952469 C51.4666807,2.37952469 52.1813789,2.99332435 52.1813789,4.07798401 Z" id="形状" fill="#666666" fill-rule="nonzero"></path>
                            <path d="M57.2851651,5.14582725 C57.2515323,3.49781722 54.5777201,4.09480044 54.5777201,3.00173256 C54.5777201,2.63177113 54.9140486,2.36270826 55.477399,2.36270826 C56.0911987,2.36270826 56.4443437,2.69903684 56.4779765,3.16148864 L57.243124,3.16148864 C57.1926748,2.26180969 56.5200176,1.71527575 55.5026236,1.71527575 C54.4768215,1.71527575 53.8125725,2.29544255 53.8125725,3.00173256 C53.8125725,4.71700831 56.536834,4.12002509 56.536834,5.14582725 C56.536834,5.5241969 56.2005054,5.82689262 55.595114,5.82689262 C54.9476815,5.82689262 54.5524954,5.49056404 54.5104543,5.04492868 L53.7200822,5.04492868 C53.7705315,5.88575012 54.5272708,6.47432513 55.6035222,6.47432513 C56.6209162,6.47432513 57.2851651,5.90256655 57.2851651,5.14582725 Z" id="路径" fill="#666666" fill-rule="nonzero"></path>
                            <path d="M58.3614166,6.3986512 L59.1265641,6.3986512 L59.1265641,1.79094968 L58.3614166,1.79094968 L58.3614166,6.3986512 Z M58.7566026,1.04261859 C59.0340737,1.04261859 59.2610955,0.815596803 59.2610955,0.521309296 C59.2610955,0.22702179 59.0340737,0 58.7566026,0 C58.4623151,0 58.2352933,0.22702179 58.2352933,0.521309296 C58.2352933,0.815596803 58.4623151,1.04261859 58.7566026,1.04261859 Z" id="形状" fill="#666666" fill-rule="nonzero"></path>
                            <path d="M60.5980016,5.13741903 C60.5980016,6.06232263 61.0604534,6.3986512 61.8760502,6.3986512 L62.5655238,6.3986512 L62.5655238,5.75121869 L62.0021734,5.75121869 C61.5313134,5.75121869 61.3631491,5.59146262 61.3631491,5.13741903 L61.3631491,2.42156576 L62.5655238,2.42156576 L62.5655238,1.79094968 L61.3631491,1.79094968 L61.3631491,0.630616084 L60.5980016,0.630616084 L60.5980016,1.79094968 L60.0010184,1.79094968 L60.0010184,2.42156576 L60.5980016,2.42156576 L60.5980016,5.13741903 Z" id="路径" fill="#666666" fill-rule="nonzero"></path>
                            <path d="M65.4495414,2.36270826 C66.2399135,2.36270826 66.9125707,2.85879292 66.9041625,3.75847186 L63.9949203,3.75847186 C64.0790024,2.85879292 64.7012103,2.36270826 65.4495414,2.36270826 Z M67.6020443,4.97766296 L66.7780392,4.97766296 C66.6098749,5.47374761 66.1726478,5.82689262 65.4831742,5.82689262 C64.7012103,5.82689262 64.0453695,5.31399154 63.986512,4.38067973 L67.66931,4.38067973 C67.6861264,4.22092366 67.6945346,4.08639223 67.6945346,3.91822794 C67.6945346,2.65699577 66.8200803,1.71527575 65.4831742,1.71527575 C64.1378599,1.71527575 63.2045481,2.63177113 63.2045481,4.08639223 C63.2045481,5.54942154 64.1714928,6.47432513 65.4831742,6.47432513 C66.6266914,6.47432513 67.3666143,5.81848441 67.6020443,4.97766296 Z" id="形状" fill="#666666" fill-rule="nonzero"></path>
                        </g>
                        <rect id="矩形" stroke="none" fill="#EBEBEB" fill-rule="evenodd" x="33.8235294" y="192.251678" width="313.970588" height="10.2885906" rx="4.5544495"></rect>
                        <rect id="矩形备份-21" stroke="none" fill="#EBEBEB" fill-rule="evenodd" x="439.705882" y="107.738255" width="48.5294118" height="10.2885906" rx="4.5544495"></rect>
                        <rect id="矩形备份-22" stroke="none" fill="#EBEBEB" fill-rule="evenodd" x="422.058824" y="137.134228" width="66.1764706" height="10.2885906" rx="4.5544495"></rect>
                        <rect id="矩形备份-23" stroke="none" fill="#EBEBEB" fill-rule="evenodd" x="433.088235" y="192.251678" width="55.1470588" height="10.2885906" rx="4.5544495"></rect>
                        <rect id="矩形备份-25" stroke="none" fill="#EBEBEB" fill-rule="evenodd" x="444.117647" y="278.234899" width="44.1176471" height="10.2885906" rx="4.5544495"></rect>
                        <rect id="矩形备份-24" stroke="none" fill="#EBEBEB" fill-rule="evenodd" x="454.411765" y="221.647651" width="33.8235294" height="10.2885906" rx="4.5544495"></rect>
                        <rect id="矩形备份-26" stroke="none" fill="#EBEBEB" fill-rule="evenodd" x="429.411765" y="334.087248" width="58.8235294" height="10.2885906" rx="4.5544495"></rect>
                        <rect id="矩形备份-16" stroke="none" fill="#EBEBEB" fill-rule="evenodd" x="33.8235294" y="107.738255" width="181.617647" height="10.2885906" rx="4.5544495"></rect>
                        <rect id="矩形备份-6" stroke="none" fill="#EBEBEB" fill-rule="evenodd" x="33.8235294" y="221.647651" width="119.117647" height="10.2885906" rx="4.5544495"></rect>
                        <rect id="矩形备份-17" stroke="none" fill="#EBEBEB" fill-rule="evenodd" x="33.8235294" y="137.134228" width="216.176471" height="10.2885906" rx="4.5544495"></rect>
                        <rect id="矩形备份-19" stroke="none" fill="#EBEBEB" fill-rule="evenodd" x="33.8235294" y="334.087248" width="119.117647" height="10.2885906" rx="4.5544495"></rect>
                        <rect id="矩形备份-20" stroke="none" fill="#EBEBEB" fill-rule="evenodd" x="33.8235294" y="278.234899" width="157.352941" height="10.2885906" rx="4.5544495"></rect>
                        <g id="pcm" stroke="none" stroke-width="1" fill="none" fill-rule="evenodd" transform="translate(13.9706, 80.547)">
                            <rect id="矩形" fill="#000000" fill-rule="nonzero" opacity="0" x="0" y="0" width="11.7647059" height="11.7583893"></rect>
                            <path d="M9.80251762,4.7846447 C10.0740208,4.7846447 10.2941176,5.01567592 10.2941176,5.30065286 L10.2941176,9.77259421 C10.2941176,10.0575711 10.0740208,10.2885906 9.80251762,10.2885906 L6.68908062,10.2885906 C6.41757742,10.2885906 6.19748059,10.0575711 6.19748059,9.77259421 L6.19748059,5.3006411 C6.19748059,5.01566416 6.41757742,4.7846447 6.68908062,4.7846447 L9.80251762,4.7846447 L9.80251762,4.7846447 Z M5.65126082,9.23652749 L5.65126082,9.77259421 C5.65126082,9.91764838 5.67830185,10.0563887 5.72745513,10.1825248 L3.13865213,10.1825248 L3.13865213,9.23651574 L5.65126082,9.23651574 L5.65126082,9.23652749 Z M9.474788,5.64464654 L7.01681024,5.64464654 L7.01681024,9.42860053 L9.474788,9.42860053 L9.474788,5.64464654 L9.474788,5.64464654 Z M8.18571293,2.20469799 C8.58391242,2.20469799 8.90672481,2.54351865 8.90672481,2.96147938 L8.90672481,4.21105932 L8.00546556,4.21105932 L8.00546556,3.1506953 L1.63655337,3.1506953 L1.63655337,7.56528281 L5.65126082,7.56528281 L5.65126082,8.51128013 L1.456306,8.51128013 C1.05810213,8.51128013 0.735294118,8.17245229 0.735294118,7.75448698 L0.735294118,2.96147938 C0.735294118,2.54351865 1.05810651,2.20469799 1.456306,2.20469799 L8.18571293,2.20469799 L8.18571293,2.20469799 Z M5.72963947,4.88470234 C5.67773372,5.01660173 5.65110013,5.15794452 5.65126082,5.30065286 L5.65126082,5.83098184 L3.13865213,5.83098184 L3.13865213,4.88499628 L5.72963947,4.88470234 L5.72963947,4.88470234 Z" id="形状" fill="#000000" fill-rule="nonzero"></path>
                        </g>
                        <ellipse id="椭圆形备份-5" stroke="none" fill="#EBEBEB" fill-rule="evenodd" cx="430.882353" cy="112.88255" rx="5.88235294" ry="5.87919463"></ellipse>
                        <ellipse id="椭圆形备份-6" stroke="none" fill="#EBEBEB" fill-rule="evenodd" cx="413.235294" cy="142.278523" rx="5.88235294" ry="5.87919463"></ellipse>
                        <ellipse id="椭圆形备份-7" stroke="none" fill="#EBEBEB" fill-rule="evenodd" cx="424.264706" cy="197.395973" rx="5.88235294" ry="5.87919463"></ellipse>
                        <ellipse id="椭圆形备份-9" stroke="none" fill="#EBEBEB" fill-rule="evenodd" cx="435.294118" cy="283.379195" rx="5.88235294" ry="5.87919463"></ellipse>
                        <ellipse id="椭圆形备份-8" stroke="none" fill="#EBEBEB" fill-rule="evenodd" cx="445.588235" cy="226.791946" rx="5.88235294" ry="5.87919463"></ellipse>
                        <ellipse id="椭圆形备份-10" stroke="none" fill="#EBEBEB" fill-rule="evenodd" cx="420.588235" cy="339.231544" rx="5.88235294" ry="5.87919463"></ellipse>
                        <g id="编组备份-2" stroke="none" stroke-width="1" fill="none" fill-rule="evenodd" transform="translate(479.4118, 165.7953)" stroke-linecap="round" stroke-linejoin="round">
                            <rect id="矩形" stroke="#999999" stroke-width="0.934246051" x="0" y="0" width="8.82352941" height="8.81879195" rx="0.934246051"></rect>
                            <line x1="2.45098039" y1="4.40939597" x2="6.37254902" y2="4.40939597" id="路径" stroke="#999999" stroke-width="0.934246051"></line>
                            <polyline id="路径" stroke="#999999" stroke-width="0.934246051" points="4.41176471 6.36912752 6.37254902 4.40939597 4.41176471 2.44966443"></polyline>
                        </g>
                        <g id="编组备份-4" stroke="none" stroke-width="1" fill="none" fill-rule="evenodd" transform="translate(479.4118, 250.3087)" stroke-linecap="round" stroke-linejoin="round">
                            <rect id="矩形" stroke="#999999" stroke-width="0.934246051" x="0" y="0" width="8.82352941" height="8.81879195" rx="0.934246051"></rect>
                            <line x1="2.45098039" y1="4.40939597" x2="6.37254902" y2="4.40939597" id="路径" stroke="#999999" stroke-width="0.934246051"></line>
                            <polyline id="路径" stroke="#999999" stroke-width="0.934246051" points="4.41176471 6.36912752 6.37254902 4.40939597 4.41176471 2.44966443"></polyline>
                        </g>
                        <g id="编组备份-5" stroke="none" stroke-width="1" fill="none" fill-rule="evenodd" transform="translate(479.4118, 307.6309)" stroke-linecap="round" stroke-linejoin="round">
                            <rect id="矩形" stroke="#999999" stroke-width="0.934246051" x="0" y="0" width="8.82352941" height="8.81879195" rx="0.934246051"></rect>
                            <line x1="2.45098039" y1="4.40939597" x2="6.37254902" y2="4.40939597" id="路径" stroke="#999999" stroke-width="0.934246051"></line>
                            <polyline id="路径" stroke="#999999" stroke-width="0.934246051" points="4.41176471 6.36912752 6.37254902 4.40939597 4.41176471 2.44966443"></polyline>
                        </g>
                        <g id="编组备份-3" stroke="none" stroke-width="1" fill="none" fill-rule="evenodd" transform="translate(479.4118, 82.0168)" stroke-linecap="round" stroke-linejoin="round">
                            <rect id="矩形" stroke="#999999" stroke-width="0.934246051" x="0" y="0" width="8.82352941" height="8.81879195" rx="0.934246051"></rect>
                            <line x1="2.45098039" y1="4.40939597" x2="6.37254902" y2="4.40939597" id="路径" stroke="#999999" stroke-width="0.934246051"></line>
                            <polyline id="路径" stroke="#999999" stroke-width="0.934246051" points="4.41176471 6.36912752 6.37254902 4.40939597 4.41176471 2.44966443"></polyline>
                        </g>
                        <line x1="93.3823529" y1="170.204771" x2="468.543432" y2="170.204771" id="路径-4" stroke="#EBEBEB" stroke-width="0.700684538" fill="none"></line>
                        <line x1="79.0441176" y1="87.5285235" x2="468.543432" y2="87.1611473" id="路径-4备份-2" stroke="#EBEBEB" stroke-width="0.700684538" fill="none"></line>
                        <line x1="108.455882" y1="255.08557" x2="468.543432" y2="254.718194" id="路径-4备份-3" stroke="#EBEBEB" stroke-width="0.700684538" fill="none"></line>
                        <line x1="70.9558824" y1="311.672819" x2="468.543432" y2="311.305443" id="路径-4备份-4" stroke="#EBEBEB" stroke-width="0.700684538" fill="none"></line>
                        <g id="编组" stroke="none" stroke-width="1" fill="none" fill-rule="evenodd" transform="translate(14.7059, 305.4262)">
                            <path d="M7.06954657,0.0267308917 L0.693167894,0.507251498 C0.179227948,0.55271674 0,0.895665789 0,1.30681271 L0,8.439369 C0,8.75958542 0.111825982,9.03355271 0.38028493,9.39962633 L1.87921262,11.3883389 C2.12545956,11.7085553 2.34911152,11.7771451 2.81939339,11.7544125 L10.2240349,11.2970164 C10.8501838,11.2515512 11.0294118,10.9540674 11.0294118,10.4512061 L11.0294118,2.42698228 C11.0294118,2.16712489 10.9286918,2.09226401 10.6322764,1.87042497 C10.6154045,1.85791296 10.598554,1.84537081 10.5817249,1.83279855 L8.54626226,0.36967993 C8.05376838,0.00439020944 7.8527114,-0.0418589205 7.06954657,0.0267308917 Z M2.98713236,2.29568179 C2.38242954,2.33722761 2.24532782,2.34663421 1.90180761,2.06169255 L1.02864584,1.35306184 C0.939797796,1.26134746 0.98460478,1.14690047 1.20787378,1.12416784 L7.33800552,0.667163737 C7.85232843,0.621306552 8.12078738,0.804343362 8.32222733,0.964255601 L9.3738511,1.74186807 C9.41865809,1.7646007 9.5301011,1.90138837 9.39606312,1.90138837 L3.06525735,2.2901946 L2.98713236,2.29568179 L2.98713236,2.29568179 Z M2.28209252,10.3826163 L2.28209252,3.57066836 C2.28209252,3.27318456 2.37132352,3.13600494 2.63978248,3.11288037 L9.91038603,2.67860889 C10.1570159,2.65587627 10.2688419,2.81578852 10.2688419,3.11288037 L10.2688419,9.87936306 C10.2688419,10.1768469 10.2240349,10.4284735 9.82077206,10.4512061 L2.86343444,10.862745 C2.4609375,10.8854776 2.28209252,10.7486899 2.28209252,10.3826163 L2.28209252,10.3826163 Z M9.15058211,3.93595808 C9.19500613,4.14172751 9.15058211,4.34749694 8.94875919,4.37101345 L8.61328126,4.43881937 L8.61328126,9.46821614 C8.32222734,9.62812838 8.05415136,9.71945082 7.83049939,9.71945081 C7.47242648,9.71945081 7.38242954,9.60500381 7.11435355,9.26244671 L4.92149204,5.74202575 L4.92149204,9.14799972 L5.61542586,9.30830391 C5.61542586,9.30830391 5.61542586,9.71984277 5.05553002,9.71984276 L3.51217831,9.81116519 C3.4677543,9.71945082 3.51217831,9.49094877 3.66919425,9.44548352 L4.07130821,9.33142846 L4.07130821,4.82801755 L3.51217831,4.78176842 C3.4677543,4.57599899 3.57919731,4.27890713 3.8928462,4.2561745 L5.54840687,4.14172752 L7.83049939,7.7083976 L7.83049939,4.55326637 L7.24839155,4.4850685 C7.20396753,4.23304994 7.38242954,4.05040508 7.60646446,4.02767246 L9.15058211,3.93595808 Z" id="形状" fill="#000000" fill-rule="nonzero"></path>
                        </g>
                        <g id="过滤" stroke="none" stroke-width="1" fill="none" fill-rule="evenodd" transform="translate(37, 45)">
                            <rect id="矩形" fill="#333333" fill-rule="nonzero" opacity="0" x="0" y="0" width="16" height="16"></rect>
                            <path d="M3,4.66668573 C3,4.29850008 3.30770356,4.00002422 3.68728097,4.00000774 L13.3093756,4.00000774 C13.555713,3.9988588 13.7838501,4.12567032 13.9073643,4.33241158 C14.0308786,4.53915284 14.0308786,4.79420299 13.9073643,5.00094425 C13.7838501,5.20768551 13.555713,5.33449703 13.3093756,5.33334809 L3.68728097,5.33334809 C3.30770985,5.33333161 3,5.03486527 3,4.66668573 L3,4.66668573 Z M4.37457804,8.00000517 C4.37457804,7.82319326 4.44698949,7.6536231 4.57588269,7.5285982 C4.7047759,7.40357329 4.8795926,7.33333503 5.06187512,7.33333503 L11.9347814,7.33333503 C12.180329,7.33333503 12.4072244,7.46040163 12.5299982,7.66667009 C12.652772,7.87293856 12.652772,8.12707179 12.5299982,8.33333503 C12.4072244,8.53960871 12.180329,8.66667531 11.9347814,8.66667531 L5.06187512,8.66667531 C4.68229142,8.66667531 4.37457804,8.36819692 4.37457804,8.00000517 Z M5.74915608,11.3333246 C5.74915608,10.965139 6.05687576,10.6666623 6.43645316,10.6666623 L10.5602034,10.6666623 C10.8065408,10.6655133 11.0346779,10.7923248 11.1581921,10.9990661 C11.2817064,11.2058074 11.2817064,11.4608575 11.1581921,11.6675988 C11.0346779,11.87434 10.8065408,12.0011515 10.5602034,12.0000026 L6.43645316,12.0000026 C6.05686947,12.0000026 5.74915608,11.7015164 5.74915608,11.3333246 Z" id="形状" fill="#333333" fill-rule="nonzero"></path>
                        </g>
                        <g id="搜索" stroke="none" stroke-width="1" fill="none" fill-rule="evenodd" transform="translate(12, 15)">
                            <rect id="矩形" fill="#B9B9B9" fill-rule="nonzero" opacity="0" x="0" y="0" width="12" height="12"></rect>
                            <path d="M8.64726562,8.71992187 C9.72421875,7.696875 10.1695312,6.17460937 9.81445312,4.73203125 C9.459375,3.28945312 8.35664062,2.14804687 6.928125,1.74257812 C5.49960937,1.33710937 3.96210937,1.7296875 2.9015625,2.7703125 C1.29375,4.3640625 1.265625,6.95273437 2.83828125,8.58046875 C4.40976562,10.209375 6.9984375,10.2714844 8.64726562,8.71992187 Z M9.23789062,9.33632813 C7.25625,11.25 4.096875,11.1949219 2.18320312,9.21328125 C0.26953125,7.23046875 0.324609375,4.07226563 2.30742187,2.15742188 C4.2890625,0.24375 7.44726562,0.298828125 9.36210937,2.28164063 C11.2757812,4.26328125 11.2207031,7.42148438 9.23789062,9.33632813 Z" id="形状" fill="#B9B9B9" fill-rule="nonzero"></path>
                            <path d="M10.528125,11.1164062 L8.99765625,9.53203125 C8.8359375,9.36445312 8.840625,9.09726562 9.00820312,8.93554687 C9.17578125,8.77382812 9.44296875,8.77851562 9.6046875,8.94609375 L11.1351562,10.5304687 C11.296875,10.6980469 11.2921875,10.9652344 11.1246094,11.1269531 C10.9570312,11.2886719 10.6898437,11.2839844 10.528125,11.1164062 L10.528125,11.1164062 Z" id="路径" fill="#B9B9B9" fill-rule="nonzero"></path>
                        </g>
                    </g>
                </g>
                <rect id="矩形" fill="#FFFFFF" mask="url(#mask-3)" x="137" y="51" width="64" height="64" rx="21.3333333"></rect>
                <g id="编组备份-10" mask="url(#mask-3)" fill-rule="nonzero">
                    <g transform="translate(147.6667, 64.3333)" id="路径">
                        <polygon fill="#FFC107" points="14.2222222 1.41703679e-15 28.4431941 1.41703679e-15 42.6654164 24.8888889 28.4444444 24.8888889"></polygon>
                        <polygon fill="#1976D2" points="6.98295482 37.3333333 14.159707 24.8888889 42.6666667 24.8888889 35.5549304 37.3333333"></polygon>
                        <polygon fill="#4CAF50" points="0 25.0190769 6.98295482 37.3333333 21.3327082 12.4444444 14.2209719 0"></polygon>
                    </g>
                </g>
                <rect id="矩形" fill="#FFFFFF" mask="url(#mask-3)" x="376" y="115" width="56" height="56" rx="18.6666667"></rect>
                <g id="file_type_hugo" mask="url(#mask-3)" fill-rule="nonzero">
                    <g transform="translate(387, 124)" id="路径">
                        <path d="M19.4159445,0.552964362 L31.6429809,7.61898537 C33.09638,8.45056431 33.9940775,9.98520101 34,11.6483692 L34,26.1161932 C34,27.9556946 32.9982669,29.6492038 31.3778163,30.5543552 L19.2244367,37.3283919 C17.6039861,38.2335433 15.644714,38.2189441 14.0389948,37.3137927 L2.84315425,30.9193356 C1.08743874,29.9182452 0.00372669093,28.0651946 0,26.0577964 L0,12.3345324 C0.00225119941,10.3111332 1.0612501,8.43308268 2.79896014,7.37079868 L13.8032929,0.625960447 C15.8067591,-0.104000401 17.8838821,-0.279191004 19.4012132,0.552964362 L19.4159445,0.552964362 Z" fill="#FF4088"></path>
                        <polygon fill="#FFFFFF" points="8 29.9853431 8 8 12.6350174 8 12.6350174 16.0173218 20.3353659 16.0173218 20.3353659 8.0146569 25 8.0146569 25 30 20.3501742 30 20.3501742 20.3850766 12.6498258 20.3850766 12.6498258 29.9853431"></polygon>
                    </g>
                </g>
                <rect id="矩形" fill="#FFFFFF" mask="url(#mask-3)" x="286" y="24" width="48" height="48" rx="16"></rect>
                <g id="编组" mask="url(#mask-3)" fill="#000000" fill-rule="nonzero">
                    <g transform="translate(296, 33)" id="形状">
                        <path d="M17.9472222,0.0682003915 L1.75972223,1.29418619 C0.455000017,1.41018483 0,2.2851747 0,3.33416256 L0,21.5319517 C0,22.3489423 0.283888893,23.0479341 0.965416675,23.9819233 L4.77069445,29.0558646 C5.39583333,29.8728551 5.96361112,30.0478531 7.15750001,29.9898538 L25.9554167,28.8228673 C27.545,28.7068686 28,27.9478774 28,26.6648923 L28,6.19212945 C28,5.52913713 27.7443056,5.33813935 26.9918056,4.7721459 C26.9489735,4.74022314 26.9061956,4.70822346 26.8634722,4.676147 L21.6961111,0.943190231 C20.4458333,0.0112010481 19.9354167,-0.106797588 17.9472222,0.0682003915 Z M7.58333335,5.85713332 C6.04819446,5.96313208 5.7001389,5.98713181 4.82805557,5.26014024 L2.6113889,3.45216119 C2.38583334,3.21816391 2.49958333,2.92616729 3.06638889,2.86816795 L18.62875,1.70218145 C19.9344444,1.58518281 20.6159722,2.05217741 21.1273611,2.46017268 L23.7970833,4.4441497 C23.9108333,4.50214904 24.19375,4.85114498 23.8534722,4.85114498 L7.78166667,5.84313349 L7.58333335,5.85713332 L7.58333335,5.85713332 Z M5.79347222,26.4898943 L5.79347222,9.11009565 C5.79347222,8.35110445 6.01999999,8.00110849 6.7015278,7.94210916 L25.1591667,6.834122 C25.7852778,6.77612266 26.0691667,7.18411796 26.0691667,7.94210916 L26.0691667,25.2059092 C26.0691667,25.9649004 25.9554167,26.606893 24.9316667,26.6648923 L7.26930555,27.7148801 C6.24750001,27.7728795 5.79347222,27.4238835 5.79347222,26.4898943 L5.79347222,26.4898943 Z M23.2302778,10.0420848 C23.3430555,10.5670787 23.2302778,11.0920727 22.7179167,11.152072 L21.86625,11.32507 L21.86625,24.1569213 C21.1273611,24.5649166 20.4468056,24.7979139 19.8790278,24.7979139 C18.97,24.7979139 18.7415278,24.5059173 18.0609722,23.6319274 L12.4940278,14.6500315 L12.4940278,23.3399308 L14.2556944,23.7489261 C14.2556944,23.7489261 14.2556944,24.7989139 12.8343056,24.7989139 L8.91625001,25.0319112 C8.80347224,24.7979139 8.91625001,24.2149207 9.31486113,24.098922 L10.3356944,23.8079254 L10.3356944,12.3180585 L8.91625001,12.2000598 C8.80347224,11.6750659 9.08638891,10.9170747 9.88263889,10.8590754 L14.0855556,10.5670788 L19.8790278,19.6669733 L19.8790278,11.6170666 L18.40125,11.4430686 C18.2884722,10.8000761 18.7415278,10.3340814 19.3102778,10.2760821 L23.2302778,10.0420848 Z"></path>
                    </g>
                </g>
                <rect id="矩形" fill="#FFFFFF" mask="url(#mask-3)" x="517" y="72" width="48" height="48" rx="16"></rect>
                <g id="编组" mask="url(#mask-3)" fill-rule="nonzero">
                    <g transform="translate(522, 79)" id="路径">
                        <path d="M35,4.55715053 L32.1561686,4.4017831 C32.1561686,4.4017831 31.0805875,0.542435671 26.1442498,0.196161906 C21.2079121,-0.149979757 17.9780051,0.0673496409 17.9780051,0.0673496721 C17.9780051,0.0673497033 21.6397264,2.45136733 20.1722698,6.7054748 C19.0819257,8.99991841 17.3569097,10.8746322 15.517745,13.0291659 L3.35616438,27.2238806 C14.6771836,27.0541127 21.3515866,26.9691626 23.3795053,26.9691626 C29.066509,26.9691626 33.8727487,21.9252708 33.6760861,16.313284 C33.5408476,12.4563146 32.3401774,11.5848832 31.9274758,9.89565903 C31.514906,8.20643486 32.3408364,5.51260719 35,4.55715053 L35,4.55715053 Z" fill="#31CC79"></path>
                        <path d="M15.3134832,13.0273636 C9.35856209,19.933559 0,30.9216834 0,30.9216834 C16.8362341,35.4594602 24.5933233,24.4462543 25.8080428,20.6335874 C27.4365476,15.5217209 25.1355428,13.0273635 23.8332664,12.2138708 C19.4177109,9.45569228 16.1415812,12.0669643 15.3134832,13.0273636 Z" fill="#93E65C"></path>
                        <path d="M15.8890793,12.7659299 C17.0189696,11.6824678 20.1595214,9.67839284 24.277909,12.2119258 C25.5979341,13.0240605 27.9306796,15.5144397 26.2797828,20.6183249 C25.800851,22.0986165 24.3189185,24.6661974 21.6825965,26.9851494 C18.9553347,27.003625 12.8465241,27.0832021 3.35616438,27.2238806 L15.0999136,13.6695189 C15.3562227,13.3725895 15.6102682,13.0812029 15.8605857,12.7933794 L15.8890793,12.7659299 Z" fill="#60DB69" opacity="0.86"></path>
                    </g>
                </g>
                <g id="矩形" mask="url(#mask-3)">
                    <use fill="black" fill-opacity="1" filter="url(#filter-5)" xlink:href="#path-4"></use>
                    <use fill="#70A3FF" fill-rule="evenodd" xlink:href="#path-4"></use>
                </g>
                <g id="矩形备份-33" mask="url(#mask-3)">
                    <use fill="black" fill-opacity="1" filter="url(#filter-7)" xlink:href="#path-6"></use>
                    <use fill="#FFDA70" fill-rule="evenodd" xlink:href="#path-6"></use>
                </g>
                <g id="矩形备份-7" mask="url(#mask-3)">
                    <use fill="black" fill-opacity="1" filter="url(#filter-9)" xlink:href="#path-8"></use>
                    <use fill-opacity="0.4" fill="#FFFFFF" fill-rule="evenodd" xlink:href="#path-8"></use>
                </g>
                <g id="矩形备份-12" mask="url(#mask-3)">
                    <use fill="black" fill-opacity="1" filter="url(#filter-11)" xlink:href="#path-10"></use>
                    <use fill-opacity="0.5" fill="#FFFFFF" fill-rule="evenodd" xlink:href="#path-10"></use>
                </g>
                <g id="编组" mask="url(#mask-3)">
                    <g transform="translate(418, 36)">
                        <rect id="矩形备份-12" fill="#00A1E0" fill-rule="evenodd" x="0" y="0" width="27" height="27" rx="7.71428571"></rect>
                        <path d="M13.5,5.01428571 C18.1865306,5.01428571 21.9857143,8.81346941 21.9857143,13.5 C21.9857143,18.1865306 18.1865306,21.9857143 13.5,21.9857143 C8.81346941,21.9857143 5.01428571,18.1865306 5.01428571,13.5 C5.01428571,8.81346941 8.81346941,5.01428571 13.5,5.01428571 Z M13.5,6.55714286 C9.66556588,6.55714286 6.55714286,9.66556588 6.55714286,13.5 C6.55714286,17.3344341 9.66556588,20.4428571 13.5,20.4428571 C17.3344341,20.4428571 20.4428571,17.3344341 20.4428571,13.5 C20.4428571,9.66556588 17.3344341,6.55714286 13.5,6.55714286 Z" id="椭圆形" fill="#FFFFFF" fill-rule="nonzero"></path>
                        <path d="M13.5160293,5.01444739 L13.5318214,5.01573214 L13.5536106,5.01614592 L13.5694286,5.01814286 L13.5855932,5.01900713 L13.6065536,5.02248214 L13.6228695,5.02409159 L13.6378929,5.02778571 L13.654624,5.02983631 L13.6706786,5.03405357 L13.6912904,5.03827324 L13.705875,5.04273214 L13.7226648,5.04694606 L13.7444464,5.05478571 L13.758416,5.05867973 L13.7704821,5.06394643 L13.7892583,5.07034753 L13.8080893,5.079375 L13.8237895,5.08529991 L13.8346071,5.09142857 L13.8539476,5.10005187 L13.874625,5.11216071 L13.8869538,5.11812264 L13.8987321,5.12614286 L13.9162757,5.13607023 L13.9310357,5.146875 L13.9474518,5.15713675 L13.9638214,5.1705 L13.9757854,5.17841376 L13.9874464,5.18882143 L14.0048264,5.20233112 L14.0187857,5.21630357 L14.0320197,5.2270936 L14.0448214,5.24089286 L14.0586207,5.25369458 C18.4103552,9.82301582 18.4561629,16.9758931 14.1960439,21.599605 L14.0586207,21.7463054 C13.7546094,22.0655172 13.2453906,22.0655172 12.9413793,21.7463054 C8.54334975,17.1283744 8.54334975,9.87162562 12.9413793,5.25369458 L12.9546964,5.24089286 L12.9679803,5.2270936 L12.9807321,5.21630357 L12.9951736,5.20233112 L13.0120714,5.18882143 L13.0242146,5.17841376 L13.0356964,5.1705 L13.0525482,5.15713675 L13.0684821,5.146875 L13.0837243,5.13607023 L13.1007857,5.12614286 L13.1130462,5.11812264 L13.1248929,5.11216071 L13.1460524,5.10005187 L13.1649107,5.09142857 L13.1762105,5.08529991 L13.1914286,5.079375 L13.2107417,5.07034753 L13.2290357,5.06394643 L13.241584,5.05867973 L13.2550714,5.05478571 L13.2773352,5.04694606 L13.2936429,5.04273214 L13.3087096,5.03827324 L13.3288393,5.03405357 L13.345376,5.02983631 L13.361625,5.02778571 L13.3771305,5.02409159 L13.3929643,5.02248214 L13.4144068,5.01900713 L13.4300893,5.01814286 L13.4463894,5.01614592 L13.4676964,5.01573214 L13.4839707,5.01444739 L13.4995179,5.01525 L13.5160293,5.01444739 Z M13.5,6.95394643 L13.4361387,7.03309533 C10.4355728,10.8132305 10.4355728,16.1867695 13.4361387,19.9669047 L13.5,20.0455714 L13.5638613,19.9669047 C16.5644272,16.1867695 16.5644272,10.8132305 13.5638613,7.03309533 L13.5,6.95394643 Z" id="路径" fill="#FFFFFF" fill-rule="nonzero"></path>
                        <path d="M21.2142857,12.7285714 C21.6403339,12.7285714 21.9857143,13.0739518 21.9857143,13.5 C21.9857143,13.9260482 21.6403339,14.2714286 21.2142857,14.2714286 L5.78571429,14.2714286 C5.35966605,14.2714286 5.01428571,13.9260482 5.01428571,13.5 C5.01428571,13.0739518 5.35966605,12.7285714 5.78571429,12.7285714 L21.2142857,12.7285714 Z" id="路径" fill="#FFFFFF" fill-rule="nonzero"></path>
                    </g>
                </g>
            </g>
        </g>
    </g>
</svg>