<?xml version="1.0" encoding="UTF-8"?>
<svg width="24px" height="24px" viewBox="0 0 24 24" version="1.1" xmlns="http://www.w3.org/2000/svg" xmlns:xlink="http://www.w3.org/1999/xlink">
    <title>MCP</title>
    <g id="官网3" stroke="none" stroke-width="1" fill="none" fill-rule="evenodd">
        <g id="选择" transform="translate(-450, -96)">
            <g id="MCP" transform="translate(450, 96)">
                <g id="编组" transform="translate(2, 1)" fill="#FFFFFF" fill-rule="nonzero">
                    <path d="M11.666472,1.67463602 C11.2664444,1.75255234 10.8963369,1.94672481 10.5997362,2.23428617 L1.45647651,11.2794426 C1.11926567,11.6054121 0.595807953,11.6096013 0.253731847,11.2890681 C0.0938449253,11.1401599 0.00182566688,10.928943 2.53753245e-05,10.7067816 C-0.00172265131,10.4846201 0.086910842,10.271869 0.244397909,10.1202655 L9.38765758,1.07510907 C9.73434672,0.731343625 10.4357256,0.203319906 11.3771199,0.0451877957 C12.3825185,-0.122569747 13.521259,0.156567794 14.5999956,1.22361575 C15.6160615,2.23016098 15.7774053,3.36046178 15.6427299,4.27075268 C16.5761238,4.13737168 17.7215314,4.31200454 18.7495981,5.32955027 C19.8456692,6.41309895 20.1283542,7.53102421 19.9510094,8.51419337 C19.7843319,9.4382349 19.2349629,10.1161404 18.9002745,10.4461552 L10.8237507,18.4366393 L13.0052255,20.5954863 C13.1625434,20.747281 13.2509367,20.9601421 13.248909,21.1823044 C13.2468814,21.4044668 13.1546187,21.6155745 12.9945582,21.7642888 C12.6525296,22.0827459 12.1309652,22.0779649 11.7944803,21.7532883 L9.02763421,19.0169154 C8.87157321,18.8668481 8.78295633,18.6566851 8.78295633,18.4366393 C8.78295633,18.2165935 8.87157321,18.0064304 9.02763421,17.8563632 L17.6908628,9.28697811 C17.8975428,9.08209391 18.1948954,8.69570153 18.2789009,8.22818051 C18.352239,7.82391234 18.2895683,7.23126071 17.5401863,6.48872736 C16.8761432,5.8328229 16.2121002,5.81494708 15.6640646,5.95245326 C15.3312283,6.0370555 15.0144135,6.17833496 14.7266705,6.37047205 L14.7053358,6.38422266 L7.5315372,13.4822916 C7.19470426,13.8065755 6.67314291,13.8107588 6.33145937,13.4919171 C6.17139881,13.3432028 6.07913611,13.132095 6.07710849,12.9099327 C6.07508087,12.6877704 6.16347411,12.4749092 6.320792,12.3231146 L13.4865901,5.23329593 L13.4972574,5.2167952 C13.6897985,4.92450584 13.8323168,4.60033679 13.9186181,4.25837713 C14.0586272,3.68635141 14.0292919,3.01669633 13.3892504,2.38279284 C12.6665369,1.66776072 12.0758319,1.60588293 11.666472,1.67463602 Z M12.6665369,3.1184509 C12.8264238,3.26735903 12.9184431,3.47857592 12.9202172,3.70073742 C12.9219914,3.92289892 12.8333579,4.13565001 12.6758708,4.28725342 L5.50207224,11.3825723 C5.44934852,11.4553787 5.40124506,11.5316245 5.35806289,11.6108325 C5.25272273,11.7950908 5.13271494,12.0508523 5.05937686,12.3409903 C4.91803437,12.8965153 4.93936907,13.5675455 5.60607898,14.2275751 C6.27012206,14.8834796 6.93549854,14.9013554 7.48353409,14.7638492 C7.8242266,14.6766539 8.14800111,14.530172 8.44092951,14.3307048 L15.6147281,7.23538592 C15.9514019,6.90986754 16.4739136,6.90508326 16.8161394,7.22438542 C16.9761999,7.3730997 17.0684626,7.58420748 17.0705244,7.80636979 C17.0725179,8.02853211 16.9841246,8.24139328 16.8268067,8.39318794 L9.60767185,15.5352589 C9.58362402,15.5587895 9.55824452,15.5808292 9.53166692,15.6012619 L9.00096583,14.9549828 L9.53166692,15.6012619 L9.52900007,15.6026369 L9.52499981,15.605387 L9.51566588,15.6136374 L9.48633064,15.6356384 L9.39032441,15.7030164 C8.93446782,16.0090206 8.43183176,16.2335542 7.90356131,16.3671713 C6.91149696,16.6119323 5.57674374,16.5555547 4.39533378,15.3867522 C3.21659068,14.2206998 3.16325388,12.911641 3.40860312,11.9449726 C3.55437244,11.3823018 3.80381587,10.8538295 4.14331744,10.3884026 L4.16598557,10.3595263 L4.17265268,10.3499009 L4.17665294,10.3457757 C4.17665294,10.3457757 4.17798636,10.3430256 4.85002995,10.8490483 L4.17798636,10.3430256 C4.19874549,10.3169177 4.2210094,10.2921217 4.24465735,10.2687722 L11.4637922,3.12807633 C11.8008146,2.80295051 12.3233232,2.79876429 12.6652035,3.1184509 L12.6665369,3.1184509 Z" id="形状"></path>
                </g>
                <rect id="矩形" x="0" y="0" width="24" height="24"></rect>
            </g>
        </g>
    </g>
</svg>