<?xml version="1.0" encoding="UTF-8"?>
<svg width="720px" height="500px" viewBox="0 0 720 500" version="1.1" xmlns="http://www.w3.org/2000/svg" xmlns:xlink="http://www.w3.org/1999/xlink">
    <title>编组 26备份</title>
    <defs>
        <linearGradient x1="50%" y1="0%" x2="50%" y2="100%" id="linearGradient-1">
            <stop stop-color="#D9FFF7" offset="0%"></stop>
            <stop stop-color="#C1A6FF" offset="100%"></stop>
        </linearGradient>
        <rect id="path-2" x="0" y="0" width="8.82352941" height="8.81879195"></rect>
        <path d="M2.76620794,0.924109375 L2.793809,1.20385928 L2.95438886,1.00426436 C3.1177163,0.799798682 3.41765466,0.76203617 3.62431993,0.919919427 C3.8309852,1.07780268 3.86611745,1.37154453 3.70279001,1.57601021 L3.501809,1.82685928 L3.86034371,1.78815659 C4.12246304,1.7596945 4.35608976,1.94476266 4.38216359,2.20151789 C4.40823742,2.45827311 4.21688473,2.68948743 3.9547654,2.71794951 L3.622809,2.75385928 L3.8723869,2.94460723 C4.07905217,3.10249049 4.11418442,3.39623234 3.95085698,3.60069801 C3.78752953,3.80516369 3.48759118,3.8429262 3.28092591,3.68504295 L3.026809,3.49085928 L3.05833653,3.80076931 C3.08441036,4.05752454 2.89305768,4.28873885 2.63093835,4.31720094 C2.36881902,4.34566302 2.1351923,4.16059486 2.10911847,3.90383964 L2.078809,3.60785928 L1.87288563,3.86682326 C1.70955819,4.07128894 1.40961983,4.10905145 1.20295456,3.9511682 C0.996289292,3.79328494 0.961157041,3.49954309 1.12448448,3.29507741 L1.360809,2.99885928 L1.01800658,3.03683585 C0.755887248,3.06529793 0.522260531,2.88022978 0.496186701,2.62347455 C0.470112871,2.36671932 0.661465556,2.13550501 0.923584886,2.10704293 L1.178809,2.07885928 L0.965468828,1.91613468 C0.758803557,1.75825142 0.723671306,1.46450957 0.886998749,1.26004389 C1.05032619,1.05557822 1.35026455,1.0178157 1.55692982,1.17569896 L1.854809,1.40285928 L1.81698988,1.0271797 C1.79091605,0.77042447 1.98226873,0.539210158 2.24438806,0.510748075 C2.50650739,0.482285992 2.74013411,0.667354149 2.76620794,0.924109375 Z" id="path-4"></path>
        <filter x="0.0%" y="0.0%" width="100.0%" height="100.0%" filterUnits="objectBoundingBox" id="filter-6">
            <feGaussianBlur stdDeviation="0.304586848" in="SourceGraphic"></feGaussianBlur>
        </filter>
        <filter x="0.0%" y="0.0%" width="100.0%" height="100.0%" filterUnits="objectBoundingBox" id="filter-7">
            <feGaussianBlur stdDeviation="0.304586848" in="SourceGraphic"></feGaussianBlur>
        </filter>
        <filter x="0.0%" y="0.0%" width="100.0%" height="100.0%" filterUnits="objectBoundingBox" id="filter-8">
            <feGaussianBlur stdDeviation="0.304586848" in="SourceGraphic"></feGaussianBlur>
        </filter>
        <rect id="path-9" x="0" y="0" width="16.1764706" height="16.1677852"></rect>
        <path d="M5.07138122,1.69420052 L5.1233165,2.20707534 L5.41637958,1.84115133 C5.71581322,1.46629758 6.26570021,1.39706631 6.64458654,1.68651895 C7.02347287,1.97597159 7.087882,2.51449831 6.78844835,2.88935205 L6.4203165,3.34907534 L7.07729681,3.27828708 C7.55784891,3.22610659 7.98616456,3.56539822 8.03396658,4.03611613 C8.0817686,4.50683404 7.73095534,4.93072695 7.25040324,4.98290743 L6.6413165,5.04807534 L7.09937598,5.39844659 C7.47826231,5.68789923 7.54267144,6.22642595 7.24323779,6.60127969 C6.94380415,6.97613343 6.39391716,7.04536471 6.01503083,6.75591207 L5.5483165,6.39907534 L5.60695031,6.96807708 C5.65475233,7.43879499 5.30393908,7.8626879 4.82338697,7.91486838 C4.34283487,7.96704887 3.91451922,7.62775725 3.8667172,7.15703933 L3.8113165,6.61607534 L3.43362366,7.08917598 C3.13419001,7.46402972 2.58430303,7.533261 2.2054167,7.24380836 C1.82653037,6.95435572 1.76212124,6.415829 2.06155489,6.04097526 L2.4933165,5.49907534 L1.86634539,5.56753239 C1.38579329,5.61971288 0.957477641,5.28042126 0.909675619,4.80970334 C0.861873597,4.33898543 1.21268685,3.91509252 1.69323896,3.86291204 L2.1613165,3.81107534 L1.77002618,3.51291358 C1.39113985,3.22346094 1.32673073,2.68493421 1.62616437,2.31008047 C1.92559802,1.93522673 2.475485,1.86599546 2.85437133,2.1554481 L3.4003165,2.57207534 L3.33114811,1.88316278 C3.28334609,1.41244486 3.63415935,0.988551956 4.11471145,0.93637147 C4.59526355,0.884190984 5.0235792,1.22348261 5.07138122,1.69420052 Z" id="path-11"></path>
        <filter x="-26.0%" y="-39.6%" width="152.0%" height="179.1%" filterUnits="objectBoundingBox" id="filter-13">
            <feGaussianBlur stdDeviation="0.670091065" in="SourceGraphic"></feGaussianBlur>
        </filter>
        <filter x="-36.4%" y="-44.9%" width="172.8%" height="189.8%" filterUnits="objectBoundingBox" id="filter-14">
            <feGaussianBlur stdDeviation="0.670091065" in="SourceGraphic"></feGaussianBlur>
        </filter>
        <filter x="-27.1%" y="-38.0%" width="154.2%" height="176.0%" filterUnits="objectBoundingBox" id="filter-15">
            <feGaussianBlur stdDeviation="0.670091065" in="SourceGraphic"></feGaussianBlur>
        </filter>
    </defs>
    <g id="官网3" stroke="none" stroke-width="1" fill="none" fill-rule="evenodd">
        <g id="coco-AI-zh" transform="translate(-880, -2282)">
            <g id="编组-26备份" transform="translate(880, 2282)">
                <rect id="蒙版" fill="url(#linearGradient-1)" x="0" y="0" width="720" height="500" rx="16"></rect>
                <circle id="椭圆形备份-26" fill="#C8C2FC" cx="94.5" cy="80.5" r="25.5"></circle>
                <g id="编组-24" transform="translate(110, 31)">
                    <rect id="chat-背景框-light" stroke="#E6E6E6" stroke-width="0.735294118" fill="#FFFFFF" x="0.367647059" y="0.367647059" width="499.264706" height="437.264706" rx="8.82352941"></rect>
                    <rect id="输入框" fill="#EDEDED" x="5.88235294" y="376.268456" width="488.235294" height="29.3959732" rx="2.94117647"></rect>
                    <g id="mic" transform="translate(452.9412, 385.0872)">
                        <rect id="矩形" x="0" y="0" width="11.7647059" height="11.7583893"></rect>
                        <path d="M5.6372549,0.734899329 C4.82507145,0.734899329 4.16666667,1.3929506 4.16666667,2.20469799 L4.16666667,5.63422819 C4.16666667,6.44597557 4.82507145,7.10402685 5.6372549,7.10402685 C6.44943836,7.10402685 7.10784314,6.44597557 7.10784314,5.63422819 L7.10784314,2.20469799 C7.10784314,1.3929506 6.44943836,0.734899329 5.6372549,0.734899329 Z" id="路径" stroke="#999999" stroke-width="0.980392157" stroke-linecap="round" stroke-linejoin="round"></path>
                        <path d="M9.06862745,4.65436242 L9.06862745,5.63422819 C9.06862745,7.5283054 7.53234961,9.06375834 5.6372549,9.06375834 C3.74216019,9.06375834 2.20588235,7.5283054 2.20588235,5.63422819 L2.20588235,4.65436242" id="路径" stroke="#999999" stroke-width="0.980392157" stroke-linecap="round" stroke-linejoin="round"></path>
                        <line x1="5.6372549" y1="9.06375839" x2="5.6372549" y2="10.533557" id="路径" stroke="#999999" stroke-width="0.980392157" stroke-linecap="round" stroke-linejoin="round"></line>
                    </g>
                    <ellipse id="椭圆形" fill="#D4D4D4" cx="479.411765" cy="390.966443" rx="8.82352941" ry="8.81879195"></ellipse>
                    <g id="send" transform="translate(474.2647, 385.8221)" stroke="#FFFFFF" stroke-linecap="round" stroke-linejoin="round" stroke-width="0.980392157">
                        <path d="M6.1450031,9.64604927 C6.18314274,9.74105054 6.27636359,9.80233346 6.37874862,9.79979331 C6.48113366,9.79709137 6.57109329,9.73111904 6.60431683,9.63429088 L9.79059134,0.325566045 C9.82261773,0.236945309 9.80050009,0.137808554 9.73383763,0.0711818937 C9.66717518,0.00455523363 9.56798517,-0.0175505344 9.47931683,0.0144586629 L0.165591337,3.19902242 C0.068711162,3.23222812 0.00270338867,3.32213945 0,3.42446951 C-0.00254152226,3.52679958 0.0587743283,3.61997038 0.153826632,3.65808954 L4.04108153,5.21607611 C4.2893988,5.3154417 4.48631375,5.51189695 4.58617957,5.75990162 L6.1450031,9.64604927 Z" id="路径"></path>
                        <line x1="9.732258" y1="0.0732506092" x2="4.36951291" y2="5.43262645" id="路径"></line>
                    </g>
                    <g id="切换按钮" transform="translate(464.7059, 415.2181)">
                        <rect id="矩形" fill="#0072FF" x="0" y="0" width="29.4117647" height="13.2281879" rx="6.61409396"></rect>
                        <g id="编组-2" transform="translate(3.6765, 0.7349)">
                            <g id="编组" transform="translate(0.7353, 1.4698)" stroke="#FFFFFF" stroke-linecap="round" stroke-linejoin="round" stroke-width="0.980392157">
                                <polyline id="路径" points="4.90196078 1.95973154 4.90196078 0 2.94117647 0"></polyline>
                                <rect id="矩形" x="0.980392157" y="1.95973154" width="7.84313725" height="5.87919463" rx="0.980392157"></rect>
                                <line x1="0" y1="4.89932886" x2="0.980392157" y2="4.89932886" id="路径"></line>
                                <line x1="8.82352941" y1="4.89932886" x2="9.80392157" y2="4.89932886" id="路径"></line>
                                <line x1="6.37254902" y1="4.40939597" x2="6.37254902" y2="5.38926174" id="路径"></line>
                                <line x1="3.43137255" y1="4.40939597" x2="3.43137255" y2="5.38926174" id="路径"></line>
                            </g>
                            <rect id="矩形" x="0" y="0" width="11.7647059" height="11.7583893"></rect>
                        </g>
                        <rect id="矩形" fill="#FFFFFF" x="16.9117647" y="0.734899329" width="11.7647059" height="11.7583893" rx="5.87919463"></rect>
                    </g>
                    <line x1="0.735294118" y1="35.6425807" x2="499.264706" y2="35.6425807" id="分割线-上" stroke="#E6E6E6" stroke-width="0.735294118"></line>
                    <line x1="0.735294118" y1="370.021775" x2="499.264706" y2="370.021775" id="分割线-下" stroke="#E6E6E6" stroke-width="0.735294118"></line>
                    <g id="钉住置顶备份" transform="translate(454.4118, 11.7584)" fill="#333333" fill-rule="nonzero">
                        <rect id="矩形" opacity="0" x="0" y="0" width="11.7185492" height="11.7122574"></rect>
                        <path d="M10.4917636,4.35549571 L7.38131274,1.25129 C7.29891669,1.16893819 7.19248846,1.12890606 7.08491584,1.12890606 C6.97734322,1.12890606 6.8697706,1.16893819 6.78851894,1.25129 L4.75493867,3.28149086 C4.60044608,3.26433424 4.44595349,3.25632781 4.29031651,3.25632781 C3.36679412,3.25632781 2.44212735,3.55942822 1.68339706,4.16677282 C1.48885083,4.32118246 1.47282938,4.61284512 1.64906537,4.78898649 L3.94242208,7.07768054 L1.22335245,9.79071516 C1.19016516,9.82388464 1.16956614,9.86734809 1.16498858,9.91424287 L1.12264617,10.3831907 C1.11120227,10.5021433 1.20618661,10.6027955 1.32291435,10.6027955 C1.32978068,10.6027955 1.33550263,10.6027955 1.34236897,10.6016517 L1.81156869,10.559332 C1.85848867,10.5559007 1.90197547,10.534169 1.93516277,10.5009995 L4.65423239,7.78682112 L6.94758909,10.0755152 C7.02998514,10.157867 7.13641337,10.1978991 7.24398599,10.1978991 C7.36643568,10.1978991 7.48774097,10.1452854 7.57128141,10.0412019 C8.28194734,9.15591996 8.57719985,8.04645808 8.45703894,6.97474077 L10.4906192,4.94568368 C10.6554113,4.78326762 10.6554113,4.51905556 10.4917636,4.35549571 Z M7.81503639,6.33537047 L7.50605121,6.64418976 L7.55411557,7.07768054 C7.60103554,7.50202111 7.56670385,7.92407414 7.45112051,8.33354563 C7.38245713,8.57259464 7.28976158,8.80134966 7.17074506,9.01637939 L2.71220329,4.56595034 C2.87470661,4.47673588 3.04407626,4.40124672 3.22145665,4.34062664 C3.56477352,4.22167402 3.92411184,4.16334149 4.29031651,4.16334149 C4.4116218,4.16334149 4.53407149,4.16906037 4.65537678,4.18392944 L5.08910043,4.231968 L7.08606023,2.23836794 L9.50301101,4.6505897 L7.81503639,6.33537047 L7.81503639,6.33537047 Z" id="形状"></path>
                    </g>
                    <g id="下拉备份" transform="translate(94.1176, 13.2282)" fill="#FFFFFF" fill-rule="nonzero">
                        <rect id="矩形" opacity="0" x="0" y="0" width="8.80632955" height="8.80160132"></rect>
                        <path d="M4.40941692,5.80457871 C4.34005737,5.80457871 4.27361633,5.77667943 4.2250688,5.72716932 L1.9880891,3.44592146 C1.88830409,3.34417014 1.88996388,3.18084199 1.99176987,3.08111056 C2.09356725,2.98139633 2.25700034,2.98303803 2.35676815,3.08478936 L4.40941692,5.1780405 L6.4620485,3.08478936 C6.56182491,2.98302084 6.7252408,2.98136195 6.82705538,3.08111056 C6.92887857,3.18084199 6.93052116,3.34417014 6.83073615,3.44592146 L4.59375645,5.72716932 C4.54521212,5.77667894 4.47877389,5.80457871 4.40941692,5.80457871 Z" id="路径"></path>
                    </g>
                    <rect id="矩形备份-5" fill="#E8E8E8" x="35.2941176" y="8.81879195" width="80.8823529" height="17.6375839" rx="8.81879195"></rect>
                    <g id="chevron-down备份-3" transform="translate(101.4706, 13.2282)">
                        <rect id="矩形" x="0" y="0" width="8.82352941" height="8.81879195"></rect>
                        <g id="编组" transform="translate(1.4706, 2.9396)" stroke="#333333" stroke-linecap="round" stroke-linejoin="round" stroke-width="0.735294118">
                            <polyline id="路径" points="0 0 3.30882353 3.67449664 6.61764706 0"></polyline>
                        </g>
                    </g>
                    <g id="编组-4备份-3" transform="translate(127.9412, 11.7584)">
                        <g id="编组" transform="translate(1.4706, 1.4698)" stroke="#333333" stroke-linecap="round" stroke-linejoin="round" stroke-width="0.980392157">
                            <path d="M8.82352941,5.87919463 C8.82352941,6.42035955 8.38459289,6.8590604 7.84313725,6.8590604 L1.96078431,6.8590604 L0,8.81879195 L0,0.979865772 C0,0.438700849 0.43893652,0 0.980392157,0 L7.84313725,0 C8.38459289,0 8.82352941,0.438700849 8.82352941,0.979865772 L8.82352941,5.87919463 Z" id="路径"></path>
                            <line x1="4.41176471" y1="1.95973154" x2="4.41176471" y2="4.89932886" id="路径"></line>
                            <line x1="2.94117647" y1="3.4295302" x2="5.88235294" y2="3.4295302" id="路径"></line>
                        </g>
                        <rect id="矩形" x="0" y="0" width="11.7647059" height="11.7583893"></rect>
                    </g>
                    <text id="Coco-AI" font-family="PingFangSC-Regular, PingFang SC" font-size="10.2941176" font-weight="normal" fill="#333333">
                        <tspan x="52.9411765" y="21.2845638">Coco AI</tspan>
                    </text>
                    <ellipse id="椭圆形备份-7" fill="#FFFFFF" cx="44.1176471" cy="17.6375839" rx="5.88235294" ry="5.87919463"></ellipse>
                    <g id="编组备份" transform="translate(39.7059, 13.2282)">
                        <mask id="mask-3" fill="white">
                            <use xlink:href="#path-2"></use>
                        </mask>
                        <g id="矩形"></g>
                        <g id="编组-4" mask="url(#mask-3)">
                            <g transform="translate(-0.9911, -1.1171)">
                                <path d="M3.74925372,3.06365038 C4.30848431,3.27158363 4.77357004,3.26534489 5.14451092,3.04493416 C5.56062336,3.28062114 5.97578182,3.31043485 6.3899863,3.1343753 C6.72000397,3.32326082 7.0999587,3.39622284 7.52985049,3.35326135 C7.46480463,3.59413984 7.41358706,3.81635913 7.37619777,4.01991923 C5.85822523,4.02645539 5.09142851,4.02880862 5.07580763,4.02697892 C5.06018675,4.02514922 4.63209379,3.87684111 3.79152875,3.58205459 L3.74925372,3.06365038 Z" id="路径-3" fill="#FFFFFF" fill-rule="evenodd" transform="translate(5.6396, 3.5363) rotate(8) translate(-5.6396, -3.5363)"></path>
                                <path d="M5.01257573,2.82670664 C5.09191426,2.77963952 5.19069116,2.77867408 5.27095005,2.82418132 C5.61904702,3.02155426 5.95022,3.04571398 6.28913755,2.90202722 C6.36324488,2.87060883 6.44795109,2.87565042 6.5177357,2.91563304 C6.79999128,3.07734946 7.12642882,3.14038133 7.50468317,3.10303052 C7.68256855,3.08546519 7.82332152,3.24958682 7.77724721,3.42084728 C7.71419296,3.65522302 7.66475952,3.87067499 7.62890619,4.06702685 C7.6069192,4.1874393 7.50137161,4.27512696 7.37795519,4.27551393 C6.6712332,4.2777298 6.16215316,4.27922082 5.80353161,4.27995864 L5.70041172,4.28015736 C5.68396163,4.28018671 5.6678759,4.28021416 5.65214862,4.28023972 L5.4802495,4.28045534 C5.46729547,4.2804657 5.4546763,4.28048068 5.44238609,4.28048068 L5.31031638,4.28048068 C5.30056352,4.28045834 5.29111602,4.2804476 5.28196799,4.28043494 L5.18618894,4.28019013 C5.16564912,4.28010567 5.14759223,4.28000372 5.13185903,4.27988418 L5.1034437,4.27962163 C5.06956178,4.27924023 5.05144893,4.27873334 5.04608542,4.27809912 C4.99798279,4.2724112 4.7971583,4.20265444 3.70585447,3.81894292 C3.61094503,3.78557197 3.54460481,3.70010421 3.53637053,3.60059252 L3.49347719,3.08222406 C3.47812743,2.89672136 3.66278184,2.7585305 3.8384966,2.82401995 C4.33060766,3.00743131 4.71588765,3.00271513 5.01257573,2.82670664 Z M5.14417733,3.33066646 L5.08779602,3.35573343 C4.80900852,3.47039362 4.49609038,3.49604748 4.15280486,3.4361686 L4.14407006,3.43437849 L4.15133389,3.43718278 C4.40930376,3.52774165 4.6178142,3.60069198 4.77682889,3.65602127 L4.82800055,3.67381172 C4.93455034,3.71082198 5.01532148,3.73865567 5.07011523,3.75724655 C5.09689035,3.76633103 5.1172332,3.77313003 5.13081445,3.77754057 L5.12080634,3.77405659 L5.16240418,3.7740952 C5.16853721,3.77407815 5.17515791,3.77406018 5.182257,3.77404128 L5.25881518,3.77384615 C5.26870119,3.77382167 5.27903779,3.77379625 5.28981569,3.77376988 L5.39848165,3.77350688 C5.43850848,3.77341061 5.4822567,3.77330567 5.52947593,3.77319193 L5.62846825,3.77295266 C5.99062022,3.77207377 6.51467384,3.77075832 7.11475502,3.76895472 L7.16662281,3.7686873 L7.1782703,3.71516439 L7.20025423,3.61834725 L7.18047907,3.61789509 C6.90715874,3.60433528 6.65177951,3.54334103 6.41599052,3.43454557 L6.37257925,3.41318394 L6.34327284,3.4234475 C5.95047728,3.55040161 5.55277193,3.52164504 5.1627871,3.33992555 L5.14417733,3.33066646 Z" id="路径-3" fill="#5B1602" fill-rule="nonzero" transform="translate(5.6393, 3.5356) rotate(8) translate(-5.6393, -3.5356)"></path>
                                <path d="M8.3223794,1.71026086 C8.4579242,1.67067046 8.60017394,1.74752469 8.64010309,1.88191958 C8.68003223,2.01631446 8.60252041,2.1573574 8.46697561,2.1969478 L6.95804552,2.63748203 L5.31742093,7.06771894 C5.2724567,7.18911913 5.14372984,7.25594022 5.01986512,7.22751436 L4.98905151,7.21840005 C4.85640934,7.17010205 4.78836989,7.02433329 4.83708114,6.89281642 L6.5222803,2.34289965 C6.55019927,2.26752046 6.61246429,2.20969876 6.69015209,2.18700744 L8.3223794,1.71026086 Z" id="吸管" fill="#00DBFF" fill-rule="nonzero" transform="translate(6.736, 4.4669) rotate(8) translate(-6.736, -4.4669)"></path>
                                <path d="M2.34397459,4.00918831 C2.7806868,3.80787104 3.20428934,3.47469119 3.6147822,3.00964875 C3.92250928,3.45862239 4.35605061,3.62449239 4.91540618,3.50725875 C5.19384466,3.86385089 5.80025539,3.9504456 6.21729525,3.69580397 C6.70243561,3.79412951 7.09513018,3.66194809 7.39537896,3.29925973 C7.60949722,3.74460757 7.93976668,4.16343004 8.38618735,4.55572713 L8.58774308,5.06459346 L8.06655937,5.89352232 L3.6937443,5.93189531 L1.78463038,5.12452063 L2.34397459,4.00918831 Z" id="路径-2" fill="#FFFFFF" fill-rule="evenodd" transform="translate(5.1862, 4.4708) rotate(8) translate(-5.1862, -4.4708)"></path>
                                <path d="M3.42051667,2.84108908 C3.53079486,2.71615953 3.7303765,2.72819494 3.8245721,2.86545491 C4.07372366,3.22851368 4.40266289,3.35464973 4.86184344,3.25895637 C4.95772403,3.23897483 5.05669357,3.27503797 5.116707,3.35182514 C5.31279151,3.60271526 5.7735855,3.66965822 6.08278502,3.4811512 C6.13821623,3.44735693 6.20455146,3.43577402 6.26829137,3.44875962 C6.66192741,3.52895424 6.95813073,3.42959162 7.19683465,3.14121045 C7.31567386,2.99763932 7.54471261,3.02519987 7.62546608,3.19278827 C7.82464628,3.60614869 8.13433645,3.99851986 8.55675917,4.36971523 C8.58692482,4.39622267 8.61034726,4.42942179 8.62511782,4.46660718 L8.82730702,4.97562555 C8.85698212,5.05033365 8.84923465,5.13456075 8.80641876,5.20271357 L8.28612616,6.03089684 C8.23978113,6.10466721 8.15857366,6.14977861 8.07092092,6.15044508 L3.6974264,6.18370649 C3.66220627,6.18396682 3.62730969,6.17702154 3.59492202,6.16329812 L1.68453964,5.35382395 C1.54933381,5.29653405 1.49053293,5.13830628 1.55592356,5.00772986 L2.11404525,3.8932348 C2.13991675,3.84157285 2.18277206,3.80019507 2.23554479,3.77592422 C2.63728373,3.5911594 3.03271311,3.28041556 3.42051667,2.84108908 Z M3.60203384,3.39334116 L3.54395745,3.45279273 C3.19208733,3.80118439 2.82794705,4.06275969 2.45086269,4.23618556 L2.53352368,4.19619098 L2.13479183,4.99282372 L3.74681996,5.67585364 L7.92595158,5.6442031 L8.30387755,5.04256028 L8.17077693,4.70740369 L8.11816217,4.66015663 C7.82604629,4.39090988 7.58340015,4.10860066 7.39081423,3.81317941 L7.32913636,3.71549843 L7.29823349,3.73904519 C7.01655003,3.93872188 6.68242963,4.01639808 6.30770439,3.96927045 L6.26091121,3.96220307 L6.24286556,3.97172325 C5.78204296,4.19126436 5.19249797,4.11600245 4.831643,3.7905127 L4.82103036,3.78049507 L4.75182446,3.78856178 C4.30709723,3.83160829 3.92494687,3.70514148 3.62295514,3.41442098 L3.60203384,3.39334116 Z" id="路径-2" fill="#5B1602" fill-rule="nonzero" transform="translate(5.1871, 4.4691) rotate(8) translate(-5.1871, -4.4691)"></path>
                                <path d="M7.97168895,3.98823805 C8.3187217,4.39487202 8.51412969,4.94633039 8.51412969,5.67654161 C8.51412969,7.70030368 6.83619879,9.34088698 4.76636613,9.34088698 C2.69653347,9.34088698 1.01860257,7.70030368 1.01860257,5.67654161 C1.01860257,5.0269523 1.20971271,4.518823 1.53769752,4.12826819 C1.69054516,4.54295288 2.01653066,4.8548199 2.57018481,4.8548199 C2.94054743,4.8548199 3.27915183,4.74100705 3.53772701,4.55172387 C3.86162314,4.74166399 4.26901867,4.8548199 4.71155403,4.8548199 C5.1487437,4.8548199 5.55163738,4.74438126 5.87156823,4.55981869 C6.12663162,4.74422226 6.45241189,4.8548199 6.8073622,4.8548199 C7.42070232,4.8548199 7.81066974,4.49336763 7.96731969,4.00712411 Z" id="形状结合" fill="#8C3201" fill-rule="evenodd" transform="translate(4.7664, 6.6646) rotate(15) translate(-4.7664, -6.6646)"></path>
                                <path d="M7.97247202,3.98930208 C8.31892813,4.39583207 8.5139896,4.94695969 8.5139896,5.67652317 C8.5139896,7.70028523 6.83605869,9.34086853 4.76622603,9.34086853 C2.69639337,9.34086853 1.01846247,7.70028523 1.01846247,5.67652317 C1.01846247,5.02700814 1.2095289,4.51892077 1.53744491,4.12838373 C1.69017326,4.54271261 2.01619369,4.85480146 2.57004471,4.85480146 C2.94066333,4.85480146 3.27947981,4.74083122 3.5388222,4.55242921 C3.86251858,4.74193298 4.26944097,4.85480146 4.71141393,4.85480146 C5.1477824,4.85480146 5.54998359,4.74477731 5.87126576,4.55968284 C6.12635326,4.74415687 6.45219647,4.85480146 6.8072221,4.85480146 C7.42056222,4.85480146 7.81052964,4.49334919 7.96717959,4.00710566 L7.97247202,3.98930208 Z M7.91831908,4.97677288 L7.89757332,4.99458758 C7.60791726,5.22879194 7.23597562,5.36216621 6.8072221,5.36216621 C6.47426241,5.36216621 6.15245791,5.28723433 5.86641145,5.14740353 L5.84713654,5.13728632 L5.78409547,5.16368497 C5.48434376,5.28160984 5.15484612,5.34915994 4.81399235,5.36046719 L4.71141393,5.36216621 C4.32934997,5.36216621 3.9591395,5.29162541 3.62606318,5.1586947 L3.56105493,5.13135185 L3.53874802,5.14300052 C3.27257231,5.27265883 2.97392844,5.34770343 2.66350458,5.36027634 L2.57004471,5.36216621 C2.2139008,5.36216621 1.90479683,5.26670116 1.65335932,5.09481383 L1.60929244,5.06324667 L1.60827823,5.06756085 C1.56396513,5.22441698 1.53823051,5.39545116 1.53178211,5.58196831 L1.53016838,5.67652317 C1.53016838,7.41847433 2.97741074,8.83350378 4.76622603,8.83350378 C6.55504133,8.83350378 8.00228369,7.41847433 8.00228369,5.67652317 C8.00228369,5.43171115 7.97759752,5.21268665 7.92935131,5.01718734 L7.91831908,4.97677288 Z" id="形状结合" fill="#5B1602" fill-rule="nonzero" transform="translate(4.7662, 6.6651) rotate(15) translate(-4.7662, -6.6651)"></path>
                                <g id="线" stroke-width="1" fill="none" fill-rule="evenodd" transform="translate(4.334, 7.9586) rotate(15) translate(-4.334, -7.9586)translate(2.8037, 6.5264)">
                                    <path d="M2.92224236,0.0550800933 C2.9104833,0.569629851 2.8055918,1.02259879 2.60756783,1.41398691 C2.40954387,1.80537504 2.16549623,2.13118808 1.87542491,2.39142605" id="路径-5" stroke="#5B1602" stroke-width="0.426421587" transform="translate(2.3988, 1.2233) rotate(-7) translate(-2.3988, -1.2233)"></path>
                                    <path d="M0.85530011,1.25380674 C0.774359263,1.47997618 0.697715539,1.65582683 0.625368939,1.7813587 C0.56102508,1.89300465 0.430814739,2.07606447 0.234737916,2.33053816" id="路径-5备份" stroke="#5B1602" stroke-width="0.426421587" transform="translate(0.545, 1.7922) scale(-1, 1) rotate(-5) translate(-0.545, -1.7922)"></path>
                                    <path d="M1.34348867,2.07696803 C1.80121012,2.06996034 2.23747512,1.73644084 2.65228366,1.07640954 C3.06709221,0.416378238 2.8653451,0.873756763 2.04704235,2.44854511 L1.34348867,2.07696803 Z" id="路径-8" fill="#5B1602" transform="translate(2.1025, 1.6163) rotate(-15) translate(-2.1025, -1.6163)"></path>
                                    <path d="M0.344763927,1.70991206 C0.582043443,2.12460009 1.00831143,2.16071183 1.62356788,1.81824729 C1.42918369,2.04550785 1.17987523,2.24982133 0.87564249,2.43118774 C0.651866915,2.21410425 0.497075705,2.04789778 0.41126886,1.93256831 C0.325462016,1.81723885 0.303293705,1.7430201 0.344763927,1.70991206 Z" id="路径-8" fill="#5B1602" transform="translate(0.974, 2.0705) scale(-1, 1) rotate(-38) translate(-0.974, -2.0705)"></path>
                                </g>
                                <g id="花" stroke-width="1" fill="none" fill-rule="evenodd" transform="translate(3.4317, 3.4317) rotate(-225) translate(-3.4317, -3.4317)translate(0.9925, 1.0177)">
                                    <mask id="mask-5" fill="white">
                                        <use xlink:href="#path-4"></use>
                                    </mask>
                                    <use id="形状结合" fill="#FFFFFF" fill-rule="nonzero" transform="translate(2.4392, 2.414) rotate(-18) translate(-2.4392, -2.414)" xlink:href="#path-4"></use>
                                    <path d="M2.6153639,3.05670553 C3.70101142,3.05670553 4.52687744,2.70486705 4.52687744,2.26836935 C4.52687744,1.83187165 3.7988116,0.285391225 2.71316408,0.285391225 C1.62751655,0.285391225 0.31043323,1.53844794 0.31043323,1.97494564 C0.31043323,2.41144333 1.52971637,3.05670553 2.6153639,3.05670553 Z" id="椭圆形" fill="#EED2FF" filter="url(#filter-6)" mask="url(#mask-5)"></path>
                                    <ellipse id="椭圆形备份-24" fill="#E0A6FE" filter="url(#filter-7)" mask="url(#mask-5)" cx="2.42423394" cy="2.57317774" rx="1.50645398" ry="1.22144846"></ellipse>
                                    <path d="M2.57147052,5.0644717 C3.65711805,5.0644717 4.42599267,3.42849166 4.42599267,2.36700862 C4.42599267,1.67246009 3.58701812,3.11037892 2.45763171,3.21092689 C1.8609695,3.26404703 1.22722921,2.51682886 0.851941491,2.51682886 C-0.233706033,2.51682886 0.893592436,3.01340762 0.893592436,4.07489066 C0.893592436,5.13637371 1.485823,5.0644717 2.57147052,5.0644717 Z" id="椭圆形备份-25" fill="#59DCF9" filter="url(#filter-8)" mask="url(#mask-5)"></path>
                                </g>
                            </g>
                        </g>
                    </g>
                    <g id="退出小窗" transform="translate(481.5946, 17.6145) scale(-1, 1) translate(-481.5946, -17.6145)translate(475.7353, 11.7584)" fill="#333333" fill-rule="nonzero">
                        <rect id="矩形" opacity="0" x="0" y="0" width="11.7185492" height="11.7122574"></rect>
                        <path d="M10.2537306,1.46403217 C10.5233983,1.46403217 10.7420073,1.68252372 10.7420073,1.95204671 L10.7420073,5.36811416 L9.76545387,5.36811416 L9.76545387,2.44004981 L1.95309535,2.44004981 L1.95309535,9.27220757 L4.88273266,9.27220757 L4.88273266,10.2482252 L1.46481865,10.2482252 C1.33531962,10.2482252 1.21112453,10.1968095 1.11955489,10.1052891 C1.02798524,10.0137686 0.976541954,9.88964018 0.976541954,9.76021067 L0.976541954,1.95204671 C0.976541954,1.68252372 1.19515088,1.46403217 1.46481865,1.46403217 L10.2537306,1.46403217 Z M10.2537306,6.34414323 C10.5233939,6.34414323 10.7420073,6.56262781 10.7420073,6.83214633 L10.7420073,9.76021067 C10.7420073,9.88964018 10.690564,10.0137686 10.5989943,10.1052891 C10.5074247,10.1968095 10.3832296,10.2482252 10.2537306,10.2482252 L6.34755131,10.2482252 C6.21805228,10.2482252 6.09385719,10.1968095 6.00228755,10.1052891 C5.9107179,10.0137686 5.85927461,9.88964018 5.85927461,9.76021067 L5.85927461,6.83214633 C5.85927461,6.56262781 6.077888,6.34414323 6.34755131,6.34414323 L10.2537306,6.34414323 Z M9.76545387,7.32016086 L6.83581657,7.32016086 L6.83581657,9.27220757 L9.76545387,9.27220757 L9.76545387,7.32016086 Z M5.61514198,3.41607888 L4.61760048,4.41308479 L5.71621447,5.51110892 L5.0257928,6.20114846 L3.92717881,5.10312433 L2.92963731,6.10013024 L2.92963731,3.41607888 L5.61514198,3.41607888 L5.61514198,3.41607888 Z" id="形状"></path>
                    </g>
                    <g id="聊天记录" transform="translate(11.7647, 11.7584)" fill="#333333" fill-rule="nonzero">
                        <rect id="矩形" opacity="0" x="0" y="0" width="11.7647059" height="11.7583893"></rect>
                        <path d="M7.98529412,2.23133809 L1.12683824,2.23133809 C0.916360294,2.23133809 0.745863971,2.06081848 0.745863971,1.85056837 C0.745863971,1.64020344 0.916475184,1.46979866 1.12683824,1.46979866 L7.98529412,1.46979866 C8.19577206,1.46979866 8.36626838,1.64031827 8.36626838,1.85056837 C8.36626838,2.06081848 8.19577206,2.23133809 7.98529412,2.23133809 L7.98529412,2.23133809 Z M3.43485754,4.51618603 L1.10512408,4.51618603 C0.906709559,4.51618603 0.745863971,4.3554268 0.745863971,4.15711881 L0.745863971,4.11359899 C0.745863971,3.915291 0.906709559,3.75453177 1.10512408,3.75453177 L3.43485754,3.75453177 C3.63327206,3.75453177 3.79411765,3.915291 3.79411765,4.11359899 L3.79411765,4.15711881 C3.79400276,4.35554163 3.63315717,4.51618603 3.43485754,4.51618603 Z M2.65096507,6.8011488 L1.12683824,6.8011488 C0.916360294,6.8011488 0.745863971,6.63062919 0.745863971,6.42037909 C0.745863971,6.21001416 0.916475184,6.03960938 1.12683824,6.03960938 L2.65096507,6.03960938 C2.86144301,6.03960938 3.0319394,6.21012898 3.0319394,6.42037909 C3.03205423,6.63062919 2.86144301,6.8011488 2.65096507,6.8011488 Z M2.65096507,9.08611158 L1.12683824,9.08611158 C0.916360294,9.08611158 0.745863971,8.91559197 0.745863971,8.70534186 C0.745863971,8.49497693 0.916475184,8.32457215 1.12683824,8.32457215 L2.65096507,8.32457215 C2.86144301,8.32457215 3.0319394,8.49509176 3.0319394,8.70534186 C3.03205423,8.91559197 2.86144301,9.08611158 2.65096507,9.08611158 Z M8.36626838,7.94357278 L6.84225643,7.94357278 C6.63177849,7.94357278 6.46128217,7.77305317 6.46128217,7.56280306 C6.46128217,7.35243813 6.63189338,7.18203335 6.84225643,7.18203335 L8.36626838,7.18203335 C8.57674632,7.18203335 8.74724271,7.35255296 8.74724271,7.56280306 C8.74735754,7.77305317 8.57674632,7.94357278 8.36626838,7.94357278 Z M6.46116728,7.56280306 L6.46116728,6.03949455 C6.46116728,5.82912961 6.63177849,5.65872483 6.84214154,5.65872483 C7.05261949,5.65872483 7.22311581,5.82924444 7.22311581,6.03949455 L7.22311581,7.56280306 C7.22311581,7.77316799 7.0525046,7.94357278 6.84214154,7.94357278 C6.63177849,7.94357278 6.46116728,7.77305317 6.46116728,7.56280306 Z M11.0334329,7.18191852 C11.0334329,9.28510854 9.32755055,10.990075 7.2232307,10.990075 C5.11891085,10.990075 3.41302849,9.28522336 3.41302849,7.18191852 C3.41302849,5.07861367 5.11891085,3.37376206 7.2232307,3.37376206 C9.32755055,3.37376206 11.0334329,5.0787285 11.0334329,7.18191852 L11.0334329,7.18191852 Z M7.2232307,4.13541632 C5.53975184,4.13541632 4.17509191,5.49945837 4.17509191,7.18191852 C4.17509191,8.86437867 5.53986673,10.2284207 7.2232307,10.2284207 C8.90659467,10.2284207 10.2713695,8.86437867 10.2713695,7.18191852 C10.2713695,5.49945837 8.90670956,4.13541632 7.2232307,4.13541632 Z" id="形状"></path>
                    </g>
                    <g id="主机" transform="translate(430.8824, 11.7584)" fill="#333333" fill-rule="nonzero">
                        <rect id="矩形" opacity="0" x="0" y="0" width="11.7647059" height="11.7583893"></rect>
                        <path d="M10.0932675,6.40166212 C10.6039522,6.40166212 11.0179228,6.81551379 11.0179228,7.32602768 L11.0179228,9.57091548 C11.0179228,10.0814294 10.6039407,10.495281 10.0932675,10.495281 L1.7978171,10.495281 C1.28713235,10.495281 0.873161765,10.0814294 0.873161765,9.57091548 L0.873161765,7.32602768 C0.873161765,6.81551379 1.28714384,6.40166212 1.7978171,6.40166212 L10.0932675,6.40166212 Z M10.0932675,7.08833368 L1.7978171,7.08833368 C1.66884191,7.08833368 1.5638557,7.19098993 1.56014476,7.31902318 L1.56004136,7.32602768 L1.56004136,9.57091548 C1.56004136,9.69984438 1.66272978,9.80479719 1.79080882,9.80850613 L1.7978171,9.80860948 L10.0932675,9.80860948 C10.2222426,9.80860948 10.3272289,9.70595323 10.3309398,9.57791999 L10.3310432,9.57091548 L10.3310432,7.32602768 C10.3310432,7.19709878 10.2283548,7.09214597 10.1002757,7.08843703 L10.0932675,7.08833368 Z M2.64321002,7.9862888 C2.80371094,7.9862888 2.93381204,8.11633153 2.93381204,8.27673479 L2.93381204,8.59379792 C2.93381204,8.75421267 2.80371094,8.88424392 2.64321002,8.88424392 C2.4827091,8.88424392 2.352608,8.75420118 2.352608,8.59379792 L2.352608,8.27673479 C2.352608,8.11632005 2.4827091,7.9862888 2.64321002,7.9862888 Z M3.96414292,7.9862888 C4.12464384,7.9862888 4.25474494,8.11633153 4.25474494,8.27673479 L4.25474494,8.59379792 C4.25474494,8.75421267 4.12464384,8.88424392 3.96414292,8.88424392 C3.803642,8.88424392 3.6735409,8.75420118 3.6735409,8.59379792 L3.6735409,8.27673479 C3.6735409,8.11632005 3.803642,7.9862888 3.96414292,7.9862888 Z M8.74581801,7.9862888 C8.99391085,7.9862888 9.19503676,8.18730673 9.19503676,8.43526636 C9.19503676,8.68322599 8.99391085,8.88424392 8.74581801,8.88424392 L8.50824908,8.88424392 C8.26015625,8.88424392 8.05903033,8.68322599 8.05903033,8.43526636 C8.05903033,8.18730673 8.26015625,7.9862888 8.50824908,7.9862888 L8.74581801,7.9862888 Z M10.0932675,1.77983431 C10.6039522,1.77983431 11.0179228,2.19368598 11.0179228,2.70419987 L11.0179228,4.94908767 C11.0179228,5.45960156 10.6039407,5.87345323 10.0932675,5.87345323 L1.7978171,5.87345323 C1.28713235,5.87345323 0.873161765,5.45960156 0.873161765,4.94908767 L0.873161765,2.70419987 C0.873161765,2.19368598 1.28714384,1.77983431 1.7978171,1.77983431 L10.0932675,1.77983431 Z M10.0932675,2.46650587 L1.7978171,2.46650587 C1.66884191,2.46650587 1.5638557,2.56916212 1.56014476,2.69719536 L1.56004136,2.70419987 L1.56004136,4.94908767 C1.56004136,5.07801657 1.66272978,5.18296938 1.79080882,5.18667832 L1.7978171,5.18678167 L10.0932675,5.18678167 C10.2222426,5.18678167 10.3272289,5.08412542 10.3309398,4.95609218 L10.3310432,4.94908767 L10.3310432,2.70419987 C10.3310432,2.57527097 10.2283548,2.47031816 10.1002757,2.46660922 L10.0932675,2.46650587 Z M2.64321002,3.36446099 C2.80371094,3.36446099 2.93381204,3.49450372 2.93381204,3.65490698 L2.93381204,3.97197011 C2.93381204,4.13238486 2.80371094,4.26241611 2.64321002,4.26241611 C2.4827091,4.26241611 2.352608,4.13237337 2.352608,3.97197011 L2.352608,3.65490698 C2.352608,3.49449224 2.4827091,3.36446099 2.64321002,3.36446099 Z M3.96414292,3.36446099 C4.12464384,3.36446099 4.25474494,3.49450372 4.25474494,3.65490698 L4.25474494,3.97197011 C4.25474494,4.13238486 4.12464384,4.26241611 3.96414292,4.26241611 C3.803642,4.26241611 3.6735409,4.13237337 3.6735409,3.97197011 L3.6735409,3.65490698 C3.6735409,3.49449224 3.803642,3.36446099 3.96414292,3.36446099 Z M8.74581801,3.36446099 C8.99391085,3.36446099 9.19503676,3.56547892 9.19503676,3.81343855 C9.19503676,4.06139818 8.99391085,4.26241611 8.74581801,4.26241611 L8.50824908,4.26241611 C8.26015625,4.26241611 8.05903033,4.06139818 8.05903033,3.81343855 C8.05903033,3.56547892 8.26015625,3.36446099 8.50824908,3.36446099 L8.74581801,3.36446099 Z" id="形状"></path>
                    </g>
                    <g id="编组" transform="translate(183.8235, 421.8322) scale(-1, 1) translate(-183.8235, -421.8322)translate(177.9412, 415.953)" fill="#333333" fill-rule="nonzero">
                        <path d="M9.25529789,7.27021781 C9.09414402,7.27039713 8.93957573,7.20488426 8.82585831,7.08819864 L4.16546281,2.32587609 C3.928142,2.08260509 3.928142,1.68899008 4.16546281,1.44571908 L5.40254161,0.184077616 C5.57857633,0.00175978837 5.84638207,-0.0507914215 6.07598097,0.0519293949 L8.39153873,1.06672797 C8.46354392,1.09627203 8.52846158,1.1413475 8.58185855,1.19887619 L11.5854956,4.26571218 C11.7002264,4.3826562 11.7647059,4.5414441 11.7647059,4.70703736 C11.7647059,4.87263062 11.7002264,5.03141852 11.5854956,5.14836254 L9.68717747,7.08819864 C9.57271023,7.20526384 9.41724343,7.27078525 9.25529789,7.27021781 L9.25529789,7.27021781 Z M5.12194189,1.89452436 L9.26993788,6.13324076 L10.6509765,4.72199754 L7.96697913,1.97929868 L5.9417811,1.0916616 L5.12194189,1.89452436 Z" id="形状"></path>
                        <polygon id="路径" points="6.69647236 4.20711816 7.3867477 4.91224111 6.00644103 6.32273632 5.3161657 5.61736405"></polygon>
                        <path d="M2.21102469,11.7583299 C2.08180807,11.7577101 1.95808241,11.704806 1.86698503,11.6111584 L0.141906699,9.84835103 C-0.0473022329,9.65385007 -0.0473022329,9.33972373 0.141906699,9.14522277 L4.28990269,4.90650637 C4.38218634,4.81559738 4.50576762,4.76544198 4.63394236,4.76684805 C4.76280962,4.76677297 4.88648628,4.81875972 4.97798203,4.91149309 L6.70550036,6.67679381 C6.89470928,6.87129477 6.89470928,7.18542109 6.70550036,7.37992205 L2.55750436,11.6186385 C2.46461752,11.7101591 2.34004053,11.7603626 2.21102469,11.7583299 L2.21102469,11.7583299 Z M1.1764657,9.4967869 L2.21102469,10.5539726 L5.66118136,7.02835794 L4.63394236,5.983639 L1.1764657,9.4967869 Z" id="形状"></path>
                    </g>
                    <rect id="矩形备份-2" fill="#DDECFF" x="103.676471" y="413.013423" width="66.9117647" height="17.6375839" rx="8.81879195"></rect>
                    <text id="Search" font-family="PingFangSC-Regular, PingFang SC" font-size="8.82352941" font-weight="normal" fill="#0072FF">
                        <tspan x="122.794118" y="424.214899">Search</tspan>
                    </text>
                    <g id="地球-3" transform="translate(108.0882, 415.953)" fill="#0072FF" fill-rule="nonzero">
                        <rect id="矩形" opacity="0" x="0" y="0" width="11.7647059" height="11.7583893"></rect>
                        <path d="M5.88235294,0.0117583893 C2.64038626,0.0117583893 0.0122529871,2.63848058 0.0122529871,5.87870661 C0.0122529871,9.11893264 2.64038626,11.7456548 5.88235294,11.7456548 C9.12431959,11.7456548 11.7524528,9.11893261 11.7524528,5.87870661 C11.7524528,2.63848061 9.12431959,0.0117583893 5.88235294,0.0117583893 L5.88235294,0.0117583893 Z M10.3666705,3.9233749 C10.6284352,4.52208819 10.774506,5.18349759 10.774506,5.87919463 C10.774506,6.57489167 10.6284467,7.23631255 10.3666705,7.83500288 L8.16077665,7.83500288 C8.26861213,7.2284698 8.32743566,6.56902396 8.32743566,5.87919463 C8.32743566,5.1893653 8.26861213,4.52991946 8.16077665,3.9233749 L10.366659,3.9233749 L10.3666705,3.9233749 Z M4.41567096,5.87919463 C4.41567096,5.17663087 4.46960018,4.51228188 4.56763557,3.92338638 L7.19607077,3.92338638 C7.29411765,4.51228188 7.34902344,5.17663087 7.34902344,5.87919463 C7.34902344,6.58175839 7.29411765,7.24610738 7.19608226,7.83500288 L4.56862362,7.83500288 C4.47058824,7.24610738 4.41567096,6.58175839 4.41567096,5.87919463 L4.41567096,5.87919463 Z M9.79608226,2.94547651 L7.9333295,2.94547651 C7.70588235,2.18215725 7.39411765,1.55407094 7.02647059,1.12487825 C8.13342946,1.39133971 9.11282569,2.0351437 9.79608226,2.94547651 L9.79608226,2.94547651 Z M5.88235294,1.47959349 C6.3166705,1.47959349 6.70783548,2.04693577 6.97647059,2.94645255 L4.78823529,2.94645255 C5.05685892,2.04595973 5.44804688,1.47959349 5.88235294,1.47959349 L5.88235294,1.47959349 Z M4.73823529,1.12586577 C4.37058824,1.55405946 4.05882353,2.18412081 3.83235294,2.94646403 L1.96961167,2.94646403 C2.65261984,2.03632147 3.63163695,1.39253702 4.73823529,1.12586577 L4.73823529,1.12586577 Z M1.39804688,3.92338638 L3.60392923,3.92338638 C3.49608226,4.52991946 3.43725873,5.1893653 3.43725873,5.87919463 C3.43725873,6.56902396 3.49608226,7.2284698 3.60392923,7.83500288 L1.39803539,7.83500288 C1.12837117,7.2182245 0.989506743,6.55228884 0.990197326,5.87919463 C0.990197326,5.18348611 1.13627068,4.52207671 1.39803539,3.92338638 L1.39804688,3.92338638 Z M1.96862362,8.81291275 L3.83137638,8.81291275 C4.05882353,9.57623202 4.37058824,10.2043183 4.73823529,10.633511 C3.63127642,10.3670496 2.65188019,9.72324556 1.96862362,8.81291275 L1.96862362,8.81291275 Z M5.88235294,10.2787958 C5.44803539,10.2787958 5.0568704,9.71145349 4.78823529,8.81193671 L6.97647059,8.81193671 C6.70588235,9.71242953 6.31665901,10.2787958 5.88235294,10.2787958 Z M7.02647059,10.6325235 C7.39411765,10.2043298 7.70588235,9.57426846 7.93235294,8.81192523 L9.79509421,8.81192523 C9.11208604,9.7220678 8.13306894,10.3658522 7.02647059,10.6325235 Z" id="形状"></path>
                    </g>
                    <g id="brain-2-line" transform="translate(33.8235, 415.953)" fill="#333333" fill-rule="nonzero">
                        <rect id="矩形" opacity="0" x="0" y="0" width="11.7647059" height="11.7583893"></rect>
                        <path d="M3.43137638,2.93959732 C3.43137638,3.05571141 3.45097656,3.16594631 3.48774127,3.26785618 C3.54270689,3.42255836 3.51649631,3.59449311 3.41792778,3.72581492 C3.31935926,3.85713673 3.16153487,3.93038984 2.99755285,3.92092906 C2.60123257,3.89784227 2.23010161,4.11591489 2.05755902,4.47325948 C1.88501642,4.83060408 1.94512466,5.25667551 2.20980009,5.55240557 C2.37657254,5.73831084 2.37678533,6.01982678 2.21029412,6.20598369 C1.99005028,6.45237017 1.90879304,6.79306118 1.99414183,7.11225543 C2.07949063,7.43144969 2.31996354,7.68620619 2.63382353,7.78993289 C2.8673214,7.86676338 3.00777335,8.10456428 2.96225873,8.34601054 C2.85071994,9.01326688 3.30150861,9.64455653 3.9691234,9.75603545 C4.63673819,9.86751436 5.26836697,9.41696775 5.37990579,8.74971141 C5.38266327,8.72937775 5.3867545,8.70924714 5.39215303,8.68944966 L5.39215303,2.93959732 C5.39215303,2.39843451 4.95321823,1.95973537 4.41176471,1.95973537 C3.87031118,1.95973537 3.43137638,2.39843451 3.43137638,2.93959732 L3.43137638,2.93959732 Z M6.37255285,8.68944966 C6.37744715,8.70905081 6.38235294,8.72864047 6.38480009,8.74921765 C6.45686479,9.18085683 6.75385578,9.54128247 7.16389944,9.69472571 C7.5739431,9.84816894 8.03474404,9.7713181 8.37272299,9.49312215 C8.71070194,9.2149262 8.87451187,8.77764972 8.80244715,8.34601054 C8.75693254,8.10456428 8.89738448,7.86676338 9.13088235,7.78993289 C9.44474234,7.68620619 9.68521525,7.43144969 9.77056405,7.11225543 C9.85591285,6.79306118 9.77465561,6.45237017 9.55441176,6.20598369 C9.38778,6.01995258 9.38778,5.73843668 9.55441176,5.55240557 C9.81908532,5.25667703 9.87919416,4.83060866 9.70665464,4.47326523 C9.53411512,4.11592179 9.16298869,3.89784731 8.7666705,3.92092906 C8.6027716,3.93021964 8.4450999,3.85689567 8.3466491,3.72560146 C8.24819829,3.59430725 8.22203946,3.42247439 8.27696461,3.26785618 C8.40738309,2.90023077 8.30722548,2.49030549 8.02195146,2.22413777 C7.73667743,1.95797006 7.32062169,1.88625553 6.96262419,2.04154409 C6.6046267,2.19683264 6.37287342,2.54954725 6.37255285,2.93959732 L6.37255285,8.68944966 L6.37255285,8.68944966 Z M4.41176471,0.979861944 C4.97462923,0.97919546 5.51049681,1.2209219 5.88235294,1.6432349 C6.42918573,1.02354698 7.30615367,0.81322535 8.07479876,1.1174246 C8.84344385,1.42162385 9.33861499,2.17498372 9.31274127,3.00084658 C9.90632125,3.15386478 10.3942131,3.57540372 10.6315494,4.14029794 C10.8688857,4.70519215 10.8283797,5.34849533 10.5220588,5.87919463 C10.7825739,6.32931573 10.8532667,6.86451456 10.7185502,7.36678459 C10.5838336,7.86905461 10.254771,8.297148 9.80391774,8.55667402 L9.80391774,8.57382933 C9.80382539,9.50810176 9.21455829,10.3408742 8.33322964,10.652256 C7.451901,10.9636378 6.4698974,10.6860104 5.88235294,9.9593557 C5.29480848,10.6860104 4.31280488,10.9636378 3.43147624,10.652256 C2.55014759,10.3408742 1.96088049,9.50810176 1.96078814,8.57382933 L1.96078814,8.55667402 C1.50993484,8.297148 1.18087226,7.86905461 1.04615572,7.36678459 C0.911439192,6.86451456 0.982132015,6.32931573 1.24264706,5.87919463 C0.936521943,5.34853158 0.896124138,4.70537054 1.13344421,4.14060961 C1.37076428,3.57584868 1.8585293,3.15439043 2.45196461,3.00132886 C2.43524626,2.47113468 2.63428815,1.95681387 3.0036201,1.57586057 C3.37295204,1.19490727 3.88102233,0.979866007 4.41176471,0.979861944 L4.41176471,0.979861944 Z" id="形状"></path>
                    </g>
                    <g id="添加" transform="translate(10.2941, 415.953)" fill="#333333" fill-rule="nonzero">
                        <rect id="矩形" opacity="0" x="0" y="0" width="11.7647059" height="11.7583893"></rect>
                        <path d="M10.1470588,6.43955537 L1.61764706,6.43955537 C1.30859375,6.43955537 1.05698529,6.18693372 1.05698529,5.87919463 C1.05698529,5.57030726 1.30974265,5.31883389 1.61764706,5.31883389 L10.1459099,5.31883389 C10.4549632,5.31883389 10.7065756,5.57145554 10.7065756,5.87919463 C10.7077206,6.18808201 10.4549632,6.43955537 10.1470588,6.43955537 L10.1470588,6.43955537 Z" id="路径"></path>
                        <path d="M5.32169118,10.1416107 L5.32169118,1.61677852 C5.32169118,1.30789115 5.57444853,1.05641779 5.88235294,1.05641779 C6.19140625,1.05641779 6.44301471,1.30903943 6.44301471,1.61677852 L6.44301471,10.1404625 C6.44301471,10.4493498 6.19025735,10.7008271 5.88235294,10.7008271 C5.57329963,10.7019715 5.32169118,10.4493498 5.32169118,10.1416107 L5.32169118,10.1416107 Z" id="路径"></path>
                    </g>
                    <rect id="矩形备份" fill="#DDECFF" x="29.4117647" y="413.013423" width="71.3235294" height="17.6375839" rx="8.81879195"></rect>
                    <g id="brain-2-line" transform="translate(33.8235, 415.953)" fill="#0072FF" fill-rule="nonzero">
                        <rect id="矩形" opacity="0" x="0" y="0" width="11.7647059" height="11.7583893"></rect>
                        <path d="M3.43137638,2.93959732 C3.43137638,3.05571141 3.45097656,3.16594631 3.48774127,3.26785618 C3.54270689,3.42255836 3.51649631,3.59449311 3.41792778,3.72581492 C3.31935926,3.85713673 3.16153487,3.93038984 2.99755285,3.92092906 C2.60123257,3.89784227 2.23010161,4.11591489 2.05755902,4.47325948 C1.88501642,4.83060408 1.94512466,5.25667551 2.20980009,5.55240557 C2.37657254,5.73831084 2.37678533,6.01982678 2.21029412,6.20598369 C1.99005028,6.45237017 1.90879304,6.79306118 1.99414183,7.11225543 C2.07949063,7.43144969 2.31996354,7.68620619 2.63382353,7.78993289 C2.8673214,7.86676338 3.00777335,8.10456428 2.96225873,8.34601054 C2.85071994,9.01326688 3.30150861,9.64455653 3.9691234,9.75603545 C4.63673819,9.86751436 5.26836697,9.41696775 5.37990579,8.74971141 C5.38266327,8.72937775 5.3867545,8.70924714 5.39215303,8.68944966 L5.39215303,2.93959732 C5.39215303,2.39843451 4.95321823,1.95973537 4.41176471,1.95973537 C3.87031118,1.95973537 3.43137638,2.39843451 3.43137638,2.93959732 L3.43137638,2.93959732 Z M6.37255285,8.68944966 C6.37744715,8.70905081 6.38235294,8.72864047 6.38480009,8.74921765 C6.45686479,9.18085683 6.75385578,9.54128247 7.16389944,9.69472571 C7.5739431,9.84816894 8.03474404,9.7713181 8.37272299,9.49312215 C8.71070194,9.2149262 8.87451187,8.77764972 8.80244715,8.34601054 C8.75693254,8.10456428 8.89738448,7.86676338 9.13088235,7.78993289 C9.44474234,7.68620619 9.68521525,7.43144969 9.77056405,7.11225543 C9.85591285,6.79306118 9.77465561,6.45237017 9.55441176,6.20598369 C9.38778,6.01995258 9.38778,5.73843668 9.55441176,5.55240557 C9.81908532,5.25667703 9.87919416,4.83060866 9.70665464,4.47326523 C9.53411512,4.11592179 9.16298869,3.89784731 8.7666705,3.92092906 C8.6027716,3.93021964 8.4450999,3.85689567 8.3466491,3.72560146 C8.24819829,3.59430725 8.22203946,3.42247439 8.27696461,3.26785618 C8.40738309,2.90023077 8.30722548,2.49030549 8.02195146,2.22413777 C7.73667743,1.95797006 7.32062169,1.88625553 6.96262419,2.04154409 C6.6046267,2.19683264 6.37287342,2.54954725 6.37255285,2.93959732 L6.37255285,8.68944966 L6.37255285,8.68944966 Z M4.41176471,0.979861944 C4.97462923,0.97919546 5.51049681,1.2209219 5.88235294,1.6432349 C6.42918573,1.02354698 7.30615367,0.81322535 8.07479876,1.1174246 C8.84344385,1.42162385 9.33861499,2.17498372 9.31274127,3.00084658 C9.90632125,3.15386478 10.3942131,3.57540372 10.6315494,4.14029794 C10.8688857,4.70519215 10.8283797,5.34849533 10.5220588,5.87919463 C10.7825739,6.32931573 10.8532667,6.86451456 10.7185502,7.36678459 C10.5838336,7.86905461 10.254771,8.297148 9.80391774,8.55667402 L9.80391774,8.57382933 C9.80382539,9.50810176 9.21455829,10.3408742 8.33322964,10.652256 C7.451901,10.9636378 6.4698974,10.6860104 5.88235294,9.9593557 C5.29480848,10.6860104 4.31280488,10.9636378 3.43147624,10.652256 C2.55014759,10.3408742 1.96088049,9.50810176 1.96078814,8.57382933 L1.96078814,8.55667402 C1.50993484,8.297148 1.18087226,7.86905461 1.04615572,7.36678459 C0.911439192,6.86451456 0.982132015,6.32931573 1.24264706,5.87919463 C0.936521943,5.34853158 0.896124138,4.70537054 1.13344421,4.14060961 C1.37076428,3.57584868 1.8585293,3.15439043 2.45196461,3.00132886 C2.43524626,2.47113468 2.63428815,1.95681387 3.0036201,1.57586057 C3.37295204,1.19490727 3.88102233,0.979866007 4.41176471,0.979861944 L4.41176471,0.979861944 Z" id="形状"></path>
                    </g>
                    <text id="Deep-Think" font-family="PingFangSC-Regular, PingFang SC" font-size="8.82352941" font-weight="normal" fill="#0072FF">
                        <tspan x="48.5294118" y="424.214899">Deep Think</tspan>
                    </text>
                    <g id="下拉" transform="translate(154.4118, 415.953)" fill="#0072FF" fill-rule="nonzero">
                        <rect id="矩形" opacity="0" x="0" y="0" width="11.7647059" height="11.7583893"></rect>
                        <path d="M5.89070542,7.75455437 C5.79804539,7.75455437 5.70928432,7.71728267 5.64442785,7.65114026 L2.65596278,4.60353571 C2.52265625,4.4676023 2.52487362,4.24940609 2.66088006,4.11617114 C2.796875,3.98295915 3.0152114,3.98515237 3.14849494,4.12108578 L5.89070542,6.91753849 L8.63289292,4.12108578 C8.76618796,3.9851294 8.98450138,3.98291322 9.1205193,4.11617114 C9.25654871,4.24940609 9.25874311,4.4676023 9.12543658,4.60353571 L6.13697151,7.65114026 C6.07211932,7.71728202 5.983362,7.75455437 5.89070542,7.75455437 Z" id="路径"></path>
                    </g>
                    <text id="Q3-Marketing-Report" font-family="Poppins-Regular, Poppins" font-size="10.2941176" font-weight="normal" line-spacing="14.7058824" fill="#333333">
                        <tspan x="35.3588235" y="244.77655">Q3 Marketing Report Summary:</tspan>
                        <tspan x="35.2352941" y="263.158902" font-family="Poppins-SemiBold, Poppins" font-weight="500">Overall Campaign Performance  </tspan>
                        <tspan x="35.3588235" y="281.541255">Audience Reach: +28%, reaching 3.2 million users  </tspan>
                    </text>
                    <text id="Coco-AI备份-2" font-family="Poppins-SemiBold, Poppins" font-size="10.2941176" font-weight="500" fill="#333333">
                        <tspan x="38.2352941" y="147.224161">Coco AI</tspan>
                    </text>
                    <ellipse id="椭圆形备份-2" stroke="#D8D8D8" stroke-width="0.735294118" fill="#FFFFFF" cx="20.5882353" cy="143.577181" rx="11.3970588" ry="11.3907422"></ellipse>
                    <g id="编组备份-3" transform="translate(11.7647, 136.2282)">
                        <mask id="mask-10" fill="white">
                            <use xlink:href="#path-9"></use>
                        </mask>
                        <g id="矩形"></g>
                        <g id="编组-4" mask="url(#mask-10)">
                            <g transform="translate(-1.0094, -2.048)">
                                <path d="M6.87363183,5.61669236 C7.89888789,5.99790333 8.75154507,5.98646564 9.43160335,5.58237929 C10.1944762,6.01447209 10.9556,6.06913056 11.7149749,5.74635471 C12.3200073,6.09264483 13.016591,6.22640853 13.8047259,6.14764581 C13.6854752,6.58925637 13.5915763,6.99665841 13.5230293,7.36985193 C10.7400796,7.38183488 9.33428561,7.38614913 9.30564733,7.38279469 C9.27700904,7.37944024 8.49217195,7.10754204 6.95113605,6.56710009 L6.87363183,5.61669236 Z" id="路径-3" fill="#FFFFFF" fill-rule="evenodd" transform="translate(10.3392, 6.4831) rotate(8) translate(-10.3392, -6.4831)"></path>
                                <path d="M9.18972217,5.18229551 C9.33517614,5.09600578 9.51626713,5.09423582 9.66340842,5.17766576 C10.3015862,5.53951614 10.9087367,5.58380897 11.5300855,5.32038324 C11.665949,5.26278286 11.8212437,5.27202578 11.9491821,5.34532725 C12.4666507,5.64180735 13.0651195,5.75736576 13.7585858,5.68888928 C14.084709,5.65668618 14.3427561,5.95757583 14.2582865,6.27155336 C14.1426871,6.7012422 14.0520591,7.09623747 13.986328,7.45621589 C13.9460185,7.67697205 13.7525146,7.83773277 13.5262512,7.8384422 C12.2305942,7.84250463 11.2972808,7.84523817 10.639808,7.84659084 L10.4507548,7.84695517 C10.4205963,7.84700897 10.3911058,7.8470593 10.3622725,7.84710616 L10.0471241,7.84750146 C10.023375,7.84752044 10.0002399,7.84754791 9.97770784,7.84754791 L9.73558004,7.84754791 C9.71769978,7.84750695 9.70037936,7.84748727 9.68360799,7.84746405 L9.50801305,7.84701524 C9.47035671,7.84686039 9.43725242,7.84667348 9.40840823,7.84645433 L9.35631346,7.845973 C9.2941966,7.84527376 9.26098971,7.84434445 9.2511566,7.84318173 C9.16296845,7.83275386 8.79479022,7.70486648 6.79406653,7.00139536 C6.62006588,6.94021528 6.49844215,6.78352438 6.48334597,6.6010863 L6.40470818,5.65074412 C6.37656695,5.31065583 6.71510005,5.05730591 7.03724378,5.17736991 C7.93944737,5.51362406 8.64579402,5.50497773 9.18972217,5.18229551 Z M9.43099177,6.10622185 L9.32762603,6.15217795 C8.81651562,6.36238831 8.24283235,6.40942038 7.61347558,6.29964243 L7.59746178,6.29636057 L7.6107788,6.30150177 C8.08372355,6.46752636 8.46599271,6.60126863 8.75751962,6.70270566 L8.85133435,6.73532148 C9.04667562,6.80317363 9.19475605,6.85420206 9.29521126,6.88828534 C9.34429897,6.90494022 9.38159421,6.91740506 9.40649315,6.92549104 L9.38814496,6.91910375 L9.46440766,6.91917454 C9.47565155,6.91914328 9.4877895,6.91911033 9.5008045,6.91907569 L9.64116116,6.91871795 C9.65928552,6.91867306 9.67823595,6.91862645 9.69799543,6.91857811 L9.89721637,6.91809595 C9.97059888,6.91791945 10.0508039,6.91772707 10.1373725,6.91751854 L10.3188585,6.91707987 C10.9828037,6.91546858 11.9435687,6.91305692 13.0437175,6.90975032 L13.1388085,6.90926006 L13.1601622,6.81113472 L13.2004661,6.63363662 L13.1642116,6.63280767 C12.6631244,6.607948 12.1949291,6.49612523 11.7626493,6.29666688 L11.683062,6.25750388 L11.6293335,6.27632041 C10.9092083,6.50906962 10.1800819,6.45634924 9.46510968,6.12319684 L9.43099177,6.10622185 Z" id="路径-3" fill="#5B1602" fill-rule="nonzero" transform="translate(10.3388, 6.4819) rotate(8) translate(-10.3388, -6.4819)"></path>
                                <path d="M15.2576956,3.13547824 C15.5061944,3.06289585 15.7669856,3.20379526 15.840189,3.45018589 C15.9133924,3.69657652 15.7712874,3.95515524 15.5227886,4.02773763 L12.7564168,4.83538372 L9.74860503,12.9574847 C9.66617061,13.1800517 9.43017138,13.3025571 9.20308604,13.250443 L9.14659444,13.2337334 C8.90341713,13.1451871 8.77867813,12.8779444 8.86798209,12.6368301 L11.9575139,4.29531602 C12.0086987,4.15712084 12.1228512,4.0511144 12.2652788,4.00951364 L15.2576956,3.13547824 Z" id="吸管" fill="#00DBFF" fill-rule="nonzero" transform="translate(12.3493, 8.1894) rotate(8) translate(-12.3493, -8.1894)"></path>
                                <path d="M4.29728674,7.35017858 C5.0979258,6.98109691 5.87453046,6.37026718 6.62710071,5.51768938 C7.19126702,6.34080772 7.98609279,6.64490272 9.011578,6.42997438 C9.52204854,7.08372664 10.6338016,7.2424836 11.3983746,6.77564062 C12.2877986,6.9559041 13.0077387,6.7135715 13.5581948,6.04864283 C13.9507449,6.86511388 14.5562389,7.63295508 15.3746768,8.35216641 L15.7441957,9.285088 L14.7886922,10.8047909 L6.77186455,10.8751414 L3.27182236,9.3949545 L4.29728674,7.35017858 Z" id="路径-2" fill="#FFFFFF" fill-rule="evenodd" transform="translate(9.508, 8.1964) rotate(8) translate(-9.508, -8.1964)"></path>
                                <path d="M6.27094723,5.20866332 C6.4731239,4.9796258 6.83902359,5.00169072 7.01171552,5.25333401 C7.46849338,5.91894175 8.07154864,6.15019117 8.91337963,5.97475335 C9.08916073,5.93812052 9.27060488,6.00423627 9.38062949,6.14501275 C9.74011776,6.60497798 10.5849068,6.72770674 11.1517725,6.38211054 C11.2533964,6.32015437 11.375011,6.29891904 11.4918675,6.32272596 C12.2135336,6.46974945 12.756573,6.28758464 13.1941969,5.75888582 C13.4120687,5.49567208 13.8319731,5.54619976 13.9800212,5.85344517 C14.3451848,6.61127261 14.9129501,7.33061974 15.6873918,8.01114458 C15.7426955,8.05974157 15.7856367,8.12060661 15.812716,8.18877983 L16.1833962,9.12198017 C16.2378006,9.25894502 16.2235969,9.41336138 16.1451011,9.53830821 L15.1912313,11.0566442 C15.1062654,11.1918899 14.957385,11.2745941 14.7966884,11.275816 L6.77861507,11.3367952 C6.71404483,11.3372725 6.65006777,11.3245395 6.59069037,11.2993799 L3.08832267,9.81534391 C2.84044531,9.71031242 2.73264371,9.42022817 2.85252653,9.18083807 L3.87574962,7.13759714 C3.9231807,7.04288356 4.00174877,6.9670243 4.09849879,6.92252775 C4.83502018,6.58379224 5.55997404,6.0140952 6.27094723,5.20866332 Z M6.60372871,6.22112546 L6.49725533,6.33012001 C5.8521601,6.96883805 5.18456959,7.44839276 4.49324826,7.76634019 L4.64479342,7.69301679 L3.91378502,9.15351016 L6.86916993,10.4057317 L14.5309112,10.3477057 L15.2237755,9.24469385 L14.9797577,8.6302401 L14.8832973,8.54362049 C14.3477515,8.05000145 13.9029003,7.53243454 13.5498261,6.99082891 L13.43675,6.81174712 L13.3800947,6.85491617 C12.8636751,7.22099011 12.251121,7.36339648 11.5641247,7.27699582 L11.4783372,7.26403896 L11.4452535,7.28149263 C10.6004121,7.68398466 9.51957961,7.54600449 8.85801217,6.94927328 L8.83855566,6.93090762 L8.71167818,6.94569659 C7.89634492,7.02461519 7.19573593,6.79275939 6.64208443,6.2597718 L6.60372871,6.22112546 Z" id="路径-2" fill="#5B1602" fill-rule="nonzero" transform="translate(9.5097, 8.1933) rotate(8) translate(-9.5097, -8.1933)"></path>
                                <path d="M14.6162813,7.31383288 C15.25139,8.05912686 15.6089661,9.06949255 15.6089661,10.4069572 C15.6089661,14.1171876 12.5327594,17.1249237 8.73806621,17.1249237 C4.94337299,17.1249237 1.86716634,14.1171876 1.86716634,10.4069572 C1.86716634,9.21607472 2.21751653,8.28452199 2.81879306,7.56851231 C3.09807179,8.32776407 3.69586082,8.9004674 4.71173378,8.9004674 C5.39108566,8.9004674 6.01215344,8.69159305 6.48692277,8.34558941 C7.08051228,8.69333184 7.82688253,8.9004674 8.63757735,8.9004674 C9.43808059,8.9004674 10.1758664,8.69850708 10.7657729,8.35863747 L10.7999431,8.38498401 C11.2620858,8.70781648 11.8455833,8.9004674 12.4798923,8.9004674 C13.6043492,8.9004674 14.3192895,8.2378049 14.6064811,7.34635844 Z" id="形状结合" fill="#8C3201" fill-rule="evenodd" transform="translate(8.7381, 12.2194) rotate(15) translate(-8.7381, -12.2194)"></path>
                                <path d="M14.6161987,7.31372049 C15.2513682,8.05902547 15.6089809,9.0694261 15.6089809,10.4069591 C15.6089809,14.1171896 12.5327743,17.1249256 8.73808106,17.1249256 C4.94338785,17.1249256 1.8671812,14.1171896 1.8671812,10.4069591 C1.8671812,9.21618158 2.21746966,8.28468808 2.818649,7.56870351 C3.09865097,8.32830645 3.6963551,8.90046934 4.71174864,8.90046934 C5.3912161,8.90046934 6.01237965,8.69152391 6.4878407,8.34612023 C7.08128406,8.69354379 7.82730845,8.90046934 8.63759221,8.90046934 C9.43760106,8.90046934 10.1749699,8.69875841 10.7639872,8.35941853 C11.2316476,8.69762093 11.8290269,8.90046934 12.4799072,8.90046934 C13.6043641,8.90046934 14.3193043,8.23780685 14.6064959,7.34636038 L14.6161987,7.31372049 Z M14.5169183,9.12408361 L14.4788844,9.1567439 C13.9478483,9.58611855 13.2659553,9.83063805 12.4799072,9.83063805 C11.8694811,9.83063805 11.2795062,9.69326294 10.7550877,9.43690648 L10.7197503,9.41835826 L10.604175,9.46675578 C10.0546302,9.68295137 9.45055122,9.80679322 8.82565265,9.82752318 L8.63759221,9.83063805 C7.93714162,9.83063805 7.25842242,9.70131325 6.64778249,9.45760694 L6.5286007,9.40747839 L6.4877047,9.42883428 C5.99971591,9.66654119 5.45220215,9.80412295 4.88309173,9.8271733 L4.71174864,9.83063805 C4.05881813,9.83063805 3.49212753,9.6556188 3.03115876,9.34049203 L2.95036948,9.2826189 L2.94851009,9.29052823 C2.8672694,9.5780978 2.82008927,9.89166046 2.80826721,10.2336086 L2.80530869,10.4069591 C2.80530869,13.6005363 5.45858635,16.1947569 8.73808106,16.1947569 C12.0175758,16.1947569 14.6708534,13.6005363 14.6708534,10.4069591 C14.6708534,9.95813711 14.6255955,9.55659219 14.5371441,9.19817679 L14.5169183,9.12408361 Z" id="形状结合" fill="#5B1602" fill-rule="nonzero" transform="translate(8.7381, 12.2193) rotate(15) translate(-8.7381, -12.2193)"></path>
                                <g id="线" stroke-width="1" fill="none" fill-rule="evenodd" transform="translate(8.1392, 14.5384) rotate(15) translate(-8.1392, -14.5384)translate(5.5068, 12.0133)">
                                    <path d="M5.01095009,0.100980183 C4.98939182,1.04431924 4.79709072,1.87476121 4.43404679,2.5923061 C4.07100286,3.30985099 3.62358219,3.90717491 3.09178477,4.38427784" id="路径-5" stroke="#5B1602" stroke-width="0.938127491" transform="translate(4.0514, 2.2426) rotate(-7) translate(-4.0514, -2.2426)"></path>
                                    <path d="M1.22155576,2.29864246 C1.07316421,2.71328643 0.932650719,3.0356793 0.800015285,3.26582106 C0.682051543,3.4705053 0.443332584,3.80611497 0.0838584087,4.27265007" id="路径-5备份" stroke="#5B1602" stroke-width="0.938127491" transform="translate(0.6527, 3.2856) scale(-1, 1) rotate(-5) translate(-0.6527, -3.2856)"></path>
                                    <path d="M2.11656813,3.8077715 C2.95572412,3.79492406 3.75554328,3.18347164 4.51602561,1.97341426 C5.27650794,0.763356876 4.90663825,1.60188417 3.40641654,4.48899614 L2.11656813,3.8077715 Z" id="路径-8" fill="#5B1602" transform="translate(3.5082, 2.9632) rotate(-15) translate(-3.5082, -2.9632)"></path>
                                    <path d="M0.285572764,3.13483556 C0.72058521,3.89509694 1.50207651,3.96130179 2.63004667,3.33345013 C2.27367567,3.75009449 1.81661015,4.12466921 1.25885013,4.4571743 C0.848594908,4.0591879 0.564811023,3.75447603 0.407498474,3.54303868 C0.250185926,3.33160132 0.209544022,3.19553362 0.285572764,3.13483556 Z" id="路径-8" fill="#5B1602" transform="translate(1.4392, 3.796) scale(-1, 1) rotate(-38) translate(-1.4392, -3.796)"></path>
                                </g>
                                <g id="花" stroke-width="1" fill="none" fill-rule="evenodd" transform="translate(6.2914, 6.2914) rotate(-225) translate(-6.2914, -6.2914)translate(1.8196, 1.8658)">
                                    <mask id="mask-12" fill="white">
                                        <use xlink:href="#path-11"></use>
                                    </mask>
                                    <use id="形状结合" fill="#FFFFFF" fill-rule="nonzero" transform="translate(4.4718, 4.4256) rotate(-18) translate(-4.4718, -4.4256)" xlink:href="#path-11"></use>
                                    <path d="M4.79483381,5.60396013 C6.7851876,5.60396013 8.29927531,4.95892292 8.29927531,4.15867714 C8.29927531,3.35843136 6.96448793,0.523217246 4.97413414,0.523217246 C2.98378035,0.523217246 0.569127588,2.82048788 0.569127588,3.62073366 C0.569127588,4.42097945 2.80448002,5.60396013 4.79483381,5.60396013 Z" id="椭圆形" fill="#EED2FF" filter="url(#filter-13)" mask="url(#mask-12)"></path>
                                    <ellipse id="椭圆形备份-24" fill="#E0A6FE" filter="url(#filter-14)" mask="url(#mask-12)" cx="4.44442889" cy="4.71749252" rx="2.7618323" ry="2.23932217"></ellipse>
                                    <path d="M4.71436263,9.28486478 C6.70471642,9.28486478 8.11431989,6.28556804 8.11431989,4.3395158 C8.11431989,3.06617684 6.57619989,5.70236135 4.50565814,5.88669929 C3.41177742,5.98408623 2.24992022,4.61418624 1.56189273,4.61418624 C-0.42846106,4.61418624 1.6382528,5.52458064 1.6382528,7.47063288 C1.6382528,9.41668513 2.72400883,9.28486478 4.71436263,9.28486478 Z" id="椭圆形备份-25" fill="#59DCF9" filter="url(#filter-15)" mask="url(#mask-12)"></path>
                                </g>
                            </g>
                        </g>
                    </g>
                    <rect id="矩形备份-14" stroke="#E6E6E6" stroke-width="0.735294118" fill="#FFFFFF" x="187.867647" y="50.3978484" width="299.264706" height="28.660679" rx="8.82352941"></rect>
                    <text id="Summarize-the-key-hi" font-family="Poppins-Regular, Poppins" font-size="10.2941176" font-weight="normal" line-spacing="14.7058824" fill="#333333">
                        <tspan x="200.647059" y="67.3751678">Summarize the key highlights of the Q3 market report</tspan>
                    </text>
                    <rect id="输入框备份-10" fill="#EDEDED" x="34.5588235" y="87.5100671" width="147.058824" height="35.2751678" rx="2.94117647"></rect>
                    <rect id="输入框备份-11" fill="#EDEDED" x="340.558824" y="87.6644295" width="147.058824" height="35.2751678" rx="2.94117647"></rect>
                    <rect id="输入框备份-12" fill="#EDEDED" x="187.5" y="87.5100671" width="147.058824" height="35.2751678" rx="2.94117647"></rect>
                    <text id="2024-Q3-Channel-…" font-family="Poppins-Regular, Poppins" font-size="10.2941176" font-weight="normal" line-spacing="11.7647059" fill="#333333">
                        <tspan x="69.8529412" y="103.38604">2024-Q3-Channel …</tspan>
                    </text>
                    <rect id="矩形" fill="#EDEDED" x="35" y="295" width="228" height="9.75" rx="4.5"></rect>
                    <rect id="矩形备份-53" fill="#EDEDED" x="35" y="313" width="335" height="9.75" rx="4.5"></rect>
                    <rect id="矩形备份-54" fill="#EDEDED" x="35" y="332" width="452" height="9.75" rx="4.5"></rect>
                    <rect id="矩形备份-55" fill="#EDEDED" x="35" y="350" width="452" height="9.75" rx="4.5"></rect>
                    <text id="Q3-Campaign-ROI-S…" font-family="Poppins-Regular, Poppins" font-size="10.2941176" font-weight="normal" line-spacing="11.7647059" fill="#333333">
                        <tspan x="375.852941" y="103.540403">Q3 Campaign ROI S…</tspan>
                    </text>
                    <text id="2024_Q3_Marketing" font-family="Poppins-Regular, Poppins" font-size="10.2941176" font-weight="normal" line-spacing="11.7647059" fill="#333333">
                        <tspan x="222.794118" y="103.38604">2024_Q3_Marketing</tspan>
                    </text>
                    <text id="docx" font-family="Poppins-Regular, Poppins" font-size="8.82352941" font-weight="normal" line-spacing="11.7647059" fill="#999999">
                        <tspan x="69.8529412" y="115.349128">docx</tspan>
                    </text>
                    <text id="pdf备份" font-family="Poppins-Regular, Poppins" font-size="8.82352941" font-weight="normal" line-spacing="11.7647059" fill="#999999">
                        <tspan x="375.852941" y="115.50349">pdf</tspan>
                    </text>
                    <text id="7.25MB" font-family="Poppins-Regular, Poppins" font-size="8.82352941" font-weight="normal" line-spacing="11.7647059" fill="#999999">
                        <tspan x="395.705882" y="115.50349">7.25MB</tspan>
                    </text>
                    <text id="xlsx" font-family="Poppins-Regular, Poppins" font-size="8.82352941" font-weight="normal" line-spacing="11.7647059" fill="#999999">
                        <tspan x="222.794118" y="115.349128">xlsx</tspan>
                    </text>
                    <text id="3.56MB" font-family="Poppins-Regular, Poppins" font-size="8.82352941" font-weight="normal" line-spacing="11.7647059" fill="#999999">
                        <tspan x="95.5882353" y="115.349128">3.56MB</tspan>
                    </text>
                    <text id="671KB" font-family="Poppins-Regular, Poppins" font-size="8.82352941" font-weight="normal" line-spacing="11.7647059" fill="#999999">
                        <tspan x="244.529412" y="115.349128">671KB</tspan>
                    </text>
                    <g id="编组-2备份-7" transform="translate(193.3824, 93.3893)">
                        <rect id="矩形备份-34" fill="#34A851" x="0" y="0" width="23.5294118" height="23.5167785" rx="7.05882353"></rect>
                        <g id="word备份-2" transform="translate(3.5294, 3.5275)" fill="#FFFFFF" fill-rule="nonzero">
                            <rect id="矩形" opacity="0" x="0" y="0" width="16.4705882" height="16.461745"></rect>
                            <path d="M11.687716,2.74362952 L15.4301907,2.74362952 L15.4301907,13.7181154 L11.687716,13.7181154 L11.687716,2.74362952 Z M0.457509191,13.7181154 L0.457509191,2.74362952 L10.939221,0 L10.939221,16.461745 L0.457509191,13.7181154 Z M3.33986213,4.57269979 L1.80536305,4.57269979 L2.87228401,10.9013405 L4.83685202,10.9013405 L5.67868566,6.07255124 L6.48392693,10.9013405 L8.46863281,10.9013405 L9.55294118,4.57269979 L8.09346048,4.57269979 L7.34496553,9.76731273 L6.50313189,4.57269979 L4.89268153,4.57269979 L3.97581342,9.76731273 L3.33986213,4.57269979 Z" id="形状"></path>
                        </g>
                    </g>
                    <g id="编组-2备份-3" transform="translate(40.4412, 93.3893)">
                        <rect id="矩形备份-34" fill="#005CD4" x="0" y="0" width="23.5294118" height="23.5167785" rx="7.05882353"></rect>
                        <g id="word备份-2" transform="translate(3.5294, 3.5275)" fill="#FFFFFF" fill-rule="nonzero">
                            <rect id="矩形" opacity="0" x="0" y="0" width="16.4705882" height="16.461745"></rect>
                            <path d="M11.687716,2.74362952 L15.4301907,2.74362952 L15.4301907,13.7181154 L11.687716,13.7181154 L11.687716,2.74362952 Z M0.457509191,13.7181154 L0.457509191,2.74362952 L10.939221,0 L10.939221,16.461745 L0.457509191,13.7181154 Z M3.33986213,4.57269979 L1.80536305,4.57269979 L2.87228401,10.9013405 L4.83685202,10.9013405 L5.67868566,6.07255124 L6.48392693,10.9013405 L8.46863281,10.9013405 L9.55294118,4.57269979 L8.09346048,4.57269979 L7.34496553,9.76731273 L6.50313189,4.57269979 L4.89268153,4.57269979 L3.97581342,9.76731273 L3.33986213,4.57269979 Z" id="形状"></path>
                        </g>
                    </g>
                    <g id="编组-5备份-2" transform="translate(346.4412, 93.5436)">
                        <rect id="矩形备份-7" fill="#E70000" x="0" y="0" width="23.5294118" height="23.5167785" rx="7.05882353"></rect>
                        <g id="pdf备份-2" transform="translate(3.5294, 3.5275)" fill="#FFFFFF" fill-rule="nonzero">
                            <rect id="矩形" opacity="0" x="0" y="0" width="16.4705882" height="16.461745"></rect>
                            <path d="M14.1795796,12.2902529 C12.9445843,12.1985537 11.7553224,11.7401543 10.7947597,10.9150226 C8.91941609,11.3275885 7.13552322,11.9235205 5.35164644,12.6569853 C3.93368526,15.1781978 2.60720701,16.461745 1.4636946,16.461745 C1.23499533,16.461745 0.960546564,16.4159115 0.7775968,16.2783788 C0.274432687,16.0491791 0,15.5449463 0,15.0406812 C0,14.6281154 0.0914829224,13.482117 4.43683329,11.6026378 C5.44312936,9.76900815 6.22071008,7.88954505 6.86109053,5.91839885 C6.312193,4.81821786 5.12293109,2.11360692 5.94626131,0.738408883 C6.22071008,0.234143817 6.76959153,-0.0408893448 7.36423857,0.00494414349 C7.8216371,0.00494414349 8.27903563,0.234159932 8.5534844,0.600876186 C9.14811535,1.4260079 9.10236585,3.16797054 8.32478513,5.73503266 C9.05663243,7.11024682 10.017179,8.34794439 11.1606914,9.4022919 C12.121254,9.21892571 13.0818006,9.08139301 14.0423472,9.08139301 C16.1921717,9.12724262 16.5123378,10.1357405 16.4666044,10.7316564 C16.4666044,12.2902529 14.9571603,12.2902529 14.1795796,12.2902529 L14.1795796,12.2902529 Z M1.37221167,15.1323482 L1.5094441,15.0865147 C2.14980847,14.8572989 2.65294043,14.3988996 3.01887212,13.8029675 C2.33277432,14.0780168 1.78387679,14.5364161 1.37221167,15.1323643 L1.37221167,15.1323482 Z M7.45570541,1.38017441 L7.31848907,1.38017441 C7.27275565,1.38017441 7.18127272,1.38017441 7.13552322,1.4260079 C6.95257346,2.20530613 7.0897898,3.03043784 7.40997199,3.76388647 C7.68442076,2.98458824 7.68442076,2.15945652 7.45570541,1.38017441 Z M7.77590368,8.02706163 L7.73015418,8.11876083 L7.68442076,8.07291123 C7.27275565,9.12724262 6.81534103,10.181574 6.312193,11.1900719 L6.403692,11.1442223 L6.403692,11.2359215 C7.40997199,10.8691891 8.50775098,10.5483064 9.51403096,10.3190906 L9.46829754,10.2732571 L9.60551388,10.2732571 C8.91941609,9.58564196 8.27903563,8.80635985 7.77590368,8.02706163 Z M13.9966138,10.4566233 C13.5849486,10.4566233 13.219017,10.4566233 12.8073518,10.5483064 C13.2647665,10.777506 13.7221811,10.869173 14.1795796,10.9150226 C14.4997457,10.9608722 14.819944,10.9150226 15.0943927,10.8233395 C15.0943927,10.685823 14.9114269,10.4566233 13.9966138,10.4566233 L13.9966138,10.4566233 Z" id="形状"></path>
                        </g>
                    </g>
                    <g id="编组-11" transform="translate(35, 159)">
                        <g id="chevron-down备份-4" transform="translate(123.1579, 4.7045)">
                            <rect id="矩形" x="0" y="0" width="9.47368421" height="9.40909091"></rect>
                            <g id="编组" transform="translate(1.5789, 3.1364)" stroke="#9A9AA3" stroke-linecap="round" stroke-linejoin="round" stroke-width="0.787543153">
                                <polyline id="路径" points="0 0 3.55263158 3.92045455 7.10526316 0"></polyline>
                            </g>
                        </g>
                        <rect id="矩形备份-11" stroke="#E6E6E6" stroke-width="0.579075848" fill="#FFFFFF" x="0.289537924" y="0.289537924" width="139.94724" height="18.239106" rx="9.11955299"></rect>
                        <text id="Understand-the-query" font-family="Poppins-Light, Poppins" font-size="9.45051784" font-weight="300" line-spacing="12.6006904" fill="#999999">
                            <tspan x="21" y="12">Understand the query</tspan>
                        </text>
                        <rect id="矩形备份-18" stroke="#E6E6E6" stroke-width="0.579075848" fill="#FFFFFF" x="0.289537924" y="25.380447" width="103.63145" height="18.239106" rx="9.11955299"></rect>
                        <text id="Deep-reading" font-family="Poppins-Light, Poppins" font-size="9.45051784" font-weight="300" line-spacing="12.6006904" fill="#999999">
                            <tspan x="21" y="37">Deep reading</tspan>
                        </text>
                        <rect id="矩形备份-10" stroke="#E6E6E6" stroke-width="0.579075848" fill="#FFFFFF" x="0.289537924" y="50.4713561" width="149.420924" height="18.239106" rx="9.11955299"></rect>
                        <text id="Thought-for-26-secon" font-family="Poppins-Light, Poppins" font-size="9.45051784" font-weight="300" line-spacing="12.6006904" fill="#999999">
                            <tspan x="21" y="62">Thought for 26 seconds</tspan>
                        </text>
                        <g id="brain-2-line" transform="translate(5.3158, 53.3182)" fill="#38C200" fill-rule="nonzero">
                            <rect id="矩形" opacity="0" x="0" y="0" width="12.6315789" height="12.5454545"></rect>
                            <path d="M3.68421464,3.13636364 C3.68421464,3.26025 3.70525905,3.37786364 3.74473273,3.48659499 C3.80374845,3.6516524 3.77560656,3.83509586 3.66977509,3.97520789 C3.56394363,4.11531992 3.39449007,4.19347633 3.21842516,4.18338228 C2.79290234,4.15875014 2.39442489,4.39141978 2.20916863,4.77268376 C2.02391237,5.15394775 2.08844964,5.60853891 2.37262747,5.9240641 C2.55168841,6.12241322 2.55191688,6.42277285 2.37315789,6.62139045 C2.13668556,6.88426917 2.04944095,7.24776484 2.1410786,7.58832484 C2.23271625,7.92888483 2.49090822,8.20069384 2.82789474,8.31136364 C3.07859772,8.39333689 3.22939875,8.64705535 3.18053043,8.90466317 C3.06077299,9.61658331 3.54477766,10.2901293 4.26158512,10.4090702 C4.97839258,10.5280111 5.65656244,10.0473065 5.7763199,9.33538636 C5.77928056,9.31369164 5.78367325,9.29221356 5.78946957,9.27109091 L5.78946957,3.13636364 C5.78946957,2.55897729 5.3181922,2.09091317 4.73684211,2.09091317 C4.15549201,2.09091317 3.68421464,2.55897729 3.68421464,3.13636364 L3.68421464,3.13636364 Z M6.84210937,9.27109091 C6.84736431,9.29200408 6.85263158,9.31290501 6.85525905,9.33485955 C6.93263377,9.79539115 7.25150832,10.1799424 7.69176572,10.3436566 C8.13202312,10.5073708 8.62677781,10.4253758 8.98966048,10.1285584 C9.35254314,9.83174099 9.52842327,9.36519477 9.45104852,8.90466317 C9.4021802,8.64705535 9.55298123,8.39333689 9.80368421,8.31136364 C10.1406707,8.20069384 10.3988627,7.92888483 10.4905003,7.58832484 C10.582138,7.24776484 10.4948934,6.88426917 10.2584211,6.62139045 C10.0795112,6.42290706 10.0795112,6.12254748 10.2584211,5.9240641 C10.5425969,5.60854053 10.6071348,5.15395264 10.4218818,4.77268989 C10.2366289,4.39142714 9.83815627,4.15875552 9.41263569,4.18338228 C9.23666003,4.19329474 9.06737042,4.11506272 8.96166534,3.97498014 C8.85596027,3.83489755 8.82787394,3.6515628 8.88684622,3.48659499 C9.02687448,3.09436204 8.91933683,2.65699779 8.61304262,2.37301374 C8.3067484,2.08902969 7.86003592,2.01251485 7.47565966,2.17819788 C7.0912834,2.3438809 6.84245356,2.72020499 6.84210937,3.13636364 L6.84210937,9.27109091 L6.84210937,9.27109091 Z M4.73684211,1.04545046 C5.34118086,1.04473937 5.91653342,1.30264612 6.31578947,1.75322727 C6.9029152,1.09205962 7.84450183,0.867659799 8.66978393,1.19222108 C9.49506603,1.51678236 10.0267235,2.32056949 9.99894326,3.20171271 C10.6362607,3.36497341 11.1601024,3.81472869 11.4149267,4.41743494 C11.6697509,5.02014119 11.6262604,5.70650482 11.2973684,6.27272727 C11.5770793,6.7529779 11.6529811,7.32400106 11.5083381,7.85989127 C11.3636951,8.39578149 11.0103857,8.85252995 10.5263117,9.12942773 L10.5263117,9.14773136 C10.5262125,10.1445407 9.89352574,11.033056 8.94725709,11.3652806 C8.00098844,11.6975053 6.94662668,11.4012944 6.31578947,10.626 C5.68495227,11.4012944 4.6305905,11.6975053 3.68432186,11.3652806 C2.73805321,11.033056 2.10536643,10.1445407 2.10526727,9.14773136 L2.10526727,9.12942773 C1.6211932,8.85252995 1.2678839,8.39578149 1.12324088,7.85989127 C0.97859787,7.32400106 1.05449964,6.7529779 1.33421053,6.27272727 C1.00552882,5.7065435 0.962154338,5.02033152 1.21696115,4.41776747 C1.47176796,3.81520343 1.99547356,3.36553425 2.63263569,3.20222727 C2.61468546,2.63654376 2.82839359,2.08779612 3.22493947,1.68134314 C3.62148535,1.27489016 4.1669924,1.0454548 4.73684211,1.04545046 L4.73684211,1.04545046 Z" id="形状"></path>
                        </g>
                        <g id="下拉" transform="translate(86.4737, 28.2273)" fill="#9A9AA3" fill-rule="nonzero">
                            <rect id="矩形" opacity="0" x="0" y="0" width="12.6315789" height="12.5454545"></rect>
                            <path d="M6.3247574,8.27361701 C6.22526978,8.27361701 6.12996843,8.23385047 6.06033306,8.16328072 L2.8516653,4.91168022 C2.70853618,4.7666479 2.71091694,4.53384641 2.8569449,4.39169318 C3.00296053,4.24956445 3.23738487,4.25190447 3.38048931,4.39693679 L6.3247574,7.38057422 L9.26900082,4.39693679 C9.4121176,4.25187997 9.64651727,4.24951545 9.79255757,4.39169318 C9.9386102,4.53384641 9.94096628,4.7666479 9.79783717,4.91168022 L6.58916941,8.16328072 C6.51953863,8.23384977 6.4242413,8.27361701 6.3247574,8.27361701 Z" id="路径"></path>
                        </g>
                        <g id="下拉" transform="translate(133.2632, 53.3182)" fill="#9A9AA3" fill-rule="nonzero">
                            <rect id="矩形" opacity="0" x="0" y="0" width="12.6315789" height="12.5454545"></rect>
                            <path d="M6.3247574,8.27361701 C6.22526978,8.27361701 6.12996843,8.23385047 6.06033306,8.16328072 L2.8516653,4.91168022 C2.70853618,4.7666479 2.71091694,4.53384641 2.8569449,4.39169318 C3.00296053,4.24956445 3.23738487,4.25190447 3.38048931,4.39693679 L6.3247574,7.38057422 L9.26900082,4.39693679 C9.4121176,4.25187997 9.64651727,4.24951545 9.79255757,4.39169318 C9.9386102,4.53384641 9.94096628,4.7666479 9.79783717,4.91168022 L6.58916941,8.16328072 C6.51953863,8.23384977 6.4242413,8.27361701 6.3247574,8.27361701 Z" id="路径"></path>
                        </g>
                        <g id="下拉备份-2" transform="translate(125.2632, 3.3182)" fill="#9A9AA3" fill-rule="nonzero">
                            <rect id="矩形" opacity="0" x="0" y="0" width="12.6315789" height="12.5454545"></rect>
                            <path d="M6.3247574,8.27361701 C6.22526978,8.27361701 6.12996843,8.23385047 6.06033306,8.16328072 L2.8516653,4.91168022 C2.70853618,4.7666479 2.71091694,4.53384641 2.8569449,4.39169318 C3.00296053,4.24956445 3.23738487,4.25190447 3.38048931,4.39693679 L6.3247574,7.38057422 L9.26900082,4.39693679 C9.4121176,4.25187997 9.64651727,4.24951545 9.79255757,4.39169318 C9.9386102,4.53384641 9.94096628,4.7666479 9.79783717,4.91168022 L6.58916941,8.16328072 C6.51953863,8.23384977 6.4242413,8.27361701 6.3247574,8.27361701 Z" id="路径"></path>
                        </g>
                        <g id="Understand" transform="translate(6, 3.1364)" stroke="#38C200" stroke-width="0.984428941">
                            <path d="M5.98242743,2.31663223 C7.92026866,2.31663223 9.49119937,3.84848441 9.49119937,5.73811983 C9.49119937,7.07380235 8.70631174,8.23072479 7.56175241,8.79424912 L7.5613748,9.58729341 C7.5613748,10.4533763 6.85445598,11.1554752 5.98242743,11.1554752 C5.11039887,11.1554752 4.40348006,10.4533763 4.40348006,9.58729341 L4.40310245,8.79424912 C3.25854309,8.23072479 2.4736555,7.07380235 2.4736555,5.73811983 C2.4736555,3.84848441 4.04458621,2.31663223 5.98242743,2.31663223 Z" id="形状结合"></path>
                            <line x1="4.44733971" y1="8.75841084" x2="7.60523445" y2="8.75841084" id="路径-11"></line>
                            <line x1="5.98242743" y1="8.30423551" x2="5.98242743" y2="6.59349173" id="路径-12"></line>
                            <line x1="5.98242743" y1="0.60588843" x2="5.98242743" y2="0.17820248" id="路径-12备份" stroke-linecap="round"></line>
                            <line x1="9.85640565" y1="2.17446019" x2="9.86186092" y2="1.74131897" id="路径-12备份" stroke-linecap="round" transform="translate(9.8591, 1.9579) rotate(45) translate(-9.8591, -1.9579)"></line>
                            <line x1="11.4648636" y1="5.95738086" x2="11.4648636" y2="5.51878438" id="路径-12备份" stroke-linecap="round" transform="translate(11.4649, 5.7381) rotate(90) translate(-11.4649, -5.7381)"></line>
                            <line x1="9.86181532" y1="9.73491511" x2="9.85636005" y2="9.30177385" id="路径-12备份" stroke-linecap="round" transform="translate(9.8591, 9.5183) rotate(135) translate(-9.8591, -9.5183)"></line>
                            <line x1="2.10305449" y1="9.73492125" x2="2.10850976" y2="9.30177999" id="路径-12备份" stroke-linecap="round" transform="translate(2.1058, 9.5184) rotate(-135) translate(-2.1058, -9.5184)"></line>
                            <line x1="0.5" y1="5.95738957" x2="0.5" y2="5.51879308" id="路径-12备份" stroke-linecap="round" transform="translate(0.5, 5.7381) rotate(-90) translate(-0.5, -5.7381)"></line>
                            <line x1="2.10845181" y1="2.17446633" x2="2.10299653" y2="1.7413251" id="路径-12备份" stroke-linecap="round" transform="translate(2.1057, 1.9579) rotate(-45) translate(-2.1057, -1.9579)"></line>
                            <polyline id="路径-15" stroke-linecap="round" transform="translate(5.9788, 5.2419) rotate(-45) translate(-5.9788, -5.2419)" points="5.10755801 4.35168004 5.12971017 6.11053204 6.85002533 6.13219884"></polyline>
                        </g>
                        <g id="deading" transform="translate(6.8947, 29.7955)" stroke="#38C200" stroke-width="0.984428941">
                            <ellipse id="椭圆形" cx="5.03289474" cy="1.078125" rx="1.08552632" ry="1.078125"></ellipse>
                            <ellipse id="椭圆形备份-2" cx="1.08552632" cy="2.64630682" rx="1.08552632" ry="1.078125"></ellipse>
                            <ellipse id="椭圆形备份-4" cx="8.98026316" cy="2.64630682" rx="1.08552632" ry="1.078125"></ellipse>
                            <ellipse id="椭圆形备份" cx="5.03289474" cy="8.91903409" rx="1.08552632" ry="1.078125"></ellipse>
                            <ellipse id="椭圆形备份-3" cx="1.08552632" cy="7.35085227" rx="1.08552632" ry="1.078125"></ellipse>
                            <ellipse id="椭圆形备份-5" cx="8.98026316" cy="7.35085227" rx="1.08552632" ry="1.078125"></ellipse>
                            <polyline id="路径-13" points="5.03842413 1.8884466 5.03842413 5.395255 2.02685345 6.79069153"></polyline>
                            <line x1="8.02689474" y1="5.3714153" x2="5.03288739" y2="6.78273575" id="路径-13备份" transform="translate(6.5299, 6.0771) scale(-1, 1) translate(-6.5299, -6.0771)"></line>
                            <path d="M2.01370056,2.50143858 L3.97014238,1.50207204 M6.10248059,1.50143858 L7.97633353,2.46130339" id="形状"></path>
                            <line x1="1.08552632" y1="3.4848615" x2="1.08552632" y2="6.55098582" id="路径-14"></line>
                            <line x1="8.98026316" y1="3.4848615" x2="8.98026316" y2="6.55098582" id="路径-14备份"></line>
                        </g>
                    </g>
                    <g id="编组" transform="translate(196, 96)" fill-rule="nonzero">
                        <polygon id="路径" fill="#FFFFFF" points="2 1 17 1 17 16 2 16"></polygon>
                        <path d="M15.975,0 L2.025,0 C0.9,0 0,0.9 0,2.025 L0,15.975 C0,17.1 0.9,18 2.025,18 L15.975,18 C17.1,18 18,17.1 18,15.975 L18,2.025 C18,0.9 17.1,0 15.975,0 Z M14.0875,15.05 L11.6125,15.05 L8.8625,10.375 L6.1125,15.05 L3.6375,15.05 L7.4875,9 L3.6375,2.95 L6.1125,2.95 L8.8625,7.625 L11.6125,2.95 L14.0875,2.95 L10.2375,9 L14.0875,15.05 Z" id="形状" fill="#34A851"></path>
                    </g>
                </g>
                <g id="编组-20" transform="translate(571, 214)">
                    <circle id="椭圆形" fill="#FFCD00" cx="39" cy="39" r="39"></circle>
                    <g id="编组" transform="translate(22.8913, 24.587)" stroke="#000000" stroke-linecap="round" stroke-linejoin="round" stroke-width="4.55148741">
                        <path d="M0,22.3826087 C0,22.3826087 6.19972826,30.5217391 16.5326087,30.5217391 C26.8654891,30.5217391 33.0652174,22.3826087 33.0652174,22.3826087" id="路径"></path>
                        <line x1="4.13315217" y1="2.03478261" x2="4.1744837" y2="2.03478261" id="路径"></line>
                        <line x1="28.9320652" y1="2.03478261" x2="28.9733967" y2="2.03478261" id="路径"></line>
                    </g>
                </g>
                <g id="编组-23" transform="translate(82, 372)">
                    <rect id="矩形" fill="#56BCFE" x="0" y="0" width="56" height="42" rx="4.33613445"></rect>
                    <g id="编组" transform="translate(10.7059, 6.5882)" stroke="#000000" stroke-linecap="round" stroke-linejoin="round" stroke-width="1.44537815">
                        <path d="M31.1294118,28.8235294 C33.0396673,28.8235294 34.5882353,27.3053254 34.5882353,25.432526 L34.5882353,8.47750865 C34.5882353,6.60470915 33.0396673,5.08650519 31.1294118,5.08650519 L17.4670588,5.08650519 C16.291634,5.09780329 15.1908112,4.52306112 14.5443529,3.56055363 L13.1435294,1.52595156 C12.5037811,0.573553763 11.4185905,0 10.2554118,0 L3.45882353,0 C1.54856804,0 0,1.51820396 0,3.39100346 L0,25.432526 C0,27.3053254 1.54856804,28.8235294 3.45882353,28.8235294 L31.1294118,28.8235294 Z" id="路径"></path>
                        <line x1="17.2941176" y1="11.8685121" x2="17.2941176" y2="22.0415225" id="路径"></line>
                        <polyline id="路径" points="12.1058824 16.9550173 17.2941176 11.8685121 22.4823529 16.9550173"></polyline>
                    </g>
                </g>
                <g id="编组-25" transform="translate(468, 315)">
                    <circle id="椭圆形" fill="#FF657D" cx="16" cy="16" r="16"></circle>
                    <g id="编组" transform="translate(10, 9)" stroke="#FFFFFF" stroke-linecap="round" stroke-linejoin="round" stroke-width="1.23076923">
                        <path d="M0.424242424,10.4 C0.424242424,10.4 1.27272727,9.6 3.81818182,9.6 C6.36363636,9.6 8.06060606,11.2 10.6060606,11.2 C13.1515152,11.2 14,10.4 14,10.4 L14,0.8 C14,0.8 13.1515152,1.6 10.6060606,1.6 C8.06060606,1.6 6.36363636,0 3.81818182,0 C1.27272727,0 0.424242424,0.8 0.424242424,0.8 L0.424242424,10.4 Z" id="路径"></path>
                        <line x1="0.424242424" y1="16" x2="0.424242424" y2="10.4" id="路径"></line>
                    </g>
                </g>
            </g>
        </g>
    </g>
</svg>