<?xml version="1.0" encoding="UTF-8"?>
<svg width="24px" height="22px" viewBox="0 0 24 22" version="1.1" xmlns="http://www.w3.org/2000/svg" xmlns:xlink="http://www.w3.org/1999/xlink">
    <title>编组</title>
    <g id="官网3" stroke="none" stroke-width="1" fill="none" fill-rule="evenodd" stroke-linecap="round" stroke-linejoin="round">
        <g id="coco-AI-zh" transform="translate(-1002, -7584)" stroke="#4AF4F9">
            <g id="编组" transform="translate(1003, 7585)">
                <path d="M16.5,20 L16.5,17.7777778 C15.8924868,17.7777778 15.4,17.2803164 15.4,16.6666667 L15.4,15.5555556 C15.4,14.3282561 16.3849736,13.3333333 17.6,13.3333333 L19.8,13.3333333 C21.0150264,13.3333333 22,14.3282561 22,15.5555556 L22,16.6666667 C22,17.2803164 21.5075132,17.7777778 20.9,17.7777778" id="路径"></path>
                <path d="M18.975,13.3333333 L18.975,3.88888882 C18.975,1.74111482 17.2512963,0 15.125,0 C12.9987037,0 11.275,1.74111482 11.275,3.88888882 L11.275,16.1111111 C11.275,18.2588851 9.55129629,20 7.425,20 C5.29870371,20 3.575,18.2588851 3.575,16.1111111 L3.575,6.66666661" id="路径"></path>
                <polyline id="路径" points="21.175 20 21.175 17.7777778 16.775 17.7777778"></polyline>
                <polyline id="路径" points="1.375 2.22222222 5.775 2.22222222 5.775 0"></polyline>
                <path d="M5.5,2.22222222 C6.10751322,2.22222222 6.6,2.71968361 6.6,3.33333333 L6.6,4.44444444 C6.6,5.67174389 5.61502645,6.66666667 4.4,6.66666667 L2.2,6.66666667 C0.98497355,6.66666667 0,5.67174389 0,4.44444444 L0,3.33333333 C0,2.71968361 0.492486775,2.22222222 1.1,2.22222222 L1.1,0" id="路径"></path>
            </g>
        </g>
    </g>
</svg>