<?xml version="1.0" encoding="UTF-8"?>
<svg width="720px" height="500px" viewBox="0 0 720 500" version="1.1" xmlns="http://www.w3.org/2000/svg" xmlns:xlink="http://www.w3.org/1999/xlink">
    <title>编组 37</title>
    <defs>
        <linearGradient x1="50%" y1="0%" x2="50%" y2="100%" id="linearGradient-1">
            <stop stop-color="#EDF7FF" offset="0%"></stop>
            <stop stop-color="#C4E5FF" offset="100%"></stop>
        </linearGradient>
        <rect id="path-2" x="0" y="0" width="720" height="500" rx="16"></rect>
        <linearGradient x1="15.836133%" y1="49.2387045%" x2="97.1736012%" y2="50.5324616%" id="linearGradient-4">
            <stop stop-color="#5E85FF" stop-opacity="0.200721154" offset="0%"></stop>
            <stop stop-color="#49FFF3" stop-opacity="0.202961101" offset="100%"></stop>
        </linearGradient>
        <linearGradient x1="15.836133%" y1="49.4188859%" x2="97.1736012%" y2="50.40644%" id="linearGradient-5">
            <stop stop-color="#5E85FF" stop-opacity="0.200721154" offset="0%"></stop>
            <stop stop-color="#49FFF3" stop-opacity="0.202961101" offset="100%"></stop>
        </linearGradient>
        <linearGradient x1="15.836133%" y1="34.4529512%" x2="97.1736012%" y2="60.8738417%" id="linearGradient-6">
            <stop stop-color="#5E85FF" stop-opacity="0.200721154" offset="0%"></stop>
            <stop stop-color="#49FFF3" stop-opacity="0.202961101" offset="100%"></stop>
        </linearGradient>
        <linearGradient x1="15.836133%" y1="3.83720833e-13%" x2="97.1736012%" y2="84.9707581%" id="linearGradient-7">
            <stop stop-color="#5E85FF" stop-opacity="0.200721154" offset="0%"></stop>
            <stop stop-color="#49FFF3" stop-opacity="0.202961101" offset="100%"></stop>
        </linearGradient>
        <linearGradient x1="15.9548605%" y1="3.83720833e-13%" x2="97.0096618%" y2="84.9707581%" id="linearGradient-8">
            <stop stop-color="#5E85FF" stop-opacity="0.200721154" offset="0%"></stop>
            <stop stop-color="#49FFF3" stop-opacity="0.202961101" offset="100%"></stop>
        </linearGradient>
    </defs>
    <g id="官网3" stroke="none" stroke-width="1" fill="none" fill-rule="evenodd">
        <g id="coco-AI-zh" transform="translate(-873, -3442)">
            <g id="编组-37" transform="translate(873, 3442)">
                <mask id="mask-3" fill="white">
                    <use xlink:href="#path-2"></use>
                </mask>
                <use id="蒙版" fill="url(#linearGradient-1)" xlink:href="#path-2"></use>
                <rect id="矩形" fill="#C2D8FF" mask="url(#mask-3)" x="605" y="336.043478" width="73.9565217" height="73.9565217" rx="36.9782609"></rect>
                <rect id="矩形备份-12" fill-opacity="0.5" fill="#FFFFFF" mask="url(#mask-3)" x="628.652174" y="56" width="36" height="36" rx="9.33333302"></rect>
                <rect id="矩形备份-52" fill-opacity="0.5" fill="#FFFFFF" mask="url(#mask-3)" x="64.6521739" y="334" width="62" height="62" rx="13"></rect>
                <rect id="矩形备份-51" fill-opacity="0.5" fill="#FFFFFF" mask="url(#mask-3)" x="54.6521739" y="135" width="36" height="36" rx="18"></rect>
                <path d="M156,94.1875682 L221.859693,94.1875682 C226.854663,94.1875682 230.903886,98.2367914 230.903886,103.231761 L230.903886,125.932545 C230.903886,130.927515 234.953109,134.976738 239.948079,134.976738 C239.955823,134.976738 239.963567,134.976728 239.971311,134.976709 L366.593532,134.651455 C371.579416,134.638647 375.614494,130.593191 375.614494,125.607291 L375.614494,96.0845722 C375.614494,91.0896022 379.663717,87.040379 384.658687,87.040379 C384.672117,87.040379 384.685546,87.0404089 384.698976,87.0404688 L459.05814,87.3717175 L459.05814,87.3717175 L537.764645,87.3717175 C541.760621,87.3717175 545,90.611096 545,94.607072 L545,134.294165 L545,134.294165" id="路径-12" stroke="url(#linearGradient-4)" stroke-width="1.80883864" mask="url(#mask-3)"></path>
                <rect id="输入框备份" stroke="url(#linearGradient-5)" stroke-width="2.20385542" fill="#F9F9F9" mask="url(#mask-3)" x="92.1019277" y="187.101928" width="535.796145" height="55.7961446" rx="27.8980723"></rect>
                <rect id="输入框备份-5" stroke="url(#linearGradient-6)" stroke-width="2.20385542" fill="#F9F9F9" mask="url(#mask-3)" x="92.1019277" y="254.101928" width="535.796145" height="297.796145" rx="29.2010841"></rect>
                <rect id="矩形备份-35" fill="#EBEBEB" mask="url(#mask-3)" x="120.5" y="282.533557" width="24.2453828" height="24.2323651" rx="4.20410728"></rect>
                <rect id="矩形备份-36" fill="#EBEBEB" mask="url(#mask-3)" x="120.5" y="330.998287" width="24.2453828" height="24.2323651" rx="4.20410728"></rect>
                <rect id="矩形备份-16" fill="#EBEBEB" mask="url(#mask-3)" x="155.655805" y="286.168412" width="299.430478" height="16.9626556" rx="4.55444956"></rect>
                <rect id="矩形备份-17" fill="#EBEBEB" mask="url(#mask-3)" x="155.655805" y="334.633142" width="356.407127" height="16.9626556" rx="4.55444956"></rect>
                <g id="搜索备份" mask="url(#mask-3)" fill="#B9B9B9" fill-rule="nonzero">
                    <g transform="translate(108, 203)">
                        <rect id="矩形" opacity="0" x="0" y="0" width="26" height="26"></rect>
                        <path d="M18.7357422,18.8931641 C21.0691406,16.6765625 22.0339844,13.3783203 21.2646484,10.2527344 C20.4953125,7.12714844 18.1060547,4.65410156 15.0109375,3.77558594 C11.9158203,2.89707031 8.58457031,3.74765625 6.28671875,6.00234375 C2.803125,9.45546875 2.7421875,15.0642578 6.14960938,18.5910156 C9.55449219,22.1203125 15.1632813,22.2548828 18.7357422,18.8931641 Z M20.0154297,20.2287109 C15.721875,24.375 8.8765625,24.2556641 4.73027344,19.9621094 C0.583984375,15.6660156 0.703320313,8.82324219 4.99941406,4.67441406 C9.29296875,0.528125 16.1357422,0.647460938 20.2845703,4.94355469 C24.4308594,9.23710938 24.3115234,16.0798828 20.0154297,20.2287109 Z" id="形状"></path>
                        <path d="M22.8109375,24.0855469 L19.4949219,20.6527344 C19.1445313,20.2896484 19.1546875,19.7107422 19.5177734,19.3603516 C19.8808594,19.0099609 20.4597656,19.0201172 20.8101563,19.3832031 L24.1261719,22.8160156 C24.4765625,23.1791016 24.4664063,23.7580078 24.1033203,24.1083984 C23.7402344,24.4587891 23.1613281,24.4486328 22.8109375,24.0855469 L22.8109375,24.0855469 Z" id="路径"></path>
                    </g>
                </g>
                <g id="编组-35" mask="url(#mask-3)">
                    <g transform="translate(494, 203)">
                        <circle id="椭圆形" fill="#0072FF" cx="34" cy="34" r="34"></circle>
                        <g id="编组" stroke-width="1" fill="none" transform="translate(12.2892, 12.2892)" stroke-linecap="round" stroke-linejoin="round">
                            <line x1="27.2536908" y1="4.38794404" x2="22.6344211" y2="8.77588808" id="路径" stroke="#FFFFFF" stroke-width="2.78899298"></line>
                            <line x1="6.69794095" y1="13.3947765" x2="0" y2="11.5472212" id="路径" stroke="#FFFFFF" stroke-width="2.78899298"></line>
                            <line x1="8.77661228" y1="22.6325535" x2="4.38830614" y2="27.2514419" id="路径" stroke="#FFFFFF" stroke-width="2.78899298"></line>
                            <line x1="11.5481741" y1="0" x2="13.3958819" y2="6.69738827" id="路径" stroke="#FFFFFF" stroke-width="2.78899298"></line>
                            <path d="M15.7909732,17.2977373 C15.6077618,16.8661744 15.704871,16.3666097 16.0364156,16.0350924 C16.3679603,15.7035751 16.8675662,15.606474 17.2991647,15.7896702 L42.7051477,26.1821693 C43.1690649,26.3724696 43.4571516,26.8403797 43.4181695,27.3402582 C43.3791873,27.8401367 43.0220455,28.2577381 42.5342347,28.3738318 L32.4896329,30.7779633 C31.6441122,30.9799069 30.9836066,31.6394655 30.7805031,32.4846426 L28.3784829,42.530725 C28.2636173,43.0202188 27.8451946,43.3791306 27.3438833,43.4181768 C26.842572,43.4572231 26.3736143,43.1674279 26.1843299,42.7016238 L15.7909732,17.2977373 Z" id="路径" stroke="#FFFFFF" stroke-width="2.78899298"></path>
                        </g>
                    </g>
                </g>
                <rect id="矩形" stroke="url(#linearGradient-7)" stroke-width="1.80883864" fill="#F9F9F9" mask="url(#mask-3)" x="127.904419" y="61.9044193" width="59.1911614" height="59.1911614" rx="18.9928055"></rect>
                <rect id="矩形备份-64" stroke="url(#linearGradient-7)" stroke-width="1.80883864" fill="#F9F9F9" mask="url(#mask-3)" x="282.904419" y="105.904419" width="51.1911614" height="51.1911614" rx="18.9928058"></rect>
                <rect id="矩形备份-66" stroke="url(#linearGradient-7)" stroke-width="1.80883864" fill="#F9F9F9" mask="url(#mask-3)" x="518.904419" y="106.904419" width="51.1911614" height="51.1911614" rx="25.5955807"></rect>
                <rect id="矩形备份-65" stroke="url(#linearGradient-7)" stroke-width="1.80883864" fill="#F9F9F9" mask="url(#mask-3)" x="415.904419" y="53.9044193" width="68.1911614" height="68.1911614" rx="18.9928058"></rect>
                <g id="编组" mask="url(#mask-3)">
                    <g transform="translate(136, 72)">
                        <path d="M26.25,0 L15.75,0 L10.5,6.375 L4.2,6.375 C1.88040405,6.375 0,8.27778981 0,10.625 L0,29.75 C0,32.0972102 1.88040405,34 4.2,34 L37.8,34 C40.1195959,34 42,32.0972102 42,29.75 L42,10.625 C42,8.27778981 40.1195959,6.375 37.8,6.375 L31.5,6.375 L26.25,0 Z" id="路径" stroke="#000000" stroke-width="1.80883864" fill="#000000" stroke-linecap="round" stroke-linejoin="round"></path>
                        <circle id="椭圆形" stroke="none" fill="#FFFFFF" cx="20.5" cy="19.5" r="6.5"></circle>
                    </g>
                </g>
                <text id="Capture备份" opacity="0.300385975" mask="url(#mask-3)" font-family="Poppins-Regular, Poppins" font-size="25.0653958" font-weight="normal" line-spacing="25.0653958" fill="#333333">
                    <tspan x="152" y="226">Capture</tspan>
                </text>
                <g id="编组-36" mask="url(#mask-3)">
                    <g transform="translate(278, 396)">
                        <rect id="矩形" stroke="url(#linearGradient-8)" stroke-width="1.2987013" fill="#292929" x="0.649350649" y="0.649350649" width="48.6143422" height="48.7012987" rx="5.84415584"></rect>
                        <rect id="矩形备份-62" stroke="url(#linearGradient-8)" stroke-width="1.2987013" fill="#292929" x="57.6928289" y="0.649350649" width="48.6143422" height="48.7012987" rx="5.84415584"></rect>
                        <rect id="矩形备份-63" stroke="url(#linearGradient-8)" stroke-width="1.2987013" fill="#292929" x="114.736307" y="0.649350649" width="48.6143422" height="48.7012987" rx="5.84415584"></rect>
                        <g id="command" stroke="none" stroke-width="1" fill="none" transform="translate(74.5455, 15.5844)">
                            <rect id="矩形" fill="#FFFFFF" fill-rule="nonzero" opacity="0" x="0" y="0" width="16.2055336" height="16.2337662"></rect>
                            <path d="M10.3296825,11.0957951 L5.87585111,11.0957951 C5.45248155,11.0957951 5.12905138,10.7711039 5.12905138,10.3476626 L5.12905138,5.88610364 C5.12905138,5.4619965 5.45316206,5.13800287 5.87586694,5.13800287 L10.3296825,5.13800287 C10.753052,5.13800287 11.0764822,5.46267819 11.0764822,5.8861195 L11.0764822,10.3476943 C11.0764822,10.7718014 10.7523715,11.0957951 10.3296667,11.0957951 L10.3296825,11.0957951 Z M6.62266667,9.60024351 L9.58354743,9.60024351 L9.58354743,6.63352273 L6.62198617,6.63352273 L6.62198617,9.60024351 L6.62266667,9.60024351 Z" id="形状" fill="#FFFFFF" fill-rule="nonzero"></path>
                            <path d="M12.569417,6.63352273 L10.3296825,6.63352273 C9.9069776,6.63352273 9.58354743,6.30952909 9.58354743,5.88608779 L9.58354743,3.6424513 C9.58837116,1.99253384 10.922369,0.656211999 12.569417,0.65137987 C14.216465,0.656211999 15.5504628,1.99253384 15.5552866,3.6424513 C15.5302978,5.28746766 14.1865995,6.63352273 12.569417,6.63352273 Z M11.0764822,5.1386687 L12.5687365,5.1386687 C13.3927136,5.13643886 14.0601258,4.46786396 14.0623518,3.6424513 C14.059381,2.8178362 13.3925992,2.1501973 12.569417,2.14759728 C11.7462347,2.1501973 11.079453,2.8178362 11.0764822,3.6424513 L11.0764822,5.13798701 L11.0764822,5.1386687 Z M5.87585111,6.63352273 L3.6361166,6.63352273 C1.98906856,6.6286906 0.65507076,5.29236876 0.650247036,3.6424513 C0.675235842,2.02245143 2.01893412,0.676412211 3.66177009,0.676412211 C5.30855854,0.681609737 6.64215312,2.0178251 6.64697497,3.66748364 L6.64697497,5.91180182 C6.62289786,6.31984583 6.28388366,6.63744038 5.87585111,6.63422893 L5.87585111,6.63352273 Z M3.66112123,2.17193207 C2.83766833,2.17453425 2.17077537,2.84259612 2.16818645,3.66748364 C2.16818645,4.48998389 2.84003559,5.16301935 3.66112123,5.16301935 L5.15405602,5.16301935 L5.15405602,3.66813362 C5.12906721,2.84426999 4.45721807,2.17125038 3.66178591,2.17125038 L3.66112123,2.17193207 Z M12.569417,15.5573699 C10.922369,15.5525377 9.58837116,14.2162159 9.58354743,12.5662984 L9.58354743,10.3219644 C9.58354743,9.89853896 9.9069776,9.57454533 10.3296825,9.57454533 L12.569417,9.57454533 C14.216465,9.57937746 15.5504628,10.9156993 15.5552866,12.5656168 C15.5302978,14.2113148 14.1865995,15.5573699 12.569417,15.5573699 L12.569417,15.5573699 Z M11.0764822,11.0957951 L11.0764822,12.5906491 C11.0764822,13.4138469 11.7483314,14.0868665 12.5687365,14.0868665 C13.392449,14.0846385 14.0597522,13.4164772 14.0623518,12.5913308 C14.0597542,11.7664495 13.3928637,11.0983972 12.569417,11.0957951 L11.0764822,11.0957951 L11.0764822,11.0957951 Z M3.66110541,15.5573857 C2.01403891,15.5525535 0.680033508,14.2162028 0.675235842,12.5662667 C0.680076939,10.9163617 2.01406968,9.58005906 3.66110541,9.57522702 L5.90152043,9.57522702 C6.32420949,9.57522702 6.64763965,9.89923651 6.64763965,10.322662 L6.64763965,12.5662984 C6.62198617,14.2113307 5.27827206,15.5573857 3.66110541,15.5573857 L3.66110541,15.5573857 Z M3.66110541,11.0957951 C2.83802831,11.0983885 2.17143295,11.7661381 2.1688353,12.5906491 C2.1688353,13.4138469 2.84001976,14.0868665 3.66110541,14.0868665 C4.48455216,14.0842644 5.15144259,13.4162121 5.15404019,12.5913308 L5.15404019,11.0957951 L3.66175426,11.0957951 L3.66110541,11.0957951 Z" id="形状" fill="#FFFFFF" fill-rule="nonzero"></path>
                        </g>
                        <g id="shift" stroke="none" stroke-width="1" fill="none" transform="translate(18.1502, 15.5844)">
                            <rect id="矩形" fill="#FFFFFF" fill-rule="nonzero" opacity="0" x="0" y="0" width="16.2055336" height="16.2337662"></rect>
                            <path d="M6.01051214,14.4219574 L10.1950215,14.4219574 C11.1447702,14.4219574 11.6535195,13.8647937 11.6535195,12.9678939 L11.6535195,9.92406275 L14.4139517,9.92406275 C14.963199,9.92406275 15.3972826,9.5842951 15.3972826,9.06800109 C15.3972826,8.74884271 15.2410195,8.51083731 14.9904034,8.26645888 L8.94054857,2.22635641 C8.68270018,1.96138456 8.40459486,1.81179294 8.10623263,1.81179294 C7.80093874,1.81179294 7.52978091,1.96138456 7.26500085,2.22635641 L1.21541502,8.26645888 C0.957867311,8.52447113 0.808535851,8.74884271 0.808535851,9.06800109 C0.808535851,9.58459631 1.24261943,9.9240469 1.79881423,9.9240469 L4.5523148,9.9240469 L4.5523148,12.9678781 C4.5523148,13.8647937 5.06104828,14.4219574 6.01081282,14.4219574 L6.01051214,14.4219574 Z M6.11902907,13.3688077 C5.8611965,13.3688077 5.68496132,13.1919643 5.68496132,12.9409116 L5.68496132,9.12919478 C5.68496132,8.95931095 5.62390571,8.89814897 5.46097996,8.89814897 L2.33445143,8.89814897 C2.28672107,8.89814897 2.25980152,8.87785676 2.25980152,8.84393073 C2.25980152,8.81669478 2.26644832,8.79640257 2.30031536,8.76247654 L7.96357962,3.12325614 C7.99776165,3.07930377 8.05062365,3.0540604 8.10623263,3.05510162 C8.15370978,3.05510162 8.19450848,3.06876839 8.2486166,3.12325614 L13.911865,8.76246068 C13.9390853,8.79638672 13.9526796,8.81667893 13.9526796,8.84362952 C13.9526796,8.87784091 13.9254593,8.89813312 13.8780138,8.89813312 L10.7448385,8.89813312 C10.5819286,8.89813312 10.5211578,8.9592951 10.5211578,9.12917893 L10.5211578,12.9409275 C10.5211578,13.1852901 10.3379752,13.3688077 10.0870742,13.3688077 L6.11902907,13.3688077 Z" id="形状" fill="#FFFFFF" fill-rule="nonzero"></path>
                        </g>
                        <g id="29空格" stroke="none" stroke-width="1" fill="none" transform="translate(131.5889, 15.5844)">
                            <rect id="矩形" fill="#FFFFFF" fill-rule="nonzero" opacity="0" x="0" y="0" width="16.2055336" height="16.2337662"></rect>
                            <path d="M1.69279776,10.1461039 C1.50475659,10.1461039 1.35181687,9.99391234 1.35181687,9.80552772 L1.35045586,5.41125013 C1.34865664,5.03896053 1.04687442,4.73811256 0.675227929,4.73811256 C0.303581441,4.73811256 0.00179921352,5.03896053 0,5.41125013 L0,10.1494806 C0,10.8935388 0.607027004,11.498914 1.35214921,11.498914 L14.8533844,11.498914 C15.5986426,11.5000345 16.2038572,10.8960362 16.2055336,10.1494806 L16.2055336,5.41125013 C16.2037344,5.03896053 15.9019522,4.73811256 15.5303057,4.73811256 C15.1586592,4.73811256 14.856877,5.03896053 14.8550777,5.41125013 L14.8550777,9.80722403 C14.8550777,9.99525987 14.7031509,10.1478002 14.5144134,10.1478002 L1.69279776,10.1461039 Z" id="路径" fill="#FFFFFF" fill-rule="nonzero"></path>
                        </g>
                    </g>
                </g>
                <g id="编组" mask="url(#mask-3)" stroke="#0072FF" stroke-linecap="round" stroke-linejoin="round" stroke-width="1.80883864">
                    <g transform="translate(298, 120)" id="路径">
                        <polyline points="5.52 0 0 5.35714286 5.52 10.7142857"></polyline>
                        <line x1="0" y1="5.35714286" x2="23" y2="5.35714286"></line>
                        <polyline points="16.56 25 22.08 19.6428571 16.56 14.2857143"></polyline>
                        <line x1="23" y1="19.6428571" x2="0" y2="19.6428571"></line>
                    </g>
                </g>
                <g id="编组" mask="url(#mask-3)" stroke="#000000" stroke-linecap="round" stroke-linejoin="round" stroke-width="1.62795478">
                    <g transform="translate(529, 116)" id="路径">
                        <polyline points="16.5 6.6 16.5 0 9.9 0"></polyline>
                        <path d="M9.9,26.4 L3.3,33 L3.3,9.9 C3.3,8.07746033 4.77746033,6.6 6.6,6.6 L26.4,6.6 C28.2225397,6.6 29.7,8.07746033 29.7,9.9 L29.7,23.1 C29.7,24.9225397 28.2225397,26.4 26.4,26.4 L9.9,26.4 Z"></path>
                        <line x1="0" y1="16.5" x2="3.3" y2="16.5"></line>
                        <line x1="11.55" y1="14.85" x2="11.55" y2="18.15"></line>
                        <line x1="21.45" y1="14.85" x2="21.45" y2="18.15"></line>
                        <line x1="29.7" y1="16.5" x2="33" y2="16.5"></line>
                    </g>
                </g>
                <g id="编组" mask="url(#mask-3)" stroke="#8903D5" stroke-linecap="round" stroke-linejoin="round" stroke-width="1.80883864">
                    <g transform="translate(432, 69)" id="路径">
                        <path d="M18.0000235,5.41467152 C18.0057741,3.45526809 16.9493057,1.64655079 15.2396482,0.688835717 C13.5299907,-0.268879352 11.435562,-0.225229955 9.7673026,0.802883327 C8.09904324,1.83099661 7.11887161,3.68215896 7.20629976,5.63961998 C5.06264109,6.19072472 3.29166461,7.69710651 2.40401855,9.72441108 C1.5163725,11.7517157 1.61072815,14.0745866 2.65987875,16.0232409 C0.811480849,17.524671 -0.174723237,19.8428843 0.0255532309,22.2155985 C0.225829699,24.5883127 1.58666887,26.708474 3.66059533,27.8789245 C3.31684755,30.5381159 4.4797989,33.1679478 6.67839482,34.7032042 C8.87699074,36.2384605 11.7468002,36.424663 14.1254041,35.1863902 C16.504008,33.9481173 17.9971379,31.4906205 18.0000235,28.8093113 L18.0000235,5.41467152 Z"></path>
                        <path d="M17.9999765,5.41467152 C17.9942259,3.45526809 19.0506943,1.64655079 20.7603518,0.688835717 C22.4700093,-0.268879352 24.564438,-0.225229955 26.2326974,0.802883327 C27.9009568,1.83099661 28.8811284,3.68215896 28.7937002,5.63961998 C30.9373589,6.19072472 32.7083354,7.69710651 33.5959814,9.72441108 C34.4836275,11.7517157 34.3892718,14.0745866 33.3401212,16.0232409 C35.1885192,17.524671 36.1747232,19.8428843 35.9744468,22.2155985 C35.7741703,24.5883127 34.4133311,26.708474 32.3394047,27.8789245 C32.6831524,30.5381159 31.5202011,33.1679478 29.3216052,34.7032042 C27.1230093,36.2384605 24.2531998,36.424663 21.8745959,35.1863902 C19.495992,33.9481173 18.0028621,31.4906205 17.9999765,28.8093113 L17.9999765,5.41467152 Z"></path>
                        <path d="M23.3995499,19.8113729 C20.3094137,18.7244674 18.1783433,15.8834542 18,12.6130222 C17.8216567,15.8834542 15.6905863,18.7244674 12.6004501,19.8113729"></path>
                        <path d="M28.07736,8.11405304 C28.5129619,7.35927937 28.7593583,6.51029283 28.7955001,5.63961998"></path>
                        <path d="M7.20629976,5.63961998 C7.2418918,6.51014086 7.48766783,7.35911772 7.92264005,8.11405304"></path>
                        <path d="M2.65987875,16.0250405 C2.98914241,15.7569117 3.34148686,15.5184363 3.71279098,15.3124037"></path>
                        <path d="M32.287209,15.3124037 C32.6585131,15.5184363 33.0108576,15.7569117 33.3401212,16.0250405"></path>
                        <path d="M7.20090021,28.8093113 C5.96049753,28.8098902 4.74098605,28.4900243 3.66059533,27.880724"></path>
                        <path d="M32.3394047,27.880724 C31.2590139,28.4900243 30.0395025,28.8098902 28.7990998,28.8093113"></path>
                    </g>
                </g>
            </g>
        </g>
    </g>
</svg>