<?xml version="1.0" encoding="UTF-8"?>
<svg width="26px" height="26px" viewBox="0 0 26 26" version="1.1" xmlns="http://www.w3.org/2000/svg" xmlns:xlink="http://www.w3.org/1999/xlink">
    <title>编组</title>
    <g id="官网3" stroke="none" stroke-width="1" fill="none" fill-rule="evenodd" stroke-linecap="round" stroke-linejoin="round">
        <g id="coco-AI-zh" transform="translate(-1001, -7679)" stroke="#008EFF">
            <g id="编组" transform="translate(1002, 7680)">
                <path d="M0,5.33333333 L0,2.66666667 C0,1.19390733 1.19390733,0 2.66666667,0 L5.33333333,0" id="路径"></path>
                <path d="M18.6666667,0 L21.3333333,0 C22.8060927,0 24,1.19390733 24,2.66666667 L24,5.33333333" id="路径"></path>
                <path d="M24,18.6666667 L24,21.3333333 C24,22.8060927 22.8060927,24 21.3333333,24 L18.6666667,24" id="路径"></path>
                <path d="M5.33333333,24 L2.66666667,24 C1.19390733,24 0,22.8060927 0,21.3333333 L0,18.6666667" id="路径"></path>
                <circle id="椭圆形" cx="12" cy="12" r="4"></circle>
                <line x1="17.3333333" y1="17.3333333" x2="14.8" y2="14.8" id="路径"></line>
            </g>
        </g>
    </g>
</svg>