<?xml version="1.0" encoding="UTF-8"?>
<svg width="40px" height="40px" viewBox="0 0 40 40" version="1.1" xmlns="http://www.w3.org/2000/svg" xmlns:xlink="http://www.w3.org/1999/xlink">
    <title>编组 3</title>
    <g id="Roadmap" stroke="none" stroke-width="1" fill="none" fill-rule="evenodd">
        <g id="roadmap" transform="translate(-420, -1314)">
            <g id="编组-3" transform="translate(420, 1314)">
                <rect id="矩形备份" fill="#D700FF" x="0" y="0" width="40" height="40" rx="11.4285714"></rect>
                <g id="编组" transform="translate(10, 12)" stroke="#FFFFFF" stroke-linecap="round" stroke-linejoin="round" stroke-width="2">
                    <polyline id="路径" points="10.0069483 6 16.0069483 3 10.0069483 0 10.0069483 10"></polyline>
                    <path d="M6.00694828,9.99 L0.506948279,13.13 C0.193637826,13.3075612 0,13.639873 0,14 C0,14.360127 0.193637826,14.6924388 0.506948279,14.87 L9.00694828,19.73 C9.62575043,20.0872656 10.3881461,20.0872656 11.0069483,19.73 L19.5069483,14.87 C19.8202587,14.6924388 20.0138966,14.360127 20.0138966,14 C20.0138966,13.639873 19.8202587,13.3075612 19.5069483,13.13 L14.0069483,10" id="路径"></path>
                    <line x1="4.49694828" y1="10.85" x2="15.5169483" y2="17.15" id="路径"></line>
                    <line x1="15.5169483" y1="10.85" x2="4.50694828" y2="17.15" id="路径"></line>
                </g>
            </g>
        </g>
    </g>
</svg>