<?xml version="1.0" encoding="UTF-8"?>
<svg width="40px" height="40px" viewBox="0 0 40 40" version="1.1" xmlns="http://www.w3.org/2000/svg" xmlns:xlink="http://www.w3.org/1999/xlink">
    <title>编组 2</title>
    <g id="Roadmap" stroke="none" stroke-width="1" fill="none" fill-rule="evenodd">
        <g id="roadmap" transform="translate(-420, -556)">
            <g id="编组-2" transform="translate(420, 556)">
                <rect id="矩形" fill="#0053FF" x="0" y="0" width="40" height="40" rx="11.4285714"></rect>
                <g id="编组" transform="translate(13, 10)" stroke="#FFFFFF" stroke-linecap="round" stroke-linejoin="round" stroke-width="2">
                    <line x1="0" y1="20.5" x2="14" y2="20.5" id="路径"></line>
                    <line x1="0" y1="0.5" x2="14" y2="0.5" id="路径"></line>
                    <path d="M12,20.5 L12,16.328 C11.9998867,15.7976104 11.7890987,15.2889855 11.414,14.914 L7,10.5 L2.586,14.914 C2.21090125,15.2889855 2.00011327,15.7976104 2,16.328 L2,20.5" id="路径"></path>
                    <path d="M2,0.5 L2,4.672 C2.00011327,5.20238963 2.21090125,5.71101454 2.586,6.086 L7,10.5 L11.414,6.086 C11.7890987,5.71101454 11.9998867,5.20238963 12,4.672 L12,0.5" id="路径"></path>
                </g>
            </g>
        </g>
    </g>
</svg>