<?xml version="1.0" encoding="UTF-8"?>
<svg width="32px" height="23px" viewBox="0 0 32 23" version="1.1" xmlns="http://www.w3.org/2000/svg" xmlns:xlink="http://www.w3.org/1999/xlink">
    <title>Docker活动监听</title>
    <g id="官网3" stroke="none" stroke-width="1" fill="none" fill-rule="evenodd">
        <g id="下载server" transform="translate(-352, -584)" fill-rule="nonzero">
            <g id="Docker活动监听" transform="translate(352, 584)">
                <rect id="矩形" fill="#000000" opacity="0" x="0" y="0" width="32" height="22.2608696"></rect>
                <path d="M25.3733043,5.58408696 C26.5440652,6.17504348 27.3630435,7.23873913 27.8288478,8.77519565 C28.0693913,9.3286087 29.4278913,7.98402174 31.9877174,9.40647826 C31.4551739,11.0931087 29.8283261,11.9899565 27.1099783,12.0942391 C24.2845652,18.3652174 19.0592174,21.7384783 11.4353043,22.2140217 C4.0311087,22.6283696 0.22123913,19.2342391 0.00695510765,12.0275 C0.00448013085,11.9426681 0.0356805648,11.8602704 0.093837967,11.7984555 C0.151995369,11.7366406 0.232339391,11.7004787 0.317173913,11.6979348 L20.9516304,11.6979348 C23.0317609,11.5922826 24.3109783,11.3030652 24.7893043,10.828913 C23.7422826,8.80578261 23.8159783,7.13028261 25.0103913,5.7996087 L25.1883696,5.6118913 C25.2372791,5.56331816 25.3118099,5.55155199 25.3733043,5.58269565 L25.3733043,5.58408696 Z M3.85730435,13.9129565 L3.65984783,13.9129565 C2.78670965,13.9129565 2.0788913,14.6207749 2.0788913,15.493913 C2.0788913,16.3670512 2.78670965,17.0748696 3.65984783,17.0748696 L3.85730435,17.0748696 C4.73044252,17.0748696 5.43826087,16.3670512 5.43826087,15.493913 C5.43826087,14.6207749 4.73044252,13.9129565 3.85730435,13.9129565 L3.85730435,13.9129565 Z" id="形状" fill="#1890FF"></path>
                <path d="M2.0788913,7.58913043 L4.79863043,7.58913043 C5.01183333,7.58913043 5.11843478,7.69573188 5.11843478,7.90893478 L5.11843478,10.4312391 C5.11843478,10.644442 5.01184058,10.7510435 4.79865217,10.7510435 L2.07886957,10.7510435 C1.86568116,10.7510435 1.75908696,10.6444493 1.75908696,10.4312609 L1.75908696,7.90891304 C1.75908696,7.69572464 1.86568116,7.58913043 2.07886957,7.58913043 L2.0788913,7.58913043 Z M6.07786957,7.58913043 L8.7976087,7.58913043 C9.01081159,7.58913043 9.11741304,7.69573188 9.11741304,7.90893478 L9.11741304,10.4312391 C9.11741304,10.644442 9.01081159,10.7510435 8.7976087,10.7510435 L6.07786957,10.7510435 C5.86466667,10.7510435 5.75806522,10.6444493 5.75806522,10.4312609 L5.75806522,7.90891304 C5.75806522,7.69572464 5.86465942,7.58913043 6.07784783,7.58913043 L6.07786957,7.58913043 Z M6.07786957,3.79456522 L8.7976087,3.79456522 C9.01081159,3.79456522 9.11741304,3.90116667 9.11741304,4.11436957 L9.11741304,6.63667391 C9.11741304,6.84987681 9.01081159,6.95647826 8.7976087,6.95647826 L6.07786957,6.95647826 C5.86466667,6.95647826 5.75806522,6.84987681 5.75806522,6.63667391 L5.75806522,4.11434783 C5.75806522,3.90115942 5.86465942,3.79456522 6.07784783,3.79456522 L6.07786957,3.79456522 Z M10.0768261,7.58913043 L12.7965652,7.58913043 C13.0097681,7.58913043 13.1163696,7.69573188 13.1163696,7.90893478 L13.1163696,10.4312391 C13.1163696,10.644442 13.0097754,10.7510435 12.796587,10.7510435 L10.0768043,10.7510435 C9.86361594,10.7510435 9.75702174,10.6444493 9.75702174,10.4312609 L9.75702174,7.90891304 C9.75702174,7.69572464 9.86361594,7.58913043 10.0768043,7.58913043 L10.0768261,7.58913043 Z M10.0768261,3.79456522 L12.7965652,3.79456522 C13.0097681,3.79456522 13.1163696,3.90116667 13.1163696,4.11436957 L13.1163696,6.63667391 C13.1163696,6.84987681 13.0097754,6.95647826 12.796587,6.95647826 L10.0768043,6.95647826 C9.86361594,6.95647826 9.75702174,6.84987681 9.75702174,6.63667391 L9.75702174,4.11434783 C9.75702174,3.90115942 9.86361594,3.79456522 10.0768043,3.79456522 L10.0768261,3.79456522 Z M14.0743913,7.58913043 L16.7941522,7.58913043 C17.0073551,7.58913043 17.1139565,7.69573188 17.1139565,7.90893478 L17.1139565,10.4312391 C17.1139565,10.644442 17.0073551,10.7510435 16.7941522,10.7510435 L14.074413,10.7510435 C13.8612101,10.7510435 13.7546087,10.6444493 13.7546087,10.4312609 L13.7546087,7.90891304 C13.7546087,7.69572464 13.8612029,7.58913043 14.0743913,7.58913043 Z M14.0743913,3.79456522 L16.7941522,3.79456522 C17.0073551,3.79456522 17.1139565,3.90116667 17.1139565,4.11436957 L17.1139565,6.63667391 C17.1139565,6.84987681 17.0073551,6.95647826 16.7941522,6.95647826 L14.074413,6.95647826 C13.8612101,6.95647826 13.7546087,6.84987681 13.7546087,6.63667391 L13.7546087,4.11434783 C13.7546087,3.90115942 13.8612029,3.79456522 14.0743913,3.79456522 Z M14.0743913,0 L16.7941522,0 C17.0073551,0 17.1139565,0.106601449 17.1139565,0.319804348 L17.1139565,2.8421087 C17.1139565,3.0552971 17.0073551,3.1618913 16.7941522,3.1618913 L14.074413,3.1618913 C13.8612101,3.1618913 13.7546087,3.0552971 13.7546087,2.8421087 L13.7546087,0.319782609 C13.7546087,0.106594203 13.8612029,0 14.0743913,0 Z M18.0733696,7.58913043 L20.7931087,7.58913043 C21.0063116,7.58913043 21.112913,7.69573188 21.112913,7.90893478 L21.112913,10.4312391 C21.112913,10.644442 21.0063188,10.7510435 20.7931304,10.7510435 L18.0733478,10.7510435 C17.8601594,10.7510435 17.7535652,10.6444493 17.7535652,10.4312609 L17.7535652,7.90891304 C17.7535652,7.69572464 17.8601594,7.58913043 18.0733478,7.58913043 L18.0733696,7.58913043 Z" id="形状" fill="#1890FF"></path>
            </g>
        </g>
    </g>
</svg>