<?xml version="1.0" encoding="UTF-8"?>
<svg width="16px" height="16px" viewBox="0 0 16 16" version="1.1" xmlns="http://www.w3.org/2000/svg" xmlns:xlink="http://www.w3.org/1999/xlink">
    <title>下载备份 3</title>
    <g id="COCO" stroke="none" stroke-width="1" fill="none" fill-rule="evenodd">
        <g id="Coco--new2" transform="translate(-792, -5244)" fill="#FFFFFF" fill-rule="nonzero">
            <g id="下载备份-3" transform="translate(792, 5244)">
                <rect id="矩形" opacity="0" x="0" y="0" width="16" height="16"></rect>
                <path d="M14.1796875,13.171875 L1.8203125,13.171875 C1.51875,13.171875 1.2734375,13.4171875 1.2734375,13.71875 C1.2734375,14.0203125 1.51875,14.265625 1.8203125,14.265625 L14.18125,14.265625 C14.4828125,14.265625 14.728125,14.0203125 14.728125,13.71875 C14.728125,13.4171875 14.4828125,13.171875 14.1796875,13.171875 Z M3.9,8.6921875 L7.6453125,11.784375 C7.6484375,11.7875 7.653125,11.790625 7.65625,11.7921875 C7.6578125,11.79375 7.659375,11.7953125 7.6625,11.796875 C7.671875,11.803125 7.68125,11.8109375 7.690625,11.8171875 C7.6921875,11.81875 7.69375,11.81875 7.6953125,11.8203125 C7.7421875,11.8515625 7.79375,11.875 7.846875,11.8890625 C7.875,11.896875 7.903125,11.903125 7.9328125,11.90625 L7.9390625,11.90625 C7.946875,11.90625 7.9546875,11.9078125 7.9609375,11.9078125 L8.03125,11.9078125 C8.0375,11.9078125 8.04375,11.90625 8.05,11.90625 C8.053125,11.90625 8.05625,11.90625 8.059375,11.9046875 C8.065625,11.9046875 8.071875,11.903125 8.078125,11.9015625 C8.08125,11.9015625 8.084375,11.9 8.0875,11.9 C8.0953125,11.8984375 8.1046875,11.896875 8.1125,11.8953125 C8.115625,11.8953125 8.1171875,11.89375 8.1203125,11.89375 C8.1265625,11.8921875 8.1328125,11.890625 8.1375,11.8890625 C8.1421875,11.8875 8.1453125,11.8875 8.15,11.8859375 L8.1640625,11.88125 C8.16875,11.8796875 8.1734375,11.878125 8.1765625,11.8765625 C8.1796875,11.875 8.184375,11.8734375 8.1875,11.871875 C8.2046875,11.865625 8.221875,11.8578125 8.2390625,11.85 C8.240625,11.8484375 8.24375,11.8484375 8.2453125,11.846875 C8.25,11.84375 8.25625,11.840625 8.2609375,11.8375 C8.2625,11.8359375 8.265625,11.834375 8.2671875,11.834375 C8.2734375,11.83125 8.278125,11.828125 8.2828125,11.825 C8.284375,11.825 8.2859375,11.8234375 8.2859375,11.8234375 C8.303125,11.8125 8.3203125,11.8 8.3359375,11.7875 L8.340625,11.7828125 L12.0984375,8.690625 C12.33125,8.4984375 12.365625,8.1546875 12.1734375,7.9203125 C11.98125,7.6875 11.6375,7.653125 11.403125,7.8453125 L8.540625,10.203125 L8.540625,2.28125 C8.540625,1.9796875 8.2953125,1.734375 7.99375,1.734375 C7.6921875,1.734375 7.446875,1.9796875 7.446875,2.28125 L7.446875,10.2015625 L4.5953125,7.8484375 C4.3625,7.65625 4.0171875,7.6890625 3.825,7.921875 C3.634375,8.1546875 3.6671875,8.5 3.9,8.6921875 Z" id="形状"></path>
            </g>
        </g>
    </g>
</svg>