<?xml version="1.0" encoding="UTF-8"?>
<svg width="32px" height="32px" viewBox="0 0 32 32" version="1.1" xmlns="http://www.w3.org/2000/svg" xmlns:xlink="http://www.w3.org/1999/xlink">
    <title>macos备份@2x</title>
    <g id="官网3" stroke="none" stroke-width="1" fill="none" fill-rule="evenodd">
        <g id="coco-AI-eng-下载-ight" transform="translate(-352, -590)" fill-rule="nonzero">
            <g id="macos备份" transform="translate(352, 590)">
                <rect id="矩形" fill="#000000" opacity="0" x="0" y="0" width="32" height="32"></rect>
                <path d="M29.024,23.456 C28.976,23.584 28.352,25.776 26.816,28.016 C25.472,29.968 24.096,31.92 21.92,31.952 C19.776,31.984 19.088,30.672 16.64,30.672 C14.192,30.672 13.424,31.92 11.392,31.984 C9.296,32.064 7.68,29.856 6.336,27.92 C3.6,23.984 1.488,16.704 4.32,11.84 C5.712,9.408 8.224,7.856 10.944,7.808 C12.992,7.776 14.96,9.2 16.208,9.2 C17.488,9.2 19.856,7.472 22.352,7.728 C23.392,7.776 26.32,8.16 28.192,10.896 C28.048,10.992 24.704,12.976 24.736,16.992 C24.768,21.84 28.976,23.44 29.024,23.456 M20.704,5.136 C21.824,3.76 22.576,1.872 22.368,0 C20.768,0.064 18.8,1.072 17.648,2.432 C16.624,3.616 15.712,5.536 15.968,7.392 C17.744,7.488 19.584,6.448 20.704,5.136" id="形状" fill="#040000"></path>
            </g>
        </g>
    </g>
</svg>