<?xml version="1.0" encoding="UTF-8"?>
<svg width="137px" height="32px" viewBox="0 0 137 32" version="1.1" xmlns="http://www.w3.org/2000/svg" xmlns:xlink="http://www.w3.org/1999/xlink">
    <title>install</title>
    <g id="官网3" stroke="none" stroke-width="1" fill="none" fill-rule="evenodd">
        <g id="下载-app" transform="translate(-1244, -883)" fill-rule="nonzero">
            <g id="install" transform="translate(1244, 883)">
                <g id="Group" transform="translate(0, 2.2857)">
                    <path d="M16.1499187,15.3380013 L16.1499187,6.19805401 L22.3390064,9.00900246 L16.1499187,15.3380013 L16.1499187,15.3380013 Z M4.32893255,27.4198418 L11.9152797,12.8675093 L15.2412714,16.2546149 L4.32893255,27.4285714 L4.32893255,27.4198418 Z M0,0.00872965354 L15.6184458,5.77030099 L15.6184458,15.8792398 L0.00857214366,0 L0,0.00872965354 Z" id="Shape" fill="#82BEA0"></path>
                    <polygon id="Path" fill="#FA6441" points="25.5021274 5.77903064 16.5013765 5.77903064 28.0737705 11.0342821"></polygon>
                </g>
                <path d="M41.7233992,4.54406964 L42.7342228,4.54406964 L42.7342228,7.9390642 L42.3800026,8.02611534 C41.7402995,8.16276224 41.0897383,8.24142232 40.4361111,8.26115343 C39.9263796,8.26115343 39.4684851,8.17410229 39.0537883,8.00870511 C38.6502837,7.84709571 38.2873559,7.59736074 37.9911276,7.27747552 C37.6810697,6.93591525 37.4456075,6.53259021 37.2999662,6.09357998 C37.130745,5.57711531 37.0489681,5.03564421 37.0580597,4.49183896 C37.0580597,3.88248096 37.1444549,3.34276387 37.3258848,2.8726877 C37.5159541,2.40261153 37.7578606,2.00217628 38.0688833,1.68879217 C38.3799059,1.36670294 38.7427657,1.12295974 39.166102,0.957562568 C39.5807989,0.783460283 40.0300538,0.705114255 40.5052273,0.705114255 C41.0164892,0.702048783 41.5255768,0.772396607 42.0171428,0.914036997 C42.2523996,0.986035102 42.4785466,1.08536046 42.6910252,1.21001088 L42.3713631,2.05440696 C42.1255589,1.90226136 41.8572431,1.79059382 41.5765274,1.72361262 C41.2395863,1.63656148 40.9026451,1.59303591 40.5570644,1.59303591 C40.1942046,1.59303591 39.8659029,1.66267682 39.5548803,1.79325354 C39.2611367,1.92383025 39.0019512,2.11534276 38.7946028,2.36779108 C38.5786148,2.62023939 38.414464,2.92491839 38.3021503,3.28182807 C38.0709278,4.0585975 38.061944,4.88534507 38.2762317,5.66702938 C38.3712664,6.02393906 38.5267777,6.32861806 38.7254866,6.58106638 C38.932835,6.8422198 39.1833811,7.03373232 39.4857642,7.17301415 C39.7881473,7.31229597 40.1423675,7.38193689 40.5484248,7.38193689 C40.9470567,7.38311235 41.3444037,7.33635452 41.7320388,7.24265506 L41.7320388,4.54406964 L41.7233992,4.54406964 Z M43.9523948,5.41458107 C43.9523948,4.92709467 44.0215109,4.50924918 44.1597432,4.1523395 C44.2979755,3.7867247 44.4794054,3.49075082 44.7040328,3.25571273 C44.9372998,3.02067465 45.1964853,2.83786725 45.4902289,2.72470076 C45.7926121,2.60282916 46.0949952,2.55059848 46.4060178,2.55059848 C47.1317373,2.55059848 47.6846664,2.77693145 48.0734447,3.22959739 C48.462223,3.68226333 48.6522924,4.37867247 48.6522924,5.31882481 L48.6522924,5.65832427 L44.9545788,5.65832427 C44.9977764,6.22415669 45.1619273,6.65070729 45.4383918,6.94668118 C45.7234959,7.23394995 46.1641113,7.38193689 46.7688776,7.38193689 C47.242344,7.38885568 47.7123815,7.30005449 48.1512004,7.12078346 L48.2807931,7.9390642 C47.7661107,8.14223029 47.2179703,8.24560237 46.6652033,8.24376784 C46.1986694,8.24376784 45.7926121,8.16539717 45.4470314,8.02611534 C44.79885,7.76612673 44.3051337,7.22052004 44.1079061,6.54624592 C44.0042319,6.19804135 43.9523948,5.81501632 43.9523948,5.41458107 L43.9523948,5.41458107 Z M47.6501084,4.87486398 C47.6501084,4.43960827 47.5464341,4.07399347 47.3218067,3.79542982 C47.0988358,3.51280428 46.7554086,3.35433977 46.3973783,3.36887922 C46.0035925,3.3577785 45.6269884,3.53143133 45.3779152,3.83895539 C45.258273,3.98074004 45.1646557,4.14286656 45.1014506,4.31773667 C45.040974,4.50054407 44.9977764,4.68335147 44.9718579,4.87486398 L47.6501084,4.87486398 L47.6501084,4.87486398 Z M50.9504041,2.68117519 L52.9893303,2.68117519 L52.9893303,3.49945593 L50.9504041,3.49945593 L50.9504041,6.00652884 C50.9504041,6.26768226 50.9676831,6.50272035 51.0108807,6.67682263 C51.0540783,6.85092492 51.1145549,6.99020675 51.1923106,7.09466812 C51.2787058,7.19912949 51.38238,7.2687704 51.5033332,7.31229597 C51.8763405,7.40811358 52.2685997,7.39604526 52.63511,7.27747552 L53.0066093,7.12948857 L53.1966787,7.9390642 C52.7728268,8.12081224 52.3181228,8.21835522 51.8575535,8.22633297 C51.4946937,8.22633297 51.1923106,8.1828074 50.9504041,8.08705114 C50.7171371,8 50.5184282,7.85201306 50.3801959,7.66050054 C50.2253713,7.45517992 50.1190057,7.21701724 50.0691733,6.9640914 C50.0086967,6.69423286 49.9827781,6.37214363 49.9827781,6.00652884 L49.9827781,1.16648531 L50.9504041,0.992383025 L50.9504041,2.68117519 L50.9504041,2.68117519 Z M57.5682746,8.11316649 L56.6092882,8.11316649 L56.6092882,2.68117519 L57.5682746,2.68117519 L57.5682746,8.11316649 Z M57.0844616,1.69749728 C56.9164966,1.70249357 56.754041,1.63684999 56.6360423,1.51630405 C56.5180436,1.39575811 56.4551416,1.23117927 56.4624164,1.06202394 C56.4551416,0.892868604 56.5180436,0.72828977 56.6360423,0.607743828 C56.754041,0.487197885 56.9164966,0.42155431 57.0844616,0.426550598 C57.2524267,0.42155431 57.4148822,0.487197885 57.532881,0.607743828 C57.6508797,0.72828977 57.7137817,0.892868604 57.7065069,1.06202394 C57.7137817,1.23117927 57.6508797,1.39575811 57.532881,1.51630405 C57.4148822,1.63684999 57.2524267,1.70249357 57.0844616,1.69749728 L57.0844616,1.69749728 Z M60.1342114,2.68117519 L62.1731375,2.68117519 L62.1731375,3.49945593 L60.1342114,3.49945593 L60.1342114,6.00652884 C60.1342114,6.26768226 60.1514904,6.50272035 60.194688,6.67682263 C60.2378856,6.85092492 60.2983622,6.99020675 60.3847574,7.09466812 C60.4711526,7.19912949 60.5661873,7.2687704 60.69578,7.31229597 C61.0687873,7.40811358 61.4610465,7.39604526 61.8275568,7.27747552 L62.1990561,7.12948857 L62.380486,7.9390642 C61.9566341,8.12081224 61.5019301,8.21835522 61.0413607,8.22633297 C60.678501,8.22633297 60.3761179,8.1828074 60.1342114,8.08705114 C59.9009444,8 59.7022355,7.85201306 59.5640032,7.66050054 C59.4091786,7.45517992 59.302813,7.21701724 59.2529806,6.9640914 C59.2011435,6.69423286 59.1665854,6.37214363 59.1665854,6.00652884 L59.1665854,1.16648531 L60.1342114,0.992383025 L60.1342114,2.68117519 L60.1342114,2.68117519 Z M67.9011378,0.00870511425 C68.2937424,0.00473372536 68.68449,0.0634970673 69.0588331,0.182807399 L68.8860428,1.01849837 C68.5953764,0.899444147 68.2839911,0.840246125 67.9702539,0.844396083 C67.520999,0.844396083 67.2099763,0.966267682 67.019907,1.21001088 C66.8471166,1.46245919 66.7607214,1.79325354 66.7607214,2.21109902 L66.7607214,2.68117519 L68.8342057,2.68117519 L68.8342057,3.49945593 L66.7607214,3.49945593 L66.7607214,8.11316649 L65.7930954,8.11316649 L65.7930954,2.19368879 C65.7930954,1.49727965 65.9658858,0.957562568 66.302827,0.574537541 C66.6397682,0.200217628 67.1667788,0.00870511425 67.9011378,0.00870511425 L67.9011378,0.00870511425 Z M71.7889207,2.56800871 C71.991744,2.56475848 72.1943711,2.58225838 72.3936869,2.62023939 C72.550085,2.65090974 72.7056507,2.68574237 72.8602209,2.72470076 L72.6960701,3.56909684 C72.0679027,3.3642031 71.3925162,3.35812708 70.7608181,3.55168662 L70.7608181,8.11316649 L69.7931921,8.11316649 L69.7931921,2.90750816 C70.4337702,2.68888249 71.10406,2.57142525 71.7802812,2.55930359 L71.7889207,2.56800871 Z M78.553663,5.39717084 C78.553663,5.83242655 78.4931864,6.21545158 78.3722332,6.56365615 C78.2426404,6.91186072 78.06985,7.21653972 77.8452226,7.46898803 C77.6205951,7.71273123 77.3527701,7.90424374 77.0417474,8.04352557 C76.7307248,8.1828074 76.3937836,8.25244831 76.0222844,8.25244831 C75.6594246,8.25244831 75.3224834,8.1828074 75.0114608,8.04352557 C74.7056967,7.91255058 74.431621,7.71656843 74.2079856,7.46898803 C73.9777413,7.20452942 73.8015825,6.89686925 73.6896146,6.56365615 C73.5600218,6.21545158 73.4995452,5.83242655 73.4995452,5.39717084 C73.4995452,4.97062024 73.5600218,4.58759521 73.6809751,4.23068553 C73.8105678,3.88248096 73.9833582,3.57780196 74.1993461,3.32535365 C74.6739808,2.82759125 75.3285781,2.54491952 76.0136448,2.54189336 C76.3937836,2.54189336 76.7307248,2.61153428 77.0417474,2.7508161 C77.3527701,2.88139282 77.6205951,3.08161045 77.8452226,3.32535365 C78.06985,3.58650707 78.2426404,3.88248096 78.3635936,4.23068553 C78.4931864,4.5788901 78.553663,4.97062024 78.553663,5.39717084 L78.553663,5.39717084 Z M77.551479,5.39717084 C77.551479,4.78781284 77.4132467,4.30032644 77.1367821,3.94341676 C76.8758598,3.58992888 76.4592288,3.38816723 76.0222844,3.40369967 C75.5557504,3.40369967 75.1842511,3.57780196 74.9077866,3.94341676 C74.6399615,4.29162133 74.5017292,4.78781284 74.5017292,5.39717084 C74.5017292,6.00652884 74.6399615,6.49401523 74.9077866,6.85092492 C75.1842511,7.21653972 75.5557504,7.390642 76.0309239,7.390642 C76.4974578,7.390642 76.8689571,7.21653972 77.1367821,6.85092492 C77.4132467,6.50272035 77.551479,6.00652884 77.551479,5.39717084 L77.551479,5.39717084 Z M79.9100673,2.83786725 C80.604895,2.6454282 81.3235535,2.55454737 82.0440282,2.56800871 C82.3896089,2.56800871 82.6833525,2.61153428 82.9166194,2.70729053 C83.1585259,2.79434168 83.3485953,2.94232862 83.5127462,3.1164309 C83.704075,2.99055606 83.9065217,2.88273603 84.1175124,2.79434168 C84.2730237,2.73340588 84.4458141,2.68117519 84.6358835,2.63764962 C84.8173133,2.58541893 85.0160222,2.56800871 85.2320102,2.56800871 C85.646707,2.56800871 85.9836482,2.6289445 86.2514733,2.74211099 C86.5106588,2.8726877 86.7180072,3.04678999 86.864879,3.26441785 C87.0117508,3.49075082 87.115425,3.75190424 87.1672621,4.05658324 C87.2190992,4.36996736 87.2450178,4.7007617 87.2450178,5.0663765 L87.2450178,8.11316649 L86.2773918,8.11316649 L86.2773918,5.27529924 C86.2773918,4.95321001 86.2601128,4.67464635 86.2341942,4.44831338 C86.1996362,4.2132753 86.1477991,4.02176279 86.0614039,3.87377584 C85.9826293,3.72304826 85.8586746,3.6011987 85.7071837,3.52557127 C85.257257,3.37666432 84.7709529,3.38278928 84.3248608,3.5429815 C84.1175124,3.63873776 83.9706406,3.71708379 83.8928849,3.7867247 C84.0012435,4.20178126 84.0592636,4.62854346 84.0656753,5.05767138 L84.0656753,8.11316649 L83.0980493,8.11316649 L83.0980493,5.27529924 C83.0980493,4.95321001 83.0807703,4.67464635 83.0462122,4.44831338 C83.0209904,4.24726061 82.959503,4.05254745 82.8647823,3.87377584 C82.7860077,3.72304826 82.6620531,3.6011987 82.5105621,3.52557127 C82.3334952,3.4488272 82.1415841,3.41312845 81.9489935,3.4211099 C81.5892041,3.41700734 81.2300254,3.45203048 80.8776933,3.52557127 L80.8776933,8.11316649 L79.9100673,8.11316649 L79.9100673,2.83786725 L79.9100673,2.83786725 Z M92.1349848,2.68117519 L94.1825505,2.68117519 L94.1825505,3.49945593 L92.1349848,3.49945593 L92.1349848,6.00652884 C92.1349848,6.26768226 92.1609033,6.50272035 92.1954614,6.67682263 C92.238659,6.85092492 92.2991356,6.99020675 92.3855308,7.09466812 C92.471926,7.19912949 92.5756002,7.2687704 92.6965534,7.31229597 C93.0695607,7.40811358 93.4618199,7.39604526 93.8283303,7.27747552 L94.1998295,7.12948857 L94.3898989,7.9390642 C93.966047,8.12081224 93.511343,8.21835522 93.0507737,8.22633297 C92.6792744,8.22633297 92.3768913,8.1828074 92.1436243,8.08705114 C91.9017178,8 91.7116484,7.85201306 91.5647766,7.66050054 C91.4130311,7.45438043 91.3096449,7.21627479 91.2623935,6.9640914 C91.2019169,6.69423286 91.1759983,6.37214363 91.1759983,6.00652884 L91.1759983,1.16648531 L92.1349848,0.992383025 L92.1349848,2.68117519 L92.1349848,2.68117519 Z M95.4007225,8.11316649 L95.4007225,0.174102285 L96.3683484,0 L96.3683484,2.78563656 C96.7461046,2.63985858 97.1474526,2.56606383 97.5519624,2.56800871 C97.9839382,2.56800871 98.329519,2.6289445 98.614623,2.74211099 C98.8997271,2.8726877 99.1329941,3.03808487 99.2971449,3.26441785 C99.4699353,3.4820457 99.582249,3.74319913 99.6513652,4.04787813 C99.7204813,4.35255713 99.7550394,4.69205658 99.7550394,5.0663765 L99.7550394,8.11316649 L98.7960529,8.11316649 L98.7960529,5.27529924 C98.7960529,4.93579978 98.7701344,4.64853101 98.7269368,4.41349293 C98.6837392,4.17845484 98.6059835,3.98694233 98.5023093,3.83895539 C98.3983852,3.69496477 98.2539006,3.5857785 98.0876125,3.52557127 C97.8824476,3.45239552 97.6658896,3.41701137 97.4482882,3.4211099 C97.0843049,3.45027414 96.7231919,3.50849091 96.3683484,3.59521219 L96.3683484,8.11316649 L95.4007225,8.11316649 L95.4007225,8.11316649 Z M101.016409,5.41458107 C101.016409,4.92709467 101.094165,4.50924918 101.232397,4.1523395 C101.370629,3.7867247 101.552059,3.49075082 101.776686,3.25571273 C102.009953,3.02067465 102.269139,2.83786725 102.562883,2.72470076 C102.865266,2.60282916 103.167649,2.55059848 103.478671,2.55059848 C104.204391,2.55059848 104.75732,2.77693145 105.146098,3.22959739 C105.534877,3.68226333 105.724946,4.37867247 105.724946,5.31882481 L105.724946,5.65832427 L102.027233,5.65832427 C102.07043,6.22415669 102.234581,6.65070729 102.511046,6.94668118 C102.79615,7.23394995 103.236765,7.38193689 103.841531,7.38193689 C104.314998,7.38885568 104.785035,7.30005449 105.223854,7.12078346 L105.353447,7.9390642 C104.838764,8.14223029 104.290624,8.24560237 103.737857,8.24376784 C103.271323,8.24376784 102.865266,8.16539717 102.519685,8.02611534 C101.871504,7.76612673 101.377787,7.22052004 101.18056,6.54624592 C101.076886,6.19804135 101.025048,5.81501632 101.025048,5.41458107 L101.016409,5.41458107 Z M104.722762,4.87486398 C104.722762,4.43960827 104.619088,4.07399347 104.39446,3.79542982 C104.171489,3.51280428 103.828062,3.35433977 103.470032,3.36887922 C103.076246,3.3577785 102.699642,3.53143133 102.450569,3.83895539 C102.330927,3.98074004 102.237309,4.14286656 102.174104,4.31773667 C102.113628,4.50054407 102.07043,4.68335147 102.044512,4.87486398 L104.722762,4.87486398 L104.722762,4.87486398 Z M41.5765274,26.6898803 C43.6759302,26.6898803 44.7299514,25.9673558 44.7299514,24.5136017 C44.7299514,24.078346 44.6349167,23.695321 44.4448473,23.3819369 C44.2634174,23.0685528 44.0128714,22.7986942 43.6932093,22.5636561 C43.3735471,22.3373232 43.0020479,22.1371055 42.60463,21.9717084 C42.1899332,21.7976061 41.7579573,21.640914 41.3087024,21.4668118 C40.7816918,21.2927095 40.2805998,21.0837867 39.8140658,20.8574538 C39.3688848,20.644338 38.955857,20.3688494 38.5872543,20.039173 C38.2416736,19.7257889 37.9738486,19.351469 37.7665002,18.9249184 C37.5677912,18.4896627 37.4727566,17.9673558 37.4727566,17.3579978 C37.4727566,16.0870511 37.9047324,15.0946681 38.7514052,14.3895539 C39.6153569,13.6757345 40.7903313,13.3188248 42.2936074,13.3188248 C43.1748382,13.3188248 43.9610343,13.4145811 44.6781143,13.6060936 C45.3865547,13.788901 45.9049258,13.9978237 46.2332275,14.2154516 L45.5939032,15.8694233 C44.5755709,15.3349131 43.4417386,15.0627609 42.2936074,15.0772579 C41.9134686,15.0772579 41.5506089,15.1207835 41.2223072,15.1991295 C40.8940055,15.2861806 40.6002619,15.4080522 40.3583555,15.5821545 C40.0991699,15.7475517 39.9091005,15.9564744 39.7535892,16.2176279 C39.6153569,16.4787813 39.5462408,16.7747552 39.5462408,17.1229597 C39.5462408,17.5146899 39.6153569,17.8454842 39.7708683,18.1066376 C39.9263796,18.3677911 40.133728,18.6028292 40.4101926,18.8030468 C40.6866571,19.0119695 41.0149588,19.1947769 41.3778185,19.3601741 C41.7406783,19.5342764 42.1553751,19.6909684 42.587351,19.8650707 C43.2093963,20.1088139 43.7796044,20.3612622 44.2979755,20.6137106 C44.8163466,20.8661589 45.2656015,21.1621328 45.6457403,21.5103373 C46.025879,21.8585419 46.3196226,22.2763874 46.5269711,22.7551687 C46.7343195,23.2339499 46.8379937,23.8171926 46.8379937,24.4961915 C46.8379937,25.7671382 46.3800993,26.742111 45.4556709,27.4211099 C44.539882,28.1088139 43.2439544,28.4483943 41.5678879,28.4483943 C40.0317197,28.4545246 38.5149045,28.1029785 37.1358154,27.4211099 L37.7405816,25.749728 C38.9121674,26.4046987 40.2372682,26.7294678 41.5765274,26.6898803 L41.5765274,26.6898803 Z M49.1447449,17.5843308 C49.5853603,17.4711643 50.1728475,17.3579978 50.9072065,17.2361262 C51.6415655,17.1055495 52.4795987,17.0446137 53.4385852,17.0446137 C54.2938974,17.0446137 55.0023379,17.1664853 55.5725461,17.4102285 C56.1341147,17.6539717 56.5920091,17.9934712 56.9289503,18.4287269 C57.274531,18.8639826 57.507798,19.3949946 57.6460303,20.0043526 C57.7842626,20.6137106 57.8533787,21.2927095 57.8533787,22.0326442 L57.8533787,28.1349293 L55.9267663,28.1349293 L55.9267663,22.4504897 C55.9267663,21.7801959 55.8749292,21.2143634 55.788534,20.7355822 C55.7021388,20.265506 55.5466275,19.882481 55.3392791,19.5865071 C55.1326954,19.2952999 54.8435942,19.0737934 54.5098854,18.9510337 C54.1643047,18.820457 53.7323288,18.7508161 53.2312368,18.7508161 C52.6233226,18.7461361 52.0161894,18.7956582 51.4169381,18.898803 L51.0713574,18.9597388 L51.0713574,28.1349293 L49.1447449,28.1349293 L49.1447449,17.5843308 L49.1447449,17.5843308 Z M64.6958767,26.7334059 C65.1537711,26.7334059 65.5598285,26.7247008 65.9054092,26.7072905 C66.2596294,26.6811752 66.553373,26.6463547 66.78664,26.5854189 L66.78664,23.3471164 C66.5712853,23.2573513 66.3444098,23.1987364 66.1127576,23.1730141 C65.433841,23.0757978 64.7448986,23.0728688 64.0651919,23.164309 C63.7534646,23.2009378 63.4498785,23.2891756 63.1666821,23.4254625 C62.9074965,23.5560392 62.6742296,23.7388466 62.4927997,23.9651795 C62.3200093,24.2002176 62.2336142,24.4961915 62.2336142,24.8792165 C62.2336142,25.5756257 62.4496021,26.054407 62.8902175,26.3242655 C63.4439915,26.6235229 64.0682666,26.764976 64.6958767,26.7334059 L64.6958767,26.7334059 Z M64.5230863,17.0010881 C65.3006429,17.0010881 65.9572463,17.0968444 66.4842569,17.3057671 C67.019907,17.5059848 67.4518828,17.7932535 67.7801845,18.1588683 C68.0998467,18.5244831 68.3331136,18.968444 68.4713459,19.4733406 C68.6095782,19.9869423 68.6786943,20.5440696 68.6786943,21.1534276 L68.6786943,27.9434168 L67.9875329,28.0652884 C67.2495885,28.1880723 66.505443,28.2694454 65.7585374,28.3090316 C65.3265615,28.343852 64.8945856,28.3612622 64.4626097,28.3612622 C63.8578435,28.3612622 63.2962748,28.3003264 62.7865433,28.1784548 C62.2681722,28.0478781 61.8361964,27.8563656 61.4560576,27.577802 C61.0816598,27.301502 60.7841339,26.9327666 60.5921058,26.5070729 C60.3723343,25.9997791 60.266145,25.4499406 60.2810832,24.8966268 C60.2357126,23.8508636 60.7500857,22.8608186 61.6288479,22.3025027 C62.0435448,22.0413493 62.5273578,21.8498368 63.0802869,21.7192601 C64.0465333,21.5114947 65.0428477,21.487874 66.0177229,21.6496192 C66.2774823,21.6989157 66.5366842,21.7511497 66.7952795,21.8063112 L66.7952795,21.257889 C66.7952795,20.9445049 66.7520819,20.6224157 66.6829658,20.3090316 C66.6193551,20.0070734 66.4927192,19.7222048 66.3114665,19.4733406 C66.1386762,19.2295974 65.8794906,19.0380849 65.5771075,18.8900979 C65.1941105,18.730907 64.7815829,18.656682 64.367575,18.6724701 C63.7282507,18.6724701 63.1666821,18.7159956 62.6915086,18.8030468 C62.2163351,18.8900979 61.8621149,18.9945593 61.6288479,19.0903156 L61.395581,17.4798694 C61.646127,17.3667029 62.0608238,17.2622416 62.6396715,17.1577802 C63.2185192,17.0533188 63.849204,17.0010881 64.5317259,17.0010881 L64.5230863,17.0010881 Z M79.3571382,22.7203482 C79.3571382,21.4581066 79.0461155,20.4831338 78.4240703,19.7954298 C77.7819552,19.1062981 76.8730606,18.7342561 75.9358892,18.7769314 C75.348402,18.7769314 74.8991471,18.7943417 74.5708454,18.8378672 C74.2511832,18.8813928 73.9919977,18.9249184 73.7932888,18.9858542 L73.7932888,25.8367791 C74.0351953,26.0282916 74.3721365,26.2198041 74.8127519,26.4026115 C75.7370187,26.7670283 76.7657869,26.7545394 77.6810717,26.3677911 C78.0784896,26.1675734 78.3981517,25.8890098 78.6486977,25.5321001 C78.8992437,25.1838955 79.0806736,24.7573449 79.1843478,24.2785637 C79.2966615,23.7997824 79.3571382,23.2774755 79.3571382,22.7203482 L79.3571382,22.7203482 Z M81.3615063,22.7203482 C81.3696443,23.4924831 81.2618723,24.2614199 81.0418441,25.0010881 C80.8258562,25.6974973 80.5148335,26.2981502 80.1001367,26.7943417 C79.68783,27.2967067 79.1679806,27.6984824 78.5795816,27.9695321 C77.9748153,28.2480958 77.2836539,28.3873776 76.5060973,28.3873776 C75.5511412,28.4091425 74.6099055,28.1554352 73.7932888,27.656148 L73.7932888,32 L71.8753159,32 L71.8753159,17.601741 L73.5859404,17.2361262 C74.2771018,17.1055495 75.0632979,17.0446137 75.9618077,17.0446137 C76.7284415,17.0305301 77.4907403,17.1634681 78.2080823,17.4363439 C79.5140531,17.9516772 80.5306193,19.0173149 80.990007,20.3525571 C81.2491925,21.0489663 81.3701458,21.8498368 81.3701458,22.7203482 L81.3615063,22.7203482 Z M92.3336937,26.6898803 C94.4330965,26.6898803 95.4871176,25.9673558 95.4871176,24.5136017 C95.4871176,24.078346 95.3920829,23.695321 95.2020136,23.3819369 C95.0205837,23.0685528 94.7700377,22.7986942 94.4503755,22.5636561 C94.1307134,22.3373232 93.7678536,22.1371055 93.3617963,21.9717084 C92.955739,21.7976061 92.5237631,21.640914 92.0658686,21.4668118 C91.5388581,21.2927095 91.037766,21.0837867 90.5712321,20.8574538 C90.126051,20.644338 89.7130232,20.3688494 89.3444206,20.039173 C88.9988399,19.7257889 88.7310148,19.351469 88.5323059,18.9249184 C88.3249575,18.4896627 88.2299228,17.9673558 88.2299228,17.3579978 C88.2299228,16.0870511 88.6618987,15.0946681 89.5172109,14.3895539 C90.3725232,13.6757345 91.5561371,13.3188248 93.0594132,13.3188248 C93.9233649,13.3188248 94.7182006,13.4145811 95.4352805,13.6060936 C96.143721,13.788901 96.6707316,13.9978237 96.9990332,14.2154516 L96.3597089,15.8694233 C95.3413767,15.3349131 94.2075444,15.0627609 93.0594132,15.0772579 C92.6706349,15.0772579 92.3164147,15.1207835 91.9794735,15.1991295 C91.6511718,15.2861806 91.3574282,15.4080522 91.1155217,15.5821545 C90.8563362,15.7475517 90.6662668,15.9564744 90.519395,16.2176279 C90.3725232,16.4787813 90.303407,16.7747552 90.303407,17.1229597 C90.303407,17.5146899 90.3811627,17.8454842 90.5280345,18.1066376 C90.6835458,18.3677911 90.8995338,18.6028292 91.1759983,18.8030468 C91.4524629,19.0119695 91.772125,19.1947769 92.1349848,19.3601741 C92.5064841,19.5342764 92.9125414,19.6909684 93.3445173,19.8650707 C93.9752021,20.1088139 94.5454102,20.3612622 95.0637813,20.6137106 C95.5821523,20.8661589 96.0314073,21.1621328 96.411546,21.5103373 C96.7916848,21.8585419 97.0854284,22.2763874 97.2927768,22.7551687 C97.5001253,23.2339499 97.6037995,23.8171926 97.6037995,24.4961915 C97.6037995,25.7671382 97.1372655,26.742111 96.2214766,27.4211099 C95.3056878,28.1088139 94.0097601,28.4484326 92.3336937,28.4484326 C90.79461,28.4558682 89.2746875,28.1042873 87.8929816,27.4211099 L88.4977479,25.749728 C89.6693336,26.4046987 90.9944344,26.7294678 92.3336937,26.6898803 L92.3336937,26.6898803 Z M101.70757,17.2709467 L105.794062,17.2709467 L105.794062,18.898803 L101.70757,18.898803 L101.70757,23.9129489 C101.70757,24.4613711 101.750768,24.9053319 101.828524,25.2622416 C101.914919,25.6104461 102.035872,25.8977149 102.200023,26.0979325 C102.372813,26.2981502 102.580162,26.4461371 102.822068,26.5331882 C103.570811,26.7264995 104.358563,26.7023555 105.094261,26.4635473 L105.82862,26.1675734 L106.208759,27.7780196 C106.01005,27.8737758 105.673109,27.9956474 105.189296,28.1436344 C104.705483,28.2916213 104.152554,28.3612622 103.530509,28.3612622 C102.79615,28.3612622 102.191383,28.2742111 101.71621,28.0826986 C101.241036,27.8911861 100.852258,27.6126224 100.567154,27.2383025 C100.260585,26.8268593 100.050834,26.3505914 99.9537483,25.8454842 C99.832795,25.297062 99.7809579,24.6615887 99.7809579,23.9303591 L99.7809579,14.250272 L101.70757,13.9194777 L101.70757,17.2796518 L101.70757,17.2709467 Z M117.466051,22.702938 C117.466051,23.5734494 117.336458,24.3482046 117.094551,25.0446137 C116.835366,25.7410229 116.489785,26.3416757 116.04053,26.8378672 C115.594313,27.3363832 115.046048,27.7313987 114.43358,27.9956474 C113.811535,28.2742111 113.137652,28.4047878 112.403293,28.4047878 C111.668934,28.4047878 110.995052,28.2742111 110.373007,27.9956474 C109.760538,27.7313987 109.212273,27.3363832 108.766056,26.8378672 C108.304609,26.3147153 107.949449,25.7054706 107.720675,25.0446137 C107.463203,24.2916189 107.337501,23.4992829 107.349175,22.702938 C107.349175,21.8498368 107.470129,21.0750816 107.720675,20.3699674 C107.971221,19.6735582 108.316801,19.0642002 108.766056,18.5680087 C109.212273,18.0694927 109.760538,17.6744772 110.373007,17.4102285 C110.995052,17.1316649 111.668934,17.0010881 112.403293,17.0010881 C113.137652,17.0010881 113.811535,17.1316649 114.43358,17.4102285 C115.055625,17.6713819 115.591275,18.0631121 116.04053,18.5680087 C116.489785,19.0642002 116.844005,19.6735582 117.094551,20.3699674 C117.336458,21.0750816 117.466051,21.8498368 117.466051,22.702938 L117.466051,22.702938 Z M115.453043,22.702938 C115.453043,21.484222 115.176578,20.5092492 114.632289,19.7867247 C114.108574,19.083029 113.275619,18.6829075 112.403293,18.7159956 C111.461586,18.7159956 110.718587,19.0642002 110.174298,19.7867247 C109.586837,20.6399572 109.298064,21.6659947 109.353543,22.702938 C109.353543,23.921654 109.630008,24.8966268 110.174298,25.6191513 C110.718587,26.3329706 111.470225,26.6898803 112.403293,26.6898803 C113.345001,26.6898803 114.087999,26.3416757 114.632289,25.6191513 C115.176578,24.8966268 115.453043,23.9303591 115.453043,22.702938 L115.453043,22.702938 Z M124.161677,17.0446137 C124.567617,17.0409811 124.972874,17.0788978 125.371209,17.1577802 C125.689714,17.2159327 126.00661,17.282696 126.321556,17.3579978 L125.984615,19.04679 C124.726505,18.6323374 123.372429,18.6171442 122.105472,19.0032644 L122.105472,28.1349293 L120.178859,28.1349293 L120.178859,17.7323177 C120.636754,17.5582155 121.206962,17.4102285 121.880844,17.2622416 C122.554726,17.1142546 123.315004,17.0446137 124.161677,17.0446137 L124.161677,17.0446137 Z M127.582926,22.7203482 C127.582926,21.7627856 127.721158,20.9270947 127.997623,20.2045702 C128.274087,19.4907508 128.636947,18.898803 129.094841,18.4200218 C129.539981,17.9556438 130.079239,17.5934084 130.675873,17.3579978 C131.252858,17.1246997 131.868468,17.0035965 132.490172,17.0010881 C133.95025,17.0010881 135.064748,17.4537541 135.833665,18.3677911 C136.611222,19.2818281 137,20.6659412 137,22.5375408 L137,22.85963 C137,22.9902067 136.99136,23.1207835 136.974081,23.2252448 L129.595933,23.2252448 C129.682329,24.3569097 130.001991,25.2100109 130.572199,25.7932535 C131.133768,26.3764962 132.023638,26.6724701 133.224531,26.6724701 C134.168583,26.6853783 135.105652,26.5077887 135.980537,26.1501632 L136.248362,27.7780196 C136.015095,27.9085963 135.600398,28.039173 135.012911,28.1784548 C134.425424,28.3177367 133.760181,28.3873776 133.017182,28.3873776 C132.184599,28.4046628 131.356771,28.2567705 130.580838,27.9521219 C129.284476,27.4321446 128.297043,26.3409313 127.902588,24.992383 C127.682724,24.258642 127.574936,23.4954658 127.582926,22.7290533 L127.582926,22.7203482 Z M134.986992,21.6583243 C134.995632,20.7878128 134.779644,20.0565832 134.330389,19.4994559 C133.882626,18.931663 133.191946,18.6144509 132.472893,18.6463547 C131.688325,18.626873 130.938878,18.9739146 130.442606,19.5865071 C130.209339,19.8650707 130.027909,20.1958651 129.898316,20.5440696 C129.760084,20.9096844 129.673689,21.2840044 129.639131,21.6583243 L134.986992,21.6583243 L134.986992,21.6583243 Z" id="Shape" fill="#FFFFFF"></path>
            </g>
        </g>
    </g>
</svg>