<?xml version="1.0" encoding="UTF-8"?>
<svg width="292px" height="295px" viewBox="0 0 292 295" version="1.1" xmlns="http://www.w3.org/2000/svg" xmlns:xlink="http://www.w3.org/1999/xlink">
    <title>404</title>
    <defs>
        <path d="M82.7723236,0.24242013 C79.6131646,0.391377078 76.4488913,0.627955759 73.2897322,0.938282733 L73.2897322,0.938282733 L72.3633183,1.02590447 C71.9658663,1.06898515 71.5859489,1.21867228 71.2688641,1.46693386 L71.2688641,1.46693386 L66.9597244,4.8411008 L48.0939046,19.6068233 L35.3221055,29.6059235 C14.4909439,45.9057566 1.40279054,70.3536807 0.122030642,96.7650618 L0.122030642,96.7650618 C0.0840389052,97.4864807 0.0591981542,98.2071695 0.0409328961,98.9278583 L0.0409328961,98.9278583 C-1.6007485,157.803822 46.3535908,206.438265 105.275852,205.629955 L105.275852,205.629955 C161.953679,204.859614 207.650432,158.698294 207.650432,101.873409 L207.650432,101.873409 C207.650432,101.146879 207.643857,100.418888 207.625591,99.6923579 L207.625591,99.6923579 C207.270515,82.4965926 201.587828,65.823637 191.788151,51.6858703 L191.788151,51.6858703 L185.731392,42.9543645 L172.822969,24.3362064 L166.3125,14.9402358 C166.075782,14.598511 165.746277,14.336376 165.36709,14.1815776 L165.36709,14.1815776 C159.970072,12.0005266 154.4978,10.0735787 148.958313,8.39562247 L148.958313,8.39562247 C130.608304,2.82799146 111.543758,0 92.3732739,0 L92.3732739,0 C89.1768537,0 85.9745887,0.0810501038 82.7723236,0.24242013" id="path-1"></path>
    </defs>
    <g id="官网3" stroke="none" stroke-width="1" fill="none" fill-rule="evenodd">
        <g id="404" transform="translate(-814, -258)">
            <g transform="translate(619.6322, 260.0211)">
                <path d="M466.220777,193.080151 C460.828873,185.89882 454.908007,179.176042 449.009789,172.410914 C445.346509,168.208722 440.077348,163.869986 439.873507,157.792688 C439.47021,145.78486 453.351807,139.992333 459.007461,131.292225 C467.108468,118.831684 452.770971,107.250282 443.585738,100.865578 C422.716585,86.3605302 302.992202,43.1338081 280.531049,38.5322067 C271.245722,36.6300849 254.724431,37.5282077 255.997884,51.2453901 C256.491046,56.5632992 266.253462,66.0147636 262.57703,70.3556903 C258.951011,74.6382025 245.892082,72.2227634 241.289237,71.9095157 C231.276954,71.2282567 221.54084,70.1140003 211.636687,72.160698 C194.418393,75.7188706 189.33919,86.9673107 199.751118,101.645411 C207.141241,112.063636 236.104096,125.725324 233.651437,140.615178 C231.196586,155.521825 206.522415,155.9446 201.521387,169.138243 C195.50335,185.01311 220.932973,202.695906 231.20097,210.742502 C257.182204,231.101412 287.484998,244.935423 317.030149,259.220687 C334.866538,267.844126 353.466416,274.296006 371.896062,281.467115 C384.282098,286.28558 400.147302,293.409957 413.817021,291.756097 C428.810606,289.941597 425.77492,274.419407 420.035976,265.146106 C414.214473,255.736993 406.842615,249.814494 423.178331,246.755765 C433.678662,244.789387 445.109792,245.277878 455.708756,245.240639 C463.006091,245.214353 477.185046,246.989423 483.125639,241.029685 C494.478592,229.64105 472.89271,201.966455 466.220777,193.080151" id="Fill-1" fill="#CFFFFE"></path>
                <path d="M198.142692,138.455266 C204.982666,135.372442 204.429594,135.925189 207.514231,129.088503 C210.598868,135.925189 210.045796,135.372442 216.885769,138.455266 C210.045796,141.537361 210.598868,140.984614 207.514231,147.821299 C204.429594,140.985344 204.982666,141.538091 198.142692,138.455266 Z" id="Fill-3" fill="#DFA7FE"></path>
                <path d="M473.398731,179.136759 C470.314094,172.300803 470.867166,172.85355 464.027192,169.770725 C470.867166,166.687901 470.314094,167.240648 473.398731,160.403962 C476.483368,167.240648 475.930296,166.687901 482.77027,169.770725 C475.930296,172.85282 476.483368,172.300073 473.398731,179.136759" id="Fill-5" fill="#DFA7FE"></path>
                <path d="M449.561912,75.5023719 C446.477275,68.6664163 447.030347,69.2191634 440.190373,66.1363387 C447.030347,63.053514 446.477275,63.6062612 449.561912,56.7695754 C452.646548,63.6062612 452.093476,63.053514 458.93345,66.1363387 C452.093476,69.2184332 452.646548,68.6656861 449.561912,75.5023719" id="Fill-7" fill="#DFA7FE"></path>
                <path d="M443.907061,263.861207 C443.907061,265.831966 442.308485,267.429602 440.336568,267.429602 C438.365382,267.429602 436.766806,265.831966 436.766806,263.861207 C436.766806,261.890448 438.365382,260.292812 440.336568,260.292812 C442.308485,260.292812 443.907061,261.890448 443.907061,263.861207" id="Fill-9" fill="#1DFAF7"></path>
                <path d="M223.158339,92.3310751 C223.158339,94.3018339 221.559763,95.8994702 219.587846,95.8994702 C217.616659,95.8994702 216.018084,94.3018339 216.018084,92.3310751 C216.018084,90.3603163 217.616659,88.76268 219.587846,88.76268 C221.559763,88.76268 223.158339,90.3603163 223.158339,92.3310751" id="Fill-11" fill="#1DFAF7"></path>
                <path d="M485.980645,87.2240424 C485.980645,89.1948012 484.382069,90.7924375 482.410152,90.7924375 C480.438965,90.7924375 478.84039,89.1948012 478.84039,87.2240424 C478.84039,85.2532835 480.438965,83.6556472 482.410152,83.6556472 C484.382069,83.6556472 485.980645,85.2532835 485.980645,87.2240424" id="Fill-13" fill="#1DFAF7"></path>
                <path d="M227.287075,256.231728 C223.858573,256.231728 221.078158,253.452946 221.078158,250.025188 C221.078158,246.597431 223.858573,243.818649 227.287075,243.818649 C230.716847,243.818649 233.497262,246.597431 233.497262,250.025188 C233.497262,253.452946 230.716847,256.231728 227.287075,256.231728 Z" id="Fill-15" fill="#1DFAF7"></path>
                <path d="M444.193241,176.4973 C444.193241,233.322185 398.496488,279.482775 341.818661,280.253846 C282.895669,281.061426 234.94206,232.426983 236.583742,173.551749 C236.602007,172.83106 236.626848,172.109642 236.664109,171.388953 C237.944869,144.977572 251.034483,120.529648 271.864914,104.229814 L284.636713,94.2307143 L303.502533,79.4649918 L307.811673,76.0908248 C308.128758,75.8418331 308.507944,75.6928761 308.906127,75.6490653 L309.832541,75.5621737 C312.9917,75.2518467 316.156704,75.0152681 319.315132,74.8663111 C322.517397,74.7049411 325.719662,74.623891 328.916083,74.623891 C348.086567,74.623891 367.151113,77.4511523 385.500391,83.0195135 C391.040609,84.6974697 396.51288,86.6244176 401.909899,88.8054686 C402.289816,88.960267 402.619322,89.2216718 402.855309,89.5633966 L409.365777,98.9593672 L422.274201,117.578255 L428.33096,126.309761 C438.130636,140.447528 443.814054,157.120484 444.1684,174.316249 C444.187396,175.042779 444.193241,175.770039 444.193241,176.4973" id="Fill-17" fill="#A56923"></path>
                <g id="编组" transform="translate(236.5429, 74.6237)">
                    <mask id="mask-2" fill="white">
                        <use xlink:href="#path-1"></use>
                    </mask>
                    <g id="Clip-20"></g>
                    <path d="M182.866157,53.3906241 C179.496582,54.5662157 175.659417,53.5885032 172.654417,51.6710476 C169.655261,49.7608938 167.334112,47.000079 165.057531,44.2838052 C164.85296,48.5780004 164.648389,52.9174668 163.388086,57.0269261 C162.135089,61.142957 159.711655,65.0727918 155.97093,67.2969235 C151.066343,70.2176479 144.652315,69.7189342 139.434296,67.3801641 C129.804121,63.0596824 123.672109,53.269414 121.139813,43.1651678 C118.824509,54.2661113 106.073898,62.0951132 94.902866,59.2831857 C83.7318342,56.4712582 76.3906616,43.5806408 79.7989588,32.7549756 C75.5468067,37.1966673 69.9707887,40.6219469 63.8256253,41.4587345 C57.6738863,42.3028239 50.9719978,40.2699996 47.0522734,35.5347751 C43.2794017,30.9842864 42.6846849,23.9102918 46.1696962,19.1933217 L65.5710533,4.00920545 L70.0022049,0.538654609 C70.3287878,0.283091219 70.7189337,0.129753184 71.1280755,0.0852121362 L72.0807913,-0.00460014103 C75.3290848,-0.323689289 78.5839538,-0.5668396 81.8322473,-0.720177634 C85.1258387,-0.886658929 88.4186994,-0.969169395 91.7057152,-0.969169395 C111.419774,-0.969169395 131.025702,1.93841181 149.895905,7.66449212 C155.593204,9.38991009 161.220365,11.3708915 166.770812,13.6140078 C167.160958,13.7739175 167.499961,14.0426242 167.743254,14.3938413 L174.438567,24.0570582 L186.631723,41.6434703 C187.335301,42.6584221 187.704259,43.867602 187.687455,45.1016081 C188.742456,48.4567903 186.242308,52.2150325 182.866157,53.3906241" id="Fill-19" fill="#FFF0E1" mask="url(#mask-2)"></path>
                </g>
                <g id="编组" transform="translate(311.665, 79.4149)">
                    <path d="M87.235983,15.8867395 C87.1059344,16.8688331 86.0947697,17.6917472 84.3464192,18.3467197 C77.904628,20.7723813 61.4710099,20.9498153 42.5262842,18.4452941 C23.5764442,15.9407729 7.75434702,11.4998113 2.16444743,7.48308502 C0.646969784,6.39657552 -0.115787395,5.33927327 0.0142612433,4.35717967 C0.622859644,-0.237850092 20.6408519,-1.38058354 44.7283437,1.80373631 C68.8121825,4.98732597 87.8438508,11.2924399 87.235983,15.8867395" id="Fill-21" fill="#A5A2A0"></path>
                    <path d="M84.3466384,18.3467927 C77.9041165,20.7724543 61.4712291,20.9498884 42.5257728,18.4453671 C23.5766634,15.9408459 7.75456621,11.4998844 2.16466661,7.48315804 C8.60718846,5.05676619 25.0400759,4.88444345 43.9891853,7.38969486 C62.933911,9.89421609 78.7567388,14.3300664 84.3466384,18.3467927" id="Fill-23" fill="#663B14"></path>
                </g>
                <path d="M307.159774,31.9642199 L324.623789,89.5046824 L325.403618,91.897251 C324.061938,91.4674634 323.059144,91.1379144 322.395235,90.9086039 C321.731326,90.6792935 320.997643,90.4090728 320.194185,90.0979419 L302.964852,33.2359187 L307.159774,31.9642199 Z" id="路径-7" fill="#1D1D1B" fill-rule="nonzero"></path>
                <polygon id="矩形" stroke="#1D1D1B" stroke-width="3.09454545" fill="#1DFAF7" stroke-linejoin="round" transform="translate(305.2674, 48.0742) rotate(-17) translate(-305.2674, -48.0742)" points="248.277283 15.2050189 362.24677 15.2237397 362.257571 80.9433422 248.288084 80.9246213"></polygon>
                <g id="404备份" transform="translate(306.0034, 47.7922) rotate(-17) translate(-306.0034, -47.7922)translate(260.2082, 29.9027)" fill="#000000" fill-rule="nonzero">
                    <path d="M15.8377464,35.1189297 L23.898028,35.1189297 L23.898028,28.9225317 L27.7631923,28.9225317 L27.7631923,21.8681708 L23.898028,21.8681708 L23.898028,0.800417299 L14.8950234,0.800417299 L1.40905653e-12,22.3448168 L1.40905653e-12,28.9225317 L15.8377464,28.9225317 L15.8377464,35.1189297 Z M8.484507,21.8681708 L16.4033802,9.76136221 L16.4033802,21.8681708 L8.484507,21.8681708 Z" id="形状"></path>
                    <path d="M31.9276775,17.8412178 C31.9276775,28.2566315 35.4390271,35.7788747 45.4439685,35.7788747 C55.4489099,35.7788747 58.9602595,28.2566315 58.9602595,17.8412178 C58.9602595,7.52224319 55.4489099,2.14236248e-14 45.4439685,2.14236248e-14 C35.4390271,2.14236248e-14 31.9276775,7.52224319 31.9276775,17.8412178 Z M50.8793453,17.8412178 C50.8793453,23.4346807 50.3021372,28.0637534 45.4439685,28.0637534 C40.5857999,28.0637534 40.0085917,23.4346807 40.0085917,17.8412178 C40.0085917,12.440633 40.5857999,7.71512122 45.4439685,7.71512122 C50.3021372,7.71512122 50.8793453,12.440633 50.8793453,17.8412178 Z" id="形状"></path>
                    <path d="M79.6647988,35.1797226 L87.7250805,35.1797226 L87.7250805,28.9833245 L91.5902448,28.9833245 L91.5902448,21.9289636 L87.7250805,21.9289636 L87.7250805,0.861210124 L78.7220758,0.861210124 L63.8270524,22.4056096 L63.8270524,28.9833245 L79.6647988,28.9833245 L79.6647988,35.1797226 Z M72.3115594,21.9289636 L80.2304326,9.82215504 L80.2304326,21.9289636 L72.3115594,21.9289636 Z" id="形状"></path>
                </g>
                <polygon id="路径-13" fill="#1DFAF7" fill-rule="nonzero" points="468.763175 13.7564607 469.519754 26.8779525 413.059159 30.1286503 382.864049 99.5570159 368.665809 99.2320996 402.610895 21.1818703 404.223757 17.4734039 408.263068 17.2407725"></polygon>
                <path d="M371.57824,92.5355218 L383.639165,97.774818 L382.823136,99.6511215 C379.476916,99.7008501 376.963725,99.7008501 375.283563,99.6511215 C373.603401,99.6013928 371.387587,99.4829459 368.636119,99.2957807 L371.57824,92.5355218 Z M377.403102,79.1423661 L389.464028,84.3816623 L386.551597,91.0782401 L374.490671,85.838944 L377.403102,79.1423661 Z M383.227964,65.7492104 L395.28889,70.9885066 L392.376459,77.6850844 L380.315533,72.4457883 L383.227964,65.7492104 Z M389.052826,52.3560548 L401.113752,57.5953509 L398.201321,64.2919288 L386.140395,59.0526326 L389.052826,52.3560548 Z M394.877688,38.9628991 L406.938614,44.2021953 L404.026183,50.8987731 L391.965257,45.6594769 L394.877688,38.9628991 Z M400.70255,25.5697434 L412.763476,30.8090396 L409.851045,37.5056174 L397.790119,32.2663213 L400.70255,25.5697434 Z M418.071743,16.675873 L418.828322,29.7973648 L411.53432,30.2174397 L410.77774,17.095948 L418.071743,16.675873 Z M432.659748,15.8357231 L433.416328,28.9572149 L426.122325,29.3772898 L425.365746,16.2557981 L432.659748,15.8357231 Z M447.247753,14.9955732 L448.004333,28.117065 L440.71033,28.5371399 L439.953751,15.4156482 L447.247753,14.9955732 Z M461.835759,14.1554233 L462.592338,27.2769151 L455.298335,27.69699 L454.541756,14.5754983 L461.835759,14.1554233 Z" id="路径-13" fill="#FFFFFF" fill-rule="nonzero"></path>
            </g>
        </g>
    </g>
</svg>