<?xml version="1.0" encoding="UTF-8"?>
<svg width="407px" height="128px" viewBox="0 0 407 128" version="1.1" xmlns="http://www.w3.org/2000/svg" xmlns:xlink="http://www.w3.org/1999/xlink">
    <title>编组 21</title>
    <defs>
        <rect id="path-1" x="0" y="0" width="128" height="128"></rect>
        <radialGradient cx="13.9579316%" cy="91.0311037%" fx="13.9579316%" fy="91.0311037%" r="69.5242841%" gradientTransform="translate(0.1396, 0.9103), rotate(81.9794), scale(1, 1.126), translate(-0.1396, -0.9103)" id="radialGradient-3">
            <stop stop-color="#49FFF3" offset="0%"></stop>
            <stop stop-color="#FDFFFF" offset="100%"></stop>
        </radialGradient>
        <linearGradient x1="143.535209%" y1="56.393591%" x2="86.2239761%" y2="56.393591%" id="linearGradient-4">
            <stop stop-color="#49FFF3" offset="0%"></stop>
            <stop stop-color="#55FFF4" stop-opacity="0" offset="100%"></stop>
        </linearGradient>
        <linearGradient x1="16.4808812%" y1="-8.09380051%" x2="30.5172422%" y2="20.0052609%" id="linearGradient-5">
            <stop stop-color="#49FFF3" offset="0%"></stop>
            <stop stop-color="#49FFF3" stop-opacity="0.235121458" offset="43.3098531%"></stop>
            <stop stop-color="#55FFF4" stop-opacity="0" offset="100%"></stop>
        </linearGradient>
        <linearGradient x1="55.7049808%" y1="31.1059192%" x2="39.8502297%" y2="61.6489741%" id="linearGradient-6">
            <stop stop-color="#F1D9FF" offset="0%"></stop>
            <stop stop-color="#59DCF9" offset="100%"></stop>
        </linearGradient>
        <path d="M36.0365612,12.139422 L36.4274468,15.8585712 L38.4906258,13.2187421 C40.6016092,10.5178259 44.5028209,10.0386095 47.2042262,12.1483822 C49.9056315,14.258155 50.384263,18.1579888 48.2732797,20.858905 L45.6824468,24.1725712 L50.3405784,23.6827488 C53.750219,23.3241783 56.8045271,25.7965923 57.1625666,29.2050401 C57.520606,32.6134878 55.0467945,35.6672595 51.6371539,36.0258301 L47.3174468,36.4795712 L50.5804993,39.0288888 C53.2819046,41.1386615 53.7605361,45.0384954 51.6495528,47.7394116 C49.5385694,50.4403277 45.6373576,50.9195442 42.9359524,48.8097714 L39.6154468,46.2165712 L40.0479994,50.327331 C40.4060389,53.7357787 37.9322274,56.7895504 34.5225868,57.148121 C31.1129462,57.5066915 28.0586381,55.0342775 27.7005986,51.6258297 L27.2884468,47.7065712 L24.6220328,51.1197002 C22.5110494,53.8206164 18.6098377,54.2998328 15.9084324,52.1900601 C13.2070271,50.0802873 12.7283956,46.1804535 14.8393789,43.4795373 L17.8904468,39.5745712 L13.4358809,40.0432184 C10.0262403,40.4017889 6.97193218,37.9293749 6.61389273,34.5209271 C6.25585328,31.1124793 8.72966478,28.0587076 12.1393054,27.7001371 L15.4594468,27.3505712 L12.6696771,25.1720881 C9.9682718,23.0623154 9.48964026,19.1624815 11.6006236,16.4615653 C13.711607,13.7606492 17.6128187,13.2814327 20.314224,15.3912055 L24.2134468,18.4365712 L23.6891604,13.4379207 C23.3311209,10.0294729 25.8049324,6.97570121 29.214573,6.61713069 C32.6242136,6.25856017 35.6785217,8.7309742 36.0365612,12.139422 Z" id="path-7"></path>
        <radialGradient cx="50%" cy="40.7815252%" fx="50%" fy="40.7815252%" r="32.9304541%" gradientTransform="translate(0.5, 0.4078), scale(0.9997, 1), rotate(129.9087), scale(1, 2.1278), translate(-0.5, -0.4078)" id="radialGradient-9">
            <stop stop-color="#E0A7FE" offset="0%"></stop>
            <stop stop-color="#E1A9FE" stop-opacity="0" offset="100%"></stop>
        </radialGradient>
        <path d="M36.0365612,12.139422 L36.4274468,15.8585712 L38.4906258,13.2187421 C40.6016092,10.5178259 44.5028209,10.0386095 47.2042262,12.1483822 C49.9056315,14.258155 50.384263,18.1579888 48.2732797,20.858905 L45.6824468,24.1725712 L50.3405784,23.6827488 C53.750219,23.3241783 56.8045271,25.7965923 57.1625666,29.2050401 C57.520606,32.6134878 55.0467945,35.6672595 51.6371539,36.0258301 L47.3174468,36.4795712 L50.5804993,39.0288888 C53.2819046,41.1386615 53.7605361,45.0384954 51.6495528,47.7394116 C49.5385694,50.4403277 45.6373576,50.9195442 42.9359524,48.8097714 L39.6154468,46.2165712 L40.0479994,50.327331 C40.4060389,53.7357787 37.9322274,56.7895504 34.5225868,57.148121 C31.1129462,57.5066915 28.0586381,55.0342775 27.7005986,51.6258297 L27.2884468,47.7065712 L24.6220328,51.1197002 C22.5110494,53.8206164 18.6098377,54.2998328 15.9084324,52.1900601 C13.2070271,50.0802873 12.7283956,46.1804535 14.8393789,43.4795373 L17.8904468,39.5745712 L13.4358809,40.0432184 C10.0262403,40.4017889 6.97193218,37.9293749 6.61389273,34.5209271 C6.25585328,31.1124793 8.72966478,28.0587076 12.1393054,27.7001371 L15.4594468,27.3505712 L12.6696771,25.1720881 C9.9682718,23.0623154 9.48964026,19.1624815 11.6006236,16.4615653 C13.711607,13.7606492 17.6128187,13.2814327 20.314224,15.3912055 L24.2134468,18.4365712 L23.6891604,13.4379207 C23.3311209,10.0294729 25.8049324,6.97570121 29.214573,6.61713069 C32.6242136,6.25856017 35.6785217,8.7309742 36.0365612,12.139422 Z" id="path-10"></path>
    </defs>
    <g id="logo" stroke="none" stroke-width="1" fill="none" fill-rule="evenodd">
        <g id="编组-21">
            <g id="Coco备份-6" transform="translate(146, 27)" fill="#000000" fill-rule="nonzero">
                <path d="M68.8041825,62.9516569 C68.8006504,62.8215932 68.7949993,62.6915295 68.784404,62.5621723 C68.7752207,62.4497803 68.7617993,62.3388013 68.747672,62.2285299 C68.7321315,62.1090688 68.715178,61.9896077 68.6925734,61.8701466 C68.6713818,61.75422 68.6473651,61.640414 68.6212295,61.5259015 C68.5943867,61.4142161 68.5661319,61.3018241 68.5343451,61.1908451 C68.5011452,61.0763326 68.4665322,60.9639406 68.4276811,60.8529616 C68.3909491,60.7433967 68.352098,60.6352457 68.3090088,60.5270948 C68.2659196,60.4182374 68.2200054,60.310793 68.1719721,60.205469 C68.1239388,60.0987321 68.0737854,59.9934082 68.020101,59.8887919 C67.9657095,59.784882 67.9106119,59.6830926 67.8512763,59.5820108 C67.7933527,59.482342 67.7347231,59.3833807 67.6718554,59.2851259 C67.6054555,59.1826301 67.5355236,59.0822548 67.4648856,58.9825859 C67.3998989,58.8935208 67.3349121,58.8044556 67.2649801,58.7168034 C67.1830399,58.6136 67.0982746,58.5153452 67.0106831,58.416384 C66.9647689,58.3640752 66.9237988,58.3089395 66.8764715,58.2580448 C66.8524548,58.231891 66.8249061,58.2106847 66.8008894,58.1852374 C66.6998777,58.0813275 66.5946268,57.9830727 66.4872568,57.8848179 C66.4130867,57.816958 66.3403298,57.746271 66.2640407,57.6819457 C66.1602028,57.5942935 66.0514208,57.5144169 65.9426389,57.4324198 C65.8585796,57.3680944 65.7759333,57.3023561 65.6890489,57.2422718 C65.5788539,57.1673438 65.4630077,57.1008979 65.3492806,57.031625 C65.2602772,56.9771957 65.1733928,56.9192319 65.0822704,56.8690437 C64.92051,56.7806851 64.7516853,56.7022225 64.5821547,56.6258805 C64.5369465,56.6060883 64.4938573,56.5813474 64.447943,56.5615551 C64.0121071,56.3763557 63.5543735,56.2342754 63.0789805,56.1374346 C63.0478996,56.1317795 63.0175258,56.129659 62.986445,56.1240039 C62.7851264,56.0858335 62.5809828,56.0526105 62.3733071,56.0314042 C62.1458528,56.0080774 61.9191046,55.9988877 61.6909443,55.9967672 C61.67823,55.9967672 61.6669277,55.9953532 61.6556253,55.9953532 C61.6556253,55.9953532 61.6556253,55.9953532 61.6549194,55.9953532 L61.6542134,55.9953532 C61.421815,55.9953532 61.1901227,56.0080763 60.9591363,56.0306967 C60.8722519,56.0384723 60.7867795,56.05473 60.7013072,56.0667466 C60.5600313,56.0851248 60.4194614,56.103503 60.2781855,56.1310709 C60.1771738,56.1508631 60.0782811,56.177017 59.9772693,56.2017578 C59.855772,56.2300322 59.7328616,56.2590141 59.6120702,56.2957716 C59.5096454,56.3261664 59.4107528,56.3608034 59.311153,56.3961469 C59.1953068,56.436439 59.0780476,56.476731 58.9636145,56.5233847 C58.8661338,56.5629692 58.7714792,56.6075023 58.6754115,56.6506214 C58.5630975,56.7029301 58.4507834,56.7545313 58.3405884,56.8117875 C58.2473458,56.8612681 58.1555163,56.9149898 58.0643938,56.968005 C57.9591429,57.0287958 57.853892,57.0910007 57.7507601,57.1581531 C57.6575175,57.2189439 57.567807,57.2839757 57.4780965,57.3490076 C57.3834419,57.4168675 57.2887874,57.4847274 57.1969578,57.5582414 C57.1044223,57.6338769 57.0140058,57.7123394 56.9242953,57.7915085 C56.8684918,57.8402826 56.8098622,57.8841082 56.7547647,57.9357093 C54.4971756,60.0556109 51.852491,61.7619935 48.9464462,62.9361035 C46.0389883,64.1095071 42.8722893,64.7569997 39.5198122,64.7577062 C36.0204091,64.7569997 32.7244425,64.0522508 29.7145598,62.7791795 C25.2015019,60.8706323 21.3404318,57.6635664 18.6222841,53.6365316 C17.2632098,51.623368 16.1895133,49.4073321 15.4548791,47.0449749 C14.720951,44.6804971 14.3239661,42.1704044 14.3232601,39.5443852 C14.3246732,36.0432614 15.0282275,32.7443022 16.3004165,29.7323319 C18.2076408,25.2161436 21.4117779,21.3523955 25.4367274,18.6323625 C27.4492027,17.2723455 29.6629955,16.1979043 32.0244213,15.4627606 C34.3872602,14.7283234 36.8956131,14.3310632 39.5198122,14.3303567 C42.9302118,14.3310632 46.1484762,15.0004685 49.0976102,16.2141631 C52.0446252,17.4271512 54.7196837,19.1886694 56.988574,21.3736029 C57.0493226,21.4322732 57.1150154,21.4817538 57.1757641,21.5383036 C57.2718317,21.6231277 57.3657803,21.7086593 57.46538,21.7899489 C57.5557965,21.8620499 57.6483321,21.9284957 57.7408676,21.9956481 C57.8334031,22.0642145 57.9259386,22.1327809 58.0227123,22.1963988 C58.123724,22.2628447 58.2282679,22.3236355 58.3328117,22.3851327 C58.4274663,22.4402685 58.5207089,22.4968182 58.6167765,22.5477129 C58.7255585,22.6049692 58.8350475,22.6551574 58.9452425,22.7067585 C59.0455483,22.7534122 59.143735,22.8000658 59.2447467,22.8424784 C59.3563548,22.8870115 59.4679629,22.9258895 59.580984,22.9647676 C59.6862349,23.0022315 59.7907788,23.0411096 59.8988547,23.0729185 C60.0147009,23.1075555 60.1312531,23.1344168 60.2485123,23.1633988 C60.3551752,23.1895526 60.4611321,23.2178269 60.5706211,23.2397397 C60.7048328,23.2658935 60.8404575,23.2835652 60.9760822,23.301237 C61.0693248,23.3146677 61.1604473,23.3316329 61.2551019,23.3408226 C61.4867942,23.3634429 61.7206057,23.3768736 61.9537111,23.3768736 L61.9551241,23.3768736 C61.9636003,23.3768736 61.9720765,23.3747531 61.9812598,23.3747531 C62.2108331,23.3740466 62.4397004,23.363444 62.6685678,23.3408236 C62.8041925,23.3266865 62.9369922,23.3012391 63.0712038,23.2807404 C63.1700965,23.2651892 63.2696962,23.2545866 63.3685889,23.2347943 C63.5204601,23.2051059 63.6680931,23.1634009 63.8157261,23.1231088 C63.8962534,23.1019025 63.9781936,23.0856448 64.0566018,23.0616115 C64.2014098,23.016372 64.3405666,22.9619427 64.4818425,22.9089275 C64.5623697,22.8778251 64.6457219,22.8530842 64.7262492,22.8191548 C64.8583418,22.7640191 64.9847832,22.6975732 65.1126377,22.6346619 C65.2193006,22.5823531 65.3259635,22.5314585 65.4298014,22.4742022 C65.6113414,22.3724129 65.7907613,22.265676 65.962411,22.1497494 C66.0387001,22.0988548 66.109338,22.0387704 66.184214,21.9836347 C66.3028853,21.8973966 66.4222636,21.8111584 66.5345776,21.7178511 C66.6023905,21.6605949 66.6666713,21.5969771 66.7337771,21.5361863 C66.8475043,21.4351045 66.9598183,21.3326086 67.0671883,21.2237512 C67.0827287,21.2082 67.0989752,21.1947693 67.1145156,21.1799246 C67.1696131,21.1219608 67.2169404,21.0597559 67.2692129,21.0010857 C67.3610424,20.9000039 67.4514589,20.7996285 67.5362242,20.6943046 C67.6061561,20.6066524 67.6697298,20.5168797 67.7354226,20.4278146 C67.8074736,20.3288533 67.8795246,20.2305985 67.9459244,20.1281027 C68.0109112,20.0291414 68.0695408,19.9280596 68.1288765,19.8276843 C68.1875061,19.7280154 68.2454297,19.6283466 68.2998212,19.5244367 C68.3542127,19.4205268 68.4036591,19.3130824 68.4523994,19.2063455 C68.5011398,19.1010216 68.5498801,18.9956977 68.5936753,18.8868402 C68.6360585,18.7801034 68.6742025,18.671246 68.7116405,18.5623886 C68.7511976,18.4507031 68.7893416,18.3383111 68.8225415,18.2237986 C68.8557415,18.1135272 68.8818772,18.0018417 68.9087199,17.8908627 C68.9362687,17.7756426 68.9645234,17.6611301 68.986421,17.5437896 C69.0083186,17.425036 69.024565,17.3055749 69.0415185,17.1854074 C69.0556459,17.0751359 69.0725994,16.9648645 69.0831946,16.8517649 C69.094497,16.7181667 69.0987351,16.5838619 69.1036802,16.4509701 C69.1057993,16.3696806 69.1149826,16.2912181 69.1149826,16.2099285 C69.1149826,16.1880157 69.1121575,16.166103 69.1121575,16.1434826 C69.1107445,16.0063498 69.1008552,15.870631 69.0909659,15.7342057 C69.0846088,15.6317099 69.0810767,15.5292141 69.0704814,15.4288387 C69.0577671,15.3093776 69.0351624,15.1913306 69.016797,15.0725771 C68.9984315,14.9580646 68.983597,14.842138 68.9602864,14.7290385 C68.9398019,14.6300772 68.9094281,14.5325289 68.8839984,14.4342741 C68.8522115,14.3070374 68.8239568,14.1783867 68.7836926,14.0539781 C68.7533188,13.9564297 68.7130547,13.8617095 68.6784417,13.7655752 C68.6339395,13.6447001 68.5943824,13.5217044 68.544936,13.4043639 C68.4954897,13.2912643 68.4375661,13.1816994 68.3831746,13.0700139 C68.3365533,12.9738796 68.2934641,12.8756248 68.2426047,12.7816111 C68.181856,12.6699256 68.1105121,12.5631887 68.0434062,12.4543313 C67.9890147,12.3652661 67.9374493,12.2733729 67.8795257,12.1864283 C67.8152449,12.0924145 67.7424879,12.0033494 67.673969,11.9121637 C67.600506,11.815323 67.5298681,11.7149476 67.4514599,11.6216404 C67.3878862,11.5452983 67.3165423,11.4731974 67.2487294,11.3982694 C67.1561939,11.29648 67.0636583,11.1925701 66.9647657,11.0957294 C66.9492252,11.0801782 66.9365109,11.0632129 66.9202645,11.0483682 C63.372121,7.63206849 59.184704,4.87032941 54.5473237,2.96107567 C49.9113553,1.0532349 44.8225985,0 39.525459,0 C39.52334,0 39.5212209,0 39.5191019,0 C39.5162768,0 39.5141578,0 39.5113327,0 C34.0771565,0 28.8640763,1.10766415 24.1341593,3.11093163 C17.0322213,6.11795338 11.0131619,11.1225886 6.75369386,17.4299835 C4.62396039,20.5847418 2.93500698,24.0681939 1.77795717,27.7891541 C0.621614428,31.5079938 0,35.4657557 0,39.5450992 C-0.000705653869,44.9851662 1.10619074,50.2053968 3.10877678,54.940715 C6.11442136,62.0468725 11.1155878,68.0701068 17.4186109,72.3325292 C20.5704754,74.4644474 24.051513,76.1538647 27.7698942,77.3117171 C31.4854503,78.4688619 35.4404689,79.0909071 39.5155719,79.0909071 C39.5162779,79.0909071 39.5169839,79.0909071 39.5191029,79.0909071 C39.521222,79.0909071 39.5247541,79.0909071 39.5261672,79.0909071 C44.7335962,79.0909071 49.7390007,78.0737221 54.3092752,76.2259657 C58.8823759,74.3775028 63.0245847,71.7027094 66.5543626,68.3874926 C66.5812054,68.3620452 66.60381,68.3351839 66.6299457,68.3097365 C66.7238943,68.2192573 66.8128977,68.123123 66.9011952,68.0276953 C66.9753652,67.9471122 67.0516543,67.8679432 67.1208792,67.7852396 C67.1971683,67.6954669 67.2685122,67.6014531 67.3398562,67.5067329 C67.4126132,67.4127191 67.4860762,67.3194119 67.553182,67.2225711 C67.6139307,67.1320919 67.6704412,67.0380782 67.7276578,66.9454784 C67.7933506,66.8408621 67.8604564,66.7369522 67.919792,66.6288013 C67.9741835,66.5319605 68.0208048,66.4308787 68.0702511,66.3312099 C68.1232296,66.2237654 68.1783271,66.1184415 68.2249484,66.0095841 C68.2722757,65.9000191 68.3125398,65.7855067 68.354923,65.6724071 C68.3937741,65.5692037 68.4354502,65.4667079 68.4679442,65.362798 C68.5060882,65.244751 68.535756,65.1231693 68.5682499,65.0022942 C68.5965047,64.8976778 68.6254665,64.7944744 68.6487771,64.6891505 C68.6742068,64.57181 68.6918663,64.4530564 68.7116449,64.3335953 C68.7307174,64.2190828 68.7512019,64.1045703 68.7639162,63.9893503 C68.7773376,63.8804929 68.7829888,63.7688074 68.790053,63.658536 C68.7992363,63.5291787 68.8084196,63.400528 68.8098326,63.2718773 C68.8105386,63.2344133 68.8154838,63.1990698 68.8154838,63.1616058 C68.8154838,63.0916254 68.8063005,63.0223525 68.8041815,62.9516655 L68.8041825,62.9516569 Z" id="路径"></path>
                <path d="M133.082742,38.2686557 C130.745768,32.860126 126.871555,28.3032274 122.015883,25.0878422 C119.586279,23.4801491 116.908482,22.2080118 114.051789,21.3372665 C111.196509,20.4665213 108.162333,19.9999999 105.040476,19.9999999 C105.039062,19.9999999 105.03694,19.9999999 105.03694,19.9999999 C100.870693,19.9992929 96.8656652,20.8303946 93.2269157,22.3389779 C87.7666709,24.6036233 83.1217151,28.3761434 79.8195471,33.1617018 C78.1691704,35.5551886 76.855374,38.2042356 75.9552329,41.0387579 C75.0550919,43.8732803 74.5707263,46.8932792 74.5714308,50.0003523 C74.5650694,66.5225622 88.175376,79.9999999 105.032697,79.9999999 C105.032697,79.9999999 105.035525,79.9999999 105.036939,79.9999999 C121.849005,80.0035364 135.50386,66.5721176 135.50174,50.0003533 C135.503153,45.8561738 134.639781,41.8719844 133.082741,38.2686579 L133.082742,38.2686557 Z M105.036938,65.6468653 C96.0984565,65.644033 88.9121744,58.6235628 88.907932,50.0003555 C88.9093465,47.8418985 89.349871,45.8221949 90.1510181,43.9638976 C91.3502643,41.1810533 93.3838904,38.7677447 95.9648142,37.0609429 C97.2538615,36.2078957 98.6758445,35.5318292 100.196821,35.0681396 C101.717092,34.6051585 103.335649,34.3538457 105.036937,34.3531382 C107.304615,34.3538457 109.427337,34.7998373 111.363383,35.6012064 C114.264624,36.8018439 116.733826,38.8173002 118.456327,41.3169754 C119.317578,42.5657512 119.993567,43.934166 120.455305,45.3875314 C120.916336,46.8408968 121.165236,48.3806289 121.165943,50.0003566 C121.15958,58.7063907 113.887739,65.6468653 105.036938,65.6468653 L105.036938,65.6468653 Z" id="形状"></path>
                <path d="M187.145772,58.9933208 C185.299002,58.9933208 183.621467,59.7002571 182.352913,60.8509683 C180.938396,62.0553 179.305284,63.0317464 177.514926,63.7076395 C175.677323,64.4018758 173.680357,64.7863868 171.557875,64.7863868 C169.260518,64.7856816 167.109832,64.3369677 165.150944,63.5305531 C162.214727,62.3226946 159.720636,60.2971318 157.984574,57.7911066 C157.115837,56.5387997 156.435374,55.1679651 155.970685,53.713878 C155.505996,52.2590857 155.25567,50.7189245 155.254965,49.0990385 C155.262722,35.3166068 172.358214,28.3467256 182.685742,37.6349621 L182.691384,37.6293177 C183.957115,38.7694464 185.6276,39.4693271 187.464498,39.4693271 C191.4133,39.4693271 194.61324,36.2669491 194.61324,32.3174203 C194.61324,30.2050782 193.693028,28.3135658 192.238317,27.0048167 L192.243959,26.997761 C172.801045,9.50991262 140.953252,22.8662066 140.958188,49.0990385 C140.957484,53.2468197 141.826926,57.2351525 143.393754,60.8396796 C145.744701,66.2510563 149.641322,70.8045143 154.518798,74.013948 C156.957888,75.6190175 159.646599,76.8889625 162.513006,77.7574636 C165.377297,78.6252596 168.421401,79.0909086 171.554351,79.0909086 C171.555056,79.0909086 171.557171,79.0909086 171.557876,79.0909086 C175.418535,79.0916117 179.144512,78.3846753 182.568687,77.0893314 C185.994978,75.7932822 189.122993,73.9137636 191.827218,71.5678929 L191.814526,71.5537826 C193.330584,70.2422119 194.29381,68.3083675 194.29381,66.1459338 C194.29381,62.1956988 191.093869,58.9933208 187.145772,58.9933208 Z" id="路径"></path>
                <path d="M258.581,38.2686557 C256.244026,32.860126 252.369813,28.3032274 247.514141,25.0878422 C245.084537,23.4801491 242.40674,22.2080118 239.550047,21.3372665 C236.694767,20.4665213 233.660591,19.9999999 230.538734,19.9999999 C230.537319,19.9999999 230.535198,19.9999999 230.535198,19.9999999 C226.368951,19.9992929 222.363923,20.8303946 218.725174,22.3389779 C213.264929,24.6036233 208.619973,28.3761434 205.317805,33.1617018 C203.667428,35.5551886 202.353632,38.2042356 201.453491,41.0387579 C200.55335,43.8732803 200.068984,46.8932792 200.069689,50.0003523 C200.063327,66.5225622 213.673634,79.9999999 230.530955,79.9999999 C230.530955,79.9999999 230.533783,79.9999999 230.535197,79.9999999 C247.347263,80.0035364 261.002118,66.5721176 260.999998,50.0003533 C261.001411,45.8561738 260.138039,41.8719844 258.580999,38.2686579 L258.581,38.2686557 Z M230.535196,65.6468653 C221.596714,65.644033 214.410432,58.6235628 214.40619,50.0003555 C214.407604,47.8418985 214.848129,45.8221949 215.649276,43.9638976 C216.848522,41.1810533 218.882148,38.7677447 221.463072,37.0609429 C222.752119,36.2078957 224.174102,35.5318292 225.695079,35.0681396 C227.215349,34.6051585 228.833907,34.3538457 230.535195,34.3531382 C232.802873,34.3538457 234.925595,34.7998373 236.861641,35.6012064 C239.762882,36.8018439 242.232084,38.8173002 243.954585,41.3169754 C244.815835,42.5657512 245.491825,43.934166 245.953563,45.3875314 C246.414594,46.8408968 246.663494,48.3806289 246.664201,50.0003566 C246.657837,58.7063907 239.385997,65.6468653 230.535196,65.6468653 L230.535196,65.6468653 Z" id="形状"></path>
            </g>
            <g id="coco-Logo备份">
                <mask id="mask-2" fill="white">
                    <use xlink:href="#path-1"></use>
                </mask>
                <g id="矩形"></g>
                <g id="Logo" mask="url(#mask-2)">
                    <g transform="translate(0, -8.0086)">
                        <rect id="bg-1" fill="url(#radialGradient-3)" x="0" y="8.00858816" width="128" height="128" rx="32.0427328"></rect>
                        <rect id="bg-2" fill="url(#linearGradient-4)" x="0" y="8.00858816" width="128" height="128" rx="32.0427328"></rect>
                        <rect id="bg-3" fill="url(#linearGradient-5)" x="0" y="8.00858816" width="128" height="128" rx="32.0427328"></rect>
                        <g id="coco" stroke-width="1" fill="none" transform="translate(6.0983, 19.1694)">
                            <path d="M42.0234848,20.6474052 C49.1241221,23.4191892 55.0171827,23.3688506 59.7026667,20.4963894 C64.9916265,23.623301 70.2544733,24.0435412 75.4912072,21.7571101 C79.6860009,24.2628603 84.5056914,25.2479713 89.9502789,24.712443 C89.1424379,27.8748305 88.5085554,30.7928484 88.0486314,33.4664968 C68.8135921,33.4490225 59.0970376,33.4277258 58.8989678,33.4026067 C58.7008981,33.3774877 53.2660757,31.3985259 42.5945005,27.4657215 L42.0234848,20.6474052 Z" id="Outline3" fill="#FFFFFF" transform="translate(65.9869, 26.9814) rotate(8) translate(-65.9869, -26.9814)"></path>
                            <path d="M57.9949844,17.7109887 C59.0267674,17.0784486 60.3236776,17.0680543 61.3654666,17.6839754 C65.7696936,20.2878199 69.9302921,20.6200453 74.1838317,18.7628905 C75.150418,18.3408654 76.2612803,18.4113889 77.1667368,18.9522612 C80.7420623,21.0879736 84.8617094,21.9300005 89.6304436,21.460949 C91.8860862,21.2390846 93.6768893,23.3252202 93.1159127,25.5212286 C92.3286803,28.6029411 91.7130873,31.436765 91.2686271,34.0205187 C90.9987545,35.5893529 89.6375314,36.7353532 88.0456552,36.7339084 C65.5525377,36.7134729 58.9206396,36.6989372 58.4878958,36.6440569 C57.8662971,36.5652262 55.4028862,35.6682335 41.4646736,30.5315725 C40.2735726,30.092615 39.4445309,29.0034907 39.3385919,27.7385076 L38.7675762,20.9201913 C38.5658198,18.5110817 40.9595347,16.7247922 43.2115775,17.603893 C49.4327511,20.0323721 54.2758861,19.991002 57.9949844,17.7109887 Z M59.6958768,24.2101026 L59.5218956,24.2914661 C55.7192518,26.0404906 51.3969636,26.3992246 46.622024,25.4286486 L46.3806768,25.3785026 L46.4764259,25.4137548 C50.3651045,26.845131 53.4158261,27.9638687 55.6278652,28.769706 L55.7921956,28.8295572 C57.1439826,29.3217783 58.1686787,29.6919786 58.8637114,29.9392585 C59.0900228,30.019776 59.2800623,30.0867876 59.432565,30.1398781 L59.4926768,30.1605026 L59.605056,30.1608905 C59.6270154,30.1608992 59.6501716,30.1609108 59.674515,30.1609251 L60.0230009,30.1612292 C60.0566869,30.1612652 60.0915215,30.1613039 60.127495,30.1613452 L60.3569245,30.1616234 C63.4746693,30.1655807 73.2300862,30.1842647 85.2121237,30.196564 L85.3370768,30.1965026 L85.3629167,30.0695212 C85.4617813,29.5823715 85.5655519,29.088572 85.6742261,28.5881124 L85.7830768,28.0901026 L85.7201699,28.0875313 C81.9792793,27.9079124 78.4986247,27.0087319 75.3061969,25.3853428 L75.2534768,25.3581026 L75.0793037,25.4189997 C69.9838053,27.151963 64.812237,26.742784 59.747532,24.2361615 L59.6958768,24.2101026 Z" id="Outline3" fill="#5B1602" fill-rule="nonzero" transform="translate(65.9877, 26.9816) rotate(8) translate(-65.9877, -26.9816)"></path>
                            <path d="M99.8356243,3.14651783 C101.564316,2.62905189 103.385186,3.61094409 103.902652,5.33963544 C104.420118,7.06832679 103.438226,8.88919704 101.709534,9.40666298 L82.6452614,15.1129904 L62.0898902,73.2860595 C61.5000379,74.9553422 59.6920724,75.845379 58.0171721,75.3105673 L57.9207004,75.2781274 C56.2193161,74.6769318 55.3274369,72.8103219 55.9286326,71.1089376 L77.0375357,11.3707156 C77.3851475,10.3869739 78.1816789,9.6284032 79.1812096,9.32920399 L99.8356243,3.14651783 Z" id="Straw" fill="#00DBFF" fill-rule="nonzero" transform="translate(79.8909, 39.2371) rotate(8) translate(-79.8909, -39.2371)"></path>
                            <path d="M24.2338932,33.0324098 C29.7541208,30.4154499 35.0992423,26.0640056 40.2692577,19.9780768 C44.1993061,25.9016752 49.7043656,28.1118935 56.7844363,26.6087317 C60.3370515,31.3157996 68.0272819,32.4955652 73.2945922,29.1762122 C79.4489046,30.5019415 84.4160577,28.790909 88.1960518,24.0431147 C90.9396583,29.9126682 95.1897416,35.4015714 100.946301,40.5098243 L103.425738,47.3331006 L96.8778554,58.1954872 L41.4689161,58.4020975 L17.2219574,47.65753 L24.2338932,33.0324098 Z" id="Outline2" fill="#FFFFFF" transform="translate(60.3238, 39.1901) rotate(8) translate(-60.3238, -39.1901)"></path>
                            <path d="M37.7791716,17.862675 C39.1867742,16.2057033 41.789881,16.3600252 42.9918492,18.1717019 C46.1762729,22.9714511 50.3296078,24.6389674 56.1058917,23.4126112 C57.3468327,23.1491484 58.6281074,23.6278182 59.3923363,24.6403898 C61.8932382,27.9539811 67.683048,28.8504892 71.5526508,26.4119434 C72.2753199,25.9565319 73.1476001,25.8022409 73.9826411,25.982121 C78.9370103,27.0493649 82.6424271,25.772962 85.6399443,22.0079839 C87.1505582,20.1106041 90.1289685,20.462398 91.1559634,22.6595065 C93.7018524,28.1060716 97.6782953,33.2415734 103.114922,38.0659246 C103.52143,38.426651 103.831533,38.8830834 104.017148,39.3938857 L106.496585,46.217162 C106.833602,47.1446149 106.733403,48.1747003 106.223964,49.0198165 L99.6760816,59.8822031 C99.0870586,60.8593426 98.0309806,61.458449 96.8900461,61.4627033 L41.4811068,61.6693363 C41.0210577,61.671029 40.5658323,61.5755711 40.1452264,61.3891878 L15.8982676,50.6446203 C14.2134721,49.898036 13.4790939,47.9066283 14.2757821,46.2449388 L21.2877179,31.6198186 C21.6115166,30.9444566 22.1575168,30.4008434 22.834291,30.0800069 C27.9035635,27.67683 32.8916971,23.6160083 37.7791716,17.862675 Z M40.1355649,25.0236173 L39.916716,25.2546834 C35.7145723,29.658413 31.3668726,33.0363223 26.8650947,35.3731888 L26.6923649,35.4612173 L21.6235649,46.0340173 L42.1535649,55.1320173 L95.0279649,54.9348173 L99.8219649,46.9820173 L98.1543649,42.3936173 L98.1209666,42.363584 C93.6754299,38.319573 90.0933697,34.0254107 87.3870601,29.481061 L87.3659649,29.4456173 L87.3092246,29.4898879 C83.5564019,32.3585123 79.0332979,33.418012 73.9311746,32.617155 L73.8635649,32.6060173 L73.8046319,32.6367288 C67.9250964,35.6016943 60.3287595,34.5955798 55.6968629,30.2641762 L55.5599649,30.1340173 L55.4805248,30.1450159 C49.4603733,30.9266267 44.3050992,29.2364703 40.2797344,25.1711361 L40.1355649,25.0236173 Z" id="Outline2" fill="#5B1602" fill-rule="nonzero" transform="translate(60.3234, 39.19) rotate(8) translate(-60.3234, -39.19)"></path>
                            <path d="M96.0018401,39.6820747 C98.0566156,43.8657501 99.1369197,48.9850603 99.1369197,55.1509435 C99.1369197,67.5675163 94.1867386,78.8108548 86.1764445,86.9485795 C78.1846673,95.0674927 67.1453978,100.093707 54.949089,100.093707 C42.7527801,100.093707 31.7135106,95.0674927 23.7217334,86.9485795 C15.7114393,78.8108548 10.7612582,67.5675163 10.7612582,55.1509435 C10.7612582,49.6966653 11.8301506,45.0718977 13.7914088,41.1947159 C14.748737,42.4696169 15.8690269,43.5967865 17.155653,44.5372322 C19.7514211,46.4345812 23.0388328,47.6072373 27.1404862,47.6072373 C31.7688374,47.6072373 36.0533021,46.3374994 39.5776302,44.194404 C43.8002716,46.3446995 48.8382355,47.6072373 54.2550443,47.6072373 C59.6005693,47.6072373 64.5772772,46.3777438 68.7652544,44.2794375 C72.2145858,46.3782446 76.3467648,47.6072373 80.7926969,47.6072373 C85.3547166,47.6072373 89.097679,46.2238817 92.0340583,43.960342 C93.5804957,42.7682541 94.9068537,41.3227429 96.0018401,39.6820747 Z" id="Outline" stroke="#5B1602" stroke-width="6.53459682" fill="#8C3201" transform="translate(54.9491, 68.159) rotate(15) translate(-54.9491, -68.159)"></path>
                            <g id="Line" transform="translate(51.4059, 82.9681) rotate(15) translate(-51.4059, -82.9681)translate(29.5366, 63.1288)" fill="#5B1602">
                                <path d="M38.2584787,1.07577632 L38.3583734,1.0769514 C40.1622162,1.12486781 41.5856758,2.62601524 41.5377594,4.42985803 C41.3460173,11.6481073 39.8852898,18.0709798 37.1365094,23.6702602 C34.4343409,29.174592 31.0886598,33.7969515 27.0966656,37.5170351 C25.776539,38.7472427 23.7090847,38.6743489 22.4788772,37.3542223 C21.2486696,36.0340957 21.3215634,33.9666414 22.64169,32.7364339 C26.0309855,29.5779967 28.9082328,25.6028207 31.2706312,20.7906025 C33.5864177,16.0733329 34.8377187,10.5713163 35.0054668,4.25633734 C35.0533832,2.45249455 36.5545307,1.02903498 38.3583734,1.0769514 L38.2584787,1.07577632 Z" id="路径-5" fill-rule="nonzero" transform="translate(31.5704, 19.7349) rotate(-7) translate(-31.5704, -19.7349)"></path>
                                <path d="M8.96312362,19.0531256 C9.55542045,17.3486229 11.4173443,16.447002 13.1218469,17.0392988 C14.8263496,17.6315956 15.7279705,19.4935195 15.1356737,21.1980221 C14.0437679,24.3402917 12.9964522,26.8198634 11.9685786,28.6645532 C11.0601418,30.2948936 9.34008196,32.7999163 6.76527133,36.2634902 C5.68871337,37.7116503 3.64202498,38.0128934 2.19386486,36.9363355 C0.745704743,35.8597775 0.444461673,33.8130891 1.52101963,32.364929 C3.9350714,29.1176041 5.52921382,26.7959622 6.26031921,25.4838723 C7.0759051,24.0201682 7.9852226,21.867314 8.96312362,19.0531256 Z" id="路径-5备份" fill-rule="nonzero" transform="translate(8.0966, 27.2195) scale(-1, 1) rotate(-5) translate(-8.0966, -27.2195)"></path>
                                <path d="M18.1133216,31.0410044 C23.9251275,30.8924794 29.5048825,26.461655 34.8525867,17.7485311 C40.200291,9.03540724 37.5825206,15.0627063 26.9992755,35.8304284 L18.1133216,31.0410044 Z" id="路径-8" transform="translate(27.8293, 24.8581) rotate(-15) translate(-27.8293, -24.8581)"></path>
                                <path d="M5.35463491,26.2957951 C8.30414156,31.6170592 13.7728561,31.9831812 21.7607787,27.3941611 C19.2085229,30.3881564 15.9560146,33.0977178 12.0032539,35.5228451 C9.17988261,32.7611112 7.23073286,30.6426682 6.15580465,29.167516 C5.08087643,27.6923638 4.81381985,26.7351235 5.35463491,26.2957951 Z" id="路径-8" transform="translate(13.4219, 30.9093) scale(-1, 1) rotate(-38) translate(-13.4219, -30.9093)"></path>
                            </g>
                        </g>
                        <g id="flower" stroke-width="1" fill="none" transform="translate(0.0086, 0)">
                            <g id="C" transform="translate(45.0928, 45.0928) rotate(-225) translate(-45.0928, -45.0928)translate(13.2046, 13.2102)">
                                <mask id="mask-8" fill="white">
                                    <use xlink:href="#path-7"></use>
                                </mask>
                                <use id="形状结合" fill="url(#linearGradient-6)" fill-rule="nonzero" transform="translate(31.8882, 31.8826) rotate(-18) translate(-31.8882, -31.8826)" xlink:href="#path-7"></use>
                            </g>
                            <g id="M" transform="translate(45.0928, 45.0928) rotate(-225) translate(-45.0928, -45.0928)translate(13.2046, 13.2102)">
                                <mask id="mask-11" fill="white">
                                    <use xlink:href="#path-10"></use>
                                </mask>
                                <use id="形状结合" fill="url(#radialGradient-9)" fill-rule="nonzero" transform="translate(31.8882, 31.8826) rotate(-18) translate(-31.8882, -31.8826)" xlink:href="#path-10"></use>
                            </g>
                        </g>
                    </g>
                </g>
            </g>
        </g>
    </g>
</svg>