<?xml version="1.0" encoding="UTF-8"?>
<svg width="25px" height="24px" viewBox="0 0 25 24" version="1.1" xmlns="http://www.w3.org/2000/svg" xmlns:xlink="http://www.w3.org/1999/xlink">
    <title>discord</title>
    <g id="官网3" stroke="none" stroke-width="1" fill="none" fill-rule="evenodd">
        <g id="coco-AI-eng-light" transform="translate(-1572, -10814)" fill-rule="nonzero">
            <g id="discord" transform="translate(1572, 10814)">
                <rect id="矩形" fill="#000000" opacity="0" x="1" y="0" width="24" height="24"></rect>
                <path d="M20.3169016,4.49202899 C18.7609921,3.78932785 17.1189953,3.28824996 15.4320343,3.00134469 C15.4004619,2.99530011 15.3685374,3.01001856 15.3530522,3.03775853 C15.1430583,3.40673979 14.9090416,3.88888299 14.7450541,4.26768838 C12.926535,3.99590532 11.0767311,3.99590532 9.25821204,4.26768838 C9.07570269,3.84685682 8.86973141,3.43625597 8.64123761,3.03775853 C8.62510711,3.01069296 8.59368974,2.99621262 8.56223207,3.00134469 C6.87527281,3.28670557 5.23232791,3.78852009 3.67736485,4.49202899 C3.66419691,4.49746658 3.65303395,4.50673669 3.64537359,4.51859564 C0.533455342,9.09299472 -0.319504484,13.5542088 0.0994756449,17.9593608 C0.101647754,17.9814217 0.112839983,18.0016661 0.130482565,18.0154459 C1.94202345,19.3361086 3.96847757,20.3442495 6.12330227,20.9968145 C6.15440599,21.0059746 6.18800679,20.9949507 6.20729985,20.9692563 C6.66928655,20.3493677 7.08125907,19.6950487 7.43426454,19.0072676 C7.44416404,18.9881372 7.44523156,18.9657434 7.43719543,18.9457852 C7.42915929,18.925827 7.41279448,18.9102291 7.39226575,18.9029612 C6.74570665,18.6595095 6.11976618,18.3660353 5.52031962,18.0252931 C5.49820409,18.0123624 5.48399061,17.9895331 5.48232853,17.9642729 C5.48069686,17.9390579 5.49194791,17.9147022 5.51232767,17.8993322 C5.63832404,17.8068562 5.76432041,17.7104137 5.88431696,17.6120341 C5.90612258,17.5949197 5.93577937,17.5911265 5.96130693,17.6021869 C9.88920169,19.3664017 14.1410637,19.3664017 18.022952,17.6021869 C18.0487187,17.5904777 18.0790218,17.5943035 18.1009497,17.6120341 C18.2209463,17.7084535 18.3469426,17.8068562 18.4739468,17.8993322 C18.4941673,17.9143957 18.5054196,17.9383909 18.5039459,17.9633043 C18.5030387,17.9885357 18.4895782,18.0117143 18.467947,18.0252931 C17.868972,18.3686763 17.2429744,18.6619011 16.5949931,18.901001 C16.5633332,18.9122822 16.5429904,18.9427158 16.5450023,18.9757889 C16.5460101,18.9875963 16.5489866,18.9974204 16.5540021,19.0072676 C16.9139917,19.694057 17.3259876,20.3474075 17.7789746,20.9682877 C17.7982738,20.9939737 17.8318734,21.0049879 17.8629722,20.9958229 C20.0213867,20.345255 22.0511322,19.3369908 23.8647916,18.0144543 C23.8826411,18.0020183 23.894273,17.9826993 23.8967829,17.961321 C24.3967841,12.8674194 23.0588226,8.44259606 20.347885,4.52057892 C20.3416323,4.5073009 20.3305906,4.49678124 20.3169016,4.49106041 L20.3169016,4.49202899 Z M8.02025548,15.276129 C6.8382895,15.276129 5.86331756,14.208551 5.86331756,12.8959693 C5.86331756,11.5843562 6.81928224,10.5157865 8.02025548,10.5157865 C9.23020503,10.5157865 10.1961772,11.5941803 10.1771934,12.8969379 C10.1771934,14.208551 9.22120529,15.276129 8.02025548,15.276129 Z M15.9950103,15.276129 C14.81206,15.276129 13.8380724,14.208551 13.8380724,12.8959693 C13.8380724,11.5843562 14.7930527,10.5157865 15.9950103,10.5157865 C17.2049833,10.5157865 18.1709555,11.5941803 18.1519482,12.8969379 C18.1519482,14.208551 17.2059911,15.276129 15.9950103,15.276129 Z" id="形状" fill="#5865F2"></path>
            </g>
        </g>
    </g>
</svg>