<?xml version="1.0" encoding="UTF-8"?>
<svg width="32px" height="32px" viewBox="0 0 32 32" version="1.1" xmlns="http://www.w3.org/2000/svg" xmlns:xlink="http://www.w3.org/1999/xlink">
    <title>Tux-simple</title>
    <g id="COCO" stroke="none" stroke-width="1" fill="none" fill-rule="evenodd">
        <g id="Coco--new2" transform="translate(-1232, -5178)">
            <g id="Tux-simple" transform="translate(1232, 5178)">
                <rect id="矩形" x="0" y="0" width="32" height="32"></rect>
                <path d="M16.0359124,0.000621832081 C15.1384972,0.000621832081 14.987999,0.0114860781 14.3915802,0.163585522 C13.6558113,0.353709828 13.2266127,0.59272324 12.724952,1.08704643 C12.4685477,1.33149197 12.3403455,1.48902354 12.2177174,1.69001209 C11.911147,2.20606377 11.7104827,2.79273306 11.5878546,3.58582302 C11.5209665,3.97150375 11.5153925,4.11273895 11.5209665,5.0687926 C11.5209665,6.07373536 11.6435946,9.13745274 11.7160567,10.0554815 C11.7662228,10.6638793 11.7439268,10.7290648 11.2199701,11.4406729 C11.0360278,11.6905506 10.7796235,12.0545028 10.6514213,12.2500592 C10.3002589,12.7769752 9.80417223,13.4559905 9.3972697,13.9774743 C8.64477871,14.9226637 8.45526246,15.2703196 7.98147184,16.52514 C7.52440325,17.7527998 7.24570288,18.3611976 6.571248,19.6377465 C6.22565955,20.278737 6.13647543,20.5503432 6.11975341,21.0066415 C6.09745738,21.3977544 6.15319745,21.9409667 6.21451153,22.0387449 C6.2646776,22.1039304 6.32599168,22.1202267 6.44861984,22.087634 C6.43189782,22.1039304 6.4207498,22.1147946 6.40960179,22.1202267 C6.21451153,22.2451656 5.99155124,22.5113396 5.85220106,22.8481312 C5.84662705,22.8535633 5.84662705,22.8644276 5.84105305,22.8698597 C5.79088698,22.9459094 5.73514691,23.0762804 5.66825882,23.2772689 C5.46759456,23.8313455 5.30037434,24.075791 4.99937795,24.2333226 C4.74297361,24.3691257 4.51443931,24.4017184 3.84555844,24.4017184 C3.15438153,24.4017184 3.00388334,24.4343111 2.79764507,24.6081391 C2.42976058,24.912338 2.37402051,25.5153036 2.62485084,26.3518506 C2.85338514,27.1069157 2.84223712,27.4545715 2.54681474,28.3019827 C2.38516853,28.7691453 2.3628725,28.8669235 2.3628725,29.0679121 C2.3628725,29.2200115 2.37959452,29.3340861 2.41303856,29.4047037 C2.48550066,29.551371 2.71403496,29.7306311 2.93699525,29.8229772 C3.18782558,29.9153233 4.44755122,30.2195221 5.3505404,30.3933501 C6.74961623,30.6703884 7.25127689,30.8170557 8.55002059,31.3222431 C9.7038401,31.7676772 10.1943527,31.9306409 10.5845332,31.9903942 C10.7684755,32.0175549 11.147508,31.9849621 11.3203022,31.9197766 C11.5265405,31.849159 11.7216307,31.7187881 12.1508293,31.3657001 C12.9088943,30.7464381 13.3213708,30.5508816 14.1686199,30.4205107 C14.4863384,30.3716216 14.7761867,30.3661895 17.2008799,30.3661895 C18.6724178,30.3661895 19.9711615,30.3770537 20.0882157,30.3933501 C20.361342,30.4259428 20.4672482,30.5128568 20.6957825,30.9039696 C21.0469449,31.5177995 21.4761435,31.7894057 22.2565045,31.9034803 C22.624389,31.9578015 23.2542518,31.9632336 23.5441002,31.9197766 C24.179537,31.8165663 24.4972554,31.6318741 25.2163024,30.9311303 C26.0524035,30.1108797 26.8327645,29.594828 27.9308439,29.1276654 C28.4882447,28.888652 28.739075,28.7528489 29.3968079,28.3182791 C30.2050389,27.785931 30.3611111,27.6175352 30.3611111,27.2698793 C30.3611111,26.9059271 30.1604468,26.6777779 29.4191039,26.1997511 C28.711205,25.7434528 28.3934865,25.4664145 28.0980642,25.0427089 C27.8918259,24.7439421 27.8193638,24.515793 27.7914938,24.0703589 C27.7803457,23.8639382 27.7580497,23.722703 27.7301797,23.6357891 C27.7023096,23.326158 27.5741075,22.97307 27.3455732,22.8589955 C27.0278548,22.6960318 26.9163746,22.7449209 26.8104685,22.8101064 C27.1672049,22.4189935 27.2842591,22.2343013 27.4013132,21.8975097 C27.6075515,21.2999762 27.5629595,20.631825 27.206223,18.8935457 C26.7937464,16.8727959 26.0914215,15.4278512 24.6421796,13.6135221 C23.7224684,12.4564799 23.3490099,11.8806749 22.4515948,10.2401737 C22.0056742,9.41992313 21.877472,9.13745274 21.7715659,8.69745077 C21.6154937,8.06189238 21.5430316,7.49151946 21.4259774,5.86731468 C21.3144973,4.35175236 21.2364612,3.72705822 21.091537,3.20014229 C20.7069305,1.76606181 19.553111,0.679637208 17.9422229,0.228770999 C17.25662,0.0386466932 16.9611976,0.000621832081 16.0359124,0.000621832081 L16.0359124,0.000621832081 Z" id="路径" fill="#FFFFFF" fill-rule="nonzero"></path>
                <path d="M19.4588701,8.96425905 C19.4588701,9.72192174 18.5327415,9.88190629 18.0836156,10.1535782 C17.6654639,10.5309002 15.2587685,11.5964577 14.6206999,11.5964577 C13.5954539,11.3851574 12.3471935,9.8939806 12.1861277,8.90388753 C12.1861277,8.32733943 12.9388008,7.86549723 13.3600499,7.48817518 C13.7782016,7.11085312 14.2613992,6.7546611 15.0853129,6.90558993 C15.7233815,6.90558993 16.7207507,7.20141042 17.1389025,7.57873247 C17.9752059,7.85040435 19.4588701,8.02548178 19.4588701,8.96425905 Z M2.59642212,29.2098512 C3.5488788,29.6324519 5.76818031,30.1727771 6.54873018,30.2633344 C7.07219418,30.4746347 10.528915,31.2594646 11.324952,31.2594646 C12.5050691,30.444449 12.7002065,29.2098512 12.3687826,27.9601606 C10.897508,25.6449124 9.76075483,22.6112431 7.01024577,21.5668157 C6.73457538,21.699633 6.50846372,22.0588436 6.40934627,22.1192152 C6.21111139,22.2429768 5.99119456,22.5116301 5.85181065,22.8466921 C5.70623191,23.1968469 5.57304284,23.6254848 5.41073803,24.2503301 C5.09294273,24.8721569 3.79543344,24.3107017 2.90678361,24.7634881 C2.58279347,25.7203768 3.13568296,28.0809036 2.59642212,29.2098512 L2.59642212,29.2098512 Z M28.1997897,25.6630239 C28.7944943,26.1369404 29.7268178,26.4901138 30.1480669,27.2779623 C29.3458351,28.2107024 28.6551104,28.5397272 27.6391566,29.0106252 C26.2453176,29.6566005 25.3718451,30.2633344 24.7337766,30.6859351 C24.095708,31.2292788 22.6151412,31.5613223 21.943001,31.470765 C21.5186545,31.1990931 21.0416518,27.899789 21.1965228,26.8221572 C21.1965228,26.2486277 20.4748239,23.9514911 21.6301616,22.5508716 C22.7483303,22.3425898 23.7085305,23.33872 24.4178397,24.0178997 C25.0032521,23.6345405 25.9293807,23.0459181 26.6293977,22.8980079 C26.8586068,22.8466921 26.867899,22.6142617 27.3479991,22.8587664 C27.5772082,22.9764909 27.7103973,23.3447572 27.7351767,23.6586891 C27.7754431,24.16581 27.8280993,25.2404232 28.1997897,25.6630239 Z" id="形状" fill="#F8BF11" fill-rule="nonzero"></path>
                <path d="M10.5847615,31.983923 C10.1944866,31.9235514 9.70199677,31.7726226 8.54975649,31.3198361 C7.24884005,30.8066781 6.75015541,30.6859351 5.35012152,30.3840774 C4.44877227,30.2331486 3.18471512,29.9161981 2.93785074,29.8196036 C2.71452675,29.7320649 2.48252998,29.5509503 2.41159906,29.4030401 C2.37851861,29.3366314 2.36111111,29.2189069 2.36111111,29.0679781 C2.36111111,28.8627149 2.38356121,28.7721576 2.5457793,28.3042783 C2.8405298,27.4530397 2.85477793,27.1059034 2.62559981,26.3512593 C2.37179721,25.5151137 2.43117475,24.9113984 2.79685617,24.6065221 C3.00345409,24.4344633 3.15398871,24.4042775 3.84378417,24.4042775 C4.51406588,24.4042775 4.74048729,24.3710732 5.0000511,24.2322187 C5.29895214,24.0722341 5.46714205,23.830748 5.66537694,23.2753299 C5.79237116,22.9161193 5.8760015,22.7742462 5.95653443,22.7742462 C6.02158025,22.7742462 6.07733381,22.9312122 6.07733381,23.1213825 C6.07733381,23.2904228 5.88219634,24.0028069 5.78617632,24.18694 C5.68396146,24.3861661 5.54457755,24.5401135 5.38382145,24.6306708 C5.08399118,24.8027296 4.50632233,24.8480083 3.87259018,24.7544324 C3.46775737,24.6910423 3.23545086,24.7061352 3.08057985,24.7966925 C2.85137077,24.9325284 2.81389198,25.2374046 2.98022344,25.6147267 C3.30235513,26.3422036 3.36399379,26.4991696 3.43213704,26.7436743 C3.5129797,27.0364762 3.52598887,27.2930552 3.47519118,27.5979314 C3.42470323,27.899789 3.33580727,28.0899594 3.0728363,28.4491699 C2.9371693,28.6363217 2.81296276,28.8355477 2.79654643,28.8959193 C2.75008513,29.0589224 2.81853811,29.182684 3.00314435,29.2762599 C3.15987381,29.3517243 5.39497216,29.9161981 6.97403693,30.2633344 C7.46033189,30.3840774 8.34619404,30.5953778 8.9408987,30.7463066 C9.53870078,30.8972354 10.1581848,31.0179785 10.3192507,31.0481643 C10.8179353,31.1085358 11.2794509,31.0481643 11.5984852,30.8670497 C12.0414162,30.5953778 12.3511582,29.9705325 12.3883273,29.2430555 C12.4131066,28.7631019 12.3046969,28.3314455 12.0166369,27.7730088 C11.79672,27.344371 11.6883103,27.1783493 10.6444798,25.6418939 C8.8015148,22.9372494 8.00238041,22.034695 7.32094799,21.8958405 C7.10103116,21.8535804 6.95545241,21.877729 6.6611975,22.0075278 C6.37933227,22.1312895 6.28331225,22.1373266 6.21516901,22.0377136 C6.15012318,21.9411192 6.09746704,21.400794 6.11605156,21.008379 C6.1377335,20.552574 6.22755869,20.2809021 6.5682749,19.6349268 C7.24351248,18.3610875 7.51918287,17.7513351 7.98069847,16.525793 C8.45460375,15.2700652 8.64664379,14.9229289 9.39312204,13.9750959 C9.80198149,13.4589194 10.2975687,12.7767211 10.6475772,12.2514888 C10.7807662,12.0552813 11.0378521,11.6900336 11.2205999,11.4394917 C11.7409665,10.7271077 11.7657458,10.660699 11.7161871,10.0539651 C11.641849,9.13933649 11.5179522,6.07246283 11.5179522,5.07029545 C11.5148548,4.1164253 11.5210497,3.97153363 11.5829981,3.58515585 C11.7099923,2.79549625 11.9082272,2.2029497 12.2179692,1.6897917 C12.3356711,1.48935823 12.4688602,1.33088296 12.7197512,1.08396341 C13.2215333,0.590728021 13.6551721,0.354071629 14.3892607,0.16691989 C14.9870628,0.0144214083 15.1388363,-0.000731845369 16.0339908,2.55958346e-05 C16.9570219,0.000837814377 17.2512769,0.0364268306 17.9389041,0.228951636 C19.5495626,0.679926955 20.7049003,1.76721819 21.0920778,3.19892899 C21.2345591,3.72717987 21.3119946,4.35504377 21.4235017,5.87036914 C21.5412037,7.49134468 21.6124444,8.06185563 21.7704128,8.70179383 C21.8757251,9.13646884 22.0027193,9.4232336 22.4487478,10.2412678 C23.3469996,11.8833734 23.7186901,12.4569029 24.6386238,13.6099991 C26.0882164,15.4271821 26.7882334,16.8700617 27.2032877,18.8925079 C27.559491,20.6312079 27.6028549,21.2983133 27.3984251,21.89901 C27.2745283,22.2612392 27.153729,22.4423538 26.7293824,22.8981588 C25.8373254,23.8610847 24.8430536,24.4648 24.1616211,24.4648 C23.5421371,24.4648 22.9753092,24.0542736 22.5695472,23.3086852 C22.3806046,22.8981588 22.4053839,22.569134 21.8633354,22.6868585 C21.6000547,22.7562857 21.3832353,23.0671991 21.3181895,23.4686698 C21.2686307,23.7554345 21.277923,24.8541963 21.3305791,25.1288868 C21.3522611,25.2526484 21.4265992,25.6209148 21.4885476,25.9439024 C21.6000547,26.5023391 21.6062495,26.5627106 21.6062495,27.1362401 C21.6062495,27.664491 21.5938599,27.8244756 21.5040347,28.4040422 C21.4204043,28.947386 21.4049172,29.1345377 21.4142095,29.4303582 C21.4265992,29.7744759 21.432794,29.8076803 21.5381063,30.0219992 C21.6651005,30.2936711 21.9438683,30.5955287 22.1854671,30.7464575 C22.7182234,31.078501 23.4616042,31.1086867 24.087283,30.8068291 C24.263836,30.7162718 24.5209219,30.5351572 24.9545607,30.2031138 C25.657675,29.6476957 26.181139,29.2945223 26.5776088,29.0983148 C26.7293824,29.025869 27.094878,28.890033 27.3891329,28.7964572 C28.6095164,28.413098 29.167052,28.1836861 29.476794,27.9331443 C29.845387,27.6403424 30.02194,27.3233919 29.9568942,27.0849243 C29.8732638,26.7891038 29.5232553,26.5778035 28.8077513,26.3966889 C28.2688002,26.2578344 28.1387085,26.1944443 27.9187917,25.9589953 C27.7236543,25.7507135 27.5718807,25.4518745 27.4603735,25.0534224 C27.3519638,24.664026 27.3364767,24.0331436 27.4293993,23.7856203 C27.4944452,23.6105428 27.559491,23.5290413 27.6338291,23.5290413 C27.7205568,23.5290413 27.7639207,23.6769515 27.7887001,24.072385 C27.8196743,24.5130972 27.8909149,24.7455276 28.0984421,25.0413481 C28.392697,25.4669674 28.7055364,25.7416578 29.4148456,26.2004814 C30.155129,26.6774165 30.3595588,26.9068283 30.3595588,27.2720761 C30.3595588,27.6192124 30.2015903,27.7882526 29.3962611,28.3165035 C28.7365106,28.7511785 28.488717,28.890033 27.9311814,29.125482 C26.8315973,29.5933613 26.0510474,30.1125565 25.2116465,30.9275721 C24.4930451,31.6218447 24.1802056,31.8331451 23.5390397,31.9237024 C23.2509796,31.9538881 22.6222033,31.9538881 22.2536103,31.8935166 C21.4730605,31.8029593 21.0487139,31.5312874 20.6925106,30.8973864 C20.4663989,30.5049714 20.3610867,30.4144141 20.0885137,30.3842284 C19.9708117,30.3842284 18.6698953,30.3540426 17.1955233,30.3540426 C14.7733408,30.3540426 14.4821833,30.3842284 14.1693439,30.4144141 C13.3206507,30.565343 12.902499,30.7464575 12.1467285,31.3501728 C11.7192845,31.712402 11.5241471,31.8331451 11.3166199,31.9237024 C11.1462618,31.9840739 10.7652791,32.0142596 10.5825314,31.9840739 L10.5847615,31.983923 Z M13.3786344,30.0369412 C13.4467777,29.9795882 13.5489926,29.8467708 13.6078435,29.7411207 C13.7007661,29.5720804 13.7131558,29.5207646 13.7224481,29.261167 C13.74413,28.7842319 13.6388177,28.5155786 13.2919067,28.1593866 C13.0534053,27.9148819 13.0193337,27.8092317 13.1556202,27.7488602 C13.2826144,27.6945258 13.4436803,27.7639531 13.7317403,27.9994021 C14.2768863,28.4491699 14.599018,28.5246344 15.7884273,28.5004857 C17.0676618,28.4703 17.7645813,28.3405012 18.4676957,27.9963835 C18.9230164,27.7730088 19.2234662,27.5194484 19.6044489,27.0274204 C19.8739244,26.6833027 19.9947238,26.5655783 20.1464974,26.5052067 C20.3973884,26.4025751 20.5305775,26.6018012 20.5243826,27.0757177 C20.5212852,27.2960737 20.4965059,27.4349283 20.394291,27.8031946 C20.1155232,28.7842319 20.0287954,29.3366314 20.1062309,29.617359 C20.1526922,29.7803622 20.298271,29.9041238 20.43146,29.8920495 C20.5243826,29.8829938 20.5274801,29.8769566 20.5522594,29.7018792 C20.5646491,29.6022661 20.6173052,29.2641856 20.6699614,28.9472351 C20.7195201,28.6333031 20.7814685,28.2257953 20.8093453,28.0416621 C20.8743911,27.5647271 20.9239498,26.0856246 20.9270473,24.4797419 C20.9301447,23.0942154 20.9301447,23.0911968 21.0044828,22.8798964 C21.0633337,22.7168933 21.1159899,22.6353917 21.2367893,22.5176673 C21.4257319,22.3365527 21.6022848,22.270144 22.001852,22.2429768 L22.2682302,22.2218468 L22.3053992,22.0377136 C22.3952244,21.6181315 22.6523103,21.3796639 23.1602872,21.2468466 C23.3244504,21.2045865 23.4886137,21.1894936 23.8417196,21.1894936 C24.3527939,21.1894936 24.4952752,21.2196794 24.9567908,21.4370169 C25.164318,21.5336113 25.3439683,21.5668157 25.3439683,21.5094627 C25.3439683,21.4641841 25.0930773,21.2347723 24.891745,21.0959177 C24.7864327,21.0204533 24.6036849,20.9238589 24.4890804,20.8785802 C24.331112,20.8151901 24.272261,20.7759486 24.2660661,20.73067 C24.2598713,20.6944471 24.3063326,20.4922025 24.368281,20.2778835 C24.5479314,19.6439825 24.6067823,19.2425118 24.6098798,18.6387965 C24.6160746,17.6456849 24.4364242,16.9876352 23.844817,15.8737805 C23.2965736,14.8414274 22.7173561,14.0837647 22.2589379,13.8000185 C22.1257488,13.7215355 21.9677804,13.6672011 21.9677804,13.7004055 C21.9677804,13.7124798 22.0792875,13.8724643 22.2124766,14.0596161 C22.8443503,14.9319847 23.5010034,16.0458394 23.7797712,16.7250191 C24.0058828,17.2683628 24.1762409,18.0048955 24.2288971,18.6750194 C24.3187223,19.7737813 24.0120777,20.7125585 23.4855163,20.9419704 C23.380204,20.9902676 23.262502,21.008379 23.0054161,21.0144162 C22.5965567,21.0295091 22.5408031,21.008379 22.4323934,20.7970787 L22.3549579,20.6461499 L22.3363734,19.4387193 C22.3023018,17.3830687 22.2031843,17.0329139 21.0974054,15.0859321 C20.7566891,14.4882539 20.6885459,14.331288 20.5429672,13.7879442 C20.2456148,12.6710709 19.9575548,12.0160398 19.5053314,11.4243988 C18.8146067,10.5248631 18.7247816,10.1505596 19.0004519,9.32045107 C19.1770049,8.78012589 19.1739075,8.50241686 18.9880623,8.3182837 C18.8517758,8.18244776 18.7464635,8.13415053 18.1238821,7.94096164 C17.1791689,7.64815973 16.7424327,7.38554358 16.6216333,7.03840729 C16.5008339,6.69730815 16.5875617,6.14189009 16.8043811,5.86719963 C16.9592521,5.66797359 17.157487,5.58345345 17.4610341,5.58345345 C17.6623665,5.58647202 17.7428994,5.6015649 17.8822833,5.66193643 C18.0960053,5.76154946 18.2663634,5.90342255 18.3530911,6.0634071 C18.4460137,6.23546596 18.4429163,6.64297378 18.3468963,6.94181284 C18.1889279,7.42780365 18.1951227,7.37648785 18.3066298,7.4730823 C18.5079621,7.64815973 18.8269964,7.66325261 18.9663803,7.50024948 C19.0871797,7.36139497 19.1243487,7.21952187 19.1398358,6.82106978 C19.1584204,6.38639478 19.1119591,6.09661144 18.9292113,5.55024911 C18.6783203,4.80164215 18.4274292,4.58430465 17.6685613,4.46356159 C17.1017334,4.3730043 16.7919914,4.44545013 16.5070288,4.73221489 C16.0610003,5.18500136 15.837986,5.90644112 15.9278112,6.63089947 C15.9773699,7.03237014 15.9680777,7.05048159 15.7357711,6.97803576 C15.528244,6.91464565 15.0729232,6.86332985 14.8096425,6.87238558 C14.5277773,6.88445989 14.5029979,6.86031128 14.5029979,6.55241648 C14.4999005,5.29970726 14.112723,4.61750899 13.4034138,4.62354614 C12.910924,4.62354614 12.5113568,4.98879389 12.3626806,5.56836056 C12.3038297,5.7947538 12.3162193,6.44374773 12.3812652,6.82106978 C12.5144542,7.56363959 12.8025143,7.93492449 13.028626,7.64514115 C13.1215486,7.52137952 13.2020815,7.36441354 13.2020815,7.31309774 C13.2020815,7.29196771 13.1308408,7.24367049 13.0472105,7.20442899 C12.9542879,7.16216892 12.8706575,7.09576024 12.8334885,7.03538871 C12.6569356,6.76069826 12.5702078,6.2686703 12.6445459,6.00605415 C12.7405659,5.67401074 13.2082763,5.46874754 13.530408,5.61665779 C13.802981,5.743438 14.0941385,6.32904183 14.0631643,6.69730815 C14.0383849,6.99011007 13.9826314,7.08066736 13.7100584,7.27687483 C13.5737719,7.37346927 13.3538551,7.54854671 13.2175686,7.66627119 C13.0812821,7.78399567 12.9140214,7.91983161 12.8458782,7.96812883 C12.4989671,8.21263352 12.3038297,8.49939828 12.3038297,8.77107016 C12.3038297,8.94916617 12.3781677,9.04576062 12.6104743,9.15744795 C12.793222,9.24800524 12.9573853,9.40497121 13.1308408,9.65249448 C13.3631473,9.97850074 13.6388177,10.0811323 14.2706914,10.0781138 C15.041949,10.0750952 15.7326737,9.91511063 17.0273953,9.44421271 C17.7305097,9.18763371 17.9256472,9.10613215 17.9659136,9.04576062 C18.0805182,8.88275749 18.2137072,8.76805159 18.2942402,8.76805159 C18.4026499,8.76805159 18.4986699,8.86766461 18.4986699,8.97633336 C18.4986699,9.16046652 18.2075124,9.31139534 17.1977534,9.64645733 C16.9004011,9.74607035 16.4388855,9.92718494 16.1756048,10.047928 C15.6428485,10.2954513 15.4941724,10.3467671 15.1441639,10.4131757 C14.8561038,10.4675101 14.1901585,10.4735473 13.8246629,10.42525 C13.5273106,10.3860086 13.3476602,10.4071386 13.3631473,10.482603 C13.3786344,10.561086 14.0662617,11.0832997 14.2242301,11.1406527 C14.4472444,11.2161171 14.887078,11.23121 15.1720407,11.1678199 C15.6025821,11.0772626 16.9623495,10.5067516 17.6375871,10.1384853 C17.8636988,10.0147237 17.990693,9.96340785 18.0712259,9.96340785 C18.2075124,9.96038928 18.3128247,10.0449094 18.3128247,10.1505596 C18.3128247,10.2652655 18.0836156,10.461473 17.8327246,10.5641046 C17.3897935,10.739182 17.2968709,10.7874792 16.8570372,11.0591511 C16.2561377,11.4334546 15.992857,11.6206063 15.5963872,11.9586869 C15.1720407,12.3178975 15.0512413,12.3661947 14.5804334,12.3722319 C14.2056456,12.3752504 14.0910411,12.3390275 13.8463449,12.1337643 C13.6543048,11.9737798 13.1958867,11.4183617 13.065795,11.1859313 C12.9295085,10.9444452 12.6259614,10.6093832 12.5454284,10.6093832 C12.4927723,10.6093832 12.4865775,10.6214575 12.3967523,11.0017981 C12.3348039,11.27347 12.1055948,11.786628 11.7339044,12.4959935 C11.2878759,13.3502506 11.2661939,13.425715 11.2661939,14.3222322 C11.2661939,15.0708392 11.2847784,15.0074491 10.9099906,15.5145699 C10.4515724,16.1424338 9.73916581,17.7815208 9.56880771,18.6086108 C9.43871606,19.2274189 9.34889088,20.2809021 9.37367024,20.8725431 C9.39225476,21.343441 9.3674754,21.4822955 9.25287086,21.5517228 C9.13516889,21.6241686 8.99578499,21.5487042 8.70772492,21.2709952 C8.25550158,20.8272644 8.10992284,20.4589981 8.11302026,19.7556698 C8.11611768,19.3089205 8.15638414,18.9648028 8.24620932,18.6327594 C8.32364482,18.3490132 8.32674224,18.2675116 8.25550158,18.2826045 C8.1811635,18.2946788 8.01390281,18.6297408 7.93336989,18.9285799 C7.88381117,19.1066759 7.86522665,19.290809 7.85283697,19.6651125 C7.84044729,20.1239361 7.84354471,20.1903448 7.91788279,20.5103139 C8.01080539,20.9117846 8.18735834,21.2860881 8.43205453,21.60002 C8.80684236,22.0829922 10.7055609,23.7250978 11.9693083,24.6638751 C12.2728555,24.8872498 12.6104743,25.1679774 12.7219814,25.2857018 C13.3910241,25.9920487 13.2609325,26.6380241 12.3471935,27.1360892 C12.2047122,27.2145722 12.0870103,27.2839994 12.0870103,27.2900366 C12.0870103,27.2960737 12.2047122,27.4560583 12.3471935,27.6401915 C12.8706575,28.3284269 13.1742047,28.8325292 13.279517,29.1857026 C13.3507577,29.418133 13.3476602,29.753195 13.2702247,29.9675139 C13.2392505,30.0641083 13.220666,30.1425913 13.2330557,30.1425913 C13.2454454,30.1425913 13.3104912,30.0822198 13.3786344,30.0369412 L13.3786344,30.0369412 Z M13.9144881,7.56062101 C13.8184681,7.382525 13.9981185,7.2285776 14.3047631,7.2285776 C14.4131728,7.2285776 14.5091928,7.24065191 14.518485,7.25876337 C14.540167,7.29498629 14.4348547,7.34932066 14.3419321,7.34932066 C14.2861785,7.34932066 14.2552043,7.37950643 14.208743,7.47911945 C14.1591843,7.58476962 14.1313075,7.60891823 14.0476772,7.61495539 C13.9733391,7.62099254 13.9423649,7.60891823 13.9144881,7.56062101 Z M15.7512582,7.43082222 C15.5716079,7.36743212 15.432224,7.2798934 15.4662956,7.24668906 C15.4755879,7.23763333 15.5809001,7.22254045 15.6986021,7.21046615 C15.9773699,7.18631753 16.0826822,7.22555903 16.0826822,7.34630208 C16.0826822,7.40667361 16.0610003,7.44893368 16.0238312,7.47006372 C15.9897596,7.4851566 15.9587854,7.50024948 15.9525906,7.49723091 C15.9494931,7.49723091 15.8565705,7.46704514 15.7512582,7.43082222 L15.7512582,7.43082222 Z M9.30242958,15.891892 C9.59978191,15.5930529 9.68341225,15.4421241 9.66482773,15.2278052 C9.65553547,15.0798949 9.59668449,15.0285791 9.47278768,15.0587649 C9.3829625,15.0798949 9.33340378,15.1704522 9.25287086,15.4451427 C9.21879924,15.57796 9.16304567,15.6654987 9.03605145,15.8043533 C8.86569334,15.991505 8.83471914,16.0609323 8.90286238,16.1273409 C8.97410305,16.1967682 9.03295403,16.1635639 9.30242958,15.891892 Z M21.2151073,10.796535 C21.2801531,10.7572935 21.4102448,10.4463801 21.4102448,10.3286556 C21.4102448,10.2350797 21.3916603,10.1928197 21.3142248,10.1233924 C21.2615686,10.0750952 21.2058151,10.0358537 21.190328,10.0358537 C21.1748409,10.0358537 21.0540415,9.98755647 20.9208524,9.92416636 C20.7597866,9.84870195 20.6173052,9.75512608 20.4779213,9.62230872 C20.3664142,9.51967712 20.2580045,9.4321384 20.23942,9.4321384 C20.2208355,9.4321384 20.1960561,9.46836132 20.1836664,9.51062139 C20.1495948,9.64947591 20.1991535,9.86379483 20.3292452,10.1173553 C20.4407523,10.3437485 20.4810188,10.3890271 20.7381046,10.5942903 C21.013775,10.8146464 21.1159899,10.8569065 21.2151073,10.796535 L21.2151073,10.796535 Z M13.7627145,6.7546611 C13.7998836,6.66108523 13.7905913,6.5886394 13.6945713,6.28376318 C13.6543048,6.15094582 13.5954539,6.03925849 13.5335054,5.97284981 C13.4436803,5.87927394 13.4281932,5.87323678 13.3569525,5.9094597 C13.2547376,5.96379408 13.2640299,6.08453713 13.3848293,6.2173545 C13.4746545,6.31696752 13.55209,6.50713784 13.589259,6.72447534 C13.6140384,6.86332985 13.7131558,6.88144131 13.7627145,6.7546611 L13.7627145,6.7546611 Z M18.1269795,6.67014096 C18.1951227,6.59165798 18.145564,6.2173545 18.0526414,6.07849998 C17.9566214,5.93662689 17.7336071,5.8068281 17.5570542,5.78871664 C17.4393522,5.77362376 17.4176703,5.78267949 17.3835986,5.84003244 C17.3402348,5.91851543 17.3619167,5.94266404 17.5136903,5.98794269 C17.7057303,6.04831422 17.8822833,6.30489321 17.9287446,6.5886394 C17.9473291,6.69428957 17.9628162,6.71541961 18.0185698,6.71541961 C18.0588362,6.71541961 18.1052975,6.69428957 18.1269795,6.67014096 L18.1269795,6.67014096 Z M18.3345066,2.6041185 C18.5575209,2.45409526 18.573008,2.44745439 18.78673,2.44202095 C19.0593029,2.43507822 19.1181539,2.41274076 19.1181539,2.31916489 C19.1181539,2.17336765 18.6039822,1.7290332 18.3871628,1.6897917 C18.1703434,1.64994649 18.0929079,1.7646524 18.049544,2.19419582 C18.0309595,2.35478409 18.0092775,2.42179649 17.9380368,2.50782592 C17.8420168,2.62645597 17.8265297,2.69618509 17.8884781,2.7559529 C17.9504265,2.81783372 18.0836156,2.77225321 18.3345066,2.6041185 Z" id="形状" fill="#000000" fill-rule="nonzero"></path>
            </g>
        </g>
    </g>
</svg>