<?xml version="1.0" encoding="UTF-8"?>
<svg width="640px" height="480px" viewBox="0 0 640 480" version="1.1" xmlns="http://www.w3.org/2000/svg" xmlns:xlink="http://www.w3.org/1999/xlink">
    <title>private</title>
    <defs>
        <rect id="path-1" x="0" y="0" width="640" height="480" rx="11"></rect>
        <rect id="path-3" x="15.0588235" y="178.842282" width="144" height="28.238255" rx="4.42906593"></rect>
        <mask id="mask-4" maskContentUnits="userSpaceOnUse" maskUnits="objectBoundingBox" x="0" y="0" width="144" height="28.238255" fill="white">
            <use xlink:href="#path-3"></use>
        </mask>
        <rect id="path-5" x="0" y="0" width="18" height="18"></rect>
        <path d="M5.64338732,1.88567011 L5.7009797,2.4569659 L6.02730803,2.04932795 C6.36045198,1.63205366 6.9723379,1.5550617 7.39399348,1.87736159 C7.81564906,2.19966149 7.88740191,2.79920484 7.55425796,3.21647913 L7.1449797,3.7279659 L7.87574164,3.64950913 C8.41047651,3.5914892 8.88714287,3.96928147 8.94040574,4.4933318 C8.99366861,5.01738213 8.60335843,5.48924332 8.06862356,5.54726326 L7.3919797,5.6199659 L7.90062404,6.00986105 C8.32227962,6.33216095 8.39403247,6.93170429 8.06088852,7.34897859 C7.72774456,7.76625288 7.11585864,7.84324484 6.69420306,7.52094495 L6.1759797,7.1239659 L6.24013922,7.75707775 C6.29340209,8.28112808 5.90309191,8.75298926 5.36835704,8.8110092 C4.83362216,8.86902914 4.3569558,8.49123686 4.30369293,7.96718653 L4.2419797,7.3639659 L3.82174631,7.89157873 C3.48860236,8.30885302 2.87671644,8.38584498 2.45506086,8.06354508 C2.03340528,7.74124519 1.96165243,7.14170184 2.29479638,6.72442755 L2.7749797,6.1209659 L2.07750733,6.19731285 C1.54277245,6.25533279 1.06610609,5.87754051 1.01284322,5.35349018 C0.959580351,4.82943985 1.34989053,4.35757867 1.88462541,4.29955873 L2.4059797,4.2419659 L1.97001601,3.90992903 C1.54836043,3.58762914 1.47660758,2.98808579 1.80975154,2.5708115 C2.14289549,2.1535372 2.75478141,2.07654524 3.17643699,2.39884514 L3.7839797,2.8629659 L3.70694103,2.09577889 C3.65367816,1.57172856 4.04398834,1.09986737 4.57872322,1.04184744 C5.11345809,0.983827499 5.59012445,1.36161978 5.64338732,1.88567011 Z" id="path-7"></path>
        <filter x="-26.0%" y="-39.5%" width="152.0%" height="179.1%" filterUnits="objectBoundingBox" id="filter-9">
            <feGaussianBlur stdDeviation="0.745628603" in="SourceGraphic"></feGaussianBlur>
        </filter>
        <filter x="-36.4%" y="-44.9%" width="172.8%" height="189.7%" filterUnits="objectBoundingBox" id="filter-10">
            <feGaussianBlur stdDeviation="0.745628603" in="SourceGraphic"></feGaussianBlur>
        </filter>
        <filter x="-27.1%" y="-38.0%" width="154.2%" height="175.9%" filterUnits="objectBoundingBox" id="filter-11">
            <feGaussianBlur stdDeviation="0.745628603" in="SourceGraphic"></feGaussianBlur>
        </filter>
        <linearGradient x1="50%" y1="55.2564649%" x2="50%" y2="96.6185996%" id="linearGradient-12">
            <stop stop-color="#000000" stop-opacity="0" offset="0%"></stop>
            <stop stop-color="#000000" offset="100%"></stop>
        </linearGradient>
    </defs>
    <g id="COCO" stroke="none" stroke-width="1" fill="none" fill-rule="evenodd">
        <g id="Coco--new2" transform="translate(-400, -3400)">
            <g id="private" transform="translate(400, 3400)">
                <g id="编组-10">
                    <mask id="mask-2" fill="white">
                        <use xlink:href="#path-1"></use>
                    </mask>
                    <use id="蒙版" fill="#000000" xlink:href="#path-1"></use>
                    <g id="编组-21" mask="url(#mask-2)">
                        <rect id="caht背景框-dark" stroke="#272626" fill="#000000" x="0.5" y="0.5" width="639" height="560" rx="11.2941176"></rect>
                        <line x1="0.941176471" y1="36.2390469" x2="639.058824" y2="36.2390469" id="分割线-上" stroke-opacity="0.15" stroke="#FFFFFF"></line>
                        <rect id="矩形备份-9" stroke-opacity="0.15" stroke="#000000" stroke-width="0.941176471" fill="#191A1F" x="8" y="44.7105211" width="624" height="36.7098302" rx="3.76470588"></rect>
                        <rect id="矩形备份-40" stroke-opacity="0.15" stroke="#000000" stroke-width="0.941176471" fill="#191A1F" x="8" y="89.8917292" width="158.117647" height="463.107481" rx="3.76470588"></rect>
                        <ellipse id="椭圆形" fill="#48484B" cx="14.1176471" cy="18.8255034" rx="5.64705882" ry="5.64765101"></ellipse>
                        <ellipse id="椭圆形备份-20" fill="#48484B" cx="30.1176471" cy="18.8255034" rx="5.64705882" ry="5.64765101"></ellipse>
                        <ellipse id="椭圆形备份-23" fill="#48484B" cx="46.1176471" cy="18.8255034" rx="5.64705882" ry="5.64765101"></ellipse>
                        <text id="Connect" font-family="Poppins-Regular, Poppins" font-size="11.2941176" font-weight="normal" fill="#E0E0E0">
                            <tspan x="302.117647" y="67.5360738">Connect</tspan>
                        </text>
                        <text id="Coco-Settings" font-family="Poppins-Regular, Poppins" font-size="11.2941176" font-weight="normal" fill="#676767">
                            <tspan x="280.470588" y="23.2961409">Coco Settings</tspan>
                        </text>
                        <g id="zhuji" transform="translate(285.1765, 57.4178)" fill="#D8D8D8" fill-rule="nonzero">
                            <path d="M2.23357425,3.47056484 C2.49383932,3.47056484 2.70410997,3.26027214 2.70410997,2.99997978 L2.70410997,2.16175013 C2.70410997,1.90145777 2.49383932,1.69116507 2.23357425,1.69116507 C1.97330918,1.69116507 1.76303853,1.90145777 1.76303853,2.16175013 L1.76303853,2.99997978 C1.76303853,3.25880156 1.97330918,3.47056484 2.23357425,3.47056484 Z M3.9980832,3.47056484 C4.25834827,3.47056484 4.46861892,3.26027214 4.46861892,2.99997978 L4.46861892,2.16175013 C4.46861892,1.90145777 4.25834827,1.69116507 3.9980832,1.69116507 C3.73781813,1.69116507 3.52754748,1.90145777 3.52754748,2.16175013 L3.52754748,2.99997978 C3.52754748,3.25880156 3.73781813,3.47056484 3.9980832,3.47056484 Z M9.62245548,3.05145002 L10.4605972,3.05145002 C10.7208623,3.05145002 10.9311329,2.84115732 10.9311329,2.58086496 C10.9311329,2.32057259 10.7208623,2.11027989 10.4605972,2.11027989 L9.62245548,2.11027989 C9.36219041,2.11027989 9.15191976,2.32057259 9.15191976,2.58086496 C9.15191976,2.84115732 9.36219041,3.05145002 9.62245548,3.05145002 Z M2.23357425,9.7146404 C2.49383932,9.7146404 2.70410997,9.5043477 2.70410997,9.24405534 L2.70410997,8.40582569 C2.70410997,8.14553333 2.49383932,7.93524063 2.23357425,7.93524063 C1.97330918,7.93524063 1.76303853,8.14553333 1.76303853,8.40582569 L1.76303853,9.24405534 C1.76303853,9.50287712 1.97330918,9.7146404 2.23357425,9.7146404 Z M3.9980832,9.7146404 C4.25834827,9.7146404 4.46861892,9.5043477 4.46861892,9.24405534 L4.46861892,8.40582569 C4.46861892,8.14553333 4.25834827,7.93524063 3.9980832,7.93524063 C3.73781813,7.93524063 3.52754748,8.14553333 3.52754748,8.40582569 L3.52754748,9.24405534 C3.52754748,9.50287712 3.73781813,9.7146404 3.9980832,9.7146404 Z M9.62245548,9.29552558 L10.4605972,9.29552558 C10.7208623,9.29552558 10.9311329,9.08523288 10.9311329,8.82494051 C10.9311329,8.56464815 10.7208623,8.35435545 10.4605972,8.35435545 L9.62245548,8.35435545 C9.36219041,8.35435545 9.15191976,8.56464815 9.15191976,8.82494051 C9.15191976,9.08523288 9.36219041,9.29552558 9.62245548,9.29552558 Z" id="形状"></path>
                            <path d="M12.529484,0 L0.646986615,0 C0.291143977,0 0,0.291174508 0,0.647054462 L0,4.51467545 C0,4.8705554 0.291143977,5.16172991 0.646986615,5.16172991 L12.529484,5.16172991 C12.8853266,5.16172991 13.1764706,4.8705554 13.1764706,4.51467545 L13.1764706,0.647054462 C13.1764706,0.291174508 12.8853266,0 12.529484,0 L12.529484,0 Z M12.2353991,4.22055979 L0.94107144,4.22055979 L0.94107144,0.941170126 L12.2353991,0.941170126 L12.2353991,4.22055979 Z M12.529484,6.23819324 L0.646986615,6.23819324 C0.291143977,6.23819324 0,6.52936775 0,6.88524771 L0,10.7528687 C0,11.1087486 0.291143977,11.3999232 0.646986615,11.3999232 L12.529484,11.3999232 C12.8853266,11.3999232 13.1764706,11.1087486 13.1764706,10.7528687 L13.1764706,6.88524771 C13.1764706,6.52936775 12.8853266,6.23819324 12.529484,6.23819324 Z M12.2353991,10.458753 L0.94107144,10.458753 L0.94107144,7.17936337 L12.2353991,7.17936337 L12.2353991,10.458753 Z" id="形状"></path>
                        </g>
                        <rect id="矩形备份-22" fill="#3C3F50" opacity="0.604189918" x="33.8823529" y="55.5352349" width="76.2352941" height="15.061982" rx="3.76470588"></rect>
                        <rect id="矩形备份-48" fill="#3C3F50" opacity="0.604189918" x="15.0588235" y="55.5352349" width="15.0588235" height="15.061982" rx="3.76470588"></rect>
                        <rect id="矩形备份-49" fill="#3C3F50" opacity="0.604189918" x="147.764706" y="55.5352349" width="15.0588235" height="15.061982" rx="3.76470588"></rect>
                        <rect id="矩形备份-52" stroke="#979797" stroke-width="0.885813149" fill="#5A5D6D" opacity="0.308919271" x="182.089965" y="111.513376" width="16.0551661" height="16.0587193" rx="3.76470588"></rect>
                        <rect id="矩形备份-50" fill="#3C3F50" opacity="0.604189918" x="392.470588" y="55.5352349" width="15.0588235" height="15.061982" rx="3.76470588"></rect>
                        <rect id="矩形备份-51" fill="#3C3F50" opacity="0.604189918" x="529.882353" y="55.5352349" width="15.0588235" height="15.061982" rx="3.76470588"></rect>
                        <rect id="矩形备份-37" fill="#3C3F50" opacity="0.604189918" x="411.294118" y="55.5352349" width="76.2352941" height="15.061982" rx="4.42906574"></rect>
                        <rect id="矩形备份-23" fill="#3C3F50" opacity="0.604189918" x="166.588235" y="55.5352349" width="76.2352941" height="15.061982" rx="4.42906574"></rect>
                        <rect id="矩形备份-44" fill="#5A5D6D" opacity="0.308919271" x="15.0588235" y="105.422819" width="144" height="28.238255" rx="4.42906593"></rect>
                        <rect id="矩形备份-46" stroke="#979797" fill="#25262D" opacity="0.308919271" x="182.147059" y="251.82047" width="342.529412" height="27.238255" rx="4.42906593"></rect>
                        <rect id="矩形备份-47" fill="#01FFF5" x="528.941176" y="251.32047" width="103.529412" height="28.238255" rx="4.42906593"></rect>
                        <use id="矩形备份-45" stroke="#00D0FF" mask="url(#mask-4)" stroke-width="2" fill="#2D2F37" opacity="0.604189918" stroke-dasharray="1.882352941176471,1.882352941176471" xlink:href="#path-3"></use>
                        <text id="Coco-Cloud" font-family="Poppins-Regular, Poppins" font-size="11.2941176" font-weight="normal" fill="#E0E0E0">
                            <tspan x="48.9411765" y="124.012584">Coco Cloud</tspan>
                        </text>
                        <text id="Your-Coco-Servers" font-family="Poppins-Regular, Poppins" font-size="11.2941176" font-weight="normal" fill="#E0E0E0">
                            <tspan x="15.0588235" y="166.369966">Your Coco-Servers</tspan>
                        </text>
                        <ellipse id="椭圆形" fill="#00D128" cx="147.764706" cy="119.541946" rx="3.76470588" ry="3.76510067"></ellipse>
                        <rect id="矩形备份-39" fill="#3C3F50" opacity="0.604189918" x="548.705882" y="55.5352349" width="76.2352941" height="15.061982" rx="4.42906574"></rect>
                        <g id="编组" transform="translate(23, 111)">
                            <mask id="mask-6" fill="white">
                                <use xlink:href="#path-5"></use>
                            </mask>
                            <g id="矩形"></g>
                            <g id="编组-4" mask="url(#mask-6)">
                                <g transform="translate(-1.125, -2.2782)">
                                    <path d="M7.65023438,6.25101969 C8.79110804,6.67551146 9.73989186,6.66284797 10.4965858,6.21302923 C11.3454997,6.6941468 12.1924362,6.75506151 13.0373956,6.39577338 C13.7106672,6.78135267 14.4857939,6.93033099 15.3627758,6.84270832 C15.2301172,7.33434947 15.1256659,7.78790791 15.0494217,8.20338362 C11.9527264,8.21649514 10.3884452,8.22118244 10.356578,8.21744553 C10.3247108,8.21370862 9.45136967,7.91093604 7.73655463,7.30912779 L7.65023438,6.25101969 Z" id="路径-3" fill="#FFFFFF" fill-rule="evenodd" transform="translate(11.5065, 7.2159) rotate(8) translate(-11.5065, -7.2159)"></path>
                                    <path d="M10.2275124,5.76767648 C10.389363,5.67160797 10.5908679,5.66963743 10.754596,5.76252206 C11.4647139,6.16537915 12.1403067,6.21469147 12.8316985,5.921413 C12.9828775,5.85728507 13.1556782,5.86757543 13.2980388,5.94918379 C13.8738401,6.27926251 14.5397727,6.40791659 15.3114116,6.33168001 C15.6742978,6.29582748 15.9614338,6.63081546 15.8674422,6.9803745 C15.7388116,7.45875785 15.6379674,7.89851598 15.5648266,8.29928896 C15.5199731,8.54506231 15.304656,8.72404125 15.0528865,8.72483108 C13.6111737,8.72935389 12.5726504,8.7323972 11.8410624,8.73390316 L11.6306978,8.73430878 C11.5971397,8.73436867 11.5643248,8.73442471 11.5322411,8.73447688 L11.1815669,8.73491697 C11.1551407,8.73493811 11.1293976,8.7349687 11.1043256,8.7349687 L10.8349034,8.7349687 C10.8150075,8.73492309 10.7957346,8.73490118 10.7770726,8.73487533 L10.5816834,8.73437566 C10.5397821,8.73420326 10.5029461,8.73399517 10.4708504,8.73375119 L10.4128831,8.7332153 C10.343764,8.73243683 10.3068138,8.7314022 10.2958722,8.73010771 C10.1977428,8.71849811 9.78806087,8.57611788 7.56180106,7.79292588 C7.36818579,7.72481256 7.23285174,7.55036466 7.21605382,7.34725178 L7.12855139,6.28921204 C7.09723788,5.91058323 7.4739329,5.62852243 7.83239101,5.76219268 C8.83629755,6.13655285 9.62226873,6.12692667 10.2275124,5.76767648 Z M10.4959797,6.7963068 L10.3809618,6.84747088 C9.81223531,7.08150333 9.1738823,7.13386531 8.47357985,7.01164678 L8.45576086,7.007993 L8.47057907,7.01371682 C8.9968376,7.19855615 9.42219891,7.34745478 9.74658886,7.46038716 L9.85097906,7.49669917 C10.0683406,7.57224067 10.2331138,7.62905189 10.344893,7.66699766 C10.3995142,7.68553996 10.4410137,7.69941738 10.4687194,7.7084197 L10.4483029,7.70130857 L10.5331625,7.70138738 C10.5456738,7.70135257 10.5591801,7.70131589 10.5736622,7.70127732 L10.7298409,7.70087905 C10.7500084,7.70082907 10.771095,7.70077718 10.7930819,7.70072336 L11.0147605,7.70018656 C11.0964152,7.69999006 11.1856616,7.69977588 11.2819888,7.69954372 L11.4839332,7.69905533 C12.2227232,7.69726145 13.2917926,7.69457648 14.5159582,7.69089516 L14.6217685,7.69034934 L14.6455293,7.58110394 L14.6903766,7.38349087 L14.6500352,7.38256797 C14.0924618,7.35489109 13.5714881,7.23039599 13.0904786,7.00833402 L13.0019196,6.96473288 L12.9421345,6.98568179 C12.1408316,7.24480731 11.3295127,7.18611239 10.5339436,6.81520549 L10.4959797,6.7963068 Z" id="路径-3" fill="#5B1602" fill-rule="nonzero" transform="translate(11.5061, 7.2146) rotate(8) translate(-11.5061, -7.2146)"></path>
                                    <path d="M16.9795119,3.48890358 C17.2560233,3.40809579 17.5462128,3.56496263 17.6276682,3.83927548 C17.7091237,4.11358833 17.5509996,4.4014705 17.2744882,4.48227829 L14.1962708,5.3814509 L10.8493966,14.4239893 C10.7576696,14.6717787 10.4950668,14.8081669 10.2423828,14.750147 L10.179523,14.7315438 C9.908933,14.632963 9.77013251,14.335435 9.86950345,14.0669964 L13.3073098,4.78018001 C13.3642644,4.62632386 13.4912851,4.50830423 13.6497682,4.46198907 L16.9795119,3.48890358 Z" id="吸管" fill="#00DBFF" fill-rule="nonzero" transform="translate(13.7432, 9.1155) rotate(8) translate(-13.7432, -9.1155)"></path>
                                    <path d="M4.78346733,8.18083085 C5.67433911,7.76999323 6.53844696,7.09001225 7.37579088,6.14088791 C8.00362846,7.05732311 8.88808702,7.39594165 10.0291666,7.15674352 C10.5972408,7.88461675 11.8343447,8.06145461 12.6850764,7.54177502 C13.6747878,7.74253805 14.4758731,7.47280522 15.0883323,6.73257653 C15.5252053,7.64159708 16.1990253,8.49649489 17.1097922,9.29726997 L17.521047,10.3359346 L16.4579464,12.0277616 L7.53731659,12.1054233 L3.64256173,10.4572229 L4.78346733,8.18083085 Z" id="路径-2" fill="#FFFFFF" fill-rule="evenodd" transform="translate(10.5818, 9.1232) rotate(8) translate(-10.5818, -9.1232)"></path>
                                    <path d="M6.97971194,5.79703243 C7.20467944,5.54203922 7.611826,5.56660465 7.80398502,5.84676542 C8.3122542,6.58780317 8.98329024,6.84525895 9.92001854,6.64993963 C10.115615,6.60915539 10.3175128,6.6827637 10.4399402,6.83949368 C10.8399526,7.35158449 11.7799724,7.48822148 12.4107394,7.10346059 C12.523819,7.03448323 12.6591429,7.01084141 12.7891723,7.03734625 C13.5921898,7.20103118 14.1964446,6.99822254 14.6834006,6.40960891 C14.9258326,6.11656646 15.3930717,6.17282019 15.5578087,6.51488419 C15.9641363,7.35859245 16.5959043,8.15945962 17.4576466,8.91710496 C17.5191846,8.97120921 17.5669664,9.03897178 17.5970983,9.11487073 L18.0095643,10.153826 C18.0701015,10.3063124 18.0542966,10.478228 17.9669522,10.6173345 L16.9055553,12.3077359 C16.8110114,12.4583083 16.6453482,12.550385 16.4665366,12.5517454 L7.54460779,12.6196351 C7.47275873,12.6201664 7.40156971,12.6059905 7.33549885,12.5779796 L3.43831879,10.9257652 C3.1624989,10.808831 3.04254512,10.485873 3.17594199,10.219354 L4.31451024,7.94456273 C4.36728809,7.83911573 4.45471292,7.75465972 4.56236931,7.70512059 C5.38191675,7.32799787 6.18859268,6.6937399 6.97971194,5.79703243 Z M7.35000697,6.92423187 L7.23153113,7.04557823 C6.51371608,7.75667901 5.77086991,8.29057927 5.00161782,8.6445581 L5.17024624,8.56292533 L4.35683327,10.1889291 L7.64537065,11.5830587 L16.1707992,11.5184569 L16.9417681,10.2904462 L16.6702429,9.60635949 L16.5629088,9.50992372 C15.9669924,8.96036528 15.4719942,8.38414509 15.079119,7.78116198 L14.9532961,7.58178574 L14.8902543,7.62984693 C14.31562,8.03740621 13.6340144,8.19595079 12.8695749,8.09975877 L12.7741168,8.08533357 L12.7373037,8.10476518 C11.7972256,8.55286963 10.5945538,8.39925285 9.85840965,7.73489707 L9.83675986,7.71445012 L9.69557983,7.73091504 C8.78833627,7.8187771 8.00874955,7.56064623 7.39268642,6.9672578 L7.35000697,6.92423187 Z" id="路径-2" fill="#5B1602" fill-rule="nonzero" transform="translate(10.5836, 9.1199) rotate(8) translate(-10.5836, -9.1199)"></path>
                                    <path d="M16.2661954,8.1413184 C16.9726016,8.97101918 17.3703081,10.0957142 17.3703081,11.5844136 C17.3703081,15.715106 13.947329,19.0636939 9.72487041,19.0636939 C5.50241178,19.0636939 2.07943274,15.715106 2.07943274,11.5844136 C2.07943274,10.2591082 2.46896308,9.22228861 3.1375257,8.42526491 C3.45025677,9.27070884 4.11525796,9.90720081 5.24466051,9.90720081 C6.00108493,9.90720081 6.69257077,9.67435355 7.22130923,9.29023075 C7.88159435,9.6769051 8.71158483,9.90720081 9.61305372,9.90720081 C10.5031691,9.90720081 11.3235952,9.68266947 11.9787539,9.3045477 C12.4991914,9.68124955 13.1640657,9.90720081 13.8885024,9.90720081 C15.1076338,9.90720081 15.8941536,9.2067908 16.2292952,8.2528057 Z" id="形状结合" fill="#8C3201" fill-rule="evenodd" transform="translate(9.7249, 13.6025) rotate(15) translate(-9.7249, -13.6025)"></path>
                                    <path d="M16.2657009,8.14064526 C16.9724713,8.97041195 17.3703967,10.0953163 17.3703967,11.5844253 C17.3703967,15.7151177 13.9474177,19.0637055 9.72495904,19.0637055 C5.50250041,19.0637055 2.07952137,15.7151177 2.07952137,11.5844253 C2.07952137,10.2587028 2.4692969,9.22164779 3.13824555,8.42452424 C3.44981138,9.27020921 4.11489306,9.90721248 5.24474914,9.90721248 C6.00081112,9.90721248 6.69199674,9.6745883 7.22105521,9.29004173 C7.88139583,9.67683708 8.71151752,9.90721248 9.61314235,9.90721248 C10.503334,9.90721248 11.3238245,9.68264265 11.9792401,9.30484707 C12.4996186,9.68137626 13.1643387,9.90721248 13.888591,9.90721248 C15.1398049,9.90721248 15.9353384,9.16945373 16.2549043,8.17698407 L16.2657009,8.14064526 Z M16.1552289,10.1561678 L16.1129075,10.1925294 C15.5220091,10.6705629 14.7632482,10.9427926 13.888591,10.9427926 C13.2093533,10.9427926 12.5528721,10.7898494 11.9693373,10.5044414 L11.9300165,10.4837912 L11.8014127,10.5376733 C11.1899192,10.7783693 10.517744,10.9162455 9.82240234,10.9393247 L9.61314235,10.9427926 C8.83373188,10.9427926 8.07850251,10.798812 7.39902681,10.5274877 L7.26640999,10.4716783 L7.22090388,10.4954544 C6.67790545,10.7600994 6.06867196,10.9132727 5.43540728,10.9389352 L5.24474914,10.9427926 C4.51821556,10.9427926 3.88764347,10.7479393 3.37471095,10.3971007 L3.28481451,10.3326691 L3.28274553,10.3414748 C3.19234679,10.6616332 3.13984817,11.0107304 3.12669344,11.3914297 L3.12340142,11.5844253 C3.12340142,15.1399146 6.07577584,18.0281254 9.72495904,18.0281254 C13.3741422,18.0281254 16.3265167,15.1399146 16.3265167,11.5844253 C16.3265167,11.0847405 16.2761569,10.6376905 16.1777346,10.2386576 L16.1552289,10.1561678 Z" id="形状结合" fill="#5B1602" fill-rule="nonzero" transform="translate(9.725, 13.6022) rotate(15) translate(-9.725, -13.6022)"></path>
                                    <g id="线" stroke-width="1" fill="none" fill-rule="evenodd" transform="translate(9.0587, 16.1838) rotate(15) translate(-9.0587, -16.1838)translate(6.1293, 13.3728)">
                                        <path d="M5.57609141,0.112373396 C5.55203453,1.16260956 5.3379941,2.08716793 4.93397011,2.8860485 C4.52994613,3.68492906 4.03204178,4.34997178 3.44025707,4.88117664" id="路径-5" stroke="#5B1602" stroke-width="1.04388004" transform="translate(4.5082, 2.4968) rotate(-7) translate(-4.5082, -2.4968)"></path>
                                        <path d="M1.35941943,2.55911114 C1.19427791,3.02075048 1.03790734,3.37968436 0.890307731,3.63591277 C0.7590351,3.86379805 0.493387502,4.23745157 0.0933649372,4.75687331" id="路径-5备份" stroke="#5B1602" stroke-width="1.04388004" transform="translate(0.7264, 3.658) scale(-1, 1) rotate(-5) translate(-0.7264, -3.658)"></path>
                                        <path d="M2.35506181,4.23945176 C3.28884908,4.22502349 4.17895308,3.54418317 5.02537379,2.19693081 C5.8717945,0.849678438 5.46009029,1.78325356 3.79026116,4.99765617 L2.35506181,4.23945176 Z" id="路径-8" fill="#5B1602" transform="translate(3.9038, 3.2989) rotate(-15) translate(-3.9038, -3.2989)"></path>
                                        <path d="M0.317413341,3.49044138 C0.801341639,4.33656099 1.67108619,4.41002688 2.926647,3.71083905 C2.52990169,4.17470859 2.02110024,4.59177969 1.40024265,4.96205234 C0.943762938,4.51917327 0.628012939,4.18008125 0.45299265,3.94477628 C0.277972361,3.70947131 0.232779258,3.55802634 0.317413341,3.49044138 Z" id="路径-8" fill="#5B1602" transform="translate(1.6013, 4.2262) scale(-1, 1) rotate(-38) translate(-1.6013, -4.2262)"></path>
                                    </g>
                                    <g id="花" stroke-width="1" fill="none" fill-rule="evenodd" transform="translate(7.0025, 7.0025) rotate(-225) translate(-7.0025, -7.0025)translate(2.0259, 2.0761)">
                                        <mask id="mask-8" fill="white">
                                            <use xlink:href="#path-7"></use>
                                        </mask>
                                        <use id="形状结合" fill="#FFFFFF" fill-rule="nonzero" transform="translate(4.9766, 4.9264) rotate(-18) translate(-4.9766, -4.9264)" xlink:href="#path-7"></use>
                                        <path d="M5.33604954,6.23830396 C7.55077048,6.23830396 9.23553716,5.52016789 9.23553716,4.62923423 C9.23553716,3.73830057 7.75028285,0.581785732 5.5355619,0.581785732 C3.32084096,0.581785732 0.633990974,3.13939463 0.633990974,4.03032829 C0.633990974,4.92126196 3.12132859,6.23830396 5.33604954,6.23830396 Z" id="椭圆形" fill="#EED2FF" filter="url(#filter-9)" mask="url(#mask-8)"></path>
                                        <ellipse id="椭圆形备份-24" fill="#E0A6FE" filter="url(#filter-10)" mask="url(#mask-8)" cx="4.94614442" cy="5.25137738" rx="3.07316612" ry="2.49309342"></ellipse>
                                        <path d="M5.24650705,10.3363472 C7.461228,10.3363472 9.02973222,6.99715511 9.02973222,4.83056644 C9.02973222,3.4129263 7.31822416,6.3478565 5.01427588,6.55308455 C3.79708496,6.66150786 2.50425478,5.13636392 1.73866783,5.13636392 C-0.47605312,5.13636392 1.82363576,6.14992878 1.82363576,8.31651746 C1.82363576,10.4831061 3.03178611,10.3363472 5.24650705,10.3363472 Z" id="椭圆形备份-25" fill="#59DCF9" filter="url(#filter-11)" mask="url(#mask-8)"></path>
                                    </g>
                                </g>
                            </g>
                        </g>
                        <g id="添加" transform="translate(80, 185.4312)" fill="#01FFF5" fill-rule="nonzero">
                            <rect id="矩形" opacity="0" x="0" y="0" width="15.0588235" height="15.0604027"></rect>
                            <polygon id="路径" points="13.4117647 6.94190436 8.11764706 6.94190436 8.11764706 1.64723154 6.94117647 1.64723154 6.94117647 6.94190436 1.64705882 6.94190436 1.64705882 8.11849832 6.94117647 8.11849832 6.94117647 13.4131711 8.11764706 13.4131711 8.11764706 8.11849832 13.4117647 8.11849832"></polygon>
                        </g>
                        <text id="Connecting-to-Your-C" font-family="PingFangSC-Regular, PingFang SC" font-size="13.1764706" font-weight="normal" fill="#E0E0E0">
                            <tspan x="207.058824" y="124.130138">Connecting to Your Coco-Server</tspan>
                        </text>
                        <text id="Running-your-own-pri" opacity="0.51999628" font-family="PingFangSC-Regular, PingFang SC" font-size="11.2941176" font-weight="normal" fill="#E0E0E0">
                            <tspan x="181.647059" y="151.312179">Running your own private instance of coco-server ensures complete control over </tspan>
                            <tspan x="181.647059" y="167.312179">your data, keeping it secure and accessible only within your environment. Enjoy </tspan>
                            <tspan x="181.647059" y="183.312179">enhanced privacy, better performance, and seamless integration with your internal </tspan>
                            <tspan x="181.647059" y="199.312179">systems.</tspan>
                        </text>
                        <text id="Server-address" font-family="PingFangSC-Regular, PingFang SC" font-size="11.2941176" font-weight="normal" fill="#E0E0E0">
                            <tspan x="181.647059" y="239.78943">Server address</tspan>
                        </text>
                        <text id="For-example:-https:/" opacity="0.200941" font-family="PingFangSC-Regular, PingFang SC" font-size="11.2941176" font-weight="normal" fill="#E0E0E0">
                            <tspan x="189.176471" y="268.96896">For example: https://coco.infini.cloud</tspan>
                        </text>
                        <text id="Connect" font-family="PingFangSC-Regular, PingFang SC" font-size="11.2941176" font-weight="normal" fill="#000000">
                            <tspan x="557.176471" y="268.96896">Connect</tspan>
                        </text>
                        <g id="3.1-返回1" transform="translate(184.4706, 113.8943)" fill="#E0E0E0" fill-rule="nonzero">
                            <rect id="矩形" opacity="0" x="0" y="0" width="11.2941176" height="11.295302"></rect>
                            <path d="M4.28409208,5.64791387 L8.29336004,1.90552352 C8.5296643,1.68457329 8.5296643,1.3269784 8.29336004,1.10672915 C8.0570673,0.886123842 7.67367781,0.886123842 7.4373966,1.10672915 L3.00048107,5.24859457 C2.76454553,5.46919987 2.76454553,5.82697279 3.00048107,6.04687712 L7.43737355,10.1885756 C7.55588288,10.2988839 7.71078039,10.3540268 7.86571247,10.3540268 C8.02064455,10.3540268 8.17554206,10.2988727 8.29333699,10.1882196 C8.52964126,9.96762542 8.52964126,9.61053123 8.29333699,9.38993705 L4.28409208,5.64791387" id="路径"></path>
                        </g>
                    </g>
                </g>
                <rect id="蒙版" fill="url(#linearGradient-12)" x="0" y="0" width="640" height="480" rx="11"></rect>
            </g>
        </g>
    </g>
</svg>