<?xml version="1.0" encoding="UTF-8"?>
<svg width="56px" height="56px" viewBox="0 0 56 56" version="1.1" xmlns="http://www.w3.org/2000/svg" xmlns:xlink="http://www.w3.org/1999/xlink">
    <title>编组 3备份 3</title>
    <g id="集成" stroke="none" stroke-width="1" fill="none" fill-rule="evenodd">
        <g id="Store-home" transform="translate(-360, -1055)">
            <g id="编组-3备份-3" transform="translate(360, 1055)">
                <rect id="矩形" fill="#005BFF" x="0" y="0" width="56" height="56" rx="16"></rect>
                <g id="魔法" transform="translate(3, 3)" fill="#00FFD1" fill-rule="nonzero">
                    <rect id="矩形" opacity="0" x="0" y="0" width="50" height="50"></rect>
                    <path d="M29.9921453,20.4868521 C30.226191,19.7753204 30.3433123,19.4195792 30.5369239,19.3545501 C30.6211206,19.3262657 30.7122532,19.3262657 30.79645,19.3545501 C30.9900616,19.4195792 31.1071828,19.7753204 31.3411793,20.4868521 C32.3211413,23.4668737 32.811319,24.9569338 33.7359422,26.1372942 C34.1619294,26.6811567 34.6521985,27.1714418 35.1960471,27.5974468 C36.3764089,28.5220199 37.8665688,29.0121971 40.8464952,29.992158 C41.5580277,30.2262035 41.9139169,30.3433246 41.9788968,30.536936 C42.0070344,30.6211566 42.0070344,30.7122412 41.9788968,30.7964618 C41.9139169,30.9900732 41.5580277,31.1071943 40.8464952,31.3411906 C37.8665688,32.3211515 36.3764089,32.8113287 35.1960471,33.735951 C34.6521998,34.1619389 34.1619306,34.6522076 33.7359422,35.1960543 C32.811319,36.3764148 32.3211413,37.8665732 31.3411793,40.8464965 C31.1071828,41.5580281 30.9900616,41.913917 30.79645,41.9788968 C30.7122293,42.0070344 30.6211446,42.0070344 30.5369239,41.9788968 C30.3433123,41.913917 30.226191,41.5580281 29.9921453,40.8464965 C29.0121834,37.8665732 28.5220056,36.3764148 27.5974316,35.1960543 C27.1714261,34.6522063 26.6811405,34.1619377 26.1372775,33.735951 C24.9569157,32.8113287 23.4668542,32.3211515 20.4868294,31.3411906 C19.7752969,31.1071943 19.4195553,30.9900732 19.3545262,30.7964618 C19.3262417,30.7122651 19.3262417,30.6211326 19.3545262,30.536936 C19.4195553,30.3433246 19.7752969,30.2262035 20.4868294,29.992158 C23.4668542,29.0121971 24.9569157,28.5220199 26.1372775,27.5974468 C26.6811415,27.1714427 27.171427,26.6811577 27.5974316,26.1372942 C28.5220056,24.9569338 29.0121834,23.4668737 29.9921453,20.4868521 Z M15.1059421,14.4357092 C15.2619234,13.9613711 15.3399387,13.7241775 15.4690623,13.6808412 C15.5251904,13.6620006 15.5859351,13.6620006 15.6420633,13.6808412 C15.7711869,13.7241775 15.8492021,13.9613711 16.0051834,14.4357092 C16.6585733,16.4223903 16.9852929,17.4157308 17.6017412,18.2027198 C17.8857571,18.5652426 18.2125884,18.8920736 18.5751117,19.1760892 C19.3620523,19.7925369 20.3554431,20.1192561 22.3421262,20.7726453 C22.8164648,20.9286265 23.0536587,21.0066416 23.096995,21.1357651 C23.1158357,21.1918931 23.1158357,21.2526378 23.096995,21.3087659 C23.0536587,21.4378894 22.8164648,21.5159045 22.3421262,21.6718856 C20.3554431,22.3252749 19.3620523,22.6519941 18.5751117,23.2684418 C18.2125884,23.5524574 17.8857571,23.8792883 17.6017412,24.2418112 C16.9852929,25.028751 16.6585733,26.0221407 16.0051834,28.008871 C15.8492021,28.4831599 15.7711869,28.7204027 15.6420633,28.7636406 C15.5859428,28.7825281 15.5251827,28.7825281 15.4690623,28.7636406 C15.3399387,28.7204027 15.2619234,28.4831599 15.1059421,28.008871 C14.4525522,26.0221407 14.1258326,25.028751 13.5093352,24.2418112 C13.2253497,23.8792778 12.8985333,23.5524452 12.5360139,23.2684418 C11.7490241,22.6519941 10.7556825,22.3252749 8.76899928,21.6718856 C8.29461153,21.5159045 8.05746684,21.4378894 8.0141305,21.3087659 C7.99528983,21.2526378 7.99528983,21.1918931 8.0141305,21.1357651 C8.05746684,21.0066416 8.29461153,20.9286265 8.76899928,20.7726453 C10.7556825,20.1192561 11.7490241,19.7925369 12.5360139,19.1760892 C12.8985333,18.8920858 13.2253497,18.5652532 13.5093352,18.2027198 C14.1258326,17.4157308 14.4525522,16.4223903 15.1059421,14.4357092 L15.1059421,14.4357092 Z M25.6633816,8.4806341 C25.7608761,8.18416666 25.8097709,8.03595753 25.8904424,8.00885391 C25.9254818,7.9970487 25.9634241,7.9970487 25.9984635,8.00885391 C26.079135,8.03595753 26.128079,8.18416666 26.2255242,8.4806341 C26.6338991,9.72233437 26.8380865,10.3431599 27.2232437,10.8350096 C27.4008055,11.0615724 27.6050966,11.2658468 27.8316741,11.4433901 C28.3235242,11.8286453 28.9443996,12.0328817 30.1861504,12.4412069 C30.4825198,12.5387013 30.6308274,12.5874976 30.6578327,12.668169 C30.6697368,12.7032258 30.6697368,12.7412316 30.6578327,12.7762884 C30.6308274,12.857009 30.4825198,12.9057562 30.1861504,13.0032997 C28.9443996,13.411625 28.3235242,13.6158122 27.8316741,14.0011165 C27.6050966,14.1786598 27.4008055,14.3829342 27.2232437,14.609497 C26.8380865,15.1013467 26.6338991,15.7221723 26.2255242,16.9638233 C26.128079,17.2602908 26.079135,17.4085491 25.9984635,17.4356527 C25.9634158,17.4474074 25.9254901,17.4474074 25.8904424,17.4356527 C25.8097709,17.4085491 25.7608761,17.2602908 25.6633816,16.9638233 C25.2550068,15.7221723 25.0508193,15.1013467 24.6656129,14.609497 C24.4880946,14.3829122 24.2838169,14.1786347 24.0572318,14.0011165 C23.5653816,13.6158122 22.9445554,13.411625 21.7028538,13.0032997 C21.4063861,12.9057562 21.2581768,12.857009 21.2310731,12.7762884 C21.2192675,12.7412154 21.2192675,12.703242 21.2310731,12.668169 C21.2581768,12.5874976 21.4063861,12.5387013 21.7028538,12.4412069 C22.9445554,12.0328817 23.5653816,11.8286453 24.0572318,11.4433901 C24.2838169,11.2658719 24.4880946,11.0615945 24.6656129,10.8350096 C25.0508193,10.3431599 25.2550068,9.72233437 25.6633816,8.4806341 L25.6633816,8.4806341 Z" id="形状"></path>
                </g>
            </g>
        </g>
    </g>
</svg>