<?xml version="1.0" encoding="UTF-8"?>
<svg width="56px" height="56px" viewBox="0 0 56 56" version="1.1" xmlns="http://www.w3.org/2000/svg" xmlns:xlink="http://www.w3.org/1999/xlink">
    <title>编组 3备份 2</title>
    <g id="集成" stroke="none" stroke-width="1" fill="none" fill-rule="evenodd">
        <g id="Store-home" transform="translate(-1001, -665)">
            <g id="编组-3备份-2" transform="translate(1001, 665)">
                <rect id="矩形" fill="#219C5E" x="0" y="0" width="56" height="56" rx="16"></rect>
                <g id="编组" transform="translate(13, 14)" stroke="#FFFFFF" stroke-linecap="round" stroke-linejoin="round" stroke-width="2.5">
                    <path d="M23.25,28 L23.25,24.8888889 C22.3939586,24.8888889 21.7,24.1924429 21.7,23.3333333 L21.7,21.7777778 C21.7,20.0595586 23.0879173,18.6666667 24.8,18.6666667 L27.9,18.6666667 C29.6120827,18.6666667 31,20.0595586 31,21.7777778 L31,23.3333333 C31,24.1924429 30.3060414,24.8888889 29.45,24.8888889" id="路径"></path>
                    <path d="M26.7375,18.6666666 L26.7375,5.44444435 C26.7375,2.43756075 24.3086447,0 21.3125,0 C18.3163553,0 15.8875001,2.43756075 15.8875,5.44444435 L15.8875,22.5555555 C15.8875,25.5624392 13.4586448,28 10.4625,28 C7.46635523,28 5.0375,25.5624392 5.0375,22.5555555 L5.0375,9.33333326" id="路径"></path>
                    <polyline id="路径" points="29.8375 28 29.8375 24.8888889 23.6375 24.8888889"></polyline>
                    <polyline id="路径" points="1.9375 3.11111111 8.1375 3.11111111 8.1375 0"></polyline>
                    <path d="M7.75,3.11111111 C8.60604136,3.11111111 9.3,3.80755706 9.3,4.66666667 L9.3,6.22222222 C9.3,7.94044144 7.91208272,9.33333333 6.2,9.33333333 L3.1,9.33333333 C1.38791728,9.33333333 0,7.94044144 0,6.22222222 L0,4.66666667 C0,3.80755706 0.693958638,3.11111111 1.55,3.11111111 L1.55,0" id="路径"></path>
                </g>
            </g>
        </g>
    </g>
</svg>