<?xml version="1.0" encoding="UTF-8"?>
<svg width="56px" height="56px" viewBox="0 0 56 56" version="1.1" xmlns="http://www.w3.org/2000/svg" xmlns:xlink="http://www.w3.org/1999/xlink">
    <title>编组 3</title>
    <g id="集成" stroke="none" stroke-width="1" fill="none" fill-rule="evenodd">
        <g id="Extensions" transform="translate(-772, -212)">
            <g id="编组-4" transform="translate(772, 200)">
                <g id="编组-3" transform="translate(0, 12)">
                    <rect id="矩形" fill="#6535FF" x="0" y="0" width="56" height="56" rx="16"></rect>
                    <g id="编组-3备份" transform="translate(1.854, 2.1514)" fill-rule="nonzero">
                        <path d="M29.4793641,11.2724819 L29.7643743,14.1066922 L31.388745,12.0813523 C33.0484159,10.0112215 36.0930822,9.62634146 38.1891974,11.2216987 C40.2853126,12.8170559 40.6391206,15.788521 38.9794497,17.8586518 L36.9403743,20.4006922 L40.576427,20.0037551 C43.2371504,19.7133253 45.6066615,21.5834583 45.8688781,24.1808141 C46.1310948,26.7781698 44.1867209,29.1191824 41.5259975,29.4096122 L38.1563743,29.7766922 L40.6878486,31.7032589 C42.7839638,33.2986161 43.1377718,36.2700812 41.4781009,38.340212 C39.81843,40.4103428 36.7737638,40.7952228 34.6776486,39.1998656 L32.1003743,37.2376922 L32.4172132,40.3729964 C32.6794298,42.9703521 30.7350559,45.3113647 28.0743325,45.6017945 C25.4136091,45.8922242 23.044098,44.0220912 22.7818814,41.4247355 L22.4793743,38.4376922 L20.3846623,41.0521908 C18.7249913,43.1223216 15.6803251,43.5072017 13.5842099,41.9118445 C11.4880947,40.3164872 11.1342866,37.3450221 12.7939576,35.2748913 L15.1913743,32.2836922 L11.7155179,32.6635581 C9.05479445,32.9539879 6.68528338,31.0838548 6.42306674,28.4864991 C6.16085011,25.8891434 8.10522401,23.5481307 10.7659474,23.257701 L13.3603743,22.9746922 L11.1929827,21.3256425 C9.09686744,19.7302853 8.74305943,16.7588201 10.4027303,14.6886893 C12.0624013,12.6185585 15.1070675,12.2336785 17.2031827,13.8290357 L20.2273743,16.1316922 L19.8440323,12.3242211 C19.5818157,9.72686536 21.5261896,7.3858527 24.186913,7.09542295 C26.8476364,6.80499321 29.2171475,8.67512621 29.4793641,11.2724819 Z" id="形状结合" fill="#59DCF9" transform="translate(26.146, 26.3486) rotate(-243) translate(-26.146, -26.3486)"></path>
                        <path d="M35.8823766,14.0481488 L34.9566942,16.4882834 L37.4099834,15.3057762 C39.7830735,14.1624009 42.5912938,15.1961726 43.682319,17.6147699 C44.7733442,20.0333673 43.7340253,22.9209166 41.3609352,24.0642919 L37.9362991,25.7134822 L41.5028143,27.1004777 C43.936119,28.0460158 45.1392493,30.8412632 44.1900809,33.3438374 C43.2409126,35.8464117 40.4988764,37.1086389 38.0655716,36.1631008 L35.4108799,35.1303422 L36.4780221,37.4971522 C37.5690473,39.9157495 36.5297284,42.8032988 34.1566383,43.9466742 C31.7835482,45.0900495 28.9753279,44.0562778 27.8843027,41.6376805 L26.545049,38.6667888 L25.2479891,42.0867412 C24.2988208,44.5893154 21.5567846,45.8515426 19.1234798,44.9060046 C16.6901751,43.9604665 15.4870448,41.1652191 16.4362131,38.6626449 L17.6389194,35.4936378 L14.7730706,36.874555 C12.3999805,38.0179303 9.59176022,36.9841586 8.500735,34.5655613 C7.40970978,32.1469639 8.4490287,29.2594146 10.8221188,28.1160393 L13.7404862,26.7104792 L11.1129903,25.6897169 C14.8417522,22.8638996 19.0752848,20.2886957 23.718213,18.1045291 C27.8317043,16.1696014 31.9717155,14.6802909 36.0214615,13.6250826 C35.9816357,13.767849 35.9353593,13.9084549 35.8823766,14.0481488 Z" id="形状结合" fill="#82CDFB"></path>
                        <path d="M43.682319,17.6147699 C44.7733442,20.0333673 43.7340253,22.9209166 41.3609352,24.0642919 L37.9362991,25.7134822 L41.5028143,27.1004777 C43.936119,28.0460158 45.1392493,30.8412632 44.1900809,33.3438374 C43.2409126,35.8464117 40.4988764,37.1086389 38.0655716,36.1631008 L35.4108799,35.1303422 L36.4780221,37.4971522 C37.5690473,39.9157495 36.5297284,42.8032988 34.1566383,43.9466742 C31.7835482,45.0900495 28.9753279,44.0562778 27.8843027,41.6376805 L26.545049,38.6667888 L25.2479891,42.0867412 C24.2988208,44.5893154 21.5567846,45.8515426 19.1234798,44.9060046 C16.6901751,43.9604665 15.4870448,41.1652191 16.4362131,38.6626449 L17.6389194,35.4936378 L14.7730706,36.874555 C12.3999805,38.0179303 9.59176022,36.9841586 8.500735,34.5655613 C8.30821811,34.1387876 8.18203243,33.6974125 8.11780143,33.2535952 C12.3532329,28.8981825 17.9056927,24.9194599 24.4120567,21.858681 C30.7567803,18.874212 37.1812838,17.1517768 43.0879685,16.6295297 C43.3199478,16.9262146 43.5201118,17.2551872 43.682319,17.6147699 Z" id="形状结合" fill="#B1BFFD"></path>
                        <path d="M41.3609352,24.0642919 L37.9362991,25.7134822 L41.5028143,27.1004777 C43.936119,28.0460158 45.1392493,30.8412632 44.1900809,33.3438374 C43.2409126,35.8464117 40.4988764,37.1086389 38.0655716,36.1631008 L35.4108799,35.1303422 L36.4780221,37.4971522 C37.5690473,39.9157495 36.5297284,42.8032988 34.1566383,43.9466742 C31.7835482,45.0900495 28.9753279,44.0562778 27.8843027,41.6376805 L26.545049,38.6667888 L25.2479891,42.0867412 C24.2988208,44.5893154 21.5567846,45.8515426 19.1234798,44.9060046 C16.6901751,43.9604665 15.4870448,41.1652191 16.4362131,38.6626449 L17.6389194,35.4936378 L14.7730706,36.874555 C13.3202671,37.5745282 11.7043822,37.4585337 10.4192554,36.7083652 C14.1729882,32.3154959 19.5191155,28.2410157 25.9613662,25.2103955 C32.1574096,22.2958655 38.4349445,20.7855163 44.0191883,20.6044523 C43.7267486,22.0667565 42.7834791,23.378898 41.3609352,24.0642919 Z" id="形状结合" fill="#CBB6FD"></path>
                        <path d="M39.8965165,24.7688329 L37.9362991,25.7134822 L41.5028143,27.1004777 C43.936119,28.0460158 45.1392493,30.8412632 44.1900809,33.3438374 C43.2409126,35.8464117 40.4988764,37.1086389 38.0655716,36.1631008 L35.4108799,35.1303422 L36.4780221,37.4971522 C37.5690473,39.9157495 36.5297284,42.8032988 34.1566383,43.9466742 C31.7835482,45.0900495 28.9753279,44.0562778 27.8843027,41.6376805 L26.545049,38.6667888 L25.2479891,42.0867412 C24.2988208,44.5893154 21.5567846,45.8515426 19.1234798,44.9060046 C16.6901751,43.9604665 15.4870448,41.1652191 16.4362131,38.6626449 L17.5605557,35.6981666 C20.3766086,32.8171643 24.0576643,30.1865432 28.3661568,28.1597056 C32.2686294,26.3240372 36.2163749,25.2045396 39.8965165,24.7688329 Z" id="形状结合" fill="#DAAFFF"></path>
                        <path d="M29.9154663,31.51142 C34.7489012,29.2378426 39.6586601,28.3622719 43.6455812,28.7925785 C44.530665,30.0670554 44.7893598,31.7637807 44.1900809,33.3438374 C43.2409126,35.8464117 40.4988764,37.1086389 38.0655716,36.1631008 L35.4108799,35.1303422 L36.4780221,37.4971522 C37.5690473,39.9157495 36.5297284,42.8032988 34.1566383,43.9466742 C31.7835482,45.0900495 28.9753279,44.0562778 27.8843027,41.6376805 L26.545049,38.6667888 L25.2479891,42.0867412 C24.2988208,44.5893154 21.5567846,45.8515426 19.1234798,44.9060046 C18.4264943,44.6351686 17.8304389,44.2125724 17.3569844,43.6885636 C18.86449,39.238592 23.4972638,34.5307287 29.9154663,31.51142 Z" id="形状结合" fill="#E7BBFE"></path>
                        <path d="M29.7538379,35.6679957 C34.846238,33.272608 40.0518601,33.4030608 42.1440822,35.8017332 C40.9448162,36.5231133 39.4548728,36.702958 38.0655716,36.1631008 L35.4108799,35.1303422 L36.4780221,37.4971522 C37.5690473,39.9157495 36.5297284,42.8032988 34.1566383,43.9466742 C31.7835482,45.0900495 28.9753279,44.0562778 27.8843027,41.6376805 L26.545049,38.6667888 L25.2479891,42.0867412 C24.6524721,43.6568795 23.3512062,44.7387647 21.8632337,45.0934685 C21.5766704,41.9675774 24.7878179,38.0041588 29.7538379,35.6679957 Z" id="形状结合" fill="#EFD3FF"></path>
                    </g>
                </g>
            </g>
        </g>
    </g>
</svg>