<?xml version="1.0" encoding="UTF-8"?>
<svg width="20px" height="20px" viewBox="0 0 20 20" version="1.1" xmlns="http://www.w3.org/2000/svg" xmlns:xlink="http://www.w3.org/1999/xlink">
    <title>macos@1x</title>
    <g id="集成" stroke="none" stroke-width="1" fill="none" fill-rule="evenodd">
        <g id="Extensions" transform="translate(-392, -1078)" fill="#9696B4" fill-rule="nonzero">
            <g id="macos" transform="translate(392, 1078)">
                <rect id="矩形" opacity="0" x="0" y="0" width="20" height="20"></rect>
                <path d="M18.14,14.66 C18.11,14.74 17.72,16.11 16.76,17.51 C15.92,18.73 15.06,19.95 13.7,19.97 C12.36,19.99 11.93,19.17 10.4,19.17 C8.87,19.17 8.39,19.95 7.12,19.99 C5.81,20.04 4.8,18.66 3.96,17.45 C2.25,14.99 0.93,10.44 2.7,7.4 C3.57,5.88 5.14,4.91 6.84,4.88 C8.12,4.86 9.35,5.75 10.13,5.75 C10.93,5.75 12.41,4.67 13.97,4.83 C14.62,4.86 16.45,5.1 17.62,6.81 C17.53,6.87 15.44,8.11 15.46,10.62 C15.48,13.65 18.11,14.65 18.14,14.66 M12.94,3.21 C13.64,2.35 14.11,1.17 13.98,0 C12.98,0.04 11.75,0.67 11.03,1.52 C10.39,2.26 9.82,3.46 9.98,4.62 C11.09,4.68 12.24,4.03 12.94,3.21" id="形状"></path>
            </g>
        </g>
    </g>
</svg>