<?xml version="1.0" encoding="UTF-8"?>
<svg width="56px" height="56px" viewBox="0 0 56 56" version="1.1" xmlns="http://www.w3.org/2000/svg" xmlns:xlink="http://www.w3.org/1999/xlink">
    <title>编组 3备份 4</title>
    <g id="集成" stroke="none" stroke-width="1" fill="none" fill-rule="evenodd">
        <g id="Store-home" transform="translate(-788, -1055)">
            <g id="编组-3备份-4" transform="translate(788, 1055)">
                <rect id="矩形" fill="#3595FF" x="0" y="0" width="56" height="56" rx="16"></rect>
                <g id="mcp" transform="translate(8, 8)" fill="#FFFFFF" fill-rule="nonzero">
                    <rect id="矩形" opacity="0" x="0" y="0" width="40" height="40"></rect>
                    <path d="M4.40516588,17.6348687 L18.6187478,3.8527056 C19.8922751,2.61756853 21.4289063,2 23.2286415,2 C25.0304327,2 26.568092,2.61756853 27.8416193,3.8527056 C29.1151467,5.08784266 29.7519103,6.57815242 29.7519103,8.32363487 C29.7519103,8.55597726 29.7406544,8.78434416 29.7181425,9.00873558 C29.9371981,8.98887091 30.159351,8.97893858 30.3846013,8.97893858 C32.2129903,8.97893858 33.7731614,9.60445809 35.0651147,10.8554971 C36.3550382,12.1104988 37,13.6236389 37,15.3949173 C37,17.1661957 36.3550382,18.6783514 35.0651147,19.9313846 L22.1230436,32.483396 C21.9653552,32.6363053 21.9653552,32.7892146 22.1230436,32.9421239 L24.8655875,35.6020327 C25.4150124,36.1590079 25.4049729,37.0396595 24.8429849,37.5847169 C24.2809968,38.1297744 23.3729732,38.139528 22.7986757,37.6066761 L20.0560923,34.946729 C19.4213584,34.3311546 19.1039914,33.5864982 19.1039914,32.71276 C19.1039914,31.8390217 19.4213584,31.0943653 20.0560923,30.4787909 L32.9981634,17.9267795 C33.7188852,17.2278093 34.0792461,16.3838553 34.0792461,15.3949173 C34.0792461,14.4059793 33.7188984,13.562038 32.9982029,12.8630934 C32.2754514,12.1621291 31.4052657,11.8116469 30.3876459,11.8116469 C29.3659666,11.8116469 28.494766,12.1621291 27.7740443,12.8630934 L26.9448359,13.6643525 L17.0432085,23.2734029 C16.4718738,23.8239801 15.5489987,23.8226597 14.9793414,23.27045 L14.9701284,23.264506 C14.6975045,22.999364 14.5449228,22.6398746 14.5460802,22.2654292 C14.5472375,21.8909839 14.7020388,21.5323881 14.9762967,21.2688362 L24.9362072,11.6001151 L25.7715839,10.7899207 C26.4738797,10.1068014 26.8250276,9.28370901 26.8250276,8.32064366 C26.8250276,7.35757831 26.4738797,6.53547024 25.7715839,5.85431945 C25.0672319,5.1712001 24.2185564,4.82964042 23.2255573,4.82964042 C22.2325582,4.82964042 21.3848975,5.1712001 20.6825753,5.85431945 L6.47203809,19.6394354 C5.89768658,20.1718912 4.99000238,20.1619612 4.42818094,19.6170758 C3.86635949,19.0721904 3.85612087,18.1918682 4.40512634,17.6348304 L4.40516588,17.6348687 Z M31.6192205,16.2646673 L20.8208097,26.7465739 C19.5472824,27.981711 18.0096231,28.5992795 16.2078318,28.5992795 C14.4060405,28.5992795 12.8683944,27.9816982 11.5948935,26.7465356 C10.3213398,25.511373 9.68456295,24.0200789 9.68456295,22.2726535 C9.68456295,20.525228 10.3213398,19.0339212 11.5948935,17.798733 L22.396349,7.32583832 C22.9748768,6.8271185 23.8539538,6.85218337 24.4012734,7.38300416 C24.9485931,7.91382494 24.974437,8.76640233 24.4602161,9.32749052 L13.6648894,19.8003085 C12.9625936,20.4834023 12.6114457,21.3064947 12.6114457,22.2695856 C12.6114457,23.2326765 12.9625936,24.0557688 13.6648894,24.7388626 C14.369215,25.4199879 15.2178905,25.7605505 16.210916,25.7605505 C17.2039415,25.7605505 18.0516021,25.4199879 18.7538979,24.7388626 L29.5553534,14.2630534 C30.1296404,13.7301909 31.0376642,13.7399277 31.599663,14.2849747 C32.1616618,14.8300217 32.1717186,15.7106731 31.6223047,16.2676585 L31.6192205,16.2646673 Z" id="形状"></path>
                </g>
            </g>
        </g>
    </g>
</svg>