<?xml version="1.0" encoding="UTF-8"?>
<svg width="56px" height="56px" viewBox="0 0 56 56" version="1.1" xmlns="http://www.w3.org/2000/svg" xmlns:xlink="http://www.w3.org/1999/xlink">
    <title>Quick Link</title>
    <g id="集成" stroke="none" stroke-width="1" fill="none" fill-rule="evenodd">
        <g id="Store-home" transform="translate(-1220, -1055)" fill-rule="nonzero">
            <g id="Quick-Link" transform="translate(1220, 1055)">
                <rect id="矩形" fill="#000000" opacity="0" x="0" y="0" width="56" height="56"></rect>
                <path d="M16,0 L40,0 C50.6666667,0 56,5.33333333 56,16 L56,40 C56,50.6666667 50.6666667,56 40,56 L16,56 C5.33333333,56 0,50.6666667 0,40 L0,16 C0,5.33333333 5.33333333,0 16,0 Z" id="路径" fill="#AA4AFF"></path>
                <path d="M41.852,14.151 C45.339,17.642 45.388,23.286 41.944,26.855 L37.419,31.385 C35.5647504,33.2425905 32.9945688,34.2023665 30.3766095,34.014821 C27.7586502,33.8272754 25.3515252,32.5109348 23.781,30.408 C23.2850483,29.7441537 23.4211537,28.8039517 24.085,28.308 C24.7488463,27.8120483 25.6890483,27.9481537 26.185,28.612 C27.2345748,30.0163237 28.8425492,30.8953051 30.5912698,31.0206387 C32.3399904,31.1459723 34.0568815,30.5052893 35.296,29.265 L39.803,24.754 C42.0934044,22.3788871 42.0609447,18.6073395 39.73,16.272 C37.399,13.938 33.631,13.906 31.276,16.182 L28.681,18.765 C28.0936452,19.3493173 27.1438173,19.3468548 26.5595,18.7595 C25.9751828,18.1721452 25.9776452,17.2223173 26.565,16.638 L29.175,14.041 C32.7219936,10.6104467 38.3650708,10.6594124 41.852,14.151 Z" id="路径" fill="#FFFFFF"></path>
                <path d="M18.581,24.615 C20.4352496,22.7574095 23.0054312,21.7976335 25.6233905,21.985179 C28.2413498,22.1727246 30.6484748,23.4890652 32.219,25.592 C32.7149517,26.2558463 32.5788463,27.1960483 31.915,27.692 C31.2511537,28.1879517 30.3109517,28.0518463 29.815,27.388 C28.7654252,25.9836763 27.1574508,25.1046949 25.4087302,24.9793613 C23.6600096,24.8540277 21.9431185,25.4947107 20.704,26.735 L16.197,31.246 C13.9065956,33.6211129 13.9390553,37.3926605 16.27,39.728 C18.601,42.062 22.369,42.094 24.721,39.82 L27.301,37.238 C27.6774287,36.8478917 28.2350581,36.6912478 28.7595644,36.8282743 C29.2840707,36.9653007 29.6938293,37.374673 29.8313502,37.8990499 C29.9688712,38.4234268 29.8127532,38.9812036 29.423,39.358 L26.825,41.959 C23.2780064,45.3895533 17.6349292,45.3405876 14.148,41.849 C10.661,38.358 10.612,32.714 14.056,29.145 L18.581,24.615 L18.581,24.615 Z" id="路径" fill="#FFFFFF"></path>
            </g>
        </g>
    </g>
</svg>