<?xml version="1.0" encoding="UTF-8"?>
<svg width="1011px" height="459px" viewBox="0 0 1011 459" version="1.1" xmlns="http://www.w3.org/2000/svg" xmlns:xlink="http://www.w3.org/1999/xlink">
    <title>编组 2</title>
    <defs>
        <filter x="-13.0%" y="-13.1%" width="126.1%" height="126.1%" filterUnits="objectBoundingBox" id="filter-1">
            <feGaussianBlur stdDeviation="2.06769638" in="SourceGraphic"></feGaussianBlur>
        </filter>
        <filter x="-16.2%" y="-16.3%" width="132.4%" height="132.5%" filterUnits="objectBoundingBox" id="filter-2">
            <feGaussianBlur stdDeviation="2.06769638" in="SourceGraphic"></feGaussianBlur>
        </filter>
        <filter x="-26.1%" y="-26.1%" width="152.2%" height="152.3%" filterUnits="objectBoundingBox" id="filter-3">
            <feGaussianBlur stdDeviation="2.06769638" in="SourceGraphic"></feGaussianBlur>
        </filter>
        <filter x="-17.6%" y="-17.7%" width="135.3%" height="135.4%" filterUnits="objectBoundingBox" id="filter-4">
            <feGaussianBlur stdDeviation="2.06769638" in="SourceGraphic"></feGaussianBlur>
        </filter>
        <filter x="-12.2%" y="-12.3%" width="124.5%" height="124.5%" filterUnits="objectBoundingBox" id="filter-5">
            <feGaussianBlur stdDeviation="2.12282484" in="SourceGraphic"></feGaussianBlur>
        </filter>
        <filter x="-15.0%" y="-15.0%" width="130.0%" height="130.1%" filterUnits="objectBoundingBox" id="filter-6">
            <feGaussianBlur stdDeviation="1.55077228" in="SourceGraphic"></feGaussianBlur>
        </filter>
        <filter x="-20.0%" y="-19.0%" width="140.0%" height="138.0%" filterUnits="objectBoundingBox" id="filter-7">
            <feGaussianBlur stdDeviation="1.55077228" in="SourceGraphic"></feGaussianBlur>
        </filter>
        <filter x="-1.9%" y="-1.7%" width="103.8%" height="103.4%" filterUnits="objectBoundingBox" id="filter-8">
            <feGaussianBlur stdDeviation="0" in="SourceGraphic"></feGaussianBlur>
        </filter>
        <filter x="0.0%" y="0.0%" width="100.0%" height="100.0%" filterUnits="objectBoundingBox" id="filter-9">
            <feGaussianBlur stdDeviation="0" in="SourceGraphic"></feGaussianBlur>
        </filter>
        <filter x="-11.5%" y="-13.1%" width="123.1%" height="126.1%" filterUnits="objectBoundingBox" id="filter-10">
            <feGaussianBlur stdDeviation="2" in="SourceGraphic"></feGaussianBlur>
        </filter>
        <filter x="-307.0%" y="-18.8%" width="714.0%" height="137.6%" filterUnits="objectBoundingBox" id="filter-11">
            <feGaussianBlur stdDeviation="2.02634245" in="SourceGraphic"></feGaussianBlur>
        </filter>
        <filter x="-17.0%" y="-28.6%" width="134.0%" height="157.1%" filterUnits="objectBoundingBox" id="filter-12">
            <feGaussianBlur stdDeviation="2.02634245" in="SourceGraphic"></feGaussianBlur>
        </filter>
        <filter x="-47.6%" y="-102.0%" width="195.2%" height="304.0%" filterUnits="objectBoundingBox" id="filter-13">
            <feGaussianBlur stdDeviation="2.02634245" in="SourceGraphic"></feGaussianBlur>
        </filter>
        <filter x="-79.3%" y="-79.3%" width="258.7%" height="258.7%" filterUnits="objectBoundingBox" id="filter-14">
            <feGaussianBlur stdDeviation="2.02634245" in="SourceGraphic"></feGaussianBlur>
        </filter>
        <filter x="-79.3%" y="-79.3%" width="258.7%" height="258.7%" filterUnits="objectBoundingBox" id="filter-15">
            <feGaussianBlur stdDeviation="2.02634245" in="SourceGraphic"></feGaussianBlur>
        </filter>
        <filter x="-66.5%" y="-66.6%" width="233.1%" height="233.2%" filterUnits="objectBoundingBox" id="filter-16">
            <feGaussianBlur stdDeviation="2" in="SourceGraphic"></feGaussianBlur>
        </filter>
        <filter x="-31.7%" y="-31.7%" width="163.4%" height="163.4%" filterUnits="objectBoundingBox" id="filter-17">
            <feGaussianBlur stdDeviation="2" in="SourceGraphic"></feGaussianBlur>
        </filter>
        <filter x="-16.2%" y="-16.2%" width="132.4%" height="132.5%" filterUnits="objectBoundingBox" id="filter-18">
            <feGaussianBlur stdDeviation="2.12282484" in="SourceGraphic"></feGaussianBlur>
        </filter>
        <filter x="-21.9%" y="-21.9%" width="143.8%" height="143.9%" filterUnits="objectBoundingBox" id="filter-19">
            <feGaussianBlur stdDeviation="2.12282484" in="SourceGraphic"></feGaussianBlur>
        </filter>
        <filter x="-21.9%" y="-21.9%" width="143.8%" height="143.9%" filterUnits="objectBoundingBox" id="filter-20">
            <feGaussianBlur stdDeviation="2.12282484" in="SourceGraphic"></feGaussianBlur>
        </filter>
        <filter x="-54.4%" y="-61.2%" width="208.7%" height="222.5%" filterUnits="objectBoundingBox" id="filter-21">
            <feGaussianBlur stdDeviation="3.18423726" in="SourceGraphic"></feGaussianBlur>
        </filter>
        <filter x="-24.5%" y="-20.0%" width="148.9%" height="140.0%" filterUnits="objectBoundingBox" id="filter-22">
            <feGaussianBlur stdDeviation="3.18423726" in="SourceGraphic"></feGaussianBlur>
        </filter>
        <filter x="-89.0%" y="-196.0%" width="277.9%" height="491.9%" filterUnits="objectBoundingBox" id="filter-23">
            <feGaussianBlur stdDeviation="3.18423726" in="SourceGraphic"></feGaussianBlur>
        </filter>
        <filter x="-89.0%" y="-196.0%" width="277.9%" height="491.9%" filterUnits="objectBoundingBox" id="filter-24">
            <feGaussianBlur stdDeviation="3.18423726" in="SourceGraphic"></feGaussianBlur>
        </filter>
        <filter x="-54.4%" y="-61.2%" width="208.7%" height="222.5%" filterUnits="objectBoundingBox" id="filter-25">
            <feGaussianBlur stdDeviation="3.18423726" in="SourceGraphic"></feGaussianBlur>
        </filter>
        <filter x="-14.9%" y="-14.9%" width="129.7%" height="129.8%" filterUnits="objectBoundingBox" id="filter-26">
            <feGaussianBlur stdDeviation="2" in="SourceGraphic"></feGaussianBlur>
        </filter>
        <filter x="-24.1%" y="-22.3%" width="148.3%" height="144.6%" filterUnits="objectBoundingBox" id="filter-27">
            <feGaussianBlur stdDeviation="2" in="SourceGraphic"></feGaussianBlur>
        </filter>
        <filter x="-15.4%" y="-15.4%" width="130.8%" height="130.8%" filterUnits="objectBoundingBox" id="filter-28">
            <feGaussianBlur stdDeviation="2" in="SourceGraphic"></feGaussianBlur>
        </filter>
        <filter x="-11.1%" y="-11.1%" width="122.2%" height="122.3%" filterUnits="objectBoundingBox" id="filter-29">
            <feGaussianBlur stdDeviation="1" in="SourceGraphic"></feGaussianBlur>
        </filter>
        <filter x="-23.7%" y="-16.7%" width="147.4%" height="133.4%" filterUnits="objectBoundingBox" id="filter-30">
            <feGaussianBlur stdDeviation="1" in="SourceGraphic"></feGaussianBlur>
        </filter>
        <filter x="-83.3%" y="-55.7%" width="266.7%" height="211.4%" filterUnits="objectBoundingBox" id="filter-31">
            <feGaussianBlur stdDeviation="1" in="SourceGraphic"></feGaussianBlur>
        </filter>
        <filter x="-41.7%" y="-23.9%" width="183.3%" height="147.7%" filterUnits="objectBoundingBox" id="filter-32">
            <feGaussianBlur stdDeviation="1" in="SourceGraphic"></feGaussianBlur>
        </filter>
    </defs>
    <g id="集成" stroke="none" stroke-width="1" fill="none" fill-rule="evenodd">
        <g id="Store-home" transform="translate(-460, -114)">
            <g id="编组-2" transform="translate(460, 120)">
                <g id="social-spotify" transform="translate(672, 369)" fill-rule="nonzero">
                    <path d="M22,0 C9.9,0 0,9.9 0,22 C0,34.1 9.9,44 22,44 C34.1,44 44,34.1 44,22 C44,9.9 34.21,0 22,0 Z" id="路径" fill="#1ED75F"></path>
                    <path d="M31.8735241,32.3184464 C31.4231197,32.9909175 30.634912,33.2150746 29.9593054,32.7667605 C24.6670538,29.5164832 18.023589,28.844012 10.1415122,30.6372685 C9.35330448,30.8614255 8.67769789,30.3010329 8.45249569,29.6285617 C8.2272935,28.844012 8.79029899,28.1715409 9.46590558,27.9473838 C18.023589,26.0420489 25.4552615,26.8265986 31.3105186,30.4131114 C32.0987263,30.749347 32.2113274,31.6459752 31.8735241,32.3184464 L31.8735241,32.3184464 Z M34.5759505,26.1541274 C34.012945,26.9386771 32.9995351,27.2749127 32.2113274,26.71452 C26.1308681,23.0159287 16.8975781,21.8951434 9.80370887,24.1367139 C8.90290009,24.360871 7.8894902,23.9125569 7.66428801,23.0159287 C7.43908581,22.1193004 7.8894902,21.1105937 8.79029899,20.8864367 C17.0101792,18.4207091 27.144278,19.6535729 34.1255461,23.9125569 C34.8011527,24.2487925 35.1389559,25.3695777 34.5759505,26.1541274 Z M34.8011527,19.8777299 C27.5946824,15.6187459 15.5463649,15.1704318 8.67769789,17.2999238 C7.55168691,17.6361594 6.42567593,16.9636882 6.08787263,15.9549815 C5.75006934,14.8341962 6.42567593,13.713411 7.43908581,13.3771754 C15.4337638,11.0235263 28.6080923,11.4718404 36.9405735,16.4032956 C37.9539834,16.9636882 38.2917867,18.3086305 37.7287812,19.3173373 C37.1657757,20.101887 35.8145625,20.4381225 34.8011527,19.8777299 L34.8011527,19.8777299 Z" id="形状" fill="#191515"></path>
                </g>
                <g id="编组备份" transform="translate(683.2082, 31.5787)" fill-rule="nonzero">
                    <path d="M36.8284198,47.4448613 L10.7285969,47.4448613 C4.80226099,47.4448613 0,42.6539257 0,36.741566 L0,10.7032953 C0,4.79093565 4.80226099,0 10.7285969,0 L36.8284198,0 C42.7547557,0 47.5570167,4.79093565 47.5570167,10.7032953 L47.5570167,36.741566 C47.5570167,42.6539257 42.7547557,47.4448613 36.8284198,47.4448613 L36.8284198,47.4448613 Z" id="路径" fill="#CECED3" filter="url(#filter-1)"></path>
                    <path d="M5.16924095,23.2067256 C5.16924095,33.7449182 13.7323286,42.2878112 24.2954325,42.2878112 C34.8585364,42.2878112 43.421624,33.7449182 43.421624,23.2067256 C43.421624,12.6685331 34.8585364,4.12564011 24.2954325,4.12564011 C13.7323286,4.12564011 5.16924095,12.6685331 5.16924095,23.2067256 Z" id="路径" fill="#2A2A2B" filter="url(#filter-2)"></path>
                    <path d="M35.0710795,22.5971939 L33.5602197,22.3025487 L33.5602197,22.2690663 C33.5602197,22.1753156 33.5467899,22.0882614 33.5467899,21.9945106 L35.0643646,21.5793288 C35.1785185,21.5458464 35.1650886,21.3717379 35.0442198,21.3650414 L33.4997853,21.2311118 C33.4863555,21.1306646 33.4662107,21.0302174 33.4527808,20.9297702 L34.930066,20.3538729 C35.0375049,20.313694 35.0039302,20.1395855 34.8897764,20.1395855 L33.331912,20.1663714 C33.3117672,20.0659242 33.2781926,19.9721735 33.2580478,19.8784227 L34.6748985,19.1485063 C34.7756225,19.0949345 34.728618,18.9275225 34.6144641,18.9409154 L33.0565998,19.1284169 C33.0297401,19.0346661 32.9894505,18.9476119 32.9558758,18.8538612 L34.2988623,17.9699257 C34.3928714,17.9096574 34.325722,17.7422454 34.2182831,17.7690313 L32.6738487,18.1239448 C32.6335591,18.0368905 32.5865545,17.9498363 32.5462649,17.862782 L33.7952424,16.8382205 C33.8825365,16.7645592 33.8019573,16.6105401 33.6945184,16.650719 L32.1903735,17.166348 C32.143369,17.0859903 32.0896495,17.0056325 32.042645,16.9252747 L33.1841835,15.77348 C33.2647627,15.6931223 33.1640387,15.5457997 33.0633147,15.592675 L31.6128893,16.2690196 C31.5591699,16.1953583 31.4987355,16.121697 31.445016,16.0480357 L32.4656857,14.7757044 C32.53955,14.6886501 32.4253962,14.5547205 32.3246722,14.6082924 L30.9413961,15.4319595 C30.8809617,15.3649947 30.8205273,15.2913334 30.753378,15.2243686 L31.6330341,13.8515901 C31.6934685,13.7511428 31.5658848,13.6306062 31.4785907,13.7042675 L30.1893236,14.6752572 C30.1221743,14.6149889 30.055025,14.5480241 29.9878757,14.4877557 L30.7198033,13.0279229 C30.7735228,12.9274757 30.6325092,12.820332 30.5452151,12.8939933 L29.356672,13.9922161 C29.2828078,13.9386443 29.2089435,13.878376 29.1350792,13.8248041 L29.7125634,12.29131 C29.752853,12.1841663 29.6051245,12.0904156 29.5245453,12.1774699 L28.4568711,13.3962294 C28.3762919,13.349354 28.3024276,13.2957822 28.2218484,13.2556033 L28.6381742,11.6752338 C28.665034,11.5613936 28.5105905,11.4877324 28.4434412,11.5814831 L27.5100656,12.9073863 C27.4294864,12.8672074 27.3489072,12.8270285 27.2616131,12.7868496 L27.5100656,11.1729978 C27.5302104,11.0591576 27.3623371,10.9988893 27.3086176,11.0993365 L26.5229705,12.5122939 C26.4356764,12.485508 26.3483823,12.4520256 26.2610881,12.4252397 L26.3349524,10.7912984 C26.3416673,10.6774582 26.1670791,10.6372793 26.1267895,10.7377265 L25.4955858,12.2243452 C25.4082917,12.2042558 25.3142827,12.1841663 25.2269885,12.1640769 L25.1329795,10.5301356 C25.1262646,10.4162954 24.9516763,10.3895095 24.9181016,10.5033497 L24.4413414,12.0435403 C24.3473324,12.0301473 24.2600383,12.0234508 24.1660292,12.0167543 L23.8974319,10.4029025 C23.8772871,10.2890623 23.7026989,10.2823658 23.6825541,10.396206 L23.3736672,11.9765754 C23.3333776,11.9765754 23.293088,11.969879 23.2460835,11.969879 C23.192364,11.969879 23.1453595,11.9765754 23.0983549,11.9765754 L22.6618843,10.396206 C22.6283097,10.2823658 22.4537214,10.2957588 22.4470065,10.4162954 L22.3059929,12.0167543 C22.2119839,12.0234508 22.1246897,12.0368438 22.0306807,12.0502367 L21.4330517,10.5301356 C21.3927621,10.4229919 21.2181738,10.4564743 21.2181738,10.5703145 L21.2450336,12.1707734 C21.1510245,12.1908628 21.0637304,12.2109523 20.9764363,12.2310417 L20.2243638,10.7846019 C20.1706444,10.6841547 20.0027711,10.73103 20.0162009,10.8448702 L20.210934,12.4319361 C20.1236399,12.4587221 20.0363457,12.4989009 19.9490516,12.5256869 L19.0492507,11.1663013 C18.9888163,11.0725505 18.820943,11.1395154 18.8478027,11.246659 L19.2036941,12.8002426 C19.1164,12.8404215 19.0358208,12.8806003 18.9485267,12.9207792 L17.9144271,11.6618409 C17.8405628,11.5747866 17.6861194,11.6551444 17.726409,11.7622881 L18.2434588,13.2689962 C18.1628796,13.3158716 18.0823004,13.3694434 18.0017212,13.4163188 L16.8400379,12.2779171 C16.7594587,12.1975593 16.6117302,12.2980065 16.6587347,12.3984537 L17.3302279,13.8381971 C17.2496488,13.8917689 17.1757845,13.9520373 17.1019202,14.0056091 L15.832798,12.9944405 C15.7455039,12.9207792 15.6112052,13.0346194 15.6649247,13.1350666 L16.4841465,14.4944522 C16.4102822,14.5547205 16.3431329,14.6216853 16.2692686,14.6886501 L14.9061373,13.8181077 C14.8054133,13.7578393 14.6845446,13.8850725 14.7584088,13.9721267 L15.7119292,15.2377616 C15.6447799,15.3114229 15.5776306,15.3783877 15.5171962,15.452049 L14.0802006,14.7355255 C13.9794766,14.6819537 13.8720377,14.8225798 13.945902,14.909634 L15.0202912,16.0614287 C14.9598568,16.1417865 14.8994224,16.2154478 14.8457029,16.2958055 L13.3549879,15.7333011 C13.247549,15.6931223 13.1535399,15.8404448 13.2408341,15.9208026 L14.4226622,16.9453642 C14.3689427,17.0324184 14.3152233,17.1127762 14.2682187,17.1998304 L12.7372141,16.8047381 C12.6230603,16.7779521 12.549196,16.9319712 12.6432051,16.998936 L13.9190422,17.8895679 C13.8787527,17.9833187 13.8250332,18.0703729 13.7847436,18.1641237 L12.2335942,17.9297468 C12.1194403,17.9096574 12.059006,18.0770694 12.1597299,18.1306412 L13.5094314,18.8806471 C13.4758567,18.9810943 13.4355671,19.074845 13.4019924,19.1752922 L11.850843,19.101631 C11.7366892,19.0949345 11.6963996,19.269043 11.7971236,19.3092219 L13.2072594,19.9052086 C13.1803997,20.0056559 13.1535399,20.1061031 13.1333951,20.2132468 L11.5889607,20.3069975 C11.4748068,20.313694 11.4479471,20.4878025 11.5621009,20.5212849 L13.0192413,20.9699491 C13.0058114,21.0770928 12.9856666,21.17754 12.9789517,21.2846837 L11.461377,21.5324535 C11.3472231,21.5525429 11.3405082,21.7266514 11.454662,21.7467408 L12.9386621,22.0346895 C12.9386621,22.1083508 12.9252322,22.1753156 12.9252322,22.2489769 C12.9252322,22.2891558 12.9319472,22.3226382 12.9319472,22.3561206 L11.454662,22.7646059 C11.3405082,22.7980883 11.353938,22.9721968 11.4748068,22.9788933 L12.9722368,23.1128229 C12.9789517,23.2199666 12.9923816,23.3338068 13.0058114,23.4409505 L11.5889607,23.9967584 C11.4815218,24.0369373 11.5150964,24.2110458 11.6292503,24.2110458 L13.1199653,24.1842598 C13.1401101,24.2914035 13.1669698,24.3985472 13.1871146,24.5056909 L11.8441281,25.2021249 C11.7434041,25.2556968 11.7904087,25.4231088 11.9045625,25.4097158 L13.3751327,25.2289108 C13.4087074,25.3360545 13.448997,25.4431982 13.4825716,25.5436454 L12.2201643,26.374009 C12.1261553,26.4409738 12.1933046,26.6016894 12.3007435,26.5749035 L13.7310241,26.2467759 C13.7780287,26.3539196 13.8317481,26.4476703 13.8787527,26.554814 L12.7170693,27.5057143 C12.6297752,27.5793756 12.7103544,27.7333946 12.8177933,27.6932157 L14.2077843,27.2177656 C14.2615038,27.3182128 14.3286531,27.4119636 14.3823726,27.5057143 L13.3281282,28.5704547 C13.247549,28.6508125 13.348273,28.7981351 13.448997,28.7512597 L14.7785536,28.1351835 C14.8457029,28.2289342 14.9128523,28.3159885 14.9867165,28.4097392 L14.0533409,29.5749268 C13.9794766,29.6619811 14.0936305,29.7959107 14.1943545,29.7423389 L15.4500469,28.992333 C15.5239111,29.0793873 15.6044903,29.159745 15.6850695,29.2467993 L14.8859925,30.4990412 C14.8255581,30.5994884 14.9531418,30.720025 15.040436,30.6463638 L16.2088342,29.7691248 C16.2961283,29.8494825 16.3767075,29.9231438 16.4640017,30.0035016 L15.7992233,31.3227083 C15.7455039,31.4231555 15.8865175,31.5302992 15.9738116,31.4566379 L17.0414858,30.4655588 C17.1354949,30.5325236 17.229504,30.6061849 17.323513,30.6731497 L16.8064632,32.0593212 C16.7661736,32.1664649 16.9139021,32.2602156 16.9944813,32.1731614 L17.9480017,31.081635 C18.0487257,31.1419033 18.1494497,31.2088681 18.2501737,31.26244 L17.8808524,32.6753974 C17.8539927,32.7892376 18.0084361,32.8628989 18.0755855,32.7691481 L18.9082371,31.5905675 C19.015676,31.6374429 19.1231149,31.6977112 19.2305538,31.7445866 L19.015676,33.1776335 C18.9955312,33.2914736 19.1634045,33.351742 19.217124,33.2512948 L19.9154769,31.9923564 C20.0296308,32.0325353 20.1370697,32.0727142 20.2512236,32.1061966 L20.1840742,33.5593329 C20.1773593,33.673173 20.3519476,33.7133519 20.3922372,33.6129047 L20.9562915,32.293698 C21.0704453,32.3204839 21.1913141,32.3472699 21.305468,32.3673593 L21.3927621,33.8204956 C21.399477,33.9343358 21.5740653,33.9611217 21.6076399,33.8472815 L22.0306807,32.474503 C22.1515495,32.487896 22.2657033,32.5012889 22.3865721,32.5079854 L22.6283097,33.9477288 C22.6484545,34.0615689 22.8230427,34.0682654 22.8431875,33.9544252 L23.1184997,32.5481643 C23.1587893,32.5481643 23.1990789,32.5548608 23.2393685,32.5548608 C23.3199477,32.5548608 23.393812,32.5481643 23.4743912,32.5414678 L23.8638572,33.9477288 C23.8974319,34.0615689 24.0720202,34.048176 24.0787351,33.9276393 L24.2063188,32.5012889 C24.3271876,32.487896 24.4413414,32.474503 24.5554953,32.4544136 L25.0926899,33.8204956 C25.1329795,33.9276393 25.3075677,33.8941569 25.3075677,33.7803167 L25.280708,32.3472699 C25.3948618,32.3271804 25.5090157,32.2870015 25.6231696,32.2602156 L26.3013777,33.5660294 C26.3550972,33.6664766 26.5229705,33.6196012 26.5095406,33.505761 L26.3349524,32.0794106 C26.4491062,32.0459282 26.5565452,31.9990529 26.6639841,31.958874 L27.4764909,33.1910264 C27.5369253,33.2847772 27.7047986,33.2178124 27.6779389,33.1106687 L27.3556221,31.6977112 C27.4630611,31.6508359 27.563785,31.597264 27.671224,31.5436922 L28.6113145,32.6887904 C28.6851788,32.7758446 28.8396222,32.6954869 28.7993326,32.5883432 L28.3225724,31.2088681 C28.4232964,31.1552963 28.5173055,31.0883315 28.6180294,31.0280632 L29.6789888,32.0727142 C29.759568,32.1530719 29.9072965,32.0526247 29.8602919,31.9521775 L29.2358032,30.6195778 C29.3298123,30.552613 29.4171064,30.4856482 29.5044005,30.4186834 L30.6795137,31.3561907 C30.7668078,31.429852 30.9011065,31.3160118 30.847387,31.2155646 L30.0818847,29.9432333 C30.1624639,29.869572 30.249758,29.7959107 30.3303372,29.7155529 L31.5994595,30.5258271 C31.7001834,30.5860954 31.8210522,30.4588623 31.747188,30.371808 L30.8608169,29.1798345 C30.9346811,29.0994767 31.0152603,29.0191189 31.0824097,28.9320647 L32.4321111,29.6084092 C32.5328351,29.6619811 32.640274,29.521355 32.5664097,29.4343007 L31.54574,28.3427744 C31.6128893,28.2557201 31.6800386,28.1686659 31.740473,28.0816116 L33.1640387,28.6173301 C33.2714776,28.657509 33.3654867,28.5101864 33.2781926,28.4365251 L32.143369,27.4521424 C32.1970884,27.3583917 32.2642378,27.2713375 32.3112423,27.1708902 L33.7818125,27.5525897 C33.8959664,27.5793756 33.9698306,27.4253565 33.8758216,27.3583917 L32.640274,26.4945457 C32.6872785,26.3940985 32.734283,26.3003478 32.7745726,26.1999005 L34.2921474,26.4275809 C34.4063012,26.4476703 34.4667356,26.2802583 34.3660116,26.2266865 L33.036455,25.4900736 C33.0700297,25.3896264 33.1036043,25.2891792 33.1304641,25.1887319 L34.6748985,25.2556968 C34.7890524,25.2623932 34.829342,25.0882847 34.728618,25.0481059 L33.3251971,24.4521191 C33.3453419,24.3516719 33.3654867,24.2445282 33.3856315,24.144081 L34.9367809,24.0503302 C35.0509348,24.0436337 35.0777945,23.8695252 34.9636406,23.8360428 L33.4997853,23.3873786 C33.5132152,23.2869314 33.5132152,23.1797877 33.5199301,23.0793405 L35.0643646,22.8248742 C35.1785185,22.7980883 35.1785185,22.6172833 35.0710795,22.5971939 L35.0710795,22.5971939 Z M32.2709527,22.2690663 C32.2709527,27.2311586 28.2218484,31.2691365 23.2460835,31.2691365 C18.2703185,31.2691365 14.2212142,27.2311586 14.2212142,22.2690663 C14.2212142,17.3069741 18.2703185,13.2689962 23.2460835,13.2689962 C28.2151335,13.2689962 32.2709527,17.3069741 32.2709527,22.2690663 Z" id="形状" fill="#B4B4BA" filter="url(#filter-3)"></path>
                    <path d="M41.2386836,24.3310469 L38.9996765,23.9037861 L38.9996765,23.8519969 C38.9996765,23.7095766 38.9866967,23.5801037 38.9866967,23.4506307 L41.2257039,22.8291604 C41.3944406,22.7773712 41.3684811,22.5184253 41.1997444,22.505478 L38.9217979,22.3112685 C38.9088182,22.155901 38.8698789,22.0134807 38.8568992,21.8581131 L41.0439873,21.0035915 C41.1997444,20.9518023 41.1478253,20.6928564 40.9790886,20.6928564 L38.6751827,20.7316983 C38.6492232,20.589278 38.5973042,20.4468577 38.5713447,20.3044375 L40.6545948,19.2168645 C40.8103518,19.1391807 40.7324733,18.8931821 40.5637365,18.9190767 L38.2728104,19.1909699 C38.2208914,19.061497 38.1689724,18.9190767 38.1170534,18.7896037 L40.0964655,17.4819267 C40.2392427,17.3912956 40.1354047,17.145297 39.966668,17.1841389 L37.7017013,17.714978 L37.507005,17.3265591 L39.3566196,15.818199 C39.4864171,15.7146206 39.3566196,15.4815693 39.2008626,15.5333585 L36.9748352,16.3101963 C36.9099365,16.1936706 36.8320579,16.077145 36.7541794,15.9606193 L38.4350573,14.2580497 C38.551875,14.1285767 38.4090978,13.92142 38.2533407,13.9861565 L36.1051919,14.9830983 C36.0273133,14.87952 35.9494348,14.7629943 35.8585766,14.6594159 L37.3577379,12.7755842 C37.4745556,12.6461112 37.3058189,12.4519017 37.1500619,12.5295855 L35.1187307,13.7595788 C35.0278725,13.6560004 34.9370142,13.552422 34.8331762,13.4617909 L36.1441311,11.4225916 C36.2349894,11.2801713 36.0532728,11.0989092 35.9104956,11.2024876 L34.008962,12.6331639 L33.6974479,12.3612707 L34.7877471,10.2055457 C34.8656256,10.0501781 34.6579496,9.89481055 34.5411318,10.0113362 L32.7823754,11.636222 C32.6785374,11.5455909 32.5746994,11.4679072 32.4578817,11.3902234 L33.3145453,9.13092001 C33.379444,8.96260515 33.1587882,8.83313218 33.0419705,8.96260515 L31.4779104,10.7558058 C31.3610926,10.6910693 31.2442749,10.6133855 31.1274571,10.5486491 L31.7375054,8.21166191 C31.7764447,8.04334705 31.5428092,7.92682137 31.4519509,8.06924164 L30.0631175,10.0307572 C29.9462997,9.96602068 29.829482,9.90128419 29.6996844,9.84949501 L30.0631175,7.46071868 C30.089077,7.29240381 29.8424617,7.20177273 29.7645832,7.3571403 L28.5964056,9.44812879 C28.466608,9.3963396 28.3368105,9.34455042 28.207013,9.30570852 L28.3238308,6.8910376 C28.3238308,6.72272274 28.0772155,6.67093355 28.0123167,6.82630111 L27.0647949,9.02086799 C26.9349974,8.98202609 26.8051998,8.9561315 26.6754023,8.93023691 L26.5326251,6.51556598 C26.5196453,6.34725112 26.2600503,6.30840923 26.2081313,6.47672409 L25.5072247,8.74897475 C25.3774272,8.73602745 25.2346499,8.72308015 25.1048524,8.71013285 L24.7024801,6.32135652 C24.6765206,6.15304166 24.4169256,6.14009436 24.390966,6.30840923 L23.923695,8.64539637 L23.7419785,8.64539637 C23.6641,8.64539637 23.5992012,8.64539637 23.5213227,8.65834367 L22.8723351,6.32135652 C22.8333959,6.15304166 22.5738008,6.17893626 22.5608211,6.34725112 L22.3401653,8.71013285 C22.2103678,8.72308015 22.0675905,8.73602745 21.937793,8.76192204 L21.0551699,6.50261868 C20.9902711,6.34725112 20.7306761,6.39904031 20.7436559,6.56735517 L20.7825951,8.93023691 C20.6398178,8.9561315 20.5100203,8.99497339 20.3802228,9.02086799 L19.2639642,6.8910376 C19.1860857,6.73567003 18.9264906,6.81335382 18.9524501,6.98166868 L19.2380047,9.31865582 C19.1082072,9.35749771 18.9784096,9.4092869 18.8486121,9.46107609 L17.5116977,7.44777138 C17.4208394,7.30535111 17.1872039,7.40892949 17.2261432,7.56429705 L17.7453332,9.8624423 C17.6285155,9.91423149 17.498718,9.99191528 17.3689204,10.0437045 L15.8437996,8.18576732 C15.7399616,8.05629435 15.5063261,8.18576732 15.5712248,8.34113488 L16.3370302,10.5615964 C16.2072327,10.6392801 16.0904149,10.7169639 15.9735971,10.7817004 L14.2667598,9.10502542 C14.149942,8.97555245 13.9292863,9.13092001 14.0071648,9.28628758 L14.9936259,11.416118 C14.8768081,11.4938017 14.7729701,11.5844328 14.6561524,11.6621166 L12.793558,10.1796511 C12.6507807,10.0631254 12.4560845,10.2314403 12.5469427,10.3868078 L13.7540596,12.3871653 C13.6502216,12.4777963 13.5463836,12.5813747 13.4425456,12.6720058 L11.4501537,11.3902234 C11.2943967,11.2995923 11.1256599,11.4808545 11.2294979,11.6232747 L12.6313111,13.4812119 C12.5404529,13.5847902 12.4366148,13.7013159 12.3457566,13.8048943 L10.2235672,12.7432159 C10.0678102,12.6655321 9.91205315,12.8726889 10.0288709,12.9892146 L11.6188905,14.6917842 L11.3463157,15.0413612 L9.14624781,14.2127342 C8.99049079,14.1479977 8.84771352,14.3681017 8.97751104,14.4846274 L10.7232876,15.9929875 L10.4896521,16.3814064 L8.22468545,15.7858308 C8.05594868,15.7469889 7.95211066,15.9800402 8.09488793,16.0706713 L9.97046204,17.3912956 C9.90556328,17.5337159 9.82768477,17.6631889 9.77576576,17.8056091 L7.48483961,17.4560321 C7.31610284,17.4301375 7.22524458,17.6761362 7.36802184,17.7538199 L9.36041371,18.8672875 L9.20465669,19.2945483 L6.91373054,19.1909699 C6.74499377,19.1780226 6.68009501,19.4369686 6.83585203,19.5017051 L8.91910216,20.3950686 C8.8801629,20.5374888 8.84122365,20.6928564 8.80228439,20.848224 L6.52433799,20.9776969 C6.35560122,20.9906442 6.31666196,21.2495902 6.48539874,21.3013794 L8.63354762,21.9616915 C8.62056787,22.1170591 8.59460837,22.2724267 8.58162862,22.4277942 L6.32964172,22.7903185 C6.16090495,22.8291604 6.16090495,23.0881064 6.32964172,23.114001 L8.51672986,23.5412618 C8.51672986,23.6577875 8.50375011,23.7484185 8.50375011,23.8649442 C8.50375011,23.9167334 8.51672986,23.9685226 8.51672986,24.0203118 L6.32964172,24.6288347 C6.16090495,24.6676766 6.18686445,24.9266226 6.35560122,24.9395699 L8.56864886,25.1337793 C8.58162862,25.3020942 8.59460837,25.4574618 8.60758812,25.6257766 L6.52433799,26.4414563 C6.35560122,26.5061928 6.40752023,26.7651388 6.576257,26.7521915 L8.77632489,26.7262969 C8.81526415,26.8816644 8.8542034,27.037032 8.8801629,27.2053469 L6.90075079,28.2281834 C6.74499377,28.3058671 6.82287228,28.5518658 6.99160905,28.5389185 L9.16571744,28.2670252 C9.20465669,28.4353401 9.26955545,28.5907077 9.32147446,28.7460752 L7.4588801,29.9760685 C7.31610284,30.0666996 7.41994085,30.2997509 7.58867762,30.260909 L9.69788725,29.781859 C9.76278601,29.9372266 9.85364427,30.0796469 9.91854303,30.2350144 L8.2117057,31.6397962 C8.06892843,31.7433745 8.19872594,31.9764259 8.35448296,31.9116894 L10.4117736,31.2125354 C10.4896521,31.3549556 10.5805104,31.4973759 10.6713686,31.6397962 L9.12028831,33.2128928 C9.00347054,33.3294184 9.14624781,33.5495225 9.30200483,33.4718387 L11.2684372,32.5655279 C11.3592955,32.6950009 11.4631335,32.8374212 11.5669715,32.9668941 L10.1911178,34.682411 C10.0872798,34.8248313 10.2560166,35.0190407 10.3987938,34.9284096 L12.2484084,33.8149421 C12.3652262,33.9444151 12.482044,34.073888 12.5988617,34.1904137 L11.4047246,36.0354036 C11.3138663,36.1778238 11.5085626,36.359086 11.6383601,36.2555076 L13.3581772,34.9607779 L13.7475697,35.3103549 L12.7611086,37.2589231 C12.6832301,37.4142907 12.8909061,37.5696583 13.0207037,37.4531326 L14.5847637,35.9965617 C14.727541,36.10014 14.8573385,36.2037184 15.0001158,36.3072968 L14.2472902,38.3206015 C14.1823914,38.4759691 14.416027,38.6183893 14.519865,38.4889164 L15.928168,36.8769779 C16.0709453,36.967609 16.2267023,37.05824 16.3694796,37.1488711 L15.82433,39.2398596 C15.7853907,39.4081745 16.0190263,39.5117529 16.1228643,39.3693326 L17.3429609,37.6279211 C17.5116977,37.7056049 17.6674547,37.796236 17.8232117,37.8609725 L17.498718,39.9778555 C17.4727585,40.1461704 17.7193737,40.2368015 17.810232,40.0943812 L18.8356324,38.2364441 C19.0043691,38.2882333 19.1731059,38.3529698 19.3418427,38.4047589 L19.2380047,40.5475366 C19.2380047,40.7158515 19.4846199,40.780588 19.5495187,40.6252204 L20.3932026,38.6766522 C20.5619393,38.7154941 20.7306761,38.754336 20.9123926,38.7802306 L21.0292104,40.9359555 C21.0421901,41.1042704 21.3017852,41.130165 21.3537042,40.9747974 L21.9767323,38.9485454 C22.1584488,38.97444 22.3271855,38.9873873 22.5089021,39.0003346 L22.8593554,41.130165 C22.8853149,41.2984799 23.1449099,41.2984799 23.1838492,41.130165 L23.5862214,39.0521238 C23.6511202,39.0521238 23.7030392,39.0650711 23.767938,39.0650711 C23.8847557,39.0650711 24.0015735,39.0521238 24.1183913,39.0391765 L24.6895003,41.130165 C24.7414193,41.2855326 24.9880346,41.2725853 25.0139941,41.1042704 L25.1957106,38.9873873 C25.3774272,38.97444 25.5461639,38.9485454 25.7149007,38.9226508 L26.5066656,40.9359555 C26.5715643,41.0913231 26.8311593,41.0524812 26.8311593,40.8841664 L26.7922201,38.754336 C26.9609569,38.7284414 27.1296936,38.6766522 27.2984304,38.6378103 L28.310851,40.5604839 C28.3887295,40.7158515 28.6353448,40.6381677 28.6093853,40.4698528 L28.3497903,38.3529698 C28.5185271,38.3011806 28.6742841,38.2364441 28.8430208,38.1846549 L30.0501377,40.0037501 C30.140996,40.1461704 30.3876113,40.042592 30.348672,39.8742772 L29.8684212,37.7832887 C30.0241782,37.7185522 30.1669555,37.6408684 30.3227125,37.5631846 L31.7180358,39.2528069 C31.8218738,39.3822799 32.0555094,39.2657542 32.0035904,39.0974393 L31.289704,37.05824 C31.445461,36.9805563 31.5882383,36.8899252 31.7310156,36.7992941 L33.2950756,38.3464961 C33.4248732,38.4630218 33.6325492,38.3206015 33.5676504,38.1652339 L32.6460881,36.1907711 C32.7758856,36.10014 32.9056831,35.9965617 33.0484604,35.8929833 L34.7812572,37.2718704 C34.9110547,37.3754488 35.105751,37.207134 35.0148927,37.0647137 L33.8856543,35.1938292 C34.0154518,35.0773036 34.1322696,34.9737252 34.2620671,34.8571995 L36.1376412,36.0612982 C36.2804185,36.1519292 36.462135,35.9577198 36.358297,35.8282468 L35.0213826,34.073888 C35.1382004,33.9444151 35.2550181,33.8278894 35.3588561,33.7113637 L37.351248,34.7083056 C37.507005,34.7859894 37.662762,34.5788326 37.5459443,34.4493597 L36.046783,32.8374212 C36.1376412,32.7079482 36.2414792,32.5784752 36.3323375,32.4490022 L38.4285674,33.2387874 C38.5973042,33.2905766 38.7271017,33.0704725 38.5973042,32.9668941 L36.9294061,31.5103232 C37.0072846,31.3679029 37.0981429,31.23843 37.1760214,31.0960097 L39.3501298,31.6656908 C39.5188665,31.7045326 39.6356843,31.4714813 39.492907,31.3679029 L37.6692519,30.0861205 C37.7341507,29.9437002 37.7990494,29.80128 37.8639482,29.6459124 L40.1029553,29.9954894 C40.2716921,30.021384 40.3495706,29.7753854 40.2067934,29.6847543 L38.2533407,28.5971813 C38.29228,28.4547611 38.344199,28.2993935 38.3831383,28.1440259 L40.6610847,28.2476043 C40.8428012,28.2605516 40.8947202,28.014553 40.7389632,27.9368692 L38.6492232,27.056453 C38.6881624,26.9140327 38.7141219,26.7586651 38.7400814,26.6032976 L41.0310076,26.4608773 C41.1997444,26.4608773 41.2386836,26.2019313 41.0699468,26.1501422 L38.9088182,25.48983 C38.9217979,25.3344624 38.9347777,25.1790949 38.9347777,25.0237273 L41.2257039,24.6482557 C41.3944406,24.6288347 41.3944406,24.3698888 41.2386836,24.3310469 L41.2386836,24.3310469 Z M16.7329126,32.8568421 C16.2331922,33.724311 15.0130955,33.9314678 14.2992092,33.2064191 C11.904445,30.8046955 10.4117736,27.4966611 10.4117736,23.8519969 C10.4117736,20.1943855 11.8979551,16.905772 14.2862294,14.4975747 C15.0130955,13.7725261 16.2267023,13.9796828 16.7329126,14.860099 L21.1590079,22.5572672 C21.6392587,23.3988415 21.6392587,24.4152043 21.1590079,25.2438314 L16.7329126,32.8568421 Z M36.7152402,26.9528746 C35.3069371,32.8050529 30.0306681,37.1553448 23.7549582,37.1553448 C22.1000399,37.1553448 20.5035304,36.8446096 19.0433084,36.2878759 C18.1477055,35.9512461 17.810232,34.8830941 18.2775031,34.0544671 L22.7425376,26.3831935 C23.2227884,25.5545665 24.1183913,25.0496219 25.072403,25.0496219 L35.1836295,25.0625692 C36.1700906,25.0819901 36.9488757,26.0012482 36.7152402,26.9528746 Z M22.3142058,23.9167334 C22.3142058,23.5542091 22.6127401,23.2693685 22.9631934,23.2693685 C23.3266264,23.2693685 23.612181,23.5542091 23.612181,23.9167334 C23.612181,24.2792577 23.3266264,24.5640983 22.9631934,24.5640983 C22.6127401,24.5640983 22.3142058,24.2792577 22.3142058,23.9167334 Z M35.2809776,23.1463692 L25.2670993,23.1204746 C24.3065977,23.1204746 23.4174847,22.6025827 22.9372339,21.7610084 L18.2645233,13.6365794 C17.7972522,12.8208997 18.1347258,11.7527477 19.0303286,11.416118 C20.4905507,10.8464369 22.0870601,10.5486491 23.7549582,10.5486491 C30.2318543,10.5486491 35.6444107,15.1837814 36.8320579,21.307853 C37.0137745,22.265953 36.2479691,23.1463692 35.2809776,23.1463692 L35.2809776,23.1463692 Z" id="形状" fill="#CECED3" filter="url(#filter-4)"></path>
                </g>
                <g id="编组-2备份-6" transform="translate(145, 7.9589)">
                    <rect id="矩形" fill="#6F68FF" filter="url(#filter-5)" x="0" y="0" width="52" height="51.8843106" rx="16.9825987"></rect>
                    <g id="screenshot-line" transform="translate(12, 10.9755)" fill="#FFFFFF" fill-rule="nonzero">
                        <rect id="矩形" opacity="0" filter="url(#filter-6)" x="0" y="0" width="31" height="30.9310313"></rect>
                        <path d="M15.4909482,18.5676504 L13.4863018,20.567837 C14.8141272,22.8003278 14.2710486,25.6697025 12.2186953,27.2652797 C10.166342,28.8608569 7.24506315,28.684805 5.40010242,26.8543547 C3.55514168,25.0239044 3.36214024,22.1101696 4.94961537,20.0533705 C6.53709051,17.9965713 9.40973846,17.4384441 11.6546982,18.7506389 L13.66325,16.7452871 L8.257625,11.3516885 L10.0853232,9.52805651 L15.4909482,14.9216551 L20.90175,9.52289127 L22.7281465,11.3452244 L17.3161035,16.7453173 L19.333707,18.7558343 C21.5749397,17.4373058 24.4491625,17.9873245 26.0424621,20.0396391 C27.6357616,22.0919536 27.4510158,25.0062254 25.6112447,26.8418729 C23.7714736,28.6775204 20.8507007,28.861807 18.7938364,27.2720181 C16.7369721,25.6822293 16.1857746,22.814392 17.5072803,20.5781674 L15.4909785,18.5676504 L15.4909482,18.5676504 Z M9.04167676,25.7758494 C10.4684068,25.7758494 11.625,24.6218293 11.625,23.1982735 C11.625,21.7747176 10.4684068,20.6206976 9.04167676,20.6206976 C7.61494673,20.6206976 6.45835352,21.7747176 6.45835352,23.1982735 C6.45835352,24.6218293 7.61494673,25.7758494 9.04167676,25.7758494 L9.04167676,25.7758494 Z M21.9583232,25.7758494 C23.3850533,25.7758494 24.5416465,24.6218293 24.5416465,23.1982735 C24.5416465,21.7747176 23.3850533,20.6206976 21.9583232,20.6206976 C20.5315932,20.6206976 19.375,21.7747176 19.375,23.1982735 C19.375,24.6218293 20.5315932,25.7758494 21.9583232,25.7758494 L21.9583232,25.7758494 Z M24.5416768,16.7543187 L24.5416768,6.44395479 L6.45832324,6.44395479 L6.45832324,16.7543187 L3.875,16.7543187 L3.875,5.15518195 C3.875,4.44339569 4.45330338,3.86637891 5.16667676,3.86637891 L25.8333232,3.86637891 C26.5466966,3.86637891 27.125,4.44339569 27.125,5.15518195 L27.125,16.7543187 L24.5416768,16.7543187 L24.5416768,16.7543187 Z" id="形状" filter="url(#filter-7)"></path>
                    </g>
                </g>
                <g id="编组备份-14" transform="translate(822.4379, 247.657)" fill-rule="nonzero">
                    <g id="编组备份-13">
                        <polygon id="路径" fill="#FFC107" points="22.7916205 2.19784116e-15 45.5812372 2.19784116e-15 68.3728577 38.6029668 45.5832409 38.6029668"></polygon>
                        <polygon id="路径" fill="#1976D2" points="11.1904352 57.9044502 22.6914375 38.6029668 68.3748614 38.6029668 56.9780493 57.9044502"></polygon>
                        <polygon id="路径" fill="#4CAF50" points="0 38.80489 11.1904352 57.9044502 34.1864289 19.3014834 22.7896168 0"></polygon>
                    </g>
                </g>
                <g id="hugo-logo-wide" transform="translate(325, 362)">
                    <path d="M29.6862189,1.11340815 L48.417745,11.8342836 C50.6357544,13.1036783 52,15.4382435 52,17.9632601 L52,39.9447605 C52,42.7372594 50.4695996,45.3126981 47.9969774,46.6827678 L29.406253,56.9847332 C26.9391947,58.3515215 23.9227406,58.3374383 21.4689714,56.9476757 L4.34847769,47.2499076 C1.6583742,45.7260827 0,42.9042659 0,39.8497001 L0,18.9895898 C0,15.917071 1.61675694,13.0636775 4.2731652,11.4492085 L21.1038695,1.22458044 C23.7248643,-0.367349515 27.0235536,-0.410079403 29.6862189,1.11340815 Z" id="路径" stroke="#C9177E" stroke-width="1.96291092" fill="#FF4088" filter="url(#filter-8)"></path>
                    <polygon id="形状" fill="#FFFFFF" filter="url(#filter-9)" points="12.6666667 45.4772727 12.6666667 11.8636364 19.7665092 11.8636364 19.7665092 24.1074221 31.5455328 24.1074221 31.5455328 11.8636364 38.6666667 11.8636364 38.6666667 45.4772727 31.5455328 45.4772727 31.5455328 30.7792147 19.7665092 30.7792147 19.7665092 45.4772727"></polygon>
                </g>
                <g id="编组备份-10" transform="translate(325, 225.1335)" fill="#19CD3D" fill-rule="nonzero">
                    <path d="M47.4125,14.2060526 C46.79375,11.7786618 48.03125,7.90962276 52,6.54190513 L47.75625,6.32011308 C47.75625,6.32011308 46.15,0.77531186 38.78125,0.28244064 C31.4125,-0.216591469 26.59375,0.0976139331 26.59375,0.0976139331 C26.59375,0.0976139331 32.05625,3.52306891 29.86875,9.62851114 C28.26875,12.8629785 25.75625,15.5183222 23.06875,18.5433193 C22.9875,18.6234109 22.9125,18.7035025 22.85,18.7712723 C13.9625,28.6471793 0,44.3574494 0,44.3574494 C15.36875,48.3250628 25.66875,43.9693134 31.7625,38.7448784 C33.04375,38.7325567 34.00625,38.7263958 34.65625,38.7263958 C43.14375,38.7263958 50.31875,31.4811888 50.025,23.4227444 C49.825,17.8841041 48.03125,16.6334433 47.4125,14.2060526 Z" id="路径" filter="url(#filter-10)"></path>
                </g>
                <g id="编组-5" transform="translate(98, 275)">
                    <rect id="矩形" fill="#EEF9FF" x="0" y="0" width="68" height="68" rx="30.7809602"></rect>
                    <g id="notion" transform="translate(13, 14)" fill="#000000" fill-rule="nonzero">
                        <rect id="矩形" opacity="0" x="0" y="0" width="42" height="42"></rect>
                        <path d="M7.80781641,7.36148437 C9.11285156,8.42157422 9.60266016,8.34110156 12.0553535,8.17666992 L35.1736055,6.78939844 C35.6634141,6.78939844 35.2558008,6.29958984 35.0931328,6.21911719 L31.2514453,3.44281055 C30.5166914,2.87248828 29.5353105,2.21824805 27.6564258,2.38091602 L5.27296875,4.01485547 C4.45770117,4.09532812 4.29326953,4.50470508 4.61864648,4.83008203 L7.80781641,7.36148437 Z M9.19508789,12.749584 L9.19508789,37.0732031 C9.19508789,38.380002 9.84760547,38.8698516 11.318877,38.7876562 L36.7253086,37.3181484 C38.1965391,37.2376758 38.3610117,36.3384902 38.3610117,35.2765957 L38.3610117,11.1156445 C38.3610117,10.0555137 37.9533984,9.48346875 37.0524492,9.56394141 L10.5018867,11.1156445 C9.52222852,11.1978809 9.19508789,11.6876895 9.19508789,12.7478613 L9.19508789,12.749584 Z M34.2761426,14.0528965 C34.4388516,14.7876504 34.2761426,15.5223633 33.5414297,15.6063633 L32.3168262,15.8512676 L32.3168262,33.8070879 C31.253209,34.3790918 30.2735508,34.7062324 29.4565605,34.7062324 C28.1480391,34.7062324 27.8208574,34.2968965 26.8412402,33.0740566 L18.834252,20.5028906 L18.834252,32.6647207 L21.367377,33.2385293 C21.367377,33.2385293 21.367377,34.7079961 19.3240605,34.7079961 L13.6875293,35.033373 C13.5248203,34.7079961 13.6875293,33.8910469 14.2595742,33.7283379 L15.729082,33.3207246 L15.729082,17.2385391 L13.6910156,17.0740664 C13.526584,16.3393535 13.9359609,15.2792227 15.0782871,15.1969863 L21.1241953,14.789373 L29.4583242,27.523248 L29.4583242,16.2571172 L27.3328125,16.0139766 C27.1701035,15.114791 27.8226211,14.4622324 28.6395703,14.3817598 L34.2761426,14.0528965 Z M3.39408398,1.81063477 L26.6785312,0.0961816406 C29.5370332,-0.148681641 30.2735508,0.0139863281 32.0701582,1.32078516 L39.5033789,6.54449414 C40.7279824,7.44191602 41.1373184,7.68686133 41.1373184,8.66651953 L41.1373184,37.3180664 C41.1373184,39.1129102 40.4848008,40.1765684 38.1983437,40.3375137 L11.156209,41.9714531 C9.44175586,42.0536484 8.62308398,41.8087441 7.72389844,40.6646543 L2.24999414,33.5621426 C1.27033594,32.2553437 0.862722656,31.2774492 0.862722656,30.1333184 L0.862722656,4.66565039 C0.862722656,3.19790625 1.51700391,1.97158008 3.39408398,1.81063477 Z" id="形状"></path>
                    </g>
                </g>
                <g id="编组" transform="translate(856.3457, 4.0897)" stroke="#008EFF" stroke-linecap="round" stroke-linejoin="round" stroke-width="3.18423726">
                    <path d="M0,8.48042865 L0,4.24021433 C0,1.89840862 1.90084211,0 4.24564968,0 L8.49129936,0" id="路径"></path>
                    <path d="M32.903785,0 L37.1494347,0 C39.4942423,0 41.3950844,1.89840862 41.3950844,4.24021433 L41.3950844,8.48042865" id="路径"></path>
                    <path d="M41.3950844,31.8016074 L41.3950844,36.0418218 C41.3950844,38.3836275 39.4942423,40.2820361 37.1494347,40.2820361 L32.903785,40.2820361" id="路径"></path>
                    <path d="M8.49129936,40.2820361 L4.24564968,40.2820361 C1.90084211,40.2820361 0,38.3836275 0,36.0418218 L0,31.8016074" id="路径"></path>
                    <ellipse id="椭圆形" cx="19.6361298" cy="19.6109913" rx="6.89918073" ry="6.89034828"></ellipse>
                    <line x1="29.7195478" y1="29.6815003" x2="25.4738981" y2="25.441286" id="路径"></line>
                </g>
                <g id="编组" transform="translate(603, 252)" stroke="#C06BFA" stroke-linecap="round" stroke-linejoin="round" stroke-width="2.12282484">
                    <line x1="1" y1="38" x2="1" y2="0" id="路径" filter="url(#filter-11)"></line>
                    <path d="M2,5 L39.8,5 C42.1195959,5 44,6.86548021 44,9.16666667 L44,25.8333333 C44,28.1345198 42.1195959,30 39.8,30 L2.546,30" id="路径" filter="url(#filter-12)"></path>
                    <path d="M12,30 L12,35.25 C12,36.2164983 12.9593898,37 14.1428571,37 L24.8571429,37 C26.0406102,37 27,36.2164983 27,35.25 L27,30" id="路径" filter="url(#filter-13)"></path>
                    <circle id="椭圆形" filter="url(#filter-14)" cx="30.5" cy="15.5" r="4.5"></circle>
                    <circle id="椭圆形" filter="url(#filter-15)" cx="13.5" cy="15.5" r="4.5"></circle>
                </g>
                <g id="编组-14" transform="translate(0, 20.8911)" stroke="#4AF4F9" stroke-opacity="0.3" stroke-width="1.6679338">
                    <ellipse id="椭圆形" cx="23.8817795" cy="23.8512056" rx="23.0478126" ry="23.0172387"></ellipse>
                    <g id="编组" transform="translate(25.9691, 24.1396) rotate(-45) translate(-25.9691, -24.1396)translate(15.4284, 18.876)" stroke-linecap="round" stroke-linejoin="round">
                        <path d="M13.7029038,2.37397815e-12 L15.8110428,2.37397815e-12 C18.7217754,2.37397815e-12 21.0813904,2.35659418 21.0813904,5.26360041 C21.0813904,8.17060665 18.7217754,10.5272008 15.8110428,10.5272008 L13.7029038,10.5272008 M7.37848665,10.5272008 L5.27034761,10.5272008 C2.359615,10.5272008 2.47105174e-13,8.17060665 2.47105174e-13,5.26360041 C2.47105174e-13,2.35659418 2.359615,-9.11393826e-13 5.27034761,-9.11393826e-13 L7.37848665,-9.11393826e-13" id="形状"></path>
                    </g>
                </g>
                <g id="编组" transform="translate(511.6782, 417.4386)" stroke="#008EFF" stroke-linecap="round" stroke-linejoin="round" stroke-opacity="0.5" stroke-width="2.12282484">
                    <rect id="矩形" filter="url(#filter-16)" x="18.0440111" y="0" width="10.6141242" height="10.6005358" rx="1.41521656"></rect>
                    <path d="M11.1448304,27.5613931 L11.1448304,6.89034828 C11.1448304,6.01217114 10.4320146,5.30026791 9.55271178,5.30026791 L1.59211863,5.30026791 C0.712815791,5.30026791 0,6.01217114 0,6.89034828 L0,25.9713127 C0,26.8494899 0.712815791,27.5613931 1.59211863,27.5613931 L20.6975422,27.5613931 C21.576845,27.5613931 22.2896608,26.8494899 22.2896608,25.9713127 L22.2896608,18.0209109 C22.2896608,17.1427337 21.576845,16.4308305 20.6975422,16.4308305 L0,16.4308305" id="路径" filter="url(#filter-17)"></path>
                </g>
                <g id="编组-12" transform="translate(357.7816, 40.143)" stroke="#C46DFF" stroke-width="1.06141242">
                    <rect id="矩形" filter="url(#filter-18)" x="0.53070621" y="0.53070621" width="38.2108471" height="38.1605701" rx="7.16453384"></rect>
                    <line x1="4.24564968" y1="34.9817682" x2="35.0266099" y2="4.24021433" id="路径-10" filter="url(#filter-19)"></line>
                    <line x1="4.24564968" y1="34.9817682" x2="35.0266099" y2="4.24021433" id="路径-10" filter="url(#filter-20)" transform="translate(19.6361, 19.611) scale(-1, 1) translate(-19.6361, -19.611)"></line>
                </g>
                <g id="编组" transform="translate(937.3767, 118.9593)" stroke="#4AF4F9" stroke-linecap="round" stroke-linejoin="round" stroke-width="1.6679338">
                    <path d="M46.7021465,51.9426255 L46.7021465,46.2890064 C44.9435408,46.2890064 43.5179092,45.0234006 43.5179092,43.4621968 L43.5179092,40.6353873 C43.5179092,37.5129797 46.3691724,34.9817682 49.8863838,34.9817682 L56.2548583,34.9817682 C59.7720696,34.9817682 62.6233328,37.5129797 62.6233328,40.6353873 L62.6233328,43.4621968 C62.6233328,45.0234006 61.1977012,46.2890064 59.4390955,46.2890064" id="路径" filter="url(#filter-21)"></path>
                    <path d="M53.070621,34.6284169 L53.070621,10.0999548 C53.070621,4.52190375 48.3185157,0 42.4564968,0 C36.594478,0 31.8423727,4.52190375 31.8423726,10.0999548 L31.8423726,41.8426705 C31.8423726,47.4207216 27.0902673,51.9426255 21.2282484,51.9426255 C15.3662295,51.9426255 10.6141242,47.4207216 10.6141242,41.8426705 L10.6141242,17.3142084" id="路径" filter="url(#filter-22)"></path>
                    <polyline id="路径" filter="url(#filter-23)" points="59.4390955 51.9426255 59.4390955 46.6423576 47.7635589 46.6423576"></polyline>
                    <polyline id="路径" filter="url(#filter-24)" points="5.3070621 5.30026791 16.9825987 5.30026791 16.9825987 0"></polyline>
                    <path d="M15.9211863,6.71367268 C17.679792,6.71367268 19.1054236,7.97927843 19.1054236,9.54048223 L19.1054236,12.3672918 C19.1054236,15.4896994 16.2541604,18.0209109 12.736949,18.0209109 L6.36847452,18.0209109 C2.85126316,18.0209109 0,15.4896994 0,12.3672918 L0,9.54048223 C0,7.97927843 1.42563158,6.71367268 3.18423726,6.71367268 L3.18423726,1.06005358" id="路径" filter="url(#filter-25)"></path>
                </g>
                <g id="编组-4" transform="translate(485.971, 0)" fill-rule="nonzero">
                    <path d="M7.27259889,0 L33.1307283,0 C37.9791275,0 40.4033272,2.41957881 40.4033272,7.25873643 L40.4033272,33.0675771 C40.4033272,37.9067347 37.9791275,40.3263135 33.1307283,40.3263135 L7.27259889,40.3263135 C2.42419963,40.3263135 0,37.9067347 0,33.0675771 L0,7.25873643 C0,2.41957881 2.42419963,0 7.27259889,0 Z" id="路径" fill="#EA3E3C" filter="url(#filter-26)"></path>
                    <path d="M14.0410742,31.5686561 C9.63438482,29.4198233 6.98142158,24.701335 7.27379424,19.5444556 C7.56455895,14.4669651 10.6114703,10.2941478 15.2253893,8.65471959 C15.9565337,8.39487554 16.7613166,8.77294871 17.0229223,9.49916965 C17.284528,10.2253906 16.9038917,11.0247542 16.1727474,11.2845983 C11.9503842,12.784025 10.2580347,16.6161874 10.0821405,19.7040122 C9.85204656,23.7363995 11.8893212,27.4090053 15.2723729,29.0584058 C20.1626243,31.4075024 23.779378,29.9291889 25.5014157,28.838626 C27.8467504,27.3519763 29.3394785,24.9426565 29.3037114,22.7012684 C29.2635518,20.2189873 28.3599615,17.988 26.8222499,16.5798821 C26.0995253,15.9076608 25.2130428,15.4339287 24.2500372,15.2053038 C24.3239507,15.4590257 24.3977204,15.70993 24.4713463,15.9580166 C24.9962052,17.7358881 25.4496083,19.2712306 25.4753355,20.4144207 C25.5221437,21.8303054 24.988709,23.204489 23.9970398,24.2226653 C22.9500928,25.2570119 21.5257335,25.8256457 20.0493225,25.7986759 C18.5660958,25.8009402 17.1449476,25.2075024 16.1088999,24.1532488 C14.8805922,22.8667144 14.2262153,21.1427237 14.2936794,19.3709535 C14.340663,16.0549347 17.4357737,13.3999305 20.6790513,12.54991 C20.5003025,11.6906839 20.4120176,10.8153207 20.4156217,9.93795021 C20.3673713,8.26249152 21.4940375,6.77733058 23.1287851,6.36148341 C24.9411819,5.87323095 27.2250614,6.56373383 28.01786,7.8373817 C28.2134707,8.15258912 28.2750037,8.53206976 28.1889221,8.89234064 C28.1028406,9.25261153 27.876196,9.56416051 27.5588486,9.75844906 C26.8989554,10.162049 26.0346796,9.95899234 25.6267575,9.30451529 C25.0472809,8.98351772 24.3613425,8.91023398 23.7263941,9.10148579 C23.5569316,9.16809754 23.2416555,9.29255634 23.2256152,10.0013677 C23.2300308,10.768413 23.3186388,11.5326933 23.4898683,12.2806583 C25.4436191,12.409886 27.2931258,13.2028335 28.7278686,14.5263703 C30.8290299,16.4502424 32.0631132,19.4136084 32.1145284,22.6565879 C32.1651201,25.8453431 30.1627889,29.1956416 27.0142629,31.1928645 C25.0438254,32.4410616 22.7530797,33.0990048 20.4160531,33.0879883 C18.202774,33.0663247 16.0232433,32.5468663 14.0410742,31.5686561 Z M17.1052416,19.4100246 C17.0520175,20.4339466 17.4144049,21.4363037 18.1112703,22.1926818 C18.6174153,22.7154925 19.317142,23.0094522 20.0473616,23.0060464 C20.7682023,23.0338631 21.4690508,22.7671748 21.9866689,22.2680972 C22.4468395,21.7850152 22.6906364,21.1375444 22.6625576,20.4730858 C22.6464781,19.7020256 22.2027227,18.1994046 21.7733996,16.7454376 C21.6316253,16.261587 21.4850664,15.7657384 21.3436843,15.2643584 C19.1172597,15.8746545 17.1289687,17.7199169 17.1052416,19.4100246 Z" id="形状" fill="#FFFFFF" filter="url(#filter-27)"></path>
                </g>
                <g id="编组-2备份-4" transform="translate(48, 151.6652)">
                    <rect id="矩形" fill="#2B00FF" filter="url(#filter-28)" x="0" y="0" width="39" height="38.9132329" rx="16"></rect>
                    <g id="音量" transform="translate(6, 5.9867)" fill-rule="nonzero">
                        <rect id="矩形" fill="#000000" opacity="0" filter="url(#filter-29)" x="0" y="0" width="27" height="26.9399305"></rect>
                        <path d="M14.6250088,22.4499333 C14.4900088,22.4499333 14.31,22.405051 14.175,22.3601423 L7.24499121,18.588552 L3.82500879,18.588552 C3.32999121,18.588552 2.92499121,18.1844531 2.92499121,17.6905631 L2.92499121,9.24936737 C2.92499121,8.75547741 3.32999121,8.35137845 3.82500879,8.35137845 L7.29,8.35137845 L14.2200088,4.57978818 C14.4900088,4.44508853 14.85,4.44508853 15.12,4.57978818 C15.39,4.75939649 15.5700088,5.0287958 15.5700088,5.34307745 L15.5700088,21.5070357 C15.5700088,21.8213437 15.39,22.1356517 15.12,22.2703513 C14.9399912,22.405051 14.8049912,22.4499333 14.6250088,22.4499333 Z M4.725,16.7925479 L7.51499121,16.7925479 C7.64999121,16.7925479 7.83,16.8374566 7.965,16.8823652 L13.725,20.0253396 L13.725,6.91459093 L7.965,10.0575653 C7.83,10.1473826 7.695,10.1473826 7.51499121,10.1473826 L4.725,10.1473826 L4.725,16.7925479 Z" id="形状" fill="#3793DF" filter="url(#filter-30)"></path>
                        <path d="M17.7749912,15.8496503 C17.28,15.8496503 16.875,15.4455514 16.875,14.9516614 C16.875,14.4577715 17.28,14.0536725 17.7749912,14.0536725 C18.2699824,14.0536725 18.6750088,13.6495736 18.6750088,13.1556573 C18.6750088,12.661741 18.2700088,12.2576684 17.7749912,12.2576684 C17.2799736,12.2576684 16.875,11.8535694 16.875,11.3596795 C16.875,10.8657895 17.28,10.4616642 17.7749912,10.4616642 C19.2599912,10.4616642 20.4749912,11.6739611 20.4749912,13.1556573 C20.4749912,14.6373535 19.2599912,15.8496503 17.7749912,15.8496503 Z" id="路径" fill="#EB4AF4" filter="url(#filter-31)"></path>
                        <path d="M17.7749912,19.4416586 C17.28,19.4416586 16.875,19.0375597 16.875,18.5436434 C16.875,18.0497271 17.28,17.6456545 17.7749912,17.6456545 C20.25,17.6456545 22.275,15.6251597 22.275,13.1556573 C22.275,10.6861549 20.25,8.66568641 17.7749912,8.66568641 C17.28,8.66568641 16.875,8.26158746 16.875,7.76767119 C16.875,7.27375493 17.28,6.86968228 17.7749912,6.86968228 C21.2400088,6.86968228 24.0750088,9.69837498 24.0750088,13.1556573 C24.0750088,16.6129396 21.2400088,19.4416586 17.7749912,19.4416586 Z" id="路径" fill="#EB4AF4" filter="url(#filter-32)"></path>
                    </g>
                </g>
            </g>
        </g>
    </g>
</svg>