<?xml version="1.0" encoding="UTF-8"?>
<svg width="42px" height="42px" viewBox="0 0 42 42" version="1.1" xmlns="http://www.w3.org/2000/svg" xmlns:xlink="http://www.w3.org/1999/xlink">
    <title>编组</title>
    <g id="官网3" stroke="none" stroke-width="1" fill="none" fill-rule="evenodd" stroke-linecap="round" stroke-linejoin="round">
        <g id="coco-AI-zh" transform="translate(-1001, -5447)" stroke="#4AF4F9" stroke-width="2">
            <g id="编组" transform="translate(1002, 5448)">
                <path d="M2.00444876,0.00463107644 L2.00444876,2.00463108 C2.00444876,4.00463108 6.00444876,4.00463108 6.00444876,6.00463108 C6.00444876,8.00463108 2.00444876,8.00463108 2.00444876,10.0046311 C2.00444876,12.0046311 6.00444876,12.0046311 6.00444876,14.0046311 C6.00444876,16.0046311 2.00444876,16.0046311 2.00444876,18.0046311 C2.00444876,20.0046311 6.00444876,20.0046311 6.00444876,22.0046311" id="路径"></path>
                <line x1="32.0044488" y1="8.00463108" x2="32.0244488" y2="8.00463108" id="路径"></line>
                <line x1="8.00444876" y1="32.0046311" x2="8.02444876" y2="32.0046311" id="路径"></line>
                <path d="M37.6644488,13.6646311 C39.686572,11.6425078 40.476301,8.695199 39.7361525,5.93292729 C38.9960041,3.17065558 36.8384243,1.01307577 34.0761525,0.272927291 C31.3138808,-0.467221184 28.366572,0.322507838 26.3444488,2.34463108 L2.34444876,26.3446311 C-0.781482921,29.4705628 -0.781482921,34.5386994 2.34444876,37.6646311 C5.47038045,40.7905628 10.5385171,40.7905628 13.6644488,37.6646311 L37.6644488,13.6646311 Z" id="路径"></path>
                <path d="M32.0044488,19.3246311 L32.0044488,40.0046311 C36.4227268,40.0046311 40.0044488,36.4229091 40.0044488,32.0046311 L40.0044488,8.00463108" id="路径"></path>
            </g>
        </g>
    </g>
</svg>