<?xml version="1.0" encoding="UTF-8"?>
<svg width="720px" height="500px" viewBox="0 0 720 500" version="1.1" xmlns="http://www.w3.org/2000/svg" xmlns:xlink="http://www.w3.org/1999/xlink">
    <title>编组 32备份</title>
    <defs>
        <linearGradient x1="50%" y1="0%" x2="50%" y2="100%" id="linearGradient-1">
            <stop stop-color="#DBF3FF" offset="0.0846809441%"></stop>
            <stop stop-color="#8495FF" offset="100%"></stop>
        </linearGradient>
        <rect id="path-2" x="0" y="0" width="8.82352941" height="8.81879195"></rect>
        <path d="M2.7665546,0.923754112 L2.7941077,1.20355376 L2.95473552,1.0039091 C3.11806296,0.79944342 3.41800132,0.761680907 3.62466659,0.919564165 C3.83133186,1.07744742 3.86646411,1.37118927 3.70313667,1.57565495 L3.5031077,1.82655376 L3.86069037,1.78780133 C4.1228097,1.75933924 4.35643642,1.9444074 4.38251025,2.20116263 C4.40858408,2.45791785 4.21723139,2.68913216 3.95511206,2.71759425 L3.6231077,2.75355376 L3.87273356,2.94425197 C4.07939883,3.10213523 4.11453108,3.39587708 3.95120364,3.60034275 C3.78787619,3.80480843 3.48793784,3.84257094 3.28127257,3.68468768 L3.0271077,3.49055376 L3.05868319,3.80041405 C3.08475702,4.05716928 2.89340434,4.28838359 2.63128501,4.31684567 C2.36916568,4.34530776 2.13553896,4.1602396 2.10946513,3.90348437 L2.0791077,3.60755376 L1.87323229,3.866468 C1.70990485,4.07093368 1.40996649,4.10869619 1.20330122,3.95081293 C0.996635952,3.79292968 0.961503701,3.49918783 1.12483114,3.29472215 L1.3611077,2.99855376 L1.01835324,3.03648059 C0.756233907,3.06494267 0.522607191,2.87987451 0.496533361,2.62311929 C0.470459531,2.36636406 0.661812216,2.13514975 0.923931545,2.10668767 L1.1791077,2.07855376 L0.965815488,1.91577941 C0.759150217,1.75789616 0.724017966,1.46415431 0.887345408,1.25968863 C1.05067285,1.05522295 1.35061121,1.01746044 1.55727648,1.1753437 L1.8551077,1.40255376 L1.81733654,1.02682443 C1.79126271,0.770069208 1.98261539,0.538854895 2.24473472,0.510392812 C2.50685405,0.481930729 2.74048077,0.666998887 2.7665546,0.923754112 Z" id="path-4"></path>
        <filter x="0.0%" y="0.0%" width="100.0%" height="100.0%" filterUnits="objectBoundingBox" id="filter-6">
            <feGaussianBlur stdDeviation="0.304586848" in="SourceGraphic"></feGaussianBlur>
        </filter>
        <filter x="0.0%" y="0.0%" width="100.0%" height="100.0%" filterUnits="objectBoundingBox" id="filter-7">
            <feGaussianBlur stdDeviation="0.304586848" in="SourceGraphic"></feGaussianBlur>
        </filter>
        <filter x="0.0%" y="0.0%" width="100.0%" height="100.0%" filterUnits="objectBoundingBox" id="filter-8">
            <feGaussianBlur stdDeviation="0.304586848" in="SourceGraphic"></feGaussianBlur>
        </filter>
        <rect id="path-9" x="0" y="0" width="186" height="276" rx="4.01408434"></rect>
        <filter x="-18.8%" y="-9.1%" width="137.6%" height="125.4%" filterUnits="objectBoundingBox" id="filter-10">
            <feOffset dx="0" dy="10" in="SourceAlpha" result="shadowOffsetOuter1"></feOffset>
            <feGaussianBlur stdDeviation="10" in="shadowOffsetOuter1" result="shadowBlurOuter1"></feGaussianBlur>
            <feComposite in="shadowBlurOuter1" in2="SourceAlpha" operator="out" result="shadowBlurOuter1"></feComposite>
            <feColorMatrix values="0 0 0 0 0   0 0 0 0 0   0 0 0 0 0  0 0 0 0.207468313 0" type="matrix" in="shadowBlurOuter1"></feColorMatrix>
        </filter>
        <linearGradient x1="50%" y1="0%" x2="50%" y2="100%" id="linearGradient-11">
            <stop stop-color="#5CDDF9" offset="0%"></stop>
            <stop stop-color="#E2A9FD" offset="100%"></stop>
        </linearGradient>
        <path d="M0,250.75582 L186.5,250.5" id="path-12"></path>
        <filter x="-2.4%" y="-182.9%" width="104.5%" height="502.9%" filterUnits="objectBoundingBox" id="filter-13">
            <feOffset dx="0" dy="3" in="SourceAlpha" result="shadowOffsetOuter1"></feOffset>
            <feGaussianBlur stdDeviation="3" in="shadowOffsetOuter1" result="shadowBlurOuter1"></feGaussianBlur>
            <feComposite in="shadowBlurOuter1" in2="SourceAlpha" operator="out" result="shadowBlurOuter1"></feComposite>
            <feColorMatrix values="0 0 0 0 0   0 0 0 0 0   0 0 0 0 0  0 0 0 0.4 0" type="matrix" in="shadowBlurOuter1"></feColorMatrix>
        </filter>
    </defs>
    <g id="官网3" stroke="none" stroke-width="1" fill="none" fill-rule="evenodd">
        <g id="coco-AI-zh" transform="translate(-880, -2862)">
            <g id="编组-32备份" transform="translate(880, 2862)">
                <rect id="蒙版" fill="url(#linearGradient-1)" x="0" y="0" width="720" height="500" rx="16"></rect>
                <rect id="矩形" fill="#A0B3FF" x="64" y="71" width="25" height="25" rx="12.5"></rect>
                <rect id="chat-背景框-light备份-2" stroke="#E6E6E6" stroke-width="0.735294118" fill="#FFFFFF" x="110.367647" y="35.3676471" width="499.264706" height="437.264706" rx="8.82352941"></rect>
                <rect id="输入框备份-2" fill="#EDEDED" x="115.882353" y="411.268456" width="488.235294" height="29.3959732" rx="2.94117647"></rect>
                <g id="mic备份-2" transform="translate(562.9412, 420.0872)">
                    <rect id="矩形" x="0" y="0" width="11.7647059" height="11.7583893"></rect>
                    <path d="M5.6372549,0.734899329 C4.82507145,0.734899329 4.16666667,1.3929506 4.16666667,2.20469799 L4.16666667,5.63422819 C4.16666667,6.44597557 4.82507145,7.10402685 5.6372549,7.10402685 C6.44943836,7.10402685 7.10784314,6.44597557 7.10784314,5.63422819 L7.10784314,2.20469799 C7.10784314,1.3929506 6.44943836,0.734899329 5.6372549,0.734899329 Z" id="路径" stroke="#999999" stroke-width="0.980392157" stroke-linecap="round" stroke-linejoin="round"></path>
                    <path d="M9.06862745,4.65436242 L9.06862745,5.63422819 C9.06862745,7.5283054 7.53234961,9.06375834 5.6372549,9.06375834 C3.74216019,9.06375834 2.20588235,7.5283054 2.20588235,5.63422819 L2.20588235,4.65436242" id="路径" stroke="#999999" stroke-width="0.980392157" stroke-linecap="round" stroke-linejoin="round"></path>
                    <line x1="5.6372549" y1="9.06375839" x2="5.6372549" y2="10.533557" id="路径" stroke="#999999" stroke-width="0.980392157" stroke-linecap="round" stroke-linejoin="round"></line>
                </g>
                <ellipse id="椭圆形备份-2" fill="#0072FF" cx="589.411765" cy="425.966443" rx="8.82352941" ry="8.81879195"></ellipse>
                <g id="send备份-2" transform="translate(584.2647, 420.8221)" stroke="#FFFFFF" stroke-linecap="round" stroke-linejoin="round" stroke-width="0.980392157">
                    <path d="M6.1450031,9.64604927 C6.18314274,9.74105054 6.27636359,9.80233346 6.37874862,9.79979331 C6.48113366,9.79709137 6.57109329,9.73111904 6.60431683,9.63429088 L9.79059134,0.325566045 C9.82261773,0.236945309 9.80050009,0.137808554 9.73383763,0.0711818937 C9.66717518,0.00455523363 9.56798517,-0.0175505344 9.47931683,0.0144586629 L0.165591337,3.19902242 C0.068711162,3.23222812 0.00270338867,3.32213945 0,3.42446951 C-0.00254152226,3.52679958 0.0587743283,3.61997038 0.153826632,3.65808954 L4.04108153,5.21607611 C4.2893988,5.3154417 4.48631375,5.51189695 4.58617957,5.75990162 L6.1450031,9.64604927 Z" id="路径"></path>
                    <line x1="9.732258" y1="0.0732506092" x2="4.36951291" y2="5.43262645" id="路径"></line>
                </g>
                <g id="切换按钮备份-4" transform="translate(568.8235, 450.2181)">
                    <rect id="矩形" fill="#0072FF" x="0" y="0" width="29.4117647" height="13.2281879" rx="6.61409396"></rect>
                    <g id="编组-2" transform="translate(3.6765, 0.7349)">
                        <g id="编组" transform="translate(0.7353, 1.4698)" stroke="#FFFFFF" stroke-linecap="round" stroke-linejoin="round" stroke-width="0.980392157">
                            <polyline id="路径" points="4.90196078 1.95973154 4.90196078 0 2.94117647 0"></polyline>
                            <rect id="矩形" x="0.980392157" y="1.95973154" width="7.84313725" height="5.87919463" rx="0.980392157"></rect>
                            <line x1="0" y1="4.89932886" x2="0.980392157" y2="4.89932886" id="路径"></line>
                            <line x1="8.82352941" y1="4.89932886" x2="9.80392157" y2="4.89932886" id="路径"></line>
                            <line x1="6.37254902" y1="4.40939597" x2="6.37254902" y2="5.38926174" id="路径"></line>
                            <line x1="3.43137255" y1="4.40939597" x2="3.43137255" y2="5.38926174" id="路径"></line>
                        </g>
                        <rect id="矩形" x="0" y="0" width="11.7647059" height="11.7583893"></rect>
                    </g>
                    <rect id="矩形" fill="#FFFFFF" x="16.9117647" y="0.734899329" width="11.7647059" height="11.7583893" rx="5.87919463"></rect>
                </g>
                <line x1="110.735294" y1="70.6425072" x2="609.264706" y2="70.6425072" id="分割线-上备份-2" stroke="#E6E6E6" stroke-width="0.735294118"></line>
                <line x1="110.735294" y1="405.021702" x2="609.264706" y2="405.021702" id="分割线-下备份-2" stroke="#E6E6E6" stroke-width="0.735294118"></line>
                <g id="钉住置顶备份-3" transform="translate(564.4118, 46.7584)" fill="#333333" fill-rule="nonzero">
                    <rect id="矩形" opacity="0" x="0" y="0" width="11.7185492" height="11.7122574"></rect>
                    <path d="M10.4917636,4.35549571 L7.38131274,1.25129 C7.29891669,1.16893819 7.19248846,1.12890606 7.08491584,1.12890606 C6.97734322,1.12890606 6.8697706,1.16893819 6.78851894,1.25129 L4.75493867,3.28149086 C4.60044608,3.26433424 4.44595349,3.25632781 4.29031651,3.25632781 C3.36679412,3.25632781 2.44212735,3.55942822 1.68339706,4.16677282 C1.48885083,4.32118246 1.47282938,4.61284512 1.64906537,4.78898649 L3.94242208,7.07768054 L1.22335245,9.79071516 C1.19016516,9.82388464 1.16956614,9.86734809 1.16498858,9.91424287 L1.12264617,10.3831907 C1.11120227,10.5021433 1.20618661,10.6027955 1.32291435,10.6027955 C1.32978068,10.6027955 1.33550263,10.6027955 1.34236897,10.6016517 L1.81156869,10.559332 C1.85848867,10.5559007 1.90197547,10.534169 1.93516277,10.5009995 L4.65423239,7.78682112 L6.94758909,10.0755152 C7.02998514,10.157867 7.13641337,10.1978991 7.24398599,10.1978991 C7.36643568,10.1978991 7.48774097,10.1452854 7.57128141,10.0412019 C8.28194734,9.15591996 8.57719985,8.04645808 8.45703894,6.97474077 L10.4906192,4.94568368 C10.6554113,4.78326762 10.6554113,4.51905556 10.4917636,4.35549571 Z M7.81503639,6.33537047 L7.50605121,6.64418976 L7.55411557,7.07768054 C7.60103554,7.50202111 7.56670385,7.92407414 7.45112051,8.33354563 C7.38245713,8.57259464 7.28976158,8.80134966 7.17074506,9.01637939 L2.71220329,4.56595034 C2.87470661,4.47673588 3.04407626,4.40124672 3.22145665,4.34062664 C3.56477352,4.22167402 3.92411184,4.16334149 4.29031651,4.16334149 C4.4116218,4.16334149 4.53407149,4.16906037 4.65537678,4.18392944 L5.08910043,4.231968 L7.08606023,2.23836794 L9.50301101,4.6505897 L7.81503639,6.33537047 L7.81503639,6.33537047 Z" id="形状"></path>
                </g>
                <g id="下拉备份-3" transform="translate(204.1176, 48.2282)" fill="#FFFFFF" fill-rule="nonzero">
                    <rect id="矩形" opacity="0" x="0" y="0" width="8.80632955" height="8.80160132"></rect>
                    <path d="M4.40941692,5.80457871 C4.34005737,5.80457871 4.27361633,5.77667943 4.2250688,5.72716932 L1.9880891,3.44592146 C1.88830409,3.34417014 1.88996388,3.18084199 1.99176987,3.08111056 C2.09356725,2.98139633 2.25700034,2.98303803 2.35676815,3.08478936 L4.40941692,5.1780405 L6.4620485,3.08478936 C6.56182491,2.98302084 6.7252408,2.98136195 6.82705538,3.08111056 C6.92887857,3.18084199 6.93052116,3.34417014 6.83073615,3.44592146 L4.59375645,5.72716932 C4.54521212,5.77667894 4.47877389,5.80457871 4.40941692,5.80457871 Z" id="路径"></path>
                </g>
                <rect id="矩形备份-7" fill="#E8E8E8" x="145.294118" y="43.8187919" width="80.8823529" height="17.6375839" rx="8.81879195"></rect>
                <g id="chevron-down备份-5" transform="translate(211.4706, 48.2282)">
                    <rect id="矩形" x="0" y="0" width="8.82352941" height="8.81879195"></rect>
                    <g id="编组" transform="translate(1.4706, 2.9396)" stroke="#333333" stroke-linecap="round" stroke-linejoin="round" stroke-width="0.735294118">
                        <polyline id="路径" points="0 0 3.30882353 3.67449664 6.61764706 0"></polyline>
                    </g>
                </g>
                <g id="编组-4备份-5" transform="translate(237.9412, 46.7584)">
                    <g id="编组" transform="translate(1.4706, 1.4698)" stroke="#333333" stroke-linecap="round" stroke-linejoin="round" stroke-width="0.980392157">
                        <path d="M8.82352941,5.87919463 C8.82352941,6.42035955 8.38459289,6.8590604 7.84313725,6.8590604 L1.96078431,6.8590604 L0,8.81879195 L0,0.979865772 C0,0.438700849 0.43893652,0 0.980392157,0 L7.84313725,0 C8.38459289,0 8.82352941,0.438700849 8.82352941,0.979865772 L8.82352941,5.87919463 Z" id="路径"></path>
                        <line x1="4.41176471" y1="1.95973154" x2="4.41176471" y2="4.89932886" id="路径"></line>
                        <line x1="2.94117647" y1="3.4295302" x2="5.88235294" y2="3.4295302" id="路径"></line>
                    </g>
                    <rect id="矩形" x="0" y="0" width="11.7647059" height="11.7583893"></rect>
                </g>
                <text id="Coco-AI备份-2" font-family="PingFangSC-Regular, PingFang SC" font-size="10.2941176" font-weight="normal" fill="#333333">
                    <tspan x="162.941176" y="56.2845638">Coco AI</tspan>
                </text>
                <ellipse id="椭圆形备份-9" fill="#FFFFFF" cx="154.117647" cy="52.6375839" rx="5.88235294" ry="5.87919463"></ellipse>
                <g id="编组备份-3" transform="translate(149.7059, 48.2282)">
                    <mask id="mask-3" fill="white">
                        <use xlink:href="#path-2"></use>
                    </mask>
                    <g id="矩形"></g>
                    <g id="编组-4" mask="url(#mask-3)">
                        <g transform="translate(-0.992, -1.1161)">
                            <path d="M3.75016448,3.06271812 C4.30939506,3.27065137 4.77448079,3.26441264 5.14542167,3.0440019 C5.56153412,3.27968888 5.97669257,3.30950259 6.39089705,3.13344304 C6.72091472,3.32232856 7.10086945,3.39529058 7.53076124,3.35232909 C7.46571539,3.59320758 7.41449781,3.81542687 7.37710852,4.01898697 C5.85913598,4.02552313 5.09233926,4.02787636 5.07671838,4.02604666 C5.0610975,4.02421696 4.63300454,3.87590885 3.7924395,3.58112233 L3.75016448,3.06271812 Z" id="路径-3" fill="#FFFFFF" fill-rule="evenodd" transform="translate(5.6405, 3.5353) rotate(8) translate(-5.6405, -3.5353)"></path>
                            <path d="M5.01348648,2.82577438 C5.09282501,2.77870726 5.19160191,2.77774183 5.2718608,2.82324906 C5.61995777,3.020622 5.95113075,3.04478173 6.2900483,2.90109496 C6.36415563,2.86967658 6.44886184,2.87471816 6.51864646,2.91470079 C6.80090203,3.0764172 7.12733957,3.13944907 7.50559392,3.10209826 C7.6834793,3.08453293 7.82423227,3.24865456 7.77815796,3.41991503 C7.71510371,3.65429076 7.66567027,3.86974273 7.62981694,4.06609459 C7.60782995,4.18650704 7.50228237,4.27419471 7.37886594,4.27458167 C6.67214395,4.27679754 6.16306391,4.27828856 5.80444236,4.27902638 L5.70132247,4.2792251 C5.68487238,4.27925445 5.66878665,4.2792819 5.65305937,4.27930747 L5.48116025,4.27952308 C5.46820622,4.27953344 5.45558705,4.27954842 5.44329685,4.27954842 L5.31122714,4.27954842 C5.30147427,4.27952608 5.29202677,4.27951534 5.28287874,4.27950268 L5.18709969,4.27925787 C5.16655987,4.27917341 5.14850298,4.27907146 5.13276978,4.27895192 L5.10435446,4.27868938 C5.07047253,4.27830798 5.05235968,4.27780108 5.04699617,4.27716686 C4.99889354,4.27147894 4.79806905,4.20172218 3.70676522,3.81801066 C3.61185578,3.78463971 3.54551556,3.69917195 3.53728128,3.59966027 L3.49438794,3.08129181 C3.47903818,2.8957891 3.6636926,2.75759824 3.83940736,2.82308769 C4.33151841,3.00649905 4.7167984,3.00178287 5.01348648,2.82577438 Z M5.14508808,3.3297342 L5.08870677,3.35480117 C4.80991927,3.46946136 4.49700113,3.49511522 4.15371561,3.43523634 L4.14498081,3.43344623 L4.15224464,3.43625052 C4.41021451,3.52680939 4.61872495,3.59975972 4.77773964,3.65508901 L4.8289113,3.67287946 C4.93546109,3.70988972 5.01623223,3.73772341 5.07102598,3.75631429 C5.0978011,3.76539877 5.11814395,3.77219777 5.1317252,3.77660831 L5.12171709,3.77312433 L5.16331493,3.77316295 C5.16944796,3.77314589 5.17606866,3.77312792 5.18316775,3.77310902 L5.25972593,3.7729139 C5.26961195,3.77288941 5.27994854,3.77286399 5.29072644,3.77283762 L5.39939241,3.77257462 C5.43941923,3.77247835 5.48316745,3.77237342 5.53038668,3.77225967 L5.62937901,3.7720204 C5.99153097,3.77114151 6.51558459,3.76982606 7.11566577,3.76802246 L7.16753356,3.76775504 L7.17918105,3.71423213 L7.20116498,3.61741499 L7.18138982,3.61696283 C6.90806949,3.60340302 6.65269027,3.54240877 6.41690127,3.43361331 L6.37349,3.41225168 L6.3441836,3.42251524 C5.95138803,3.54946935 5.55368268,3.52071278 5.16369785,3.33899329 L5.14508808,3.3297342 Z" id="路径-3" fill="#5B1602" fill-rule="nonzero" transform="translate(5.6402, 3.5347) rotate(8) translate(-5.6402, -3.5347)"></path>
                            <path d="M8.32329015,1.7093286 C8.45883495,1.6697382 8.6010847,1.74659243 8.64101384,1.88098732 C8.68094298,2.0153822 8.60343117,2.15642514 8.46788636,2.19601554 L6.95895627,2.63654977 L5.31833168,7.06678668 C5.27336745,7.18818687 5.1446406,7.25500796 5.02077587,7.2265821 L4.98996227,7.21746779 C4.8573201,7.16916979 4.78928064,7.02340103 4.83799189,6.89188416 L6.52319106,2.34196739 C6.55111002,2.2665882 6.61337504,2.2087665 6.69106284,2.18607518 L8.32329015,1.7093286 Z" id="吸管" fill="#00DBFF" fill-rule="nonzero" transform="translate(6.7369, 4.466) rotate(8) translate(-6.7369, -4.466)"></path>
                            <path d="M2.34488534,4.00825606 C2.78159755,3.80693879 3.20520009,3.47375893 3.61569295,3.00871649 C3.92342004,3.45769013 4.35696136,3.62356013 4.91631693,3.5063265 C5.19475541,3.86291863 5.80116615,3.94951334 6.218206,3.69487171 C6.70334636,3.79319725 7.09604093,3.66101583 7.39628972,3.29832747 C7.61040797,3.74367531 7.94067743,4.16249778 8.3870981,4.55479488 L8.58865383,5.0636612 L8.06747012,5.89259006 L3.69465505,5.93096305 L1.78554113,5.12358838 L2.34488534,4.00825606 Z" id="路径-2" fill="#FFFFFF" fill-rule="evenodd" transform="translate(5.1871, 4.4698) rotate(8) translate(-5.1871, -4.4698)"></path>
                            <path d="M3.42142742,2.84015683 C3.53170561,2.71522727 3.73128725,2.72726268 3.82548285,2.86452266 C4.07463441,3.22758142 4.40357365,3.35371747 4.86275419,3.25802412 C4.95863478,3.23804257 5.05760432,3.27410571 5.11761775,3.35089288 C5.31370226,3.60178301 5.77449625,3.66872596 6.08369577,3.48021895 C6.13912698,3.44642467 6.20546221,3.43484176 6.26920212,3.44782736 C6.66283816,3.52802199 6.95904148,3.42865936 7.1977454,3.14027819 C7.31658461,2.99670706 7.54562336,3.02426761 7.62637684,3.19185601 C7.82555703,3.60521644 8.1352472,3.9975876 8.55766992,4.36878297 C8.58783557,4.39529042 8.61125802,4.42848953 8.62602857,4.46567492 L8.82821777,4.97469329 C8.85789287,5.04940139 8.8501454,5.13362849 8.80732951,5.20178131 L8.28703691,6.02996458 C8.24069188,6.10373495 8.15948441,6.14884635 8.07183167,6.14951282 L3.69833715,6.18277423 C3.66311702,6.18303457 3.62822044,6.17608928 3.59583277,6.16236586 L1.68545039,5.35289169 C1.55024456,5.29560179 1.49144368,5.13737402 1.55683431,5.0067976 L2.114956,3.89230254 C2.1408275,3.84064059 2.18368281,3.79926282 2.23645554,3.77499197 C2.63819448,3.59022714 3.03362386,3.27948331 3.42142742,2.84015683 Z M3.60294459,3.3924089 L3.5448682,3.45186047 C3.19299808,3.80025213 2.8288578,4.06182743 2.45177344,4.2352533 L2.53443443,4.19525872 L2.13570258,4.99189146 L3.74773071,5.67492138 L7.92686233,5.64327084 L8.3047883,5.04162802 L8.17168768,4.70647143 L8.11907293,4.65922437 C7.82695705,4.38997762 7.58431091,4.1076684 7.39172498,3.81224715 L7.33004711,3.71456617 L7.29914424,3.73811293 C7.01746078,3.93778962 6.68334039,4.01546582 6.30861514,3.96833819 L6.26182196,3.96127081 L6.24377632,3.97079099 C5.78295371,4.1903321 5.19340872,4.11507019 4.83255375,3.78958044 L4.82194111,3.77956281 L4.75273521,3.78762952 C4.30800798,3.83067603 3.92585762,3.70420922 3.62386589,3.41348872 L3.60294459,3.3924089 Z" id="路径-2" fill="#5B1602" fill-rule="nonzero" transform="translate(5.188, 4.4682) rotate(8) translate(-5.188, -4.4682)"></path>
                            <path d="M7.97333849,3.98828088 C8.31984443,4.39481988 8.51493585,4.9459761 8.51493585,5.67559558 C8.51493585,7.69935765 6.83700495,9.33994095 4.76717229,9.33994095 C2.69733963,9.33994095 1.01940872,7.69935765 1.01940872,5.67559558 C1.01940872,5.02600627 1.21051886,4.51787697 1.53850368,4.12732216 C1.69135131,4.54200685 2.01733681,4.85387387 2.57099097,4.85387387 C2.94135359,4.85387387 3.27995799,4.74006103 3.53853317,4.55077784 C3.86242929,4.74071796 4.26982483,4.85387387 4.71236019,4.85387387 C5.14954986,4.85387387 5.55244353,4.74343523 5.87237439,4.55887266 C6.12743778,4.74327623 6.45321805,4.85387387 6.80816836,4.85387387 C7.42150848,4.85387387 7.81147589,4.4924216 7.96812584,4.00617808 Z" id="形状结合" fill="#8C3201" fill-rule="evenodd" transform="translate(4.7672, 6.664) rotate(15) translate(-4.7672, -6.664)"></path>
                            <path d="M7.97338277,3.98836983 C8.31983888,4.39489982 8.51490035,4.94602743 8.51490035,5.67559091 C8.51490035,7.69935297 6.83696945,9.33993628 4.76713678,9.33993628 C2.69730412,9.33993628 1.01937322,7.69935297 1.01937322,5.67559091 C1.01937322,5.02607588 1.21043966,4.51798851 1.53835566,4.12745147 C1.69108401,4.54178035 2.01710444,4.8538692 2.57095546,4.8538692 C2.94157408,4.8538692 3.28039056,4.73989896 3.53973295,4.55149696 C3.86342933,4.74100072 4.27035172,4.8538692 4.71232468,4.8538692 C5.14869315,4.8538692 5.55089434,4.74384506 5.87217651,4.55875058 C6.12726401,4.74322461 6.45310722,4.8538692 6.80813286,4.8538692 C7.42147297,4.8538692 7.81144039,4.49241693 7.96809034,4.00617341 L7.97338277,3.98836983 Z M7.91922983,4.97584062 L7.89848407,4.99365532 C7.60882801,5.22785968 7.23688637,5.36123395 6.80813286,5.36123395 C6.47517316,5.36123395 6.15336866,5.28630207 5.8673222,5.14647127 L5.8480473,5.13635406 L5.78500622,5.16275271 C5.48525451,5.28067758 5.15575687,5.34822768 4.81490311,5.35953493 L4.71232468,5.36123395 C4.33026073,5.36123395 3.96005025,5.29069315 3.62697393,5.15776244 L3.56196568,5.13041959 L3.53965877,5.14206826 C3.27348306,5.27172657 2.97483919,5.34677117 2.66441533,5.35934409 L2.57095546,5.36123395 C2.21481155,5.36123395 1.90570758,5.2657689 1.65427007,5.09388157 L1.61020319,5.06231441 L1.60918898,5.0666286 C1.56487588,5.22348472 1.53914126,5.3945189 1.53269286,5.58103605 L1.53107913,5.67559091 C1.53107913,7.41754207 2.97832149,8.83257153 4.76713678,8.83257153 C6.55595208,8.83257153 8.00319444,7.41754207 8.00319444,5.67559091 C8.00319444,5.43077889 7.97850827,5.21175439 7.93026207,5.01625508 L7.91922983,4.97584062 Z" id="形状结合" fill="#5B1602" fill-rule="nonzero" transform="translate(4.7671, 6.6642) rotate(15) translate(-4.7671, -6.6642)"></path>
                            <g id="线" stroke-width="1" fill="none" fill-rule="evenodd" transform="translate(4.4122, 7.9243) rotate(15) translate(-4.4122, -7.9243)translate(2.9477, 6.5443)">
                                <path d="M2.79041934,0.0550800933 C2.77866028,0.569629851 2.67376877,1.02259879 2.47574481,1.41398691 C2.27772085,1.80537504 2.03367321,2.13118808 1.74360189,2.39142605" id="路径-5" stroke="#5B1602" stroke-width="0.426421587" transform="translate(2.267, 1.2233) rotate(-7) translate(-2.267, -1.2233)"></path>
                                <path d="M0.723477087,1.25380674 C0.642536241,1.47997618 0.565892517,1.65582683 0.493545917,1.7813587 C0.429202058,1.89300465 0.298991717,2.07606447 0.102914893,2.33053816" id="路径-5备份" stroke="#5B1602" stroke-width="0.426421587" transform="translate(0.4132, 1.7922) scale(-1, 1) rotate(-5) translate(-0.4132, -1.7922)"></path>
                                <path d="M1.21166565,2.07696803 C1.6693871,2.06996034 2.1056521,1.73644084 2.52046064,1.07640954 C2.93526918,0.416378238 2.73352208,0.873756763 1.91521933,2.44854511 L1.21166565,2.07696803 Z" id="路径-8" fill="#5B1602" transform="translate(1.9707, 1.6163) rotate(-15) translate(-1.9707, -1.6163)"></path>
                                <path d="M0.212940905,1.70991206 C0.450220421,2.12460009 0.876488405,2.16071183 1.49174486,1.81824729 C1.29736067,2.04550785 1.04805221,2.24982133 0.743819468,2.43118774 C0.520043893,2.21410425 0.365252683,2.04789778 0.279445838,1.93256831 C0.193638994,1.81723885 0.171470683,1.7430201 0.212940905,1.70991206 Z" id="路径-8" fill="#5B1602" transform="translate(0.8422, 2.0705) scale(-1, 1) rotate(-38) translate(-0.8422, -2.0705)"></path>
                            </g>
                            <g id="花" stroke-width="1" fill="none" fill-rule="evenodd" transform="translate(3.4326, 3.4308) rotate(-225) translate(-3.4326, -3.4308)translate(0.9931, 1.0171)">
                                <mask id="mask-5" fill="white">
                                    <use xlink:href="#path-4"></use>
                                </mask>
                                <use id="形状结合" fill="#FFFFFF" fill-rule="nonzero" transform="translate(2.4395, 2.4136) rotate(-18) translate(-2.4395, -2.4136)" xlink:href="#path-4"></use>
                                <path d="M2.61571056,3.05635026 C3.70135808,3.05635026 4.5272241,2.70451179 4.5272241,2.26801409 C4.5272241,1.83151639 3.79915826,0.285035962 2.71351074,0.285035962 C1.62786321,0.285035962 0.310779889,1.53809267 0.310779889,1.97459037 C0.310779889,2.41108807 1.53006303,3.05635026 2.61571056,3.05635026 Z" id="椭圆形" fill="#EED2FF" filter="url(#filter-6)" mask="url(#mask-5)"></path>
                                <ellipse id="椭圆形备份-24" fill="#E0A6FE" filter="url(#filter-7)" mask="url(#mask-5)" cx="2.4245806" cy="2.57282248" rx="1.50645398" ry="1.22144846"></ellipse>
                                <path d="M2.57181718,5.06411644 C3.65746471,5.06411644 4.42633933,3.4281364 4.42633933,2.36665335 C4.42633933,1.67210483 3.58736478,3.11002366 2.45797837,3.21057162 C1.86131616,3.26369177 1.22757587,2.5164736 0.852288151,2.5164736 C-0.233359373,2.5164736 0.893939096,3.01305236 0.893939096,4.0745354 C0.893939096,5.13601844 1.48616966,5.06411644 2.57181718,5.06411644 Z" id="椭圆形备份-25" fill="#59DCF9" filter="url(#filter-8)" mask="url(#mask-5)"></path>
                            </g>
                        </g>
                    </g>
                </g>
                <g id="退出小窗备份-2" transform="translate(591.5946, 52.6145) scale(-1, 1) translate(-591.5946, -52.6145)translate(585.7353, 46.7584)" fill="#333333" fill-rule="nonzero">
                    <rect id="矩形" opacity="0" x="0" y="0" width="11.7185492" height="11.7122574"></rect>
                    <path d="M10.2537306,1.46403217 C10.5233983,1.46403217 10.7420073,1.68252372 10.7420073,1.95204671 L10.7420073,5.36811416 L9.76545387,5.36811416 L9.76545387,2.44004981 L1.95309535,2.44004981 L1.95309535,9.27220757 L4.88273266,9.27220757 L4.88273266,10.2482252 L1.46481865,10.2482252 C1.33531962,10.2482252 1.21112453,10.1968095 1.11955489,10.1052891 C1.02798524,10.0137686 0.976541954,9.88964018 0.976541954,9.76021067 L0.976541954,1.95204671 C0.976541954,1.68252372 1.19515088,1.46403217 1.46481865,1.46403217 L10.2537306,1.46403217 Z M10.2537306,6.34414323 C10.5233939,6.34414323 10.7420073,6.56262781 10.7420073,6.83214633 L10.7420073,9.76021067 C10.7420073,9.88964018 10.690564,10.0137686 10.5989943,10.1052891 C10.5074247,10.1968095 10.3832296,10.2482252 10.2537306,10.2482252 L6.34755131,10.2482252 C6.21805228,10.2482252 6.09385719,10.1968095 6.00228755,10.1052891 C5.9107179,10.0137686 5.85927461,9.88964018 5.85927461,9.76021067 L5.85927461,6.83214633 C5.85927461,6.56262781 6.077888,6.34414323 6.34755131,6.34414323 L10.2537306,6.34414323 Z M9.76545387,7.32016086 L6.83581657,7.32016086 L6.83581657,9.27220757 L9.76545387,9.27220757 L9.76545387,7.32016086 Z M5.61514198,3.41607888 L4.61760048,4.41308479 L5.71621447,5.51110892 L5.0257928,6.20114846 L3.92717881,5.10312433 L2.92963731,6.10013024 L2.92963731,3.41607888 L5.61514198,3.41607888 L5.61514198,3.41607888 Z" id="形状"></path>
                </g>
                <g id="聊天记录备份-2" transform="translate(121.7647, 46.7584)" fill="#333333" fill-rule="nonzero">
                    <rect id="矩形" opacity="0" x="0" y="0" width="11.7647059" height="11.7583893"></rect>
                    <path d="M7.98529412,2.23133809 L1.12683824,2.23133809 C0.916360294,2.23133809 0.745863971,2.06081848 0.745863971,1.85056837 C0.745863971,1.64020344 0.916475184,1.46979866 1.12683824,1.46979866 L7.98529412,1.46979866 C8.19577206,1.46979866 8.36626838,1.64031827 8.36626838,1.85056837 C8.36626838,2.06081848 8.19577206,2.23133809 7.98529412,2.23133809 L7.98529412,2.23133809 Z M3.43485754,4.51618603 L1.10512408,4.51618603 C0.906709559,4.51618603 0.745863971,4.3554268 0.745863971,4.15711881 L0.745863971,4.11359899 C0.745863971,3.915291 0.906709559,3.75453177 1.10512408,3.75453177 L3.43485754,3.75453177 C3.63327206,3.75453177 3.79411765,3.915291 3.79411765,4.11359899 L3.79411765,4.15711881 C3.79400276,4.35554163 3.63315717,4.51618603 3.43485754,4.51618603 Z M2.65096507,6.8011488 L1.12683824,6.8011488 C0.916360294,6.8011488 0.745863971,6.63062919 0.745863971,6.42037909 C0.745863971,6.21001416 0.916475184,6.03960938 1.12683824,6.03960938 L2.65096507,6.03960938 C2.86144301,6.03960938 3.0319394,6.21012898 3.0319394,6.42037909 C3.03205423,6.63062919 2.86144301,6.8011488 2.65096507,6.8011488 Z M2.65096507,9.08611158 L1.12683824,9.08611158 C0.916360294,9.08611158 0.745863971,8.91559197 0.745863971,8.70534186 C0.745863971,8.49497693 0.916475184,8.32457215 1.12683824,8.32457215 L2.65096507,8.32457215 C2.86144301,8.32457215 3.0319394,8.49509176 3.0319394,8.70534186 C3.03205423,8.91559197 2.86144301,9.08611158 2.65096507,9.08611158 Z M8.36626838,7.94357278 L6.84225643,7.94357278 C6.63177849,7.94357278 6.46128217,7.77305317 6.46128217,7.56280306 C6.46128217,7.35243813 6.63189338,7.18203335 6.84225643,7.18203335 L8.36626838,7.18203335 C8.57674632,7.18203335 8.74724271,7.35255296 8.74724271,7.56280306 C8.74735754,7.77305317 8.57674632,7.94357278 8.36626838,7.94357278 Z M6.46116728,7.56280306 L6.46116728,6.03949455 C6.46116728,5.82912961 6.63177849,5.65872483 6.84214154,5.65872483 C7.05261949,5.65872483 7.22311581,5.82924444 7.22311581,6.03949455 L7.22311581,7.56280306 C7.22311581,7.77316799 7.0525046,7.94357278 6.84214154,7.94357278 C6.63177849,7.94357278 6.46116728,7.77305317 6.46116728,7.56280306 Z M11.0334329,7.18191852 C11.0334329,9.28510854 9.32755055,10.990075 7.2232307,10.990075 C5.11891085,10.990075 3.41302849,9.28522336 3.41302849,7.18191852 C3.41302849,5.07861367 5.11891085,3.37376206 7.2232307,3.37376206 C9.32755055,3.37376206 11.0334329,5.0787285 11.0334329,7.18191852 L11.0334329,7.18191852 Z M7.2232307,4.13541632 C5.53975184,4.13541632 4.17509191,5.49945837 4.17509191,7.18191852 C4.17509191,8.86437867 5.53986673,10.2284207 7.2232307,10.2284207 C8.90659467,10.2284207 10.2713695,8.86437867 10.2713695,7.18191852 C10.2713695,5.49945837 8.90670956,4.13541632 7.2232307,4.13541632 Z" id="形状"></path>
                </g>
                <g id="主机备份-2" transform="translate(540.8824, 46.7584)" fill="#333333" fill-rule="nonzero">
                    <rect id="矩形" opacity="0" x="0" y="0" width="11.7647059" height="11.7583893"></rect>
                    <path d="M10.0932675,6.40166212 C10.6039522,6.40166212 11.0179228,6.81551379 11.0179228,7.32602768 L11.0179228,9.57091548 C11.0179228,10.0814294 10.6039407,10.495281 10.0932675,10.495281 L1.7978171,10.495281 C1.28713235,10.495281 0.873161765,10.0814294 0.873161765,9.57091548 L0.873161765,7.32602768 C0.873161765,6.81551379 1.28714384,6.40166212 1.7978171,6.40166212 L10.0932675,6.40166212 Z M10.0932675,7.08833368 L1.7978171,7.08833368 C1.66884191,7.08833368 1.5638557,7.19098993 1.56014476,7.31902318 L1.56004136,7.32602768 L1.56004136,9.57091548 C1.56004136,9.69984438 1.66272978,9.80479719 1.79080882,9.80850613 L1.7978171,9.80860948 L10.0932675,9.80860948 C10.2222426,9.80860948 10.3272289,9.70595323 10.3309398,9.57791999 L10.3310432,9.57091548 L10.3310432,7.32602768 C10.3310432,7.19709878 10.2283548,7.09214597 10.1002757,7.08843703 L10.0932675,7.08833368 Z M2.64321002,7.9862888 C2.80371094,7.9862888 2.93381204,8.11633153 2.93381204,8.27673479 L2.93381204,8.59379792 C2.93381204,8.75421267 2.80371094,8.88424392 2.64321002,8.88424392 C2.4827091,8.88424392 2.352608,8.75420118 2.352608,8.59379792 L2.352608,8.27673479 C2.352608,8.11632005 2.4827091,7.9862888 2.64321002,7.9862888 Z M3.96414292,7.9862888 C4.12464384,7.9862888 4.25474494,8.11633153 4.25474494,8.27673479 L4.25474494,8.59379792 C4.25474494,8.75421267 4.12464384,8.88424392 3.96414292,8.88424392 C3.803642,8.88424392 3.6735409,8.75420118 3.6735409,8.59379792 L3.6735409,8.27673479 C3.6735409,8.11632005 3.803642,7.9862888 3.96414292,7.9862888 Z M8.74581801,7.9862888 C8.99391085,7.9862888 9.19503676,8.18730673 9.19503676,8.43526636 C9.19503676,8.68322599 8.99391085,8.88424392 8.74581801,8.88424392 L8.50824908,8.88424392 C8.26015625,8.88424392 8.05903033,8.68322599 8.05903033,8.43526636 C8.05903033,8.18730673 8.26015625,7.9862888 8.50824908,7.9862888 L8.74581801,7.9862888 Z M10.0932675,1.77983431 C10.6039522,1.77983431 11.0179228,2.19368598 11.0179228,2.70419987 L11.0179228,4.94908767 C11.0179228,5.45960156 10.6039407,5.87345323 10.0932675,5.87345323 L1.7978171,5.87345323 C1.28713235,5.87345323 0.873161765,5.45960156 0.873161765,4.94908767 L0.873161765,2.70419987 C0.873161765,2.19368598 1.28714384,1.77983431 1.7978171,1.77983431 L10.0932675,1.77983431 Z M10.0932675,2.46650587 L1.7978171,2.46650587 C1.66884191,2.46650587 1.5638557,2.56916212 1.56014476,2.69719536 L1.56004136,2.70419987 L1.56004136,4.94908767 C1.56004136,5.07801657 1.66272978,5.18296938 1.79080882,5.18667832 L1.7978171,5.18678167 L10.0932675,5.18678167 C10.2222426,5.18678167 10.3272289,5.08412542 10.3309398,4.95609218 L10.3310432,4.94908767 L10.3310432,2.70419987 C10.3310432,2.57527097 10.2283548,2.47031816 10.1002757,2.46660922 L10.0932675,2.46650587 Z M2.64321002,3.36446099 C2.80371094,3.36446099 2.93381204,3.49450372 2.93381204,3.65490698 L2.93381204,3.97197011 C2.93381204,4.13238486 2.80371094,4.26241611 2.64321002,4.26241611 C2.4827091,4.26241611 2.352608,4.13237337 2.352608,3.97197011 L2.352608,3.65490698 C2.352608,3.49449224 2.4827091,3.36446099 2.64321002,3.36446099 Z M3.96414292,3.36446099 C4.12464384,3.36446099 4.25474494,3.49450372 4.25474494,3.65490698 L4.25474494,3.97197011 C4.25474494,4.13238486 4.12464384,4.26241611 3.96414292,4.26241611 C3.803642,4.26241611 3.6735409,4.13237337 3.6735409,3.97197011 L3.6735409,3.65490698 C3.6735409,3.49449224 3.803642,3.36446099 3.96414292,3.36446099 Z M8.74581801,3.36446099 C8.99391085,3.36446099 9.19503676,3.56547892 9.19503676,3.81343855 C9.19503676,4.06139818 8.99391085,4.26241611 8.74581801,4.26241611 L8.50824908,4.26241611 C8.26015625,4.26241611 8.05903033,4.06139818 8.05903033,3.81343855 C8.05903033,3.56547892 8.26015625,3.36446099 8.50824908,3.36446099 L8.74581801,3.36446099 Z" id="形状"></path>
                </g>
                <g id="切换按钮备份-5" transform="translate(568.8235, 450.953)">
                    <rect id="矩形备份-19" fill="#0072FF" x="0" y="0" width="29.4117647" height="13.2281879" rx="6.61409396"></rect>
                    <g id="编组-2备份-4" transform="translate(3.6765, 0.7349)">
                        <g id="编组" transform="translate(0.7353, 1.4698)" stroke="#FFFFFF" stroke-linecap="round" stroke-linejoin="round" stroke-width="0.980392157">
                            <polyline id="路径" points="4.90196078 1.95973154 4.90196078 0 2.94117647 0"></polyline>
                            <rect id="矩形" x="0.980392157" y="1.95973154" width="7.84313725" height="5.87919463" rx="0.980392157"></rect>
                            <line x1="0" y1="4.89932886" x2="0.980392157" y2="4.89932886" id="路径"></line>
                            <line x1="8.82352941" y1="4.89932886" x2="9.80392157" y2="4.89932886" id="路径"></line>
                            <line x1="6.37254902" y1="4.40939597" x2="6.37254902" y2="5.38926174" id="路径"></line>
                            <line x1="3.43137255" y1="4.40939597" x2="3.43137255" y2="5.38926174" id="路径"></line>
                        </g>
                        <rect id="矩形" x="0" y="0" width="11.7647059" height="11.7583893"></rect>
                    </g>
                    <rect id="矩形备份-20" fill="#FFFFFF" x="16.9117647" y="0.734899329" width="11.7647059" height="11.7583893" rx="5.87919463"></rect>
                </g>
                <g id="编组" transform="translate(289.5294, 456.8188) scale(-1, 1) translate(-289.5294, -456.8188)translate(283.6471, 450.9396)" fill="#333333" fill-rule="nonzero">
                    <path d="M9.25529789,7.27021781 C9.09414402,7.27039713 8.93957573,7.20488426 8.82585831,7.08819864 L4.16546281,2.32587609 C3.928142,2.08260509 3.928142,1.68899008 4.16546281,1.44571908 L5.40254161,0.184077616 C5.57857633,0.00175978837 5.84638207,-0.0507914215 6.07598097,0.0519293949 L8.39153873,1.06672797 C8.46354392,1.09627203 8.52846158,1.1413475 8.58185855,1.19887619 L11.5854956,4.26571218 C11.7002264,4.3826562 11.7647059,4.5414441 11.7647059,4.70703736 C11.7647059,4.87263062 11.7002264,5.03141852 11.5854956,5.14836254 L9.68717747,7.08819864 C9.57271023,7.20526384 9.41724343,7.27078525 9.25529789,7.27021781 L9.25529789,7.27021781 Z M5.12194189,1.89452436 L9.26993788,6.13324076 L10.6509765,4.72199754 L7.96697913,1.97929868 L5.9417811,1.0916616 L5.12194189,1.89452436 Z" id="形状"></path>
                    <polygon id="路径" points="6.69647236 4.20711816 7.3867477 4.91224111 6.00644103 6.32273632 5.3161657 5.61736405"></polygon>
                    <path d="M2.21102469,11.7583299 C2.08180807,11.7577101 1.95808241,11.704806 1.86698503,11.6111584 L0.141906699,9.84835103 C-0.0473022329,9.65385007 -0.0473022329,9.33972373 0.141906699,9.14522277 L4.28990269,4.90650637 C4.38218634,4.81559738 4.50576762,4.76544198 4.63394236,4.76684805 C4.76280962,4.76677297 4.88648628,4.81875972 4.97798203,4.91149309 L6.70550036,6.67679381 C6.89470928,6.87129477 6.89470928,7.18542109 6.70550036,7.37992205 L2.55750436,11.6186385 C2.46461752,11.7101591 2.34004053,11.7603626 2.21102469,11.7583299 L2.21102469,11.7583299 Z M1.1764657,9.4967869 L2.21102469,10.5539726 L5.66118136,7.02835794 L4.63394236,5.983639 L1.1764657,9.4967869 Z" id="形状"></path>
                </g>
                <rect id="矩形备份-2" fill="#DDECFF" x="209.382353" y="448" width="66.9117647" height="17.6375839" rx="8.81879195"></rect>
                <text id="Search" font-family="PingFangSC-Regular, PingFang SC" font-size="8.82352941" font-weight="normal" fill="#0072FF">
                    <tspan x="228.5" y="459.201477">Search</tspan>
                </text>
                <g id="地球-3" transform="translate(213.7941, 450.9396)" fill="#0072FF" fill-rule="nonzero">
                    <rect id="矩形" opacity="0" x="0" y="0" width="11.7647059" height="11.7583893"></rect>
                    <path d="M5.88235294,0.0117583893 C2.64038626,0.0117583893 0.0122529871,2.63848058 0.0122529871,5.87870661 C0.0122529871,9.11893264 2.64038626,11.7456548 5.88235294,11.7456548 C9.12431959,11.7456548 11.7524528,9.11893261 11.7524528,5.87870661 C11.7524528,2.63848061 9.12431959,0.0117583893 5.88235294,0.0117583893 L5.88235294,0.0117583893 Z M10.3666705,3.9233749 C10.6284352,4.52208819 10.774506,5.18349759 10.774506,5.87919463 C10.774506,6.57489167 10.6284467,7.23631255 10.3666705,7.83500288 L8.16077665,7.83500288 C8.26861213,7.2284698 8.32743566,6.56902396 8.32743566,5.87919463 C8.32743566,5.1893653 8.26861213,4.52991946 8.16077665,3.9233749 L10.366659,3.9233749 L10.3666705,3.9233749 Z M4.41567096,5.87919463 C4.41567096,5.17663087 4.46960018,4.51228188 4.56763557,3.92338638 L7.19607077,3.92338638 C7.29411765,4.51228188 7.34902344,5.17663087 7.34902344,5.87919463 C7.34902344,6.58175839 7.29411765,7.24610738 7.19608226,7.83500288 L4.56862362,7.83500288 C4.47058824,7.24610738 4.41567096,6.58175839 4.41567096,5.87919463 L4.41567096,5.87919463 Z M9.79608226,2.94547651 L7.9333295,2.94547651 C7.70588235,2.18215725 7.39411765,1.55407094 7.02647059,1.12487825 C8.13342946,1.39133971 9.11282569,2.0351437 9.79608226,2.94547651 L9.79608226,2.94547651 Z M5.88235294,1.47959349 C6.3166705,1.47959349 6.70783548,2.04693577 6.97647059,2.94645255 L4.78823529,2.94645255 C5.05685892,2.04595973 5.44804688,1.47959349 5.88235294,1.47959349 L5.88235294,1.47959349 Z M4.73823529,1.12586577 C4.37058824,1.55405946 4.05882353,2.18412081 3.83235294,2.94646403 L1.96961167,2.94646403 C2.65261984,2.03632147 3.63163695,1.39253702 4.73823529,1.12586577 L4.73823529,1.12586577 Z M1.39804688,3.92338638 L3.60392923,3.92338638 C3.49608226,4.52991946 3.43725873,5.1893653 3.43725873,5.87919463 C3.43725873,6.56902396 3.49608226,7.2284698 3.60392923,7.83500288 L1.39803539,7.83500288 C1.12837117,7.2182245 0.989506743,6.55228884 0.990197326,5.87919463 C0.990197326,5.18348611 1.13627068,4.52207671 1.39803539,3.92338638 L1.39804688,3.92338638 Z M1.96862362,8.81291275 L3.83137638,8.81291275 C4.05882353,9.57623202 4.37058824,10.2043183 4.73823529,10.633511 C3.63127642,10.3670496 2.65188019,9.72324556 1.96862362,8.81291275 L1.96862362,8.81291275 Z M5.88235294,10.2787958 C5.44803539,10.2787958 5.0568704,9.71145349 4.78823529,8.81193671 L6.97647059,8.81193671 C6.70588235,9.71242953 6.31665901,10.2787958 5.88235294,10.2787958 Z M7.02647059,10.6325235 C7.39411765,10.2043298 7.70588235,9.57426846 7.93235294,8.81192523 L9.79509421,8.81192523 C9.11208604,9.7220678 8.13306894,10.3658522 7.02647059,10.6325235 Z" id="形状"></path>
                </g>
                <g id="brain-2-line" transform="translate(139.5294, 450.9396)" fill="#333333" fill-rule="nonzero">
                    <rect id="矩形" opacity="0" x="0" y="0" width="11.7647059" height="11.7583893"></rect>
                    <path d="M3.43137638,2.93959732 C3.43137638,3.05571141 3.45097656,3.16594631 3.48774127,3.26785618 C3.54270689,3.42255836 3.51649631,3.59449311 3.41792778,3.72581492 C3.31935926,3.85713673 3.16153487,3.93038984 2.99755285,3.92092906 C2.60123257,3.89784227 2.23010161,4.11591489 2.05755902,4.47325948 C1.88501642,4.83060408 1.94512466,5.25667551 2.20980009,5.55240557 C2.37657254,5.73831084 2.37678533,6.01982678 2.21029412,6.20598369 C1.99005028,6.45237017 1.90879304,6.79306118 1.99414183,7.11225543 C2.07949063,7.43144969 2.31996354,7.68620619 2.63382353,7.78993289 C2.8673214,7.86676338 3.00777335,8.10456428 2.96225873,8.34601054 C2.85071994,9.01326688 3.30150861,9.64455653 3.9691234,9.75603545 C4.63673819,9.86751436 5.26836697,9.41696775 5.37990579,8.74971141 C5.38266327,8.72937775 5.3867545,8.70924714 5.39215303,8.68944966 L5.39215303,2.93959732 C5.39215303,2.39843451 4.95321823,1.95973537 4.41176471,1.95973537 C3.87031118,1.95973537 3.43137638,2.39843451 3.43137638,2.93959732 L3.43137638,2.93959732 Z M6.37255285,8.68944966 C6.37744715,8.70905081 6.38235294,8.72864047 6.38480009,8.74921765 C6.45686479,9.18085683 6.75385578,9.54128247 7.16389944,9.69472571 C7.5739431,9.84816894 8.03474404,9.7713181 8.37272299,9.49312215 C8.71070194,9.2149262 8.87451187,8.77764972 8.80244715,8.34601054 C8.75693254,8.10456428 8.89738448,7.86676338 9.13088235,7.78993289 C9.44474234,7.68620619 9.68521525,7.43144969 9.77056405,7.11225543 C9.85591285,6.79306118 9.77465561,6.45237017 9.55441176,6.20598369 C9.38778,6.01995258 9.38778,5.73843668 9.55441176,5.55240557 C9.81908532,5.25667703 9.87919416,4.83060866 9.70665464,4.47326523 C9.53411512,4.11592179 9.16298869,3.89784731 8.7666705,3.92092906 C8.6027716,3.93021964 8.4450999,3.85689567 8.3466491,3.72560146 C8.24819829,3.59430725 8.22203946,3.42247439 8.27696461,3.26785618 C8.40738309,2.90023077 8.30722548,2.49030549 8.02195146,2.22413777 C7.73667743,1.95797006 7.32062169,1.88625553 6.96262419,2.04154409 C6.6046267,2.19683264 6.37287342,2.54954725 6.37255285,2.93959732 L6.37255285,8.68944966 L6.37255285,8.68944966 Z M4.41176471,0.979861944 C4.97462923,0.97919546 5.51049681,1.2209219 5.88235294,1.6432349 C6.42918573,1.02354698 7.30615367,0.81322535 8.07479876,1.1174246 C8.84344385,1.42162385 9.33861499,2.17498372 9.31274127,3.00084658 C9.90632125,3.15386478 10.3942131,3.57540372 10.6315494,4.14029794 C10.8688857,4.70519215 10.8283797,5.34849533 10.5220588,5.87919463 C10.7825739,6.32931573 10.8532667,6.86451456 10.7185502,7.36678459 C10.5838336,7.86905461 10.254771,8.297148 9.80391774,8.55667402 L9.80391774,8.57382933 C9.80382539,9.50810176 9.21455829,10.3408742 8.33322964,10.652256 C7.451901,10.9636378 6.4698974,10.6860104 5.88235294,9.9593557 C5.29480848,10.6860104 4.31280488,10.9636378 3.43147624,10.652256 C2.55014759,10.3408742 1.96088049,9.50810176 1.96078814,8.57382933 L1.96078814,8.55667402 C1.50993484,8.297148 1.18087226,7.86905461 1.04615572,7.36678459 C0.911439192,6.86451456 0.982132015,6.32931573 1.24264706,5.87919463 C0.936521943,5.34853158 0.896124138,4.70537054 1.13344421,4.14060961 C1.37076428,3.57584868 1.8585293,3.15439043 2.45196461,3.00132886 C2.43524626,2.47113468 2.63428815,1.95681387 3.0036201,1.57586057 C3.37295204,1.19490727 3.88102233,0.979866007 4.41176471,0.979861944 L4.41176471,0.979861944 Z" id="形状"></path>
                </g>
                <g id="添加" transform="translate(116, 450.9396)" fill="#333333" fill-rule="nonzero">
                    <rect id="矩形" opacity="0" x="0" y="0" width="11.7647059" height="11.7583893"></rect>
                    <path d="M10.1470588,6.43955537 L1.61764706,6.43955537 C1.30859375,6.43955537 1.05698529,6.18693372 1.05698529,5.87919463 C1.05698529,5.57030726 1.30974265,5.31883389 1.61764706,5.31883389 L10.1459099,5.31883389 C10.4549632,5.31883389 10.7065756,5.57145554 10.7065756,5.87919463 C10.7077206,6.18808201 10.4549632,6.43955537 10.1470588,6.43955537 L10.1470588,6.43955537 Z" id="路径"></path>
                    <path d="M5.32169118,10.1416107 L5.32169118,1.61677852 C5.32169118,1.30789115 5.57444853,1.05641779 5.88235294,1.05641779 C6.19140625,1.05641779 6.44301471,1.30903943 6.44301471,1.61677852 L6.44301471,10.1404625 C6.44301471,10.4493498 6.19025735,10.7008271 5.88235294,10.7008271 C5.57329963,10.7019715 5.32169118,10.4493498 5.32169118,10.1416107 L5.32169118,10.1416107 Z" id="路径"></path>
                </g>
                <rect id="矩形备份" fill="#DDECFF" x="135.117647" y="448" width="71.3235294" height="17.6375839" rx="8.81879195"></rect>
                <g id="brain-2-line" transform="translate(139.5294, 450.9396)" fill="#0072FF" fill-rule="nonzero">
                    <rect id="矩形" opacity="0" x="0" y="0" width="11.7647059" height="11.7583893"></rect>
                    <path d="M3.43137638,2.93959732 C3.43137638,3.05571141 3.45097656,3.16594631 3.48774127,3.26785618 C3.54270689,3.42255836 3.51649631,3.59449311 3.41792778,3.72581492 C3.31935926,3.85713673 3.16153487,3.93038984 2.99755285,3.92092906 C2.60123257,3.89784227 2.23010161,4.11591489 2.05755902,4.47325948 C1.88501642,4.83060408 1.94512466,5.25667551 2.20980009,5.55240557 C2.37657254,5.73831084 2.37678533,6.01982678 2.21029412,6.20598369 C1.99005028,6.45237017 1.90879304,6.79306118 1.99414183,7.11225543 C2.07949063,7.43144969 2.31996354,7.68620619 2.63382353,7.78993289 C2.8673214,7.86676338 3.00777335,8.10456428 2.96225873,8.34601054 C2.85071994,9.01326688 3.30150861,9.64455653 3.9691234,9.75603545 C4.63673819,9.86751436 5.26836697,9.41696775 5.37990579,8.74971141 C5.38266327,8.72937775 5.3867545,8.70924714 5.39215303,8.68944966 L5.39215303,2.93959732 C5.39215303,2.39843451 4.95321823,1.95973537 4.41176471,1.95973537 C3.87031118,1.95973537 3.43137638,2.39843451 3.43137638,2.93959732 L3.43137638,2.93959732 Z M6.37255285,8.68944966 C6.37744715,8.70905081 6.38235294,8.72864047 6.38480009,8.74921765 C6.45686479,9.18085683 6.75385578,9.54128247 7.16389944,9.69472571 C7.5739431,9.84816894 8.03474404,9.7713181 8.37272299,9.49312215 C8.71070194,9.2149262 8.87451187,8.77764972 8.80244715,8.34601054 C8.75693254,8.10456428 8.89738448,7.86676338 9.13088235,7.78993289 C9.44474234,7.68620619 9.68521525,7.43144969 9.77056405,7.11225543 C9.85591285,6.79306118 9.77465561,6.45237017 9.55441176,6.20598369 C9.38778,6.01995258 9.38778,5.73843668 9.55441176,5.55240557 C9.81908532,5.25667703 9.87919416,4.83060866 9.70665464,4.47326523 C9.53411512,4.11592179 9.16298869,3.89784731 8.7666705,3.92092906 C8.6027716,3.93021964 8.4450999,3.85689567 8.3466491,3.72560146 C8.24819829,3.59430725 8.22203946,3.42247439 8.27696461,3.26785618 C8.40738309,2.90023077 8.30722548,2.49030549 8.02195146,2.22413777 C7.73667743,1.95797006 7.32062169,1.88625553 6.96262419,2.04154409 C6.6046267,2.19683264 6.37287342,2.54954725 6.37255285,2.93959732 L6.37255285,8.68944966 L6.37255285,8.68944966 Z M4.41176471,0.979861944 C4.97462923,0.97919546 5.51049681,1.2209219 5.88235294,1.6432349 C6.42918573,1.02354698 7.30615367,0.81322535 8.07479876,1.1174246 C8.84344385,1.42162385 9.33861499,2.17498372 9.31274127,3.00084658 C9.90632125,3.15386478 10.3942131,3.57540372 10.6315494,4.14029794 C10.8688857,4.70519215 10.8283797,5.34849533 10.5220588,5.87919463 C10.7825739,6.32931573 10.8532667,6.86451456 10.7185502,7.36678459 C10.5838336,7.86905461 10.254771,8.297148 9.80391774,8.55667402 L9.80391774,8.57382933 C9.80382539,9.50810176 9.21455829,10.3408742 8.33322964,10.652256 C7.451901,10.9636378 6.4698974,10.6860104 5.88235294,9.9593557 C5.29480848,10.6860104 4.31280488,10.9636378 3.43147624,10.652256 C2.55014759,10.3408742 1.96088049,9.50810176 1.96078814,8.57382933 L1.96078814,8.55667402 C1.50993484,8.297148 1.18087226,7.86905461 1.04615572,7.36678459 C0.911439192,6.86451456 0.982132015,6.32931573 1.24264706,5.87919463 C0.936521943,5.34853158 0.896124138,4.70537054 1.13344421,4.14060961 C1.37076428,3.57584868 1.8585293,3.15439043 2.45196461,3.00132886 C2.43524626,2.47113468 2.63428815,1.95681387 3.0036201,1.57586057 C3.37295204,1.19490727 3.88102233,0.979866007 4.41176471,0.979861944 L4.41176471,0.979861944 Z" id="形状"></path>
                </g>
                <text id="Deep-Think" font-family="PingFangSC-Regular, PingFang SC" font-size="8.82352941" font-weight="normal" fill="#0072FF">
                    <tspan x="154.235294" y="459.201477">Deep Think</tspan>
                </text>
                <g id="下拉" transform="translate(260.1176, 450.9396)" fill="#0072FF" fill-rule="nonzero">
                    <rect id="矩形" opacity="0" x="0" y="0" width="11.7647059" height="11.7583893"></rect>
                    <path d="M5.89070542,7.75455437 C5.79804539,7.75455437 5.70928432,7.71728267 5.64442785,7.65114026 L2.65596278,4.60353571 C2.52265625,4.4676023 2.52487362,4.24940609 2.66088006,4.11617114 C2.796875,3.98295915 3.0152114,3.98515237 3.14849494,4.12108578 L5.89070542,6.91753849 L8.63289292,4.12108578 C8.76618796,3.9851294 8.98450138,3.98291322 9.1205193,4.11617114 C9.25654871,4.24940609 9.25874311,4.4676023 9.12543658,4.60353571 L6.13697151,7.65114026 C6.07211932,7.71728202 5.983362,7.75455437 5.89070542,7.75455437 Z" id="路径"></path>
                </g>
                <circle id="椭圆形" fill="#D8D8D8" cx="131" cy="92" r="9"></circle>
                <rect id="矩形" fill="#D8D8D8" x="145" y="83" width="77" height="17" rx="8"></rect>
                <rect id="矩形备份-56" fill="#EBEBEB" x="145" y="112" width="441" height="17" rx="8"></rect>
                <rect id="矩形备份-57" fill="#EBEBEB" x="145" y="138" width="225" height="17" rx="8"></rect>
                <g id="编组-27" transform="translate(209, 164)">
                    <g id="矩形">
                        <use fill="black" fill-opacity="1" filter="url(#filter-10)" xlink:href="#path-9"></use>
                        <rect stroke-opacity="0.0970552885" stroke="#000000" stroke-width="0.802816901" stroke-linejoin="square" fill="#FFFFFF" fill-rule="evenodd" x="0.401408451" y="0.401408451" width="185.197183" height="275.197183" rx="4.01408434"></rect>
                    </g>
                    <text id="Tech-Wiki" font-family="Poppins-Regular, Poppins" font-size="11.2394366" font-weight="normal" fill="#333333">
                        <tspan x="29.0562201" y="107.042254">Tech Wiki</tspan>
                    </text>
                    <text id="HR-Handbook" font-family="Poppins-Regular, Poppins" font-size="11.2394366" font-weight="normal" fill="#333333">
                        <tspan x="29.0325359" y="132.732394">HR Handbook</tspan>
                    </text>
                    <text id="1/1" font-family="Poppins-Regular, Poppins" font-size="11.2394366" font-weight="normal" fill="#999999">
                        <tspan x="88.0325359" y="267.732394">1/1</tspan>
                    </text>
                    <text id="Hiring-Records" font-family="Poppins-Regular, Poppins" font-size="11.2394366" font-weight="normal" fill="#333333">
                        <tspan x="29.0777512" y="158.422535">Hiring Records</tspan>
                    </text>
                    <text id="PRD-Repository" font-family="Poppins-Regular, Poppins" font-size="11.2394366" font-weight="normal" fill="#333333">
                        <tspan x="29.0336124" y="184.112676">PRD Repository</tspan>
                    </text>
                    <text id="Meeting-Notes" font-family="Poppins-Regular, Poppins" font-size="11.2394366" font-weight="normal" fill="#333333">
                        <tspan x="29.0465311" y="209.802817">Meeting Notes</tspan>
                    </text>
                    <text id="Project-Tracker" font-family="Poppins-Regular, Poppins" font-size="11.2394366" font-weight="normal" fill="#333333">
                        <tspan x="29.0476077" y="235.492958">Project Tracker</tspan>
                    </text>
                    <g id="编组" transform="translate(9.6545, 96.6479)">
                        <rect id="矩形" fill="url(#linearGradient-11)" x="0" y="0" width="12.8727273" height="12.8450704" rx="2.98189135"></rect>
                        <rect id="矩形" stroke="#FFFFFF" stroke-width="0.91750503" x="2.06784342" y="5.73440644" width="8.73704042" height="5.04627767" rx="1.37625755"></rect>
                        <line x1="3.21818182" y1="3.89939638" x2="9.65454545" y2="3.89939638" id="路径-4" stroke="#FFFFFF" stroke-width="0.91750503" stroke-linecap="round"></line>
                        <line x1="4.02272727" y1="2.06438632" x2="8.85" y2="2.06438632" id="路径-4备份" stroke="#FFFFFF" stroke-width="0.91750503" stroke-linecap="round"></line>
                    </g>
                    <g id="编组备份" transform="translate(9.6545, 122.338)">
                        <rect id="矩形" fill="url(#linearGradient-11)" x="0" y="0" width="12.8727273" height="12.8450704" rx="2.98189135"></rect>
                        <rect id="矩形" stroke="#FFFFFF" stroke-width="0.91750503" x="2.06784342" y="5.73440644" width="8.73704042" height="5.04627767" rx="1.37625755"></rect>
                        <line x1="3.21818182" y1="3.89939638" x2="9.65454545" y2="3.89939638" id="路径-4" stroke="#FFFFFF" stroke-width="0.91750503" stroke-linecap="round"></line>
                        <line x1="4.02272727" y1="2.06438632" x2="8.85" y2="2.06438632" id="路径-4备份" stroke="#FFFFFF" stroke-width="0.91750503" stroke-linecap="round"></line>
                    </g>
                    <g id="编组备份-2" transform="translate(9.6545, 148.0282)">
                        <rect id="矩形" fill="url(#linearGradient-11)" x="0" y="0" width="12.8727273" height="12.8450704" rx="2.98189135"></rect>
                        <rect id="矩形" stroke="#FFFFFF" stroke-width="0.91750503" x="2.06784342" y="5.73440644" width="8.73704042" height="5.04627767" rx="1.37625755"></rect>
                        <line x1="3.21818182" y1="3.89939638" x2="9.65454545" y2="3.89939638" id="路径-4" stroke="#FFFFFF" stroke-width="0.91750503" stroke-linecap="round"></line>
                        <line x1="4.02272727" y1="2.06438632" x2="8.85" y2="2.06438632" id="路径-4备份" stroke="#FFFFFF" stroke-width="0.91750503" stroke-linecap="round"></line>
                    </g>
                    <g id="编组备份-6" transform="translate(9.6545, 174.0282)">
                        <rect id="矩形" fill="url(#linearGradient-11)" x="0" y="0" width="12.8727273" height="12.8450704" rx="2.98189135"></rect>
                        <rect id="矩形" stroke="#FFFFFF" stroke-width="0.91750503" x="2.06784342" y="5.73440644" width="8.73704042" height="5.04627767" rx="1.37625755"></rect>
                        <line x1="3.21818182" y1="3.89939638" x2="9.65454545" y2="3.89939638" id="路径-4" stroke="#FFFFFF" stroke-width="0.91750503" stroke-linecap="round"></line>
                        <line x1="4.02272727" y1="2.06438632" x2="8.85" y2="2.06438632" id="路径-4备份" stroke="#FFFFFF" stroke-width="0.91750503" stroke-linecap="round"></line>
                    </g>
                    <g id="编组备份-7" transform="translate(9.6545, 200.0282)">
                        <rect id="矩形" fill="url(#linearGradient-11)" x="0" y="0" width="12.8727273" height="12.8450704" rx="2.98189135"></rect>
                        <rect id="矩形" stroke="#FFFFFF" stroke-width="0.91750503" x="2.06784342" y="5.73440644" width="8.73704042" height="5.04627767" rx="1.37625755"></rect>
                        <line x1="3.21818182" y1="3.89939638" x2="9.65454545" y2="3.89939638" id="路径-4" stroke="#FFFFFF" stroke-width="0.91750503" stroke-linecap="round"></line>
                        <line x1="4.02272727" y1="2.06438632" x2="8.85" y2="2.06438632" id="路径-4备份" stroke="#FFFFFF" stroke-width="0.91750503" stroke-linecap="round"></line>
                    </g>
                    <g id="编组备份-8" transform="translate(9.6545, 226.0282)">
                        <rect id="矩形" fill="url(#linearGradient-11)" x="0" y="0" width="12.8727273" height="12.8450704" rx="2.98189135"></rect>
                        <rect id="矩形" stroke="#FFFFFF" stroke-width="0.91750503" x="2.06784342" y="5.73440644" width="8.73704042" height="5.04627767" rx="1.37625755"></rect>
                        <line x1="3.21818182" y1="3.89939638" x2="9.65454545" y2="3.89939638" id="路径-4" stroke="#FFFFFF" stroke-width="0.91750503" stroke-linecap="round"></line>
                        <line x1="4.02272727" y1="2.06438632" x2="8.85" y2="2.06438632" id="路径-4备份" stroke="#FFFFFF" stroke-width="0.91750503" stroke-linecap="round"></line>
                    </g>
                    <g id="多选-选中" transform="translate(162.4727, 96.6479)" fill-rule="nonzero">
                        <rect id="矩形" fill="#000000" opacity="0" x="0" y="0" width="12.8727273" height="12.8450704"></rect>
                        <path d="M2.33821023,0.790272887 L10.5722301,0.790272887 C11.4053621,0.790272887 12.0807528,1.46421259 12.0807528,2.29555458 L12.0807528,10.5118838 C12.0807528,11.3432258 11.4053621,12.0171655 10.5722301,12.0171655 L2.33821023,12.0171655 C1.50507827,12.0171655 0.8296875,11.3432258 0.8296875,10.5118838 L0.8296875,2.29555458 C0.8296875,1.46421259 1.50507827,0.790272887 2.33821023,0.790272887 Z" id="路径" fill="#2F54EB"></path>
                        <path d="M4.92582955,8.13278609 L8.97227834,4.09819212 C9.16872571,3.90231734 9.48709943,3.90244278 9.68339595,4.09846809 C9.87969247,4.2944934 9.87956676,4.6121831 9.68311939,4.80805788 L5.27928899,9.1990022 C5.08218793,9.39551673 4.76251939,9.39465119 4.566512,9.19704533 L2.53395362,7.14814371 C2.33858736,6.95120268 2.34020902,6.63350044 2.53757408,6.43855392 C2.73493913,6.24360739 3.05331286,6.24521303 3.24869169,6.44216659 L4.92582955,8.13278609 Z" id="路径" fill="#FFFFFF"></path>
                    </g>
                    <g id="多选-选中备份" transform="translate(162.4727, 148.0282)" fill-rule="nonzero">
                        <rect id="矩形" fill="#000000" opacity="0" x="0" y="0" width="12.8727273" height="12.8450704"></rect>
                        <path d="M2.33821023,0.790272887 L10.5722301,0.790272887 C11.4053621,0.790272887 12.0807528,1.46421259 12.0807528,2.29555458 L12.0807528,10.5118838 C12.0807528,11.3432258 11.4053621,12.0171655 10.5722301,12.0171655 L2.33821023,12.0171655 C1.50507827,12.0171655 0.8296875,11.3432258 0.8296875,10.5118838 L0.8296875,2.29555458 C0.8296875,1.46421259 1.50507827,0.790272887 2.33821023,0.790272887 Z" id="路径" fill="#2F54EB"></path>
                        <path d="M4.92582955,8.13278609 L8.97227834,4.09819212 C9.16872571,3.90231734 9.48709943,3.90244278 9.68339595,4.09846809 C9.87969247,4.2944934 9.87956676,4.6121831 9.68311939,4.80805788 L5.27928899,9.1990022 C5.08218793,9.39551673 4.76251939,9.39465119 4.566512,9.19704533 L2.53395362,7.14814371 C2.33858736,6.95120268 2.34020902,6.63350044 2.53757408,6.43855392 C2.73493913,6.24360739 3.05331286,6.24521303 3.24869169,6.44216659 L4.92582955,8.13278609 Z" id="路径" fill="#FFFFFF"></path>
                    </g>
                    <g id="多选-选中备份-2" transform="translate(162.4727, 173.7183)" fill-rule="nonzero">
                        <rect id="矩形" fill="#000000" opacity="0" x="0" y="0" width="12.8727273" height="12.8450704"></rect>
                        <path d="M2.33821023,0.790272887 L10.5722301,0.790272887 C11.4053621,0.790272887 12.0807528,1.46421259 12.0807528,2.29555458 L12.0807528,10.5118838 C12.0807528,11.3432258 11.4053621,12.0171655 10.5722301,12.0171655 L2.33821023,12.0171655 C1.50507827,12.0171655 0.8296875,11.3432258 0.8296875,10.5118838 L0.8296875,2.29555458 C0.8296875,1.46421259 1.50507827,0.790272887 2.33821023,0.790272887 Z" id="路径" fill="#2F54EB"></path>
                        <path d="M4.92582955,8.13278609 L8.97227834,4.09819212 C9.16872571,3.90231734 9.48709943,3.90244278 9.68339595,4.09846809 C9.87969247,4.2944934 9.87956676,4.6121831 9.68311939,4.80805788 L5.27928899,9.1990022 C5.08218793,9.39551673 4.76251939,9.39465119 4.566512,9.19704533 L2.53395362,7.14814371 C2.33858736,6.95120268 2.34020902,6.63350044 2.53757408,6.43855392 C2.73493913,6.24360739 3.05331286,6.24521303 3.24869169,6.44216659 L4.92582955,8.13278609 Z" id="路径" fill="#FFFFFF"></path>
                    </g>
                    <g id="多选-选中备份-3" transform="translate(162.4727, 199.4085)" fill-rule="nonzero">
                        <rect id="矩形" fill="#000000" opacity="0" x="0" y="0" width="12.8727273" height="12.8450704"></rect>
                        <path d="M2.33821023,0.790272887 L10.5722301,0.790272887 C11.4053621,0.790272887 12.0807528,1.46421259 12.0807528,2.29555458 L12.0807528,10.5118838 C12.0807528,11.3432258 11.4053621,12.0171655 10.5722301,12.0171655 L2.33821023,12.0171655 C1.50507827,12.0171655 0.8296875,11.3432258 0.8296875,10.5118838 L0.8296875,2.29555458 C0.8296875,1.46421259 1.50507827,0.790272887 2.33821023,0.790272887 Z" id="路径" fill="#2F54EB"></path>
                        <path d="M4.92582955,8.13278609 L8.97227834,4.09819212 C9.16872571,3.90231734 9.48709943,3.90244278 9.68339595,4.09846809 C9.87969247,4.2944934 9.87956676,4.6121831 9.68311939,4.80805788 L5.27928899,9.1990022 C5.08218793,9.39551673 4.76251939,9.39465119 4.566512,9.19704533 L2.53395362,7.14814371 C2.33858736,6.95120268 2.34020902,6.63350044 2.53757408,6.43855392 C2.73493913,6.24360739 3.05331286,6.24521303 3.24869169,6.44216659 L4.92582955,8.13278609 Z" id="路径" fill="#FFFFFF"></path>
                    </g>
                    <g id="多选-选中备份-4" transform="translate(162.4727, 225.0986)" fill-rule="nonzero">
                        <rect id="矩形" fill="#000000" opacity="0" x="0" y="0" width="12.8727273" height="12.8450704"></rect>
                        <path d="M2.33821023,0.790272887 L10.5722301,0.790272887 C11.4053621,0.790272887 12.0807528,1.46421259 12.0807528,2.29555458 L12.0807528,10.5118838 C12.0807528,11.3432258 11.4053621,12.0171655 10.5722301,12.0171655 L2.33821023,12.0171655 C1.50507827,12.0171655 0.8296875,11.3432258 0.8296875,10.5118838 L0.8296875,2.29555458 C0.8296875,1.46421259 1.50507827,0.790272887 2.33821023,0.790272887 Z" id="路径" fill="#2F54EB"></path>
                        <path d="M4.92582955,8.13278609 L8.97227834,4.09819212 C9.16872571,3.90231734 9.48709943,3.90244278 9.68339595,4.09846809 C9.87969247,4.2944934 9.87956676,4.6121831 9.68311939,4.80805788 L5.27928899,9.1990022 C5.08218793,9.39551673 4.76251939,9.39465119 4.566512,9.19704533 L2.53395362,7.14814371 C2.33858736,6.95120268 2.34020902,6.63350044 2.53757408,6.43855392 C2.73493913,6.24360739 3.05331286,6.24521303 3.24869169,6.44216659 L4.92582955,8.13278609 Z" id="路径" fill="#FFFFFF"></path>
                    </g>
                    <g id="多选" transform="translate(162.4727, 122.338)" fill="#D8D8D8" fill-rule="nonzero">
                        <rect id="矩形" opacity="0" x="0" y="0" width="12.8727273" height="12.8450704"></rect>
                        <path d="M10.5433168,1.53287852 C10.7494815,1.53287852 10.9455895,1.61441461 11.0926705,1.76243398 C11.2410085,1.91045335 11.3227202,2.10488556 11.3227202,2.31060739 L11.3227202,10.5306998 C11.3227202,10.7364217 11.2410085,10.9321083 11.0926705,11.0788732 C10.9443324,11.2268926 10.7494815,11.3084287 10.5433168,11.3084287 L2.30426847,11.3084287 C2.09810369,11.3084287 1.90199574,11.2268926 1.75491477,11.0788732 C1.6065767,10.9308539 1.52486506,10.7364217 1.52486506,10.5306998 L1.52486506,2.31060739 C1.52486506,2.10488556 1.6065767,1.90919894 1.75491477,1.76243398 C1.90325284,1.61441461 2.09810369,1.53287852 2.30426847,1.53287852 L10.5433168,1.53287852 M10.5433168,0.805325704 L2.30426847,0.805325704 C1.47458097,0.805325704 0.795745739,1.48270246 0.795745739,2.31060739 L0.795745739,10.5306998 C0.795745739,11.3586048 1.47458097,12.0359815 2.30426847,12.0359815 L10.5420597,12.0359815 C11.3717472,12.0359815 12.0505841,11.3586048 12.0505841,10.5306998 L12.0505841,2.31060739 C12.0518395,1.48270246 11.3730043,0.805325704 10.5433168,0.805325704 L10.5433168,0.805325704 Z" id="形状"></path>
                    </g>
                    <g id="多选备份" transform="translate(162.4727, 70.9577)" fill="#D8D8D8" fill-rule="nonzero">
                        <rect id="矩形" opacity="0" x="0" y="0" width="12.8727273" height="12.8450704"></rect>
                        <path d="M10.5433168,1.53287852 C10.7494815,1.53287852 10.9455895,1.61441461 11.0926705,1.76243398 C11.2410085,1.91045335 11.3227202,2.10488556 11.3227202,2.31060739 L11.3227202,10.5306998 C11.3227202,10.7364217 11.2410085,10.9321083 11.0926705,11.0788732 C10.9443324,11.2268926 10.7494815,11.3084287 10.5433168,11.3084287 L2.30426847,11.3084287 C2.09810369,11.3084287 1.90199574,11.2268926 1.75491477,11.0788732 C1.6065767,10.9308539 1.52486506,10.7364217 1.52486506,10.5306998 L1.52486506,2.31060739 C1.52486506,2.10488556 1.6065767,1.90919894 1.75491477,1.76243398 C1.90325284,1.61441461 2.09810369,1.53287852 2.30426847,1.53287852 L10.5433168,1.53287852 M10.5433168,0.805325704 L2.30426847,0.805325704 C1.47458097,0.805325704 0.795745739,1.48270246 0.795745739,2.31060739 L0.795745739,10.5306998 C0.795745739,11.3586048 1.47458097,12.0359815 2.30426847,12.0359815 L10.5420597,12.0359815 C11.3717472,12.0359815 12.0505841,11.3586048 12.0505841,10.5306998 L12.0505841,2.31060739 C12.0518395,1.48270246 11.3730043,0.805325704 10.5433168,0.805325704 L10.5433168,0.805325704 Z" id="形状"></path>
                    </g>
                    <rect id="矩形" fill="#2F54EB" x="166.495455" y="74.971831" width="4.82727273" height="4.81690141"></rect>
                    <text id="All-Scope" font-family="Poppins-Regular, Poppins" font-size="11.2394366" font-weight="normal" fill="#333333">
                        <tspan x="29.0174641" y="81.3521127">All Scope</tspan>
                    </text>
                    <text id="Search-Scope" font-family="Poppins-SemiBold, Poppins" font-size="11.2394366" font-weight="500" line-spacing="12.8450704" fill="#333333">
                        <tspan x="9" y="25">SEARCH SCOPE</tspan>
                    </text>
                    <rect id="矩形" stroke-opacity="0.0970552885" stroke="#000000" stroke-width="0.802816901" fill="#FFFFFF" x="156.401408" y="9.40140845" width="18.506274" height="18.4647887" rx="6.42253521"></rect>
                    <g id="刷新" transform="translate(161, 14)" fill="#0287FF" fill-rule="nonzero">
                        <rect id="矩形" opacity="0" x="0" y="0" width="9.65454545" height="9.63380282"></rect>
                        <path d="M4.82727273,8.65115493 C2.7081,8.65115493 0.984763636,6.93152113 0.984763636,4.81690141 C0.984763636,4.73501408 0.989590909,4.65312676 0.994418182,4.57123944 L1.67023636,4.61459155 C1.66540909,4.68202817 1.66540909,4.74946479 1.66540909,4.81690141 C1.66540909,6.56061972 3.08462727,7.97678873 4.8321,7.97678873 C5.64790909,7.97678873 6.42027273,7.66850704 7.0092,7.10974648 L7.47261818,7.60107042 C6.75335455,8.28025352 5.81686364,8.65115493 4.82727273,8.65115493 Z M8.66978182,4.81690141 L7.99396364,4.81690141 C7.99396364,4.70611268 7.98913636,4.59532394 7.97465455,4.48453521 C7.8057,2.87087324 6.45406364,1.65701408 4.82244545,1.65701408 C4.18524545,1.65701408 3.57700909,1.84487324 3.05083636,2.19650704 L2.67913636,1.63774648 C3.31150909,1.20904225 4.05490909,0.982647887 4.82727273,0.982647887 C6.80162727,0.982647887 8.44772727,2.45661972 8.65047273,4.41709859 C8.66495455,4.54715493 8.66978182,4.68202817 8.66978182,4.81690141 Z" id="形状"></path>
                        <path d="M1.32267273,2.736 L0.2655,4.62422535 C0.236536364,4.67239437 0.275154545,4.73501408 0.328254545,4.73501408 L2.43777273,4.73501408 C2.4957,4.73501408 2.52949091,4.67721127 2.50052727,4.62422535 L1.44818182,2.736 C1.41921818,2.68301408 1.34680909,2.68301408 1.32267273,2.736 Z M8.20636364,6.35830986 L7.14919091,4.47008451 C7.12022727,4.42191549 7.15884545,4.35929577 7.21194545,4.35929577 L9.32146364,4.35929577 C9.37939091,4.35929577 9.41318182,4.41709859 9.38421818,4.47008451 L8.33187273,6.35830986 C8.30773636,6.40647887 8.23532727,6.40647887 8.20636364,6.35830986 Z M2.5488,1.90267606 C2.5488,2.08889714 2.70008705,2.23985915 2.88670909,2.23985915 C3.07333113,2.23985915 3.22461818,2.08889714 3.22461818,1.90267606 C3.22461818,1.71645497 3.07333113,1.56549296 2.88670909,1.56549296 C2.70008705,1.56549296 2.5488,1.71645497 2.5488,1.90267606 Z M6.86920909,7.38430986 C6.86920909,7.57053094 7.02049614,7.72149296 7.20711818,7.72149296 C7.39374022,7.72149296 7.54502727,7.57053094 7.54502727,7.38430986 C7.54502727,7.19808878 7.39374022,7.04712676 7.20711818,7.04712676 C7.02049614,7.04712676 6.86920909,7.19808878 6.86920909,7.38430986 Z" id="形状"></path>
                    </g>
                    <g id="全部" transform="translate(9.6545, 70.9577)" fill="#1890FF" fill-rule="nonzero">
                        <rect id="矩形" opacity="0" x="1.64625377e-06" y="0.000315924866" width="12.8724107" height="12.8447545"></rect>
                        <path d="M6.43624469,8.33399013 C6.36286944,8.33399013 6.2907764,8.31344354 6.22513213,8.27361728 L0.191830735,4.51396767 C0.0721198298,4.44075006 3.93583943e-05,4.3084516 3.93583943e-05,4.1671593 C3.93583943e-05,4.025867 0.0721198298,3.893556 0.191830735,3.82035093 L6.2251447,0.0606887797 C6.35373335,-0.0202295932 6.51747382,-0.0202295932 6.64606247,0.0606887797 L12.6793639,3.82035093 C12.7990748,3.894848 12.8711552,4.025867 12.8711552,4.1671593 C12.8711552,4.3084516 12.7990748,4.44073752 12.6793639,4.51396767 L6.64734468,8.27361728 C6.58170042,8.31344354 6.50960738,8.33399013 6.43624469,8.33399013 Z M1.17013395,4.1671593 L6.43624469,7.44771462 L11.7023429,4.1671593 L6.43624469,0.886603985 L1.17013395,4.1671593 Z M6.43624469,10.5895366 C6.36286944,10.5895366 6.2907764,10.5689774 6.22513213,10.5291637 L0.191830735,6.770781 C0.00260378396,6.6526193 -0.0566042768,6.40214658 0.0592474192,6.20947527 C0.175099115,6.01808341 0.423546698,5.9577231 0.612761078,6.0758848 L6.43624469,9.70324849 L12.2597157,6.0758848 C12.4489427,5.9577231 12.6960955,6.01808341 12.8132294,6.20947527 C12.9290811,6.40085458 12.869873,6.6526193 12.6806461,6.770781 L6.64734468,10.5291637 C6.58170042,10.5689774 6.50960738,10.5895366 6.43624469,10.5895366 L6.43624469,10.5895366 Z M6.43624469,12.8450704 C6.36286944,12.8450704 6.2907764,12.8245238 6.22513213,12.7846976 L0.191830735,9.02503542 C0.00260378396,8.90687371 -0.0566042768,8.656401 0.0592474192,8.46372968 C0.175099115,8.27233782 0.423546698,8.21197751 0.612761078,8.33013922 L6.43624469,11.9587824 L12.2597157,8.33141867 C12.4489427,8.21325697 12.6960955,8.27361728 12.8132294,8.46500914 C12.9290811,8.656401 12.869873,8.90815317 12.6806461,9.02632742 L6.64734468,12.7846976 C6.58170042,12.8245238 6.50960738,12.8450704 6.43624469,12.8450704 L6.43624469,12.8450704 Z" id="形状"></path>
                    </g>
                    <rect id="矩形" stroke-opacity="0.0970552885" stroke="#000000" stroke-width="0.802816901" fill="#FFFFFF" x="8.40140845" y="37.4014085" width="166.197183" height="22.1971831" rx="4"></rect>
                    <g id="路径-11">
                        <use fill="black" fill-opacity="1" filter="url(#filter-13)" xlink:href="#path-12"></use>
                        <path stroke-opacity="0.0970552885" stroke="#000000" stroke-width="0.802816901" d="M0,250.75582 L186.5,250.5" stroke-linejoin="square" fill="#FFFFFF" fill-rule="evenodd"></path>
                    </g>
                    <g id="向左" transform="translate(8, 258)" fill="#CBCBCB" fill-rule="nonzero">
                        <rect id="矩形" opacity="0" x="0" y="0" width="12" height="12"></rect>
                        <polygon id="路径" points="4.70000391 6 8.25 9.54999609 7.55000391 10.2500039 3.99999609 6.69999609 3.3 6 3.99999609 5.30000391 7.55000391 1.74999609 8.25 2.45000391"></polygon>
                    </g>
                    <g id="向左备份" transform="translate(174, 264) scale(-1, 1) translate(-174, -264)translate(168, 258)" fill="#CBCBCB" fill-rule="nonzero">
                        <rect id="矩形" opacity="0" x="0" y="0" width="12" height="12"></rect>
                        <polygon id="路径" points="4.70000391 6 8.25 9.54999609 7.55000391 10.2500039 3.99999609 6.69999609 3.3 6 3.99999609 5.30000391 7.55000391 1.74999609 8.25 2.45000391"></polygon>
                    </g>
                </g>
                <g id="编组-30" transform="translate(87, 210)">
                    <rect id="矩形" fill="#70A3FF" x="0" y="0" width="44" height="44" rx="14.1694915"></rect>
                    <g id="编组" transform="translate(11.9322, 9.6949)" stroke="#FFFFFF" stroke-linecap="round" stroke-linejoin="round" stroke-width="1.73603779">
                        <polyline id="路径" points="7.45762712 0 7.45762712 10.440678 11.1864407 6.52542373 14.9152542 10.440678 14.9152542 0"></polyline>
                        <path d="M0,22.1864407 L0,3.16949153 C0,1.41902969 1.40859565,0 3.14618644,0 L18.8771186,0 C19.572155,0 20.1355932,0.567611876 20.1355932,1.26779661 L20.1355932,24.0881356 C20.1355932,24.7883203 19.572155,25.3559322 18.8771186,25.3559322 L3.14618644,25.3559322 C1.40859565,25.3559322 0,23.9369025 0,22.1864407 C0,20.4359788 1.40859565,19.0169492 3.14618644,19.0169492 L20.1355932,19.0169492" id="路径"></path>
                    </g>
                </g>
                <g id="编组-29" transform="translate(490, 297)">
                    <rect id="矩形" fill="#FFD14C" x="0" y="11.1688312" width="76" height="74.8311688" rx="5.61008157"></rect>
                    <g id="编组" transform="translate(41.1981, 0)" stroke="#000000" stroke-linecap="round" stroke-linejoin="round" stroke-width="1.7952444">
                        <path d="M16.0293759,7.1474155 L1.04353243,22.4908655 C-0.347844143,23.8869064 -0.347844143,26.1503359 1.04353243,27.5463768 C2.434909,28.9424177 4.69077614,28.9424177 6.08215271,27.5463768 L21.0679961,12.2029268 C23.8502575,9.41133848 23.8502575,4.88527955 21.0679961,2.09369124 C18.2857348,-0.697897079 13.7747979,-0.697897079 10.9925366,2.09369124 C7.02950445,6.15163262 4.05723032,9.19508866 2.07571423,11.2240594" id="路径"></path>
                    </g>
                </g>
                <g id="编组-31" transform="translate(581, 144)">
                    <circle id="椭圆形" fill="#0072FF" cx="24" cy="24" r="24"></circle>
                    <g id="编组" transform="translate(13.7143, 12)" stroke="#FFFFFF" stroke-linecap="round" stroke-linejoin="round" stroke-width="1.71428571">
                        <path d="M20.5714286,24 C20.5714286,18.3193569 15.9663574,13.7142857 10.2857143,13.7142857 C4.60507114,13.7142857 0,18.3193569 0,24" id="路径"></path>
                        <circle id="椭圆形" cx="10.2857143" cy="6.85714286" r="6.85714286"></circle>
                    </g>
                </g>
            </g>
        </g>
    </g>
</svg>