<?xml version="1.0" encoding="UTF-8"?>
<svg width="24px" height="24px" viewBox="0 0 24 24" version="1.1" xmlns="http://www.w3.org/2000/svg" xmlns:xlink="http://www.w3.org/1999/xlink">
    <title>下载备份 9</title>
    <g id="官网3" stroke="none" stroke-width="1" fill="none" fill-rule="evenodd">
        <g id="coco-AI-eng-下载-ight" transform="translate(-652, -712)" fill="#14C4C9" fill-rule="nonzero">
            <g id="下载备份-9" transform="translate(652, 712)">
                <rect id="矩形" opacity="0" x="0" y="0" width="24" height="24"></rect>
                <path d="M21.2695313,19.7578125 L2.73046875,19.7578125 C2.278125,19.7578125 1.91015625,20.1257813 1.91015625,20.578125 C1.91015625,21.0304687 2.278125,21.3984375 2.73046875,21.3984375 L21.271875,21.3984375 C21.7242188,21.3984375 22.0921875,21.0304687 22.0921875,20.578125 C22.0921875,20.1257813 21.7242188,19.7578125 21.2695313,19.7578125 Z M5.85,13.0382812 L11.4679688,17.6765625 C11.4726562,17.68125 11.4796875,17.6859375 11.484375,17.6882813 C11.4867187,17.690625 11.4890625,17.6929687 11.49375,17.6953125 C11.5078125,17.7046875 11.521875,17.7164062 11.5359375,17.7257812 C11.5382812,17.728125 11.540625,17.728125 11.5429688,17.7304688 C11.6132813,17.7773438 11.690625,17.8125 11.7703125,17.8335938 C11.8125,17.8453125 11.8546875,17.8546875 11.8992187,17.859375 L11.9085937,17.859375 C11.9203125,17.859375 11.9320313,17.8617188 11.9414063,17.8617188 L12.046875,17.8617188 C12.05625,17.8617188 12.065625,17.859375 12.075,17.859375 C12.0796875,17.859375 12.084375,17.859375 12.0890625,17.8570312 C12.0984375,17.8570312 12.1078125,17.8546875 12.1171875,17.8523437 C12.121875,17.8523437 12.1265625,17.85 12.13125,17.85 C12.1429688,17.8476562 12.1570313,17.8453125 12.16875,17.8429688 C12.1734375,17.8429688 12.1757812,17.840625 12.1804688,17.840625 C12.1898438,17.8382813 12.1992188,17.8359375 12.20625,17.8335938 C12.2132813,17.83125 12.2179688,17.83125 12.225,17.8289063 L12.2460938,17.821875 C12.253125,17.8195313 12.2601563,17.8171875 12.2648438,17.8148438 C12.2695313,17.8125 12.2765625,17.8101563 12.28125,17.8078125 C12.3070313,17.7984375 12.3328125,17.7867188 12.3585938,17.775 C12.3609375,17.7726563 12.365625,17.7726563 12.3679688,17.7703125 C12.375,17.765625 12.384375,17.7609375 12.3914062,17.75625 C12.39375,17.7539062 12.3984375,17.7515625 12.4007812,17.7515625 C12.4101563,17.746875 12.4171875,17.7421875 12.4242188,17.7375 C12.4265625,17.7375 12.4289063,17.7351562 12.4289063,17.7351562 C12.4546875,17.71875 12.4804688,17.7 12.5039063,17.68125 L12.5109375,17.6742188 L18.1476563,13.0359375 C18.496875,12.7476563 18.5484375,12.2320312 18.2601563,11.8804688 C17.971875,11.53125 17.45625,11.4796875 17.1046875,11.7679687 L12.8109375,15.3046875 L12.8109375,3.421875 C12.8109375,2.96953125 12.4429688,2.6015625 11.990625,2.6015625 C11.5382813,2.6015625 11.1703125,2.96953125 11.1703125,3.421875 L11.1703125,15.3023438 L6.89296875,11.7726563 C6.54375,11.484375 6.02578125,11.5335938 5.7375,11.8828125 C5.4515625,12.2320312 5.50078125,12.75 5.85,13.0382812 Z" id="形状"></path>
            </g>
        </g>
    </g>
</svg>