<?xml version="1.0" encoding="UTF-8"?>
<svg width="16px" height="16px" viewBox="0 0 16 16" version="1.1" xmlns="http://www.w3.org/2000/svg" xmlns:xlink="http://www.w3.org/1999/xlink">
    <title>app-store</title>
    <g id="COCO" stroke="none" stroke-width="1" fill="none" fill-rule="evenodd">
        <g id="Coco--new2" transform="translate(-360, -5320)" fill="#FFFFFF" fill-rule="nonzero">
            <g id="app-store" transform="translate(360, 5320)">
                <rect id="矩形" opacity="0" x="0" y="0" width="16" height="16"></rect>
                <path d="M7.996875,3.778125 L8.28125,3.2875 C8.45625,2.98125 8.846875,2.878125 9.153125,3.053125 C9.459375,3.228125 9.5625,3.61875 9.3875,3.925 L6.653125,8.659375 L8.63125,8.659375 C9.271875,8.659375 9.63125,9.4125 9.353125,9.934375 L3.55625,9.934375 C3.203125,9.934375 2.91875,9.65 2.91875,9.296875 C2.91875,8.94375 3.203125,8.659375 3.55625,8.659375 L5.18125,8.659375 L7.2625,5.053125 L6.6125,3.925 C6.4375,3.61875 6.540625,3.23125 6.846875,3.053125 C7.153125,2.878125 7.540625,2.98125 7.71875,3.2875 L7.996875,3.778125 L7.996875,3.778125 Z M5.5375,10.590625 L4.925,11.653125 C4.75,11.959375 4.359375,12.0625 4.053125,11.8875 C3.746875,11.7125 3.64375,11.321875 3.81875,11.015625 L4.275,10.228125 C4.7875,10.06875 5.20625,10.190625 5.5375,10.590625 L5.5375,10.590625 Z M10.815625,8.6625 L12.475,8.6625 C12.828125,8.6625 13.1125,8.946875 13.1125,9.3 C13.1125,9.653125 12.828125,9.9375 12.475,9.9375 L11.553125,9.9375 L12.175,11.015625 C12.35,11.321875 12.246875,11.709375 11.940625,11.8875 C11.634375,12.0625 11.246875,11.959375 11.06875,11.653125 C10.021875,9.8375 9.234375,8.478125 8.7125,7.571875 C8.178125,6.65 8.559375,5.725 8.9375,5.4125 C9.35625,6.13125 9.98125,7.215625 10.815625,8.6625 L10.815625,8.6625 Z M8,0.25 C3.71875,0.25 0.25,3.71875 0.25,8 C0.25,12.28125 3.71875,15.75 8,15.75 C12.28125,15.75 15.75,12.28125 15.75,8 C15.75,3.71875 12.28125,0.25 8,0.25 Z M14.75,8 C14.75,11.709375 11.746875,14.75 8,14.75 C4.290625,14.75 1.25,11.746875 1.25,8 C1.25,4.290625 4.253125,1.25 8,1.25 C11.709375,1.25 14.75,4.253125 14.75,8 Z" id="形状"></path>
            </g>
        </g>
    </g>
</svg>