<?xml version="1.0" encoding="UTF-8"?>
<svg width="23px" height="24px" viewBox="0 0 23 24" version="1.1" xmlns="http://www.w3.org/2000/svg" xmlns:xlink="http://www.w3.org/1999/xlink">
    <title>discord</title>
    <g id="INFINILabs.com" stroke="none" stroke-width="1" fill="none" fill-rule="evenodd">
        <g id="首页2" transform="translate(-1530, -1152)" fill="#FFFFFF" fill-rule="nonzero">
            <g id="discord" transform="translate(1530, 1152)">
                <rect id="矩形" opacity="0" x="0.000458556985" y="0" width="22.999338" height="24"></rect>
                <path d="M19.470364,4.36999219 C17.9792841,3.65582875 16.4057038,3.14657739 14.7890329,2.85499219 C14.758776,2.84884901 14.7281816,2.86380755 14.7133417,2.892 C14.5120975,3.267 14.2878315,3.75700781 14.1306769,4.14199219 C12.3879294,3.86577586 10.6152007,3.86577586 8.87245321,4.14199219 C8.69754841,3.71429612 8.50015927,3.29699764 8.28118604,2.892 C8.26572765,2.86449294 8.23561933,2.8497764 8.2054724,2.85499219 C6.58880311,3.14500781 5.01431425,3.65500781 3.52414132,4.36999219 C3.51152204,4.37551848 3.5008242,4.3849398 3.49348302,4.39699219 C0.511228036,9.04600781 -0.306191797,13.5799922 0.0953308264,18.057 C0.097412431,18.0794207 0.108138317,18.0999954 0.125045791,18.114 C1.86110581,19.456205 3.80312434,20.4807905 5.86816467,21.144 C5.8979724,21.1533095 5.93017317,21.1421058 5.94866236,21.1159922 C6.39139961,20.4859922 6.78620661,19.821 7.12450351,19.122 C7.13399054,19.1025576 7.13501358,19.0797985 7.12731229,19.0595147 C7.11961099,19.039231 7.10392805,19.0233787 7.08425467,19.0159922 C6.46463554,18.7685694 5.86477593,18.4703081 5.29030631,18.1240078 C5.26911225,18.1108662 5.255491,18.0876645 5.25389817,18.0619922 C5.25233449,18.036366 5.26311675,18.0116129 5.28264735,17.9959922 C5.40339387,17.9020078 5.5241404,17.8039922 5.63913709,17.7040078 C5.66003414,17.6866142 5.68845523,17.6827591 5.71291914,17.694 C9.47715162,19.4869922 13.5518527,19.4869922 17.2719956,17.694 C17.2966888,17.6820998 17.3257292,17.6859879 17.3467435,17.7040078 C17.4617402,17.802 17.5824867,17.9020078 17.704199,17.9959922 C17.723577,18.0113014 17.7343604,18.035688 17.7329482,18.0610078 C17.7320788,18.0866508 17.7191791,18.1102074 17.6984492,18.1240078 C17.1244315,18.4729922 16.5245171,18.771 15.903535,19.014 C15.8731943,19.0254652 15.8536991,19.0563952 15.8556272,19.0900078 C15.856593,19.1020078 15.8594455,19.1119922 15.864252,19.122 C16.209242,19.8199922 16.6040715,20.484 17.038184,21.1150078 C17.056679,21.1411128 17.0888787,21.1523067 17.1186817,21.1429922 C19.1871622,20.4818124 21.132335,19.4571016 22.8704253,18.1129922 C22.8875311,18.1003533 22.8986783,18.0807192 22.9010836,18.0589922 C23.3802515,12.882 22.0980384,8.385 19.5000565,4.39900781 C19.4940643,4.38551321 19.4834826,4.37482195 19.470364,4.36900781 L19.470364,4.36999219 Z M7.68607817,15.33 C6.55336077,15.33 5.61901267,14.2450078 5.61901267,12.9110156 C5.61901267,11.5780078 6.53514548,10.4920078 7.68607817,10.4920078 C8.84561316,10.4920078 9.77133651,11.5879922 9.75314368,12.912 C9.75314368,14.2450078 8.83698841,15.33 7.68607817,15.33 Z M15.3285516,15.33 C14.1948908,15.33 13.2614861,14.2450078 13.2614861,12.9110156 C13.2614861,11.5780078 14.1766755,10.4920078 15.3285516,10.4920078 C16.488109,10.4920078 17.4138324,11.5879922 17.3956171,12.912 C17.3956171,14.2450078 16.4890748,15.33 15.3285516,15.33 Z" id="形状"></path>
            </g>
        </g>
    </g>
</svg>