<?xml version="1.0" encoding="UTF-8"?>
<svg width="21px" height="20px" viewBox="0 0 21 20" version="1.1" xmlns="http://www.w3.org/2000/svg" xmlns:xlink="http://www.w3.org/1999/xlink">
    <title>路径</title>
    <g id="官网3" stroke="none" stroke-width="1" fill="none" fill-rule="evenodd">
        <g id="coco-AI-eng-light" transform="translate(-1477, -10816)" fill="#333333" fill-rule="nonzero">
            <g id="github-filled" transform="translate(1476, 10814)">
                <path d="M11.5011731,2 C5.69925148,1.9977057 1,6.59261026 1,12.2639435 C1,16.7486805 3.93967155,20.5609365 8.03362753,21.9609823 C8.58496257,22.0963966 8.50050274,21.7131054 8.50050274,21.4514574 L8.50050274,19.6727107 C5.31683611,20.0376407 5.18780025,17.9765896 4.97430455,17.632316 C4.54262094,16.9116367 3.52206457,16.7280241 3.82705843,16.3837505 C4.55200536,16.0188205 5.29102894,16.4755568 6.14735784,17.7126465 C6.76672997,18.6100529 7.97497486,18.4585726 8.58730868,18.3093874 C8.72103676,17.7700254 9.00726176,17.2880424 9.40140766,16.9139318 C6.10278181,16.3355522 4.72796336,14.3663074 4.72796336,12.0252472 C4.72796336,10.8891444 5.11037873,9.84484789 5.86113283,9.00252523 C5.38252709,7.61395517 5.90570886,6.42506379 5.97609206,6.24833669 C7.33917998,6.12898852 8.75622835,7.20312205 8.86649536,7.28804286 C9.64071054,7.08377388 10.5251927,6.97590149 11.5152497,6.97590149 C12.5099989,6.97590149 13.3968272,7.08836419 14.1780807,7.29492833 C14.4431907,7.09754482 15.7570104,6.17489166 17.0239079,6.28735436 C17.091945,6.46408146 17.6033963,7.62543096 17.1529438,8.99563976 C17.9130823,9.84025758 18.3001899,10.8937347 18.3001899,12.0321326 C18.3001899,14.3777832 16.915987,16.3493232 13.6079768,16.9185221 C14.1593118,17.4509986 14.5018434,18.1900392 14.5018434,19.0071151 L14.5018434,21.5891669 C14.5206122,21.795731 14.5018434,22 14.8537594,22 C19.0087141,20.6297912 22,16.7899933 22,12.2662387 C22,6.59261026 17.2984024,2 11.5011731,2 Z" id="路径"></path>
            </g>
        </g>
    </g>
</svg>