<?xml version="1.0" encoding="UTF-8"?>
<svg width="640px" height="480px" viewBox="0 0 640 480" version="1.1" xmlns="http://www.w3.org/2000/svg" xmlns:xlink="http://www.w3.org/1999/xlink">
    <title>search</title>
    <defs>
        <rect id="path-1" x="0" y="0" width="640" height="480" rx="11"></rect>
        <rect id="path-3" x="0.0588235294" y="0" width="640" height="561" rx="11.2941176"></rect>
        <filter x="-8.2%" y="-6.7%" width="116.4%" height="118.7%" filterUnits="objectBoundingBox" id="filter-4">
            <feOffset dx="0" dy="15" in="SourceAlpha" result="shadowOffsetOuter1"></feOffset>
            <feGaussianBlur stdDeviation="15" in="shadowOffsetOuter1" result="shadowBlurOuter1"></feGaussianBlur>
            <feComposite in="shadowBlurOuter1" in2="SourceAlpha" operator="out" result="shadowBlurOuter1"></feComposite>
            <feColorMatrix values="0 0 0 0 0   0 0 0 0 0   0 0 0 0 0  0 0 0 0.4 0" type="matrix" in="shadowBlurOuter1"></feColorMatrix>
        </filter>
        <rect id="path-5" x="0" y="0" width="638.117647" height="559.11745" rx="10.3529412"></rect>
        <radialGradient cx="82.8451614%" cy="27.8123848%" fx="82.8451614%" fy="27.8123848%" r="114.931813%" gradientTransform="translate(0.8285, 0.2781), scale(0.6541, 1), rotate(147.971), scale(1, 0.5382), translate(-0.8285, -0.2781)" id="radialGradient-7">
            <stop stop-color="#00D0FF" stop-opacity="0" offset="0%"></stop>
            <stop stop-color="#6DEAEA" offset="100%"></stop>
        </radialGradient>
        <filter x="-11.9%" y="-18.1%" width="123.7%" height="136.2%" filterUnits="objectBoundingBox" id="filter-8">
            <feGaussianBlur stdDeviation="22" in="SourceGraphic"></feGaussianBlur>
        </filter>
        <linearGradient x1="50%" y1="55.2564649%" x2="50%" y2="96.6185996%" id="linearGradient-9">
            <stop stop-color="#000000" stop-opacity="0" offset="0%"></stop>
            <stop stop-color="#000000" offset="100%"></stop>
        </linearGradient>
    </defs>
    <g id="COCO" stroke="none" stroke-width="1" fill="none" fill-rule="evenodd">
        <g id="Coco--new2" transform="translate(-400, -2120)">
            <g id="search" transform="translate(400, 2120)">
                <g id="编组-23">
                    <mask id="mask-2" fill="white">
                        <use xlink:href="#path-1"></use>
                    </mask>
                    <use id="蒙版" fill="#000000" xlink:href="#path-1"></use>
                    <g mask="url(#mask-2)">
                        <g transform="translate(-0.0588, 0)">
                            <g id="search背景框-dark备份" stroke="none" fill="none">
                                <use fill="black" fill-opacity="1" filter="url(#filter-4)" xlink:href="#path-3"></use>
                                <rect stroke="#272626" stroke-width="1" stroke-linejoin="square" fill="#000000" fill-rule="evenodd" x="0.558823529" y="0.5" width="639" height="560" rx="11.2941176"></rect>
                            </g>
                            <g id="search背景-dark备份-2" opacity="0.354515439" stroke="none" stroke-width="1" fill="none" fill-rule="evenodd" transform="translate(0, 1.9413)">
                                <mask id="mask-6" fill="white">
                                    <use xlink:href="#path-5"></use>
                                </mask>
                                <use id="蒙版" fill="#000000" xlink:href="#path-5"></use>
                                <path d="M-41.0441961,231.558725 C41.8259707,382.460484 161.860311,430.221913 319.058824,374.843011 C409.894002,342.843011 454.314354,247.980892 471.382353,261.296379 C493.181267,278.302657 454.970346,385.394017 358.092146,478.308725 C242.937891,588.751776 97.0347242,621.382526 -79.6173536,576.200974 L-41.0441961,231.558725 Z" id="路径-25" fill="url(#radialGradient-7)" filter="url(#filter-8)" mask="url(#mask-6)"></path>
                            </g>
                            <text id="command" stroke="none" fill="none" font-family="PingFangSC-Regular, PingFang SC" font-size="13.1764706" font-weight="normal" line-spacing="15.0588235">
                                <tspan x="564.764706" y="144.838204" fill="#666666">command</tspan>
                            </text>
                            <text id="知识库备份-2" stroke="none" fill="none" font-family="PingFangSC-Regular, PingFang SC" font-size="13.1764706" font-weight="normal" line-spacing="15.0588235">
                                <tspan x="585.470588" y="182.489211" fill="#666666">知识库</tspan>
                            </text>
                            <text id="Application备份-8" stroke="none" fill="none" font-family="PingFangSC-Regular, PingFang SC" font-size="13.1764706" font-weight="normal" line-spacing="15.0588235">
                                <tspan x="556.294118" y="220.140218" fill="#666666">Application</tspan>
                            </text>
                            <text id="liaosy" stroke="none" fill="none" font-family="PingFangSC-Regular, PingFang SC" font-size="13.1764706" font-weight="normal" line-spacing="15.0588235">
                                <tspan x="590.176471" y="277.267735" fill="#666666">liaosy</tspan>
                            </text>
                            <text id="yangfan" stroke="none" fill="none" font-family="PingFangSC-Regular, PingFang SC" font-size="13.1764706" font-weight="normal" line-spacing="15.0588235">
                                <tspan x="575.117647" y="314.918741" fill="#666666">yangfan</tspan>
                            </text>
                            <text id="zouwenan" stroke="none" fill="none" font-family="PingFangSC-Regular, PingFang SC" font-size="13.1764706" font-weight="normal" line-spacing="15.0588235">
                                <tspan x="562.882353" y="353.511023" fill="#666666">zouwenan</tspan>
                            </text>
                            <text id="zouwenan备份-5" stroke="none" fill="none" font-family="PingFangSC-Regular, PingFang SC" font-size="13.1764706" font-weight="normal" line-spacing="15.0588235">
                                <tspan x="562.882353" y="414.693909" fill="#666666">zouwenan</tspan>
                            </text>
                            <rect id="矩形" stroke="none" fill="#5A5D6D" fill-rule="evenodd" opacity="0.604189918" x="41.4705882" y="129.895973" width="150.588235" height="16.0016779" rx="4.70588235"></rect>
                            <rect id="矩形备份-8" stroke="none" fill="#5A5D6D" fill-rule="evenodd" opacity="0.604189918" x="41.4705882" y="168.488255" width="198.588235" height="16.0016779" rx="4.70588235"></rect>
                            <rect id="矩形备份-13" stroke="none" fill="#5A5D6D" fill-rule="evenodd" opacity="0.604189918" x="41.4705882" y="207.080537" width="109.176471" height="16.0016779" rx="4.70588235"></rect>
                            <rect id="矩形备份-16" stroke="none" fill="#5A5D6D" fill-rule="evenodd" opacity="0.604189918" x="41.4705882" y="263.266779" width="142.117647" height="16.0016779" rx="4.70588235"></rect>
                            <rect id="矩形备份-17" stroke="none" fill="#5A5D6D" fill-rule="evenodd" opacity="0.604189918" x="41.4705882" y="300.917785" width="207.058824" height="16.0016779" rx="4.70588235"></rect>
                            <rect id="矩形备份-18" stroke="none" fill="#5A5D6D" fill-rule="evenodd" opacity="0.604189918" x="41.4705882" y="431.755034" width="85.6470588" height="16.0016779" rx="4.70588235"></rect>
                            <rect id="矩形备份-22" stroke="none" fill="#5A5D6D" fill-rule="evenodd" opacity="0.604189918" x="41.4705882" y="395.045302" width="169.411765" height="16.0016779" rx="4.70588235"></rect>
                            <rect id="矩形备份-21" stroke="none" fill="#5A5D6D" fill-rule="evenodd" opacity="0.604189918" x="41.4705882" y="337.627517" width="348.235294" height="16.0016779" rx="4.70588235"></rect>
                            <text id="Google-Drive" stroke="none" fill="none" font-family="PingFangSC-Regular, PingFang SC" font-size="11.2941176" font-weight="normal" line-spacing="15.0588235">
                                <tspan x="40.5294118" y="247.029479" fill="#666666">Google Drive</tspan>
                            </text>
                            <text id="Yuque" stroke="none" fill="none" font-family="PingFangSC-Regular, PingFang SC" font-size="11.2941176" font-weight="normal" line-spacing="15.0588235">
                                <tspan x="41.4705882" y="376.925453" fill="#666666">Yuque</tspan>
                            </text>
                            <line x1="85.2352941" y1="373.86647" x2="606.647059" y2="373.866422" id="路径-7" stroke-opacity="0.1" stroke="#FFFFFF" stroke-width="1" fill="none"></line>
                            <g id="编组备份-10" stroke="none" stroke-width="1" fill="none" fill-rule="evenodd" transform="translate(16.0588, 235.9698)">
                                <polygon id="路径" fill="#666666" fill-rule="nonzero" points="5.01960784 5.0018308e-16 10.0387744 5.0018308e-16 15.0583822 8.7852349 10.0392157 8.7852349"></polygon>
                                <polygon id="路径" fill="#666666" fill-rule="nonzero" points="2.46457229 13.1778523 4.99754363 8.7852349 15.0588235 8.7852349 12.548799 13.1778523"></polygon>
                                <polygon id="路径" fill="#666666" fill-rule="nonzero" points="0 8.83118844 2.46457229 13.1778523 7.52919112 4.39261745 5.01916656 0"></polygon>
                            </g>
                            <line x1="114.411765" y1="243.029221" x2="606.647059" y2="243.029221" id="路径-7" stroke-opacity="0.1" stroke="#FFFFFF" stroke-width="1" fill="none"></line>
                            <line x1="114.411765" y1="109.658416" x2="606.647059" y2="109.658416" id="路径-7备份" stroke-opacity="0.1" stroke="#FFFFFF" stroke-width="1" fill="none"></line>
                            <g id="语雀" stroke="none" stroke-width="1" fill="none" fill-rule="evenodd" transform="translate(14.0588, 363)">
                                <rect id="矩形" fill="#666666" fill-rule="nonzero" opacity="0" x="0" y="0" width="19" height="19"></rect>
                                <path d="M15.6766827,7.33322176 C15.4981971,6.59280338 15.8551683,5.41264413 17,4.99545408 L15.7758413,4.92780164 C15.7758413,4.92780164 15.3125,3.23649062 13.186899,3.08615187 C11.0612981,2.93393387 9.67127404,3.02977483 9.67127404,3.02977483 C9.67127404,3.02977483 11.2469952,4.07462919 10.6159856,5.93695055 C10.1544471,6.92354865 9.4296875,7.7334987 8.65444712,8.65620282 C8.63100962,8.68063287 8.609375,8.70506292 8.59134615,8.7257345 C6.02764423,11.7381473 2,16.5301952 2,16.5301952 C6.43329327,17.7404222 9.40444712,16.4118035 11.1622596,14.8182126 C11.531851,14.8144542 11.8094952,14.8125749 11.9969952,14.8125749 C14.4453125,14.8125749 16.515024,12.6025952 16.4302885,10.1445565 C16.3725962,8.45512474 15.8551683,8.07364014 15.6766827,7.33322176 Z" id="路径" fill="#666666" fill-rule="nonzero"></path>
                            </g>
                            <text id="My-Device" stroke="none" fill="none" font-family="PingFangSC-Regular, PingFang SC" font-size="11.2941176" font-weight="normal" line-spacing="15.0588235">
                                <tspan x="41.4705882" y="114.599949" fill="#666666">My Device</tspan>
                            </text>
                            <rect id="矩形备份-7" stroke="none" fill="#6000FF" fill-rule="evenodd" x="15.1176471" y="128.954698" width="18.8235294" height="18.8255034" rx="5.64705882"></rect>
                            <rect id="矩形备份-12" stroke="none" fill="#FFFFFF" fill-rule="evenodd" x="15.1176471" y="166.605705" width="18.8235294" height="18.8255034" rx="5.64705882"></rect>
                            <rect id="矩形备份-29" stroke="none" fill="#FFFFFF" fill-rule="evenodd" x="15.1176471" y="204.256711" width="18.8235294" height="18.8255034" rx="5.64705882"></rect>
                            <g id="编组备份-9" stroke="none" stroke-width="1" fill="none" fill-rule="evenodd" transform="translate(17, 169.4295)">
                                <polygon id="路径" fill="#FFC107" fill-rule="nonzero" points="5.01960784 5.0018308e-16 10.0387744 5.0018308e-16 15.0583822 8.7852349 10.0392157 8.7852349"></polygon>
                                <polygon id="路径" fill="#1976D2" fill-rule="nonzero" points="2.46457229 13.1778523 4.99754363 8.7852349 15.0588235 8.7852349 12.548799 13.1778523"></polygon>
                                <polygon id="路径" fill="#4CAF50" fill-rule="nonzero" points="0 8.83118844 2.46457229 13.1778523 7.52919112 4.39261745 5.01916656 0"></polygon>
                            </g>
                            <g id="folder-search备份-2" stroke="none" stroke-width="1" fill="none" fill-rule="evenodd" transform="translate(17.9412, 131.7785)">
                                <rect id="矩形备份" x="0" y="0" width="13.1764706" height="13.1778523"></rect>
                                <g id="编组" transform="translate(0.9412, 1.8826)" stroke="#FFFFFF" stroke-linecap="round" stroke-linejoin="round" stroke-width="1.25490196">
                                    <path d="M4.91294118,9.77880621 L1.12941176,9.77880621 C0.505654871,9.77880621 0,9.26373612 0,8.62836495 L0,1.15049674 C0,0.51512558 0.505654871,0 0,0 L3.33176471,0 C3.71557689,-0.00377754359 4.07502925,0.191211086 4.28611765,0.51775405 L4.74352941,1.20801881 C4.95242681,1.53113193 5.30677479,1.72565367 5.68658824,1.72571738 L10.1647059,1.72571738 C10.7884628,1.72571738 11.2941176,2.24078747 11.2941176,2.87615864 L11.2941176,5.23456323" id="路径"></path>
                                    <line x1="10.7294118" y1="10.3540268" x2="9.65647059" y2="9.26110765" id="路径"></line>
                                    <ellipse id="椭圆形" cx="8.47058824" cy="8.05314432" rx="1.69411765" ry="1.72566189"></ellipse>
                                </g>
                            </g>
                            <g id="chrome备份-2" stroke="none" stroke-width="1" fill="none" fill-rule="evenodd" transform="translate(17, 206.1393)">
                                <rect id="矩形" fill="#000000" fill-rule="nonzero" opacity="0" x="0" y="0" width="15.0586006" height="15.0601797"></rect>
                                <path d="M1.81832602,2.6229862 C5.31820067,-1.45017471 11.8084575,-0.646337615 14.2341422,4.11331158 L8.40333146,4.11331158 C7.35299407,4.11331158 6.6747247,4.0894712 5.93998558,4.47600601 C5.07663072,4.93095874 4.42534624,5.77369639 4.19758491,6.7632708 L1.81832602,2.62361861 L1.81832602,2.6229862 Z" id="路径" fill="#EA4335" fill-rule="nonzero"></path>
                                <path d="M5.02455796,7.53008985 C5.02455796,8.91061123 6.14704134,10.0338447 7.52678562,10.0338447 C8.90716224,10.0338447 10.029028,8.91061123 10.029028,7.53008985 C10.029028,6.14956848 8.9065446,5.02633498 7.52678562,5.02633498 C6.1464237,5.02633498 5.02455796,6.14956848 5.02455796,7.53008985 Z" id="路径" fill="#4285F4" fill-rule="nonzero"></path>
                                <path d="M8.49806535,10.8075615 C7.09323321,11.224849 5.44996342,10.7617485 4.5495797,9.20741736 C3.8618987,8.02142821 2.04608735,4.85754036 1.22099663,3.4192932 C-1.66962234,7.84948626 0.821943713,13.8880006 6.06924837,14.9183581 L8.49744771,10.8075615 L8.49806535,10.8075615 Z" id="路径" fill="#34A853" fill-rule="nonzero"></path>
                                <path d="M9.85083944,5.02633498 C11.015605,6.11379314 11.2776598,7.86049035 10.4833007,9.24193518 C9.88660362,10.2710426 7.9810583,13.487641 7.05746904,15.0451195 C12.4641243,15.378326 16.4063453,10.0790253 14.6256658,5.02570257 L9.85083944,5.02570257 L9.85083944,5.02633498 Z" id="路径" fill="#FBBC05" fill-rule="nonzero"></path>
                            </g>
                            <rect id="矩形备份-30" stroke="none" fill="#E76B00" fill-rule="evenodd" x="15.1176471" y="336.686242" width="18.8235294" height="18.8255034" rx="5.64705882"></rect>
                            <rect id="矩形备份-31" stroke="none" fill="#E76B00" fill-rule="evenodd" x="15.1176471" y="391.280201" width="18.8235294" height="18.8255034" rx="5.64705882"></rect>
                            <rect id="矩形备份-32" stroke="none" fill="#26B175" fill-rule="evenodd" x="15.1176471" y="428.931208" width="18.8235294" height="18.8255034" rx="9.41176471"></rect>
                            <g id="x_头像" stroke="none" stroke-width="1" fill="none" fill-rule="evenodd" transform="translate(19.0588, 433)">
                                <rect id="矩形" fill="#FFFFFF" fill-rule="nonzero" opacity="0" x="0" y="0" width="11" height="11"></rect>
                                <path d="M2.49057617,0 L3.52830371,0 L3.52830371,1.03773828 L2.49056543,1.03773828 L2.49057617,0 Z M3.73585352,0 L4.77358105,0 L4.77358105,1.03773828 L3.73585352,1.03773828 L3.73585352,0 Z M4.98113086,0 L6.01886914,0 L6.01886914,1.03773828 L4.98113086,1.03773828 L4.98113086,0 Z M6.22641895,0 L7.26414648,0 L7.26414648,1.03773828 L6.22641895,1.03773828 L6.22641895,0 Z M7.47169629,0 L8.50943457,0 L8.50943457,1.03773828 L7.47169629,1.03773828 L7.47169629,0 Z M1.24528809,1.24528809 L2.28301562,1.24528809 L2.28301562,2.28301562 L1.24528809,2.28301562 L1.24528809,1.24528809 Z M3.73585352,1.24528809 L4.77358105,1.24528809 L4.77358105,2.28301562 L3.73585352,2.28301562 L3.73585352,1.24528809 Z M4.98113086,1.24528809 L6.01886914,1.24528809 L6.01886914,2.28301562 L4.98113086,2.28301562 L4.98113086,1.24528809 Z M6.22641895,1.24528809 L7.26414648,1.24528809 L7.26414648,2.28301562 L6.22641895,2.28301562 L6.22641895,1.24528809 Z M2.49056543,2.49056543 L3.52830371,2.49056543 L3.52830371,3.52830371 L2.49056543,3.52830371 L2.49056543,2.49056543 Z M3.73585352,2.49056543 L4.77358105,2.49056543 L4.77358105,3.52830371 L3.73585352,3.52830371 L3.73585352,2.49056543 Z M4.98113086,2.49056543 L6.01886914,2.49056543 L6.01886914,3.52830371 L4.98113086,3.52830371 L4.98113086,2.49056543 Z M6.22641895,2.49056543 L7.26414648,2.49056543 L7.26414648,3.52830371 L6.22641895,3.52830371 L6.22641895,2.49056543 Z M7.47169629,2.49056543 L8.50943457,2.49056543 L8.50943457,3.52830371 L7.47169629,3.52830371 L7.47169629,2.49056543 Z M2.49057617,3.73585352 L3.52831445,3.73585352 L3.52831445,4.77358105 L2.49057617,4.77358105 L2.49057617,3.73585352 Z M3.73586426,3.73585352 L4.7735918,3.73585352 L4.7735918,4.77358105 L3.73586426,4.77358105 L3.73586426,3.73585352 Z M4.9811416,3.73585352 L6.01887988,3.73585352 L6.01887988,4.77358105 L4.9811416,4.77358105 L4.9811416,3.73585352 Z M6.22642969,3.73585352 L7.26415723,3.73585352 L7.26415723,4.77358105 L6.22642969,4.77358105 L6.22642969,3.73585352 Z M7.47170703,3.73585352 L8.50944531,3.73585352 L8.50944531,4.77358105 L7.47170703,4.77358105 L7.47170703,3.73585352 Z M3.73585352,4.98113086 L4.77358105,4.98113086 L4.77358105,6.01886914 L3.73585352,6.01886914 L3.73585352,4.98113086 Z M4.98113086,4.98113086 L6.01886914,4.98113086 L6.01886914,6.01886914 L4.98113086,6.01886914 L4.98113086,4.98113086 Z M6.22641895,4.98113086 L7.26414648,4.98113086 L7.26414648,6.01886914 L6.22641895,6.01886914 L6.22641895,4.98113086 Z M2.49056543,6.22641895 L3.52830371,6.22641895 L3.52830371,7.26414648 L2.49056543,7.26414648 L2.49056543,6.22641895 Z M3.73585352,6.22641895 L4.77358105,6.22641895 L4.77358105,7.26414648 L3.73585352,7.26414648 L3.73585352,6.22641895 Z M4.98113086,6.22641895 L6.01886914,6.22641895 L6.01886914,7.26414648 L4.98113086,7.26414648 L4.98113086,6.22641895 Z M6.22641895,6.22641895 L7.26414648,6.22641895 L7.26414648,7.26414648 L6.22641895,7.26414648 L6.22641895,6.22641895 Z M7.47169629,6.22641895 L8.50943457,6.22641895 L8.50943457,7.26414648 L7.47169629,7.26414648 L7.47169629,6.22641895 Z M2.49057617,7.47169629 L3.52831445,7.47169629 L3.52831445,8.50943457 L2.49057617,8.50943457 L2.49057617,7.47169629 Z M3.73586426,7.47169629 L4.7735918,7.47169629 L4.7735918,8.50943457 L3.73586426,8.50943457 L3.73586426,7.47169629 Z M4.9811416,7.47169629 L6.01887988,7.47169629 L6.01887988,8.50943457 L4.9811416,8.50943457 L4.9811416,7.47169629 Z M6.22642969,7.47169629 L7.26415723,7.47169629 L7.26415723,8.50943457 L6.22642969,8.50943457 L6.22642969,7.47169629 Z M7.47170703,7.47169629 L8.50944531,7.47169629 L8.50944531,8.50943457 L7.47170703,8.50943457 L7.47170703,7.47169629 Z M8.71699512,1.24528809 L9.75472266,1.24528809 L9.75472266,2.28301562 L8.71699512,2.28301562 L8.71699512,1.24528809 Z M2.49056543,9.96226172 L3.52830371,9.96226172 L3.52830371,11 L2.49056543,11 L2.49056543,9.96226172 Z M3.73585352,9.96226172 L4.77358105,9.96226172 L4.77358105,11 L3.73585352,11 L3.73585352,9.96226172 Z M4.98113086,9.96226172 L6.01886914,9.96226172 L6.01886914,11 L4.98113086,11 L4.98113086,9.96226172 Z M6.22641895,9.96226172 L7.26414648,9.96226172 L7.26414648,11 L6.22641895,11 L6.22641895,9.96226172 Z M7.47169629,9.96226172 L8.50943457,9.96226172 L8.50943457,11 L7.47169629,11 L7.47169629,9.96226172 Z M2.49057617,8.71698437 L3.52831445,8.71698437 L3.52831445,9.75471191 L2.49057617,9.75471191 L2.49057617,8.71698437 Z M1.24529883,8.71698437 L2.28302637,8.71698437 L2.28302637,9.75471191 L1.24529883,9.75471191 L1.24529883,8.71698437 Z M3.73586426,8.71698437 L4.7735918,8.71698437 L4.7735918,9.75471191 L3.73586426,9.75471191 L3.73586426,8.71698437 Z M4.9811416,8.71698437 L6.01887988,8.71698437 L6.01887988,9.75471191 L4.9811416,9.75471191 L4.9811416,8.71698437 Z M6.22642969,8.71698437 L7.26415723,8.71698437 L7.26415723,9.75471191 L6.22642969,9.75471191 L6.22642969,8.71698437 Z M7.47170703,8.71698437 L8.50944531,8.71698437 L8.50944531,9.75471191 L7.47170703,9.75471191 L7.47170703,8.71698437 Z M8.71699512,8.71698437 L9.75472266,8.71698437 L9.75472266,9.75471191 L8.71699512,9.75471191 L8.71699512,8.71698437 Z M0,8.50942383 L0,7.47168555 L1.03773828,7.47168555 L1.03773828,8.50942383 L0,8.50942383 Z M0,7.26413574 L0,6.2264082 L1.03773828,6.2264082 L1.03773828,7.26413574 L0,7.26413574 Z M0,6.0188584 L0,4.98112012 L1.03773828,4.98112012 L1.03773828,6.0188584 L0,6.0188584 Z M0,4.77357031 L0,3.73584277 L1.03773828,3.73584277 L1.03773828,4.77357031 L0,4.77357031 Z M0,3.52829297 L0,2.49055469 L1.03773828,2.49055469 L1.03773828,3.52829297 L0,3.52829297 Z M1.24528809,8.50942383 L1.24528809,7.47168555 L2.28301562,7.47168555 L2.28301562,8.50942383 L1.24528809,8.50942383 Z M9.96226172,8.50942383 L9.96226172,7.47168555 L11,7.47168555 L11,8.50942383 L9.96226172,8.50942383 Z M9.96226172,7.26413574 L9.96226172,6.2264082 L11,6.2264082 L11,7.26413574 L9.96226172,7.26413574 Z M9.96226172,6.0188584 L9.96226172,4.98112012 L11,4.98112012 L11,6.0188584 L9.96226172,6.0188584 Z M9.96226172,4.77357031 L9.96226172,3.73584277 L11,3.73584277 L11,4.77357031 L9.96226172,4.77357031 Z M9.96226172,3.52829297 L9.96226172,2.49055469 L11,2.49055469 L11,3.52829297 L9.96226172,3.52829297 Z M8.71698437,8.50942383 L8.71698437,7.47168555 L9.75471191,7.47168555 L9.75471191,8.50942383 L8.71698437,8.50942383 Z" id="形状" fill="#FFFFFF" fill-rule="nonzero"></path>
                            </g>
                            <rect id="矩形备份-33" stroke="none" fill="#FFA000" fill-rule="evenodd" x="15.1176471" y="261.384228" width="18.8235294" height="18.8255034" rx="5.64705882"></rect>
                            <rect id="矩形备份-34" stroke="none" fill="#005CD4" fill-rule="evenodd" x="15.1176471" y="299.035235" width="18.8235294" height="18.8255034" rx="5.64705882"></rect>
                            <g id="图片备份-2" stroke="none" stroke-width="1" fill="none" fill-rule="evenodd" transform="translate(17, 263.2668)">
                                <rect id="矩形" fill="#FFFFFF" fill-rule="nonzero" opacity="0" x="0" y="0" width="15.0588235" height="15.0604027"></rect>
                                <path d="M12.7633676,8.44997426 L12.7633676,3.79127989 C12.7633676,3.59295261 12.6845973,3.40274697 12.5443749,3.26250704 C12.4041524,3.1222671 12.2139682,3.04348089 12.0156618,3.04348089 L3.04316176,3.04348089 C2.84485529,3.04348089 2.65467114,3.1222671 2.51444867,3.26250704 C2.37422619,3.40274697 2.29545588,3.59295261 2.29545588,3.79127989 L2.29545588,11.1420065 L8.62105882,7.35072664 C9.33197949,6.92355675 10.2205646,6.92355675 10.9314853,7.35072664 L12.7633676,8.44997426 Z M12.7633676,10.1923187 L10.1538676,8.62944896 C9.92252664,8.49587016 9.63750277,8.49587016 9.40616176,8.62944896 L3.73852941,12.0169218 L12.0156618,12.0169218 C12.2139682,12.0169218 12.4041524,11.9381356 12.5443749,11.7978956 C12.6845973,11.6576557 12.7633676,11.4674501 12.7633676,11.2691228 L12.7633676,10.1923187 Z M3.04316176,1.54791231 L12.0156618,1.54791231 C12.6105761,1.54791231 13.1811241,1.7842669 13.6017907,2.20498035 C14.0224572,2.6256938 14.2587794,3.19630316 14.2587794,3.79127989 L14.2587794,11.2691228 C14.2587794,11.8640995 14.0224572,12.4347089 13.6017907,12.8554223 C13.1811241,13.2761358 12.6105761,13.5124904 12.0156618,13.5124904 L3.04316176,13.5124904 C2.44824743,13.5124904 1.87769945,13.2761358 1.45703287,12.8554223 C1.03636628,12.4347089 0.800044118,11.8640995 0.800044118,11.2691228 L0.800044118,3.79127989 C0.800044118,3.19630316 1.03636628,2.6256938 1.45703287,2.20498035 C1.87769945,1.7842669 2.44824743,1.54791231 3.04316176,1.54791231 L3.04316176,1.54791231 Z M4.91242647,6.78241705 C4.29300855,6.78241705 3.79088235,6.28021369 3.79088235,5.66073081 C3.79088235,5.04124793 4.29302816,4.53906418 4.91244608,4.53906418 C5.531864,4.53906418 6.034,5.04125774 6.034,5.66074061 C6.034,6.2802254 5.53186101,6.78241705 4.91244118,6.78241705 L4.91242647,6.78241705 Z" id="形状" fill="#FFFFFF" fill-rule="nonzero"></path>
                            </g>
                            <g id="word备份-2" stroke="none" stroke-width="1" fill="none" fill-rule="evenodd" transform="translate(17.9412, 301.8591)">
                                <rect id="矩形" fill="#FFFFFF" fill-rule="nonzero" opacity="0" x="0" y="0" width="13.1764706" height="13.1778523"></rect>
                                <path d="M9.35017279,2.19631301 L12.3441526,2.19631301 L12.3441526,10.9815393 L9.35017279,10.9815393 L9.35017279,2.19631301 Z M0.366007353,10.9815393 L0.366007353,2.19631301 L8.75137684,0 L8.75137684,13.1778523 L0.366007353,10.9815393 Z M2.67188971,3.66050882 L1.44429044,3.66050882 L2.29782721,8.72667239 L3.86948162,8.72667239 L4.54294853,4.86116045 L5.18714154,8.72667239 L6.77490625,8.72667239 L7.64235294,3.66050882 L6.47476838,3.66050882 L5.87597243,7.81886764 L5.20250551,3.66050882 L3.91414522,3.66050882 L3.18065074,7.81886764 L2.67188971,3.66050882 Z" id="形状" fill="#FFFFFF" fill-rule="nonzero"></path>
                            </g>
                            <g id="file-ppt-2-fill备份-6" stroke="none" stroke-width="1" fill="none" fill-rule="evenodd" transform="translate(17, 338.5688)">
                                <rect id="矩形" fill="#FFFFFF" fill-rule="nonzero" opacity="0" x="0" y="0" width="15.0588235" height="15.0604027"></rect>
                                <path d="M10.6666618,1.88255034 L13.1764706,1.88255034 C13.5230049,1.88255034 13.8039265,2.16350136 13.8039265,2.51007202 L13.8039265,12.5503307 C13.8039265,12.8969013 13.5230049,13.1778523 13.1764706,13.1778523 L10.6666618,13.1778523 L10.6666618,1.88255034 Z M1.79388235,1.80536577 L9.68094118,0.678968252 C9.77089927,0.666058824 9.86203441,0.692797386 9.9307621,0.752264371 C9.99948979,0.811731356 10.0390556,0.898082506 10.0392206,0.988971345 L10.0392206,14.0714313 C10.0390298,14.162193 9.99954919,14.2484249 9.9309696,14.3078687 C9.86239001,14.3673125 9.7714318,14.3941429 9.68157353,14.3814344 L1.79323529,13.2550369 C1.48401042,13.2109845 1.25426471,12.9461744 1.25426471,12.6337953 L1.25426471,2.42660738 C1.25426471,2.1142283 1.48401042,1.8494182 1.79323529,1.80536577 L1.79388235,1.80536577 Z M3.13725,5.02012933 L3.13725,10.0402734 L4.39216176,10.0402734 L4.39216176,8.78523 L8.15686765,8.78523 L8.15686765,5.02012933 L3.13725,5.02012933 L3.13725,5.02012933 Z M4.39216176,6.27517269 L6.90195588,6.27517269 L6.90195588,7.53020134 L4.39216176,7.53020134 L4.39216176,6.27517269 L4.39216176,6.27517269 Z" id="形状" fill="#FFFFFF" fill-rule="nonzero"></path>
                            </g>
                            <g id="file-ppt-2-fill备份-7" stroke="none" stroke-width="1" fill="none" fill-rule="evenodd" transform="translate(17, 393.1628)">
                                <rect id="矩形" fill="#FFFFFF" fill-rule="nonzero" opacity="0" x="0" y="0" width="15.0588235" height="15.0604027"></rect>
                                <path d="M10.6666618,1.88255034 L13.1764706,1.88255034 C13.5230049,1.88255034 13.8039265,2.16350136 13.8039265,2.51007202 L13.8039265,12.5503307 C13.8039265,12.8969013 13.5230049,13.1778523 13.1764706,13.1778523 L10.6666618,13.1778523 L10.6666618,1.88255034 Z M1.79388235,1.80536577 L9.68094118,0.678968252 C9.77089927,0.666058824 9.86203441,0.692797386 9.9307621,0.752264371 C9.99948979,0.811731356 10.0390556,0.898082506 10.0392206,0.988971345 L10.0392206,14.0714313 C10.0390298,14.162193 9.99954919,14.2484249 9.9309696,14.3078687 C9.86239001,14.3673125 9.7714318,14.3941429 9.68157353,14.3814344 L1.79323529,13.2550369 C1.48401042,13.2109845 1.25426471,12.9461744 1.25426471,12.6337953 L1.25426471,2.42660738 C1.25426471,2.1142283 1.48401042,1.8494182 1.79323529,1.80536577 L1.79388235,1.80536577 Z M3.13725,5.02012933 L3.13725,10.0402734 L4.39216176,10.0402734 L4.39216176,8.78523 L8.15686765,8.78523 L8.15686765,5.02012933 L3.13725,5.02012933 L3.13725,5.02012933 Z M4.39216176,6.27517269 L6.90195588,6.27517269 L6.90195588,7.53020134 L4.39216176,7.53020134 L4.39216176,6.27517269 L4.39216176,6.27517269 Z" id="形状" fill="#FFFFFF" fill-rule="nonzero"></path>
                            </g>
                            <rect id="输入框备份" stroke="none" fill="#202126" fill-rule="evenodd" x="7.58823529" y="7.53020134" width="624.941176" height="45.1812081" rx="3.76470588"></rect>
                            <line x1="0.0588235294" y1="87.0678589" x2="640.058824" y2="87.0678589" id="分割线-上备份" stroke-opacity="0.1" stroke="#FFFFFF" stroke-width="1" fill="none"></line>
                            <text id="Coco" stroke="none" fill="none" font-family="PingFangSC-Regular, PingFang SC" font-size="15.0588235" font-weight="normal" line-spacing="15.0588235">
                                <tspan x="15.1176471" y="38.59156" fill="#D8D8D8">Coco</tspan>
                            </text>
                            <g id="library备份-3" stroke="none" stroke-width="1" fill="none" fill-rule="evenodd" transform="translate(15.1176, 62.1242)">
                                <rect id="矩形" x="0" y="0" width="15.0588235" height="15.0604027"></rect>
                                <g id="编组" transform="translate(0.9412, 1.8826)" stroke="#D8D8D8" stroke-linecap="round" stroke-linejoin="round" stroke-width="1.25490196">
                                    <line x1="0.31372549" y1="4.39261745" x2="0.31372549" y2="6.27516779" id="路径"></line>
                                    <line x1="2.82352941" y1="1.88255034" x2="2.82352941" y2="8.7852349" id="路径"></line>
                                    <line x1="5.33333333" y1="0" x2="5.33333333" y2="11.295302" id="路径"></line>
                                    <line x1="7.84313725" y1="3.13758389" x2="7.84313725" y2="7.53020134" id="路径"></line>
                                    <line x1="10.3529412" y1="1.25503356" x2="10.3529412" y2="9.41275168" id="路径"></line>
                                    <line x1="12.8627451" y1="4.39261745" x2="12.8627451" y2="6.27516779" id="路径"></line>
                                </g>
                            </g>
                            <g id="image备份-2" stroke="none" stroke-width="1" fill="none" fill-rule="evenodd" transform="translate(41.4706, 62.1242)">
                                <rect id="矩形备份" x="0" y="0" width="15.0588235" height="15.0604027"></rect>
                                <g id="编组" transform="translate(1.8824, 1.8826)" stroke="#D8D8D8" stroke-linecap="round" stroke-linejoin="round" stroke-width="1.25490196">
                                    <rect id="矩形" x="0" y="0" width="11.2941176" height="11.295302" rx="1.25490196"></rect>
                                    <ellipse id="椭圆形" cx="3.76470588" cy="3.76510067" rx="1.25490196" ry="1.25503356"></ellipse>
                                    <path d="M11.2941176,7.53020134 L9.35780392,5.59368456 C8.86776489,5.10374213 8.07341158,5.10374213 7.58337255,5.59368456 L1.88235294,11.295302" id="路径"></path>
                                </g>
                            </g>
                            <g id="切换按钮备份" stroke="none" stroke-width="1" fill="none" fill-rule="evenodd" transform="translate(587.3529, 61.1829)">
                                <rect id="矩形备份-4" fill="#6000FF" x="0" y="0" width="37.6470588" height="16.942953" rx="8.47058824"></rect>
                                <g id="编组-2备份" transform="translate(17.8824, 0.9413)">
                                    <g id="编组" transform="translate(1.8824, 1.8826)" stroke="#FFFFFF" stroke-linecap="round" stroke-linejoin="round" stroke-width="1.25490196">
                                        <ellipse id="椭圆形" cx="5.01960784" cy="5.02013423" rx="5.01960784" ry="5.02013423"></ellipse>
                                        <line x1="11.2941176" y1="11.295302" x2="8.59607843" y2="8.59697987" id="路径"></line>
                                    </g>
                                    <rect id="矩形" x="0" y="0" width="15.0588235" height="15.0604027"></rect>
                                </g>
                                <rect id="矩形备份-5" fill="#FFFFFF" x="0.941176471" y="0.941275168" width="15.0588235" height="15.0604027" rx="7.52941176"></rect>
                            </g>
                            <g id="imac" stroke="none" stroke-width="1" fill="none" fill-rule="evenodd" transform="translate(17, 102.599)">
                                <rect id="矩形" fill="#666666" fill-rule="nonzero" opacity="0" x="0" y="0" width="15.0588235" height="15.0604027"></rect>
                                <path d="M14.1176471,0.941275168 L0.941176471,0.941275168 C0.551328412,0.941275168 0.235294118,1.2573426 0.235294118,1.64723154 L0.235294118,11.0599832 C0.235294118,11.4498722 0.551328412,11.7659396 0.941176471,11.7659396 L5.41176471,11.7659396 L5.41176471,12.9425336 L4.47058824,13.8838087 L4.47058824,14.1191275 L10.5882353,14.1191275 L10.5882353,13.8838087 L9.64705882,12.9425336 L9.64705882,11.7659396 L14.1176471,11.7659396 C14.5074951,11.7659396 14.8235294,11.4498722 14.8235294,11.0599832 L14.8235294,1.64723154 C14.8235294,1.2573426 14.5074951,0.941275168 14.1176471,0.941275168 L14.1176471,0.941275168 Z M13.8823529,9.88338926 L1.17647059,9.88338926 L1.17647059,1.88255034 L13.8823529,1.88255034 L13.8823529,9.88338926 Z" id="形状" fill="#666666" fill-rule="nonzero"></path>
                            </g>
                            <g id="员工" stroke="none" stroke-width="1" fill="none" fill-rule="evenodd" transform="translate(609, 433.6376)">
                                <rect id="矩形" fill="#666666" fill-rule="nonzero" opacity="0" x="0" y="0" width="15.0588235" height="15.0604027"></rect>
                                <path d="M12.8661765,8.49059616 C12.4823529,8.09055422 12.0308824,7.7714031 11.5382353,7.54785025 C11.6176471,7.4801961 11.6941176,7.40665898 11.7661765,7.33018037 C12.2411765,6.81983274 12.5029412,6.15652789 12.5029412,5.45939597 C12.5029412,3.94600199 11.2720588,2.71351982 9.75735294,2.71351982 C9.59558824,2.71351982 9.43676471,2.7267565 9.27941176,2.75470061 C9.175,2.61350933 9.06029412,2.47967177 8.93529412,2.35465866 C8.27941176,1.69870753 7.40735294,1.33690489 6.47941176,1.33690489 C5.55147059,1.33690489 4.67941176,1.69870753 4.02352941,2.35465866 C3.36764706,3.01060979 3.00588235,3.88276007 3.00588235,4.81079855 C3.00588235,5.73883704 3.36764706,6.61098731 4.02352941,7.26693844 C4.18235294,7.42577863 4.35294118,7.5669699 4.53529412,7.68904153 C4.46323529,7.71551489 4.39264706,7.74492974 4.32205882,7.77434459 C3.66176471,8.05378565 3.06911765,8.4538276 2.55882353,8.96270449 C2.05,9.47158138 1.65,10.0657613 1.37058824,10.7261247 C1.08088235,11.4100199 0.935294118,12.1365667 0.935294118,12.8851746 C0.935294118,13.145496 0.952941176,13.4072882 0.989705882,13.6631974 L2.00882353,13.5205353 C1.97941176,13.3116899 1.96470588,13.0984323 1.96470588,12.8866453 C1.96470588,10.3952076 3.99117647,8.36999528 6.48088235,8.36999528 C8.97058824,8.36999528 10.9970588,10.3966784 10.9970588,12.8866453 C10.9970588,13.0984323 10.9823529,13.3116899 10.9529412,13.5205353 L11.9720588,13.6631974 C12.0073529,13.4072882 12.0264706,13.145496 12.0264706,12.8851746 C12.0264706,12.1365667 11.8794118,11.4100199 11.5911765,10.7261247 C11.3117647,10.0657613 10.9117647,9.47305212 10.4029412,8.96270449 C9.89411765,8.4538276 9.30147059,8.05378565 8.63970588,7.77434459 C8.56911765,7.74492974 8.49705882,7.71551489 8.425,7.68904153 C8.60588235,7.56549916 8.77794118,7.42430789 8.93676471,7.26693844 C9.59264706,6.61098731 9.95441176,5.73883704 9.95441176,4.81079855 C9.95441176,4.44311294 9.89705882,4.08425178 9.78823529,3.74303953 C10.7205882,3.7592177 11.475,4.52253303 11.475,5.45792523 C11.475,6.12711305 11.0838235,6.71688077 10.5147059,6.99779258 C10.275,7.11692271 10.1205882,7.35665373 10.1205882,7.62432886 L10.1205882,7.63903628 C10.1205882,7.95083368 10.3279412,8.22733326 10.6294118,8.3082241 C12.025,8.68767565 13.0382353,9.96133861 13.0382353,11.4703204 C13.0382353,11.6247483 13.0279412,11.7791763 13.0058824,11.9306628 L14.025,12.0733248 C14.0529412,11.8747745 14.0676471,11.6718121 14.0676471,11.4703204 C14.0661765,10.3554976 13.6397059,9.29656302 12.8661765,8.49059616 L12.8661765,8.49059616 Z M6.47941176,7.2551725 C5.13235294,7.2551725 4.03529412,6.15799864 4.03529412,4.81079855 C4.03529412,3.46359847 5.13235294,2.3664246 6.47941176,2.3664246 C7.82647059,2.3664246 8.92352941,3.46359847 8.92352941,4.81079855 C8.92352941,6.15799864 7.82794118,7.2551725 6.47941176,7.2551725 L6.47941176,7.2551725 Z" id="形状" fill="#666666" fill-rule="nonzero"></path>
                            </g>
                            <g id="225默认头像" stroke="none" stroke-width="1" fill="none" fill-rule="evenodd" transform="translate(571.3529, 263.2668)">
                                <rect id="矩形" fill="#666666" fill-rule="nonzero" opacity="0" x="0" y="0" width="15.0588235" height="15.0604027"></rect>
                                <path d="M7.52941176,0.941275168 C3.89411765,0.941275168 0.941176471,3.89452601 0.941176471,7.53020134 C0.941176471,11.1658767 3.89411765,14.1191275 7.52941176,14.1191275 C11.1647059,14.1191275 14.1176471,11.1658767 14.1176471,7.53020134 C14.1176471,3.89452601 11.1647059,0.941275168 7.52941176,0.941275168 Z M5.65882353,5.52999161 C5.71764706,4.58871644 6.48235294,3.83569631 7.42352941,3.77686661 C8.51764706,3.71803691 9.41176471,4.58871644 9.41176471,5.65941695 C9.41176471,6.69481963 8.56470588,7.54196728 7.52941176,7.54196728 C6.44705882,7.54196728 5.58823529,6.62422399 5.65882353,5.52999161 L5.65882353,5.52999161 Z M11.2941176,10.9776216 C11.2941176,11.1541107 11.1529412,11.295302 10.9764706,11.295302 L4.09411765,11.295302 C3.91764706,11.295302 3.77647059,11.1541107 3.77647059,10.9776216 L3.77647059,10.0363465 C3.77647059,8.78915688 6.28235294,8.15379614 7.52941176,8.15379614 C8.77647059,8.15379614 11.2823529,8.77739094 11.2823529,10.0363465 L11.2941176,10.9776216 L11.2941176,10.9776216 Z" id="形状" fill="#666666" fill-rule="nonzero"></path>
                            </g>
                            <g id="225默认头像" stroke="none" stroke-width="1" fill="none" fill-rule="evenodd" transform="translate(556.2941, 300.9178)">
                                <rect id="矩形" fill="#666666" fill-rule="nonzero" opacity="0" x="0" y="0" width="15.0588235" height="15.0604027"></rect>
                                <path d="M7.52941176,0.941275168 C3.89411765,0.941275168 0.941176471,3.89452601 0.941176471,7.53020134 C0.941176471,11.1658767 3.89411765,14.1191275 7.52941176,14.1191275 C11.1647059,14.1191275 14.1176471,11.1658767 14.1176471,7.53020134 C14.1176471,3.89452601 11.1647059,0.941275168 7.52941176,0.941275168 Z M5.65882353,5.52999161 C5.71764706,4.58871644 6.48235294,3.83569631 7.42352941,3.77686661 C8.51764706,3.71803691 9.41176471,4.58871644 9.41176471,5.65941695 C9.41176471,6.69481963 8.56470588,7.54196728 7.52941176,7.54196728 C6.44705882,7.54196728 5.58823529,6.62422399 5.65882353,5.52999161 L5.65882353,5.52999161 Z M11.2941176,10.9776216 C11.2941176,11.1541107 11.1529412,11.295302 10.9764706,11.295302 L4.09411765,11.295302 C3.91764706,11.295302 3.77647059,11.1541107 3.77647059,10.9776216 L3.77647059,10.0363465 C3.77647059,8.78915688 6.28235294,8.15379614 7.52941176,8.15379614 C8.77647059,8.15379614 11.2823529,8.77739094 11.2823529,10.0363465 L11.2941176,10.9776216 L11.2941176,10.9776216 Z" id="形状" fill="#666666" fill-rule="nonzero"></path>
                            </g>
                            <g id="225默认头像" stroke="none" stroke-width="1" fill="none" fill-rule="evenodd" transform="translate(544.0588, 339.5101)">
                                <rect id="矩形" fill="#666666" fill-rule="nonzero" opacity="0" x="0" y="0" width="15.0588235" height="15.0604027"></rect>
                                <path d="M7.52941176,0.941275168 C3.89411765,0.941275168 0.941176471,3.89452601 0.941176471,7.53020134 C0.941176471,11.1658767 3.89411765,14.1191275 7.52941176,14.1191275 C11.1647059,14.1191275 14.1176471,11.1658767 14.1176471,7.53020134 C14.1176471,3.89452601 11.1647059,0.941275168 7.52941176,0.941275168 Z M5.65882353,5.52999161 C5.71764706,4.58871644 6.48235294,3.83569631 7.42352941,3.77686661 C8.51764706,3.71803691 9.41176471,4.58871644 9.41176471,5.65941695 C9.41176471,6.69481963 8.56470588,7.54196728 7.52941176,7.54196728 C6.44705882,7.54196728 5.58823529,6.62422399 5.65882353,5.52999161 L5.65882353,5.52999161 Z M11.2941176,10.9776216 C11.2941176,11.1541107 11.1529412,11.295302 10.9764706,11.295302 L4.09411765,11.295302 C3.91764706,11.295302 3.77647059,11.1541107 3.77647059,10.9776216 L3.77647059,10.0363465 C3.77647059,8.78915688 6.28235294,8.15379614 7.52941176,8.15379614 C8.77647059,8.15379614 11.2823529,8.77739094 11.2823529,10.0363465 L11.2941176,10.9776216 L11.2941176,10.9776216 Z" id="形状" fill="#666666" fill-rule="nonzero"></path>
                            </g>
                            <g id="225默认头像" stroke="none" stroke-width="1" fill="none" fill-rule="evenodd" transform="translate(544.0588, 400.693)">
                                <rect id="矩形" fill="#666666" fill-rule="nonzero" opacity="0" x="0" y="0" width="15.0588235" height="15.0604027"></rect>
                                <path d="M7.52941176,0.941275168 C3.89411765,0.941275168 0.941176471,3.89452601 0.941176471,7.53020134 C0.941176471,11.1658767 3.89411765,14.1191275 7.52941176,14.1191275 C11.1647059,14.1191275 14.1176471,11.1658767 14.1176471,7.53020134 C14.1176471,3.89452601 11.1647059,0.941275168 7.52941176,0.941275168 Z M5.65882353,5.52999161 C5.71764706,4.58871644 6.48235294,3.83569631 7.42352941,3.77686661 C8.51764706,3.71803691 9.41176471,4.58871644 9.41176471,5.65941695 C9.41176471,6.69481963 8.56470588,7.54196728 7.52941176,7.54196728 C6.44705882,7.54196728 5.58823529,6.62422399 5.65882353,5.52999161 L5.65882353,5.52999161 Z M11.2941176,10.9776216 C11.2941176,11.1541107 11.1529412,11.295302 10.9764706,11.295302 L4.09411765,11.295302 C3.91764706,11.295302 3.77647059,11.1541107 3.77647059,10.9776216 L3.77647059,10.0363465 C3.77647059,8.78915688 6.28235294,8.15379614 7.52941176,8.15379614 C8.77647059,8.15379614 11.2823529,8.77739094 11.2823529,10.0363465 L11.2941176,10.9776216 L11.2941176,10.9776216 Z" id="形状" fill="#666666" fill-rule="nonzero"></path>
                            </g>
                            <g id="编组" stroke="none" stroke-width="1" fill="none" fill-rule="evenodd" transform="translate(613.7059, 103.5403)" stroke-linecap="round" stroke-linejoin="round">
                                <rect id="矩形" stroke="#666666" stroke-width="1.25490196" x="0" y="0" width="11.2941176" height="11.295302" rx="1.25490196"></rect>
                                <line x1="3.1372549" y1="5.64765101" x2="8.15686275" y2="5.64765101" id="路径" stroke="#666666" stroke-width="1.25490196"></line>
                                <polyline id="路径" stroke="#666666" stroke-width="1.25490196" points="5.64705882 8.15771812 8.15686275 5.64765101 5.64705882 3.13758389"></polyline>
                            </g>
                            <g id="编组备份" stroke="none" stroke-width="1" fill="none" fill-rule="evenodd" transform="translate(613.7059, 237.8523)" stroke-linecap="round" stroke-linejoin="round">
                                <rect id="矩形" stroke="#666666" stroke-width="1.25490196" x="0" y="0" width="11.2941176" height="11.295302" rx="1.25490196"></rect>
                                <line x1="3.1372549" y1="5.64765101" x2="8.15686275" y2="5.64765101" id="路径" stroke="#666666" stroke-width="1.25490196"></line>
                                <polyline id="路径" stroke="#666666" stroke-width="1.25490196" points="5.64705882 8.15771812 8.15686275 5.64765101 5.64705882 3.13758389"></polyline>
                            </g>
                            <g id="编组备份-2" stroke="none" stroke-width="1" fill="none" fill-rule="evenodd" transform="translate(613.7059, 367.7483)" stroke-linecap="round" stroke-linejoin="round">
                                <rect id="矩形" stroke="#666666" stroke-width="1.25490196" x="0" y="0" width="11.2941176" height="11.295302" rx="1.25490196"></rect>
                                <line x1="3.1372549" y1="5.64765101" x2="8.15686275" y2="5.64765101" id="路径" stroke="#666666" stroke-width="1.25490196"></line>
                                <polyline id="路径" stroke="#666666" stroke-width="1.25490196" points="5.64705882 8.15771812 8.15686275 5.64765101 5.64705882 3.13758389"></polyline>
                            </g>
                        </g>
                    </g>
                </g>
                <rect id="蒙版" fill="url(#linearGradient-9)" x="0" y="0" width="640" height="480" rx="11"></rect>
            </g>
        </g>
    </g>
</svg>