<?xml version="1.0" encoding="UTF-8"?>
<svg width="640px" height="480px" viewBox="0 0 640 480" version="1.1" xmlns="http://www.w3.org/2000/svg" xmlns:xlink="http://www.w3.org/1999/xlink">
    <title>编组 20</title>
    <defs>
        <linearGradient x1="50%" y1="55.2564649%" x2="50%" y2="96.6185996%" id="linearGradient-1">
            <stop stop-color="#000000" stop-opacity="0" offset="0%"></stop>
            <stop stop-color="#000000" offset="100%"></stop>
        </linearGradient>
    </defs>
    <g id="COCO" stroke="none" stroke-width="1" fill="none" fill-rule="evenodd">
        <g id="Coco--new2" transform="translate(-880, -1480)">
            <g id="编组-20" transform="translate(880, 1480)">
                <rect id="蒙版" stroke="#979797" fill="#25262D" opacity="0.308919271" x="111.5" y="73.5" width="528" height="406" rx="11"></rect>
                <rect id="蒙版" fill="url(#linearGradient-1)" x="0" y="73" width="640" height="407" rx="11"></rect>
                <g id="编组-19" transform="translate(153.4725, 0)">
                    <polyline id="路径-19" stroke="#373739" points="-7.63079762e-13 72.7221085 34.0650831 45.2903226 220.084182 45.6447116"></polyline>
                    <polyline id="路径-20" stroke="#373739" points="121.547802 45.6447116 160.005852 7.18666098 181.337527 7.18666098"></polyline>
                    <circle id="椭圆形" fill="#979797" cx="187.100081" cy="6.70967742" r="6.70967742"></circle>
                    <circle id="椭圆形备份-8" fill="#979797" cx="224.003307" cy="45.2903226" r="6.70967742"></circle>
                    <rect id="矩形" fill="#979797" x="106.583952" y="40.2580645" width="36.9032258" height="8.38709677"></rect>
                </g>
                <rect id="矩形" stroke="#979797" stroke-width="0.644736842" fill="#000000" x="0.322368421" y="276.322368" width="361.355263" height="47.3552632" rx="23.6776316"></rect>
                <path d="M618.485482,215.402397 L618.485482,366.693205 L595.692673,345.781707 L404.313068,345.781707 L404.313068,215.402397 L618.485482,215.402397 Z" id="矩形" stroke="#979797" fill="#25262D" opacity="0.308919271" transform="translate(511.3993, 291.3664) scale(-1, 1) translate(-511.3993, -291.3664)"></path>
                <path d="M618.921016,128.330488 L618.921016,188.762171 L610.082785,180.653444 L532.58893,180.653444 L532.58893,128.330488 L618.921016,128.330488 Z" id="矩形备份-15" stroke="#979797" fill="#25262D" opacity="0.308919271"></path>
                <g id="search" transform="translate(12, 288)" fill="#03FEF6" fill-rule="nonzero">
                    <rect id="矩形" opacity="0" x="0" y="0" width="25" height="25"></rect>
                    <path d="M18.0655479,5.2846183 C21.6335537,8.78917665 21.7538449,14.3979309 18.426446,18.0449006 L22.3742616,21.9219828 C22.4137237,21.9606949 22.4358974,22.0132288 22.4358974,22.0680101 C22.4358974,22.1227914 22.4137237,22.1753253 22.3742616,22.2140374 L21.5573898,23.0163833 C21.5179769,23.0551437 21.4644919,23.0769231 21.4087188,23.0769231 C21.3529457,23.0769231 21.2994607,23.0551437 21.2600478,23.0163833 L17.2817715,19.1088501 C13.5692931,22.0293234 8.13427487,21.7996947 4.69286409,18.4195045 C0.999814535,14.792126 0.999814535,8.91146469 4.69286409,5.2846183 C8.38588901,1.65726399 14.3724983,1.65726399 18.0655232,5.2846183 L18.0655479,5.2846183 Z M5.80710255,6.37901881 C2.72974184,9.40165685 2.72974184,14.3024659 5.80710255,17.325104 C8.88443864,20.3472099 13.8739733,20.3472099 16.951334,17.325104 C20.0281776,14.3024659 20.0281776,9.40165685 16.951334,6.37901881 C13.8739979,3.35640495 8.88443864,3.35640495 5.80710255,6.37901881 Z" id="形状"></path>
                </g>
                <g id="kaiyuan" opacity="0.198195685" transform="translate(151, 150)" fill="#03FEF6" fill-rule="nonzero">
                    <path d="M31.6030806,104 L43.0153042,75.0379747 C35.9923974,71.0886076 30.7252173,63.628692 30.7252173,54.8523207 C30.7252173,42.1265823 41.2595775,31.5949367 53.988596,31.5949367 C66.7176146,31.5949367 77.2519748,42.1265823 77.2519748,54.8523207 C77.2519748,63.628692 72.4237264,71.0886076 64.9618879,75.0379747 L76.3741115,104 C94.8092418,95.2236287 107.977192,76.3544304 107.977192,54.8523207 C108.855055,24.5738397 84.2748816,0 54.4275277,0 C24.5801738,0 0,24.5738397 0,54.4135021 C0,76.3544304 12.7290186,95.2236287 31.6030806,104 Z" id="路径"></path>
                </g>
                <g id="编组-3" transform="translate(24.152, 180)">
                    <rect id="矩形" stroke="#979797" fill="#25262D" opacity="0.308919271" x="9.348036" y="0.5" width="35" height="20" rx="2"></rect>
                    <path d="M48.3744437,11.1836368 C49.1728996,11.2578201 49.8303423,11.5859551 50.2746998,12.074001 C50.7244377,12.5679564 50.9511475,13.2228768 50.8859194,13.9174022 L48.2713491,41.7563678 C48.2110307,42.398616 47.9113062,42.9651746 47.4653927,43.3711712 C47.0194793,43.7771678 46.4273768,44.0226024 45.7823023,44.0226024 L5.66672297,44.0226024 C5.02810478,44.0226024 4.44083263,43.7819131 3.99614288,43.3824847 C3.55145312,42.9830563 3.24934575,42.4248887 3.1810571,41.7899321 L0.817668094,19.8148393 C0.816566243,19.1037779 1.04444398,18.4998656 1.42994604,18.0706803 C1.81919742,17.6373208 2.3666786,17.3879307 2.97206842,17.3879307 L19.9865234,17.3879307 L25.5707086,11.1836368 Z" id="路径-21" stroke="#373739" fill="#25262D"></path>
                    <path d="M3.81514657,17.1136537 L3.81514657,14.1136537 C3.81514657,12.4567994 5.15829232,11.1136537 6.81514657,11.1136537 L8.81514657,11.1136537 L8.81514657,11.1136537" id="路径-22" stroke="#979797" opacity="0.308919271"></path>
                </g>
                <g id="编组-9" transform="translate(305, 137)" stroke="#25262D">
                    <path d="M16.4870951,0.5 L24.5,8.91692443 L24.5,31.5 L0.5,31.5 L0.5,0.5 L16.4870951,0.5 Z" id="矩形"></path>
                    <polyline id="路径-23" points="15 0 15 9 24 9"></polyline>
                </g>
                <line x1="111.764706" y1="110.35953" x2="639" y2="110" id="路径-24" stroke="#373739" fill="#25262D"></line>
            </g>
        </g>
    </g>
</svg>