<?xml version="1.0" encoding="UTF-8"?>
<svg width="20px" height="16px" viewBox="0 0 20 16" version="1.1" xmlns="http://www.w3.org/2000/svg" xmlns:xlink="http://www.w3.org/1999/xlink">
    <title>路径</title>
    <g id="官网3" stroke="none" stroke-width="1" fill="none" fill-rule="evenodd">
        <g id="coco-AI-eng-light" transform="translate(-1526, -10818)" fill="#333333" fill-rule="nonzero">
            <g id="twitter-filled" transform="translate(1524, 10814)">
                <path d="M22,5.90059172 C21.2645115,6.21301775 20.4641269,6.43786982 19.6397068,6.52544379 C20.490566,6.0260355 21.1371229,5.23786982 21.4423747,4.30059172 C20.6564115,4.76213018 19.7670953,5.10059172 18.8417258,5.27573964 C18.0918159,4.48757396 17.02704,4 15.8468934,4 C13.5755318,4 11.7488283,5.81301775 11.7488283,8.03786982 C11.7488283,8.35029586 11.7872852,8.66272189 11.8497777,8.96331361 C8.44874414,8.78816568 5.41545487,7.18816568 3.39887033,4.73846154 C3.04314385,5.33964497 2.84124504,6.0260355 2.84124504,6.77633136 C2.84124504,8.17751479 3.56471578,9.41301775 4.66794856,10.139645 C3.99495253,10.1136095 3.36041341,9.92662722 2.81480591,9.6260355 L2.81480591,9.67573964 C2.81480591,11.6378698 4.22329047,13.2639053 6.10046869,13.6378698 C5.75676,13.7254438 5.38901574,13.7751479 5.02127148,13.7751479 C4.75447663,13.7751479 4.50210311,13.7491124 4.24732604,13.7136095 C4.76649441,15.3136095 6.27833193,16.4757396 8.07859632,16.5136095 C6.67011177,17.6 4.90590073,18.2390533 2.99026559,18.2390533 C2.6465569,18.2390533 2.32928735,18.2272189 2,18.1893491 C3.81708929,19.3372781 5.97308016,20 8.29491648,20 C15.8324721,20 19.9569763,13.8508876 19.9569763,8.51360947 C19.9569763,8.33846154 19.9569763,8.16331361 19.9449585,7.98816568 C20.7429396,7.41301775 21.4423747,6.70059172 22,5.90059172 Z" id="路径"></path>
            </g>
        </g>
    </g>
</svg>